<svg xmlns="http://www.w3.org/2000/svg" viewBox="0 0 512 512">
	<path fill="#0071a6" d="M487.165,468.653c0,19.383-16.061,35.442-35.443,35.442H61.853c-19.382,0-35.442-16.06-35.442-35.442
		V114.228c0-19.382,16.061-35.442,35.442-35.442h35.442V52.203c0-24.367,19.937-44.303,44.304-44.303h17.721
		c24.367,0,44.304,19.936,44.304,44.303v26.582h106.327V52.203c0-24.367,19.938-44.303,44.305-44.303h17.721
		c24.368,0,44.304,19.936,44.304,44.303v26.582h35.441c19.383,0,35.443,16.06,35.443,35.442V468.653z M141.599,264.858v-79.745
		H61.853v79.745H141.599z M141.599,371.187v-88.607H61.853v88.607H141.599z M141.599,468.653v-79.746H61.853v79.746H141.599z
		 M168.181,52.203c0-4.708-4.153-8.861-8.861-8.861h-17.721c-4.708,0-8.86,4.153-8.86,8.861v79.746c0,4.708,4.153,8.861,8.86,8.861
		h17.721c4.708,0,8.861-4.153,8.861-8.861V52.203z M247.927,264.858v-79.745h-88.606v79.745H247.927z M247.927,371.187v-88.607
		h-88.606v88.607H247.927z M247.927,468.653v-79.746h-88.606v79.746H247.927z M354.256,264.858v-79.745h-88.607v79.745H354.256z
		 M354.256,371.187v-88.607h-88.607v88.607H354.256z M354.256,468.653v-79.746h-88.607v79.746H354.256z M380.837,52.203
		c0-4.708-4.153-8.861-8.86-8.861h-17.721c-4.708,0-8.86,4.153-8.86,8.861v79.746c0,4.708,4.152,8.861,8.86,8.861h17.721
		c4.707,0,8.86-4.153,8.86-8.861V52.203z M451.721,264.858v-79.745h-79.745v79.745H451.721z M451.721,371.187v-88.607h-79.745
		v88.607H451.721z M451.721,468.653v-79.746h-79.745v79.746H451.721z"/>

</svg>
