<svg xmlns="http://www.w3.org/2000/svg" viewBox="0 0 512 512">
<path fill="#0071a6" d="M307.159,14c-105.396,0-190.84,85.443-190.84,190.841c0,105.399,85.444,190.839,190.84,190.839
	C412.559,395.681,498,310.24,498,204.841C498,99.444,412.559,14,307.159,14z M407.28,104.721
	c50.364,50.363,53.869,127.342,15.91,181.327L225.952,88.811C279.978,50.83,356.945,54.386,407.28,104.721L407.28,104.721z
	 M207.04,304.963c-50.364-50.362-53.866-127.341-15.913-181.328l197.241,197.238C334.345,358.854,257.378,355.297,207.04,304.963z"
	/>
<g>
	<path fill="#0071a6" d="M454,409.244V454H58V58h44.764c16.012-20.835,35.226-39.08,56.907-54H58C28.177,4,4,28.177,4,58v396
		c0,29.824,24.177,54,54,54h396c29.824,0,54-24.176,54-54V352.335C493.08,374.018,474.836,393.232,454,409.244z"/>
</g>
</svg>
