<svg xmlns="http://www.w3.org/2000/svg" viewBox="0 0 512 512">
<path fill="#B8B8B8" d="M111.257,315.218c5.999,6.089,15.827,6.183,21.919,0.089l184.699-183.218
	c6.09-6.001,6.184-15.877,0.094-21.971L281.6,73.476c-6.09-6.093-15.875-6.139-21.969-0.185L122.607,209.343l-59.396-59.995
	c-6.044-6.092-15.874-6.092-21.921,0L4.598,185.715c-6.09,5.999-6.137,15.876-0.089,21.968L111.257,315.218z M490.665,371.135
	H21.335c-11.783,0-21.333,7.163-21.333,16v40c0,8.837,9.55,16,21.333,16h469.33c11.782,0,21.333-7.163,21.333-16v-40
	C511.998,378.298,502.447,371.135,490.665,371.135z M495.998,83.135h-92c-8.837,0-16,7.163-16,16v40c0,8.837,7.163,16,16,16h92
	c8.837,0,16-7.163,16-16v-40C511.998,90.298,504.835,83.135,495.998,83.135z M495.998,227.135h-162c-8.837,0-16,7.163-16,16v40
	c0,8.838,7.163,16,16,16h162c8.837,0,16-7.162,16-16v-40C511.998,234.298,504.835,227.135,495.998,227.135z"/>
</svg>
