<svg xmlns="http://www.w3.org/2000/svg" viewBox="0 0 730 512">
<path fill="#B8B8B8" d="M189.828,221.041l31.689-31.689c5.492-5.494,5.491-14.406,0-19.897l-57.113-57.111l57.107-57.111
	c5.494-5.495,5.494-14.403,0-19.897L189.826,3.648c-5.496-5.494-14.401-5.494-19.9-0.001L112.816,60.76L55.707,3.649
	c-5.496-5.496-14.404-5.494-19.898-0.001L4.12,35.336c-5.492,5.492-5.493,14.402,0.002,19.896l57.108,57.11L4.127,169.453
	c-5.495,5.495-5.495,14.402,0,19.897l31.685,31.688c5.493,5.494,14.4,5.495,19.897,0.001l57.11-57.111l57.108,57.113
	C175.425,226.536,184.332,226.532,189.828,221.041z M716.267,438.861H551.537L713.899,276.5c21.468-21.388,21.468-56.162,0-77.549
	L531.049,16.101c-21.388-21.468-56.081-21.468-77.55,0L160.938,308.662c-21.467,21.387-21.467,56.162,0,77.548l109.712,109.71
	c10.286,10.287,24.243,16.08,38.773,16.08h406.844c7.592,0,13.713-6.12,13.713-13.713v-45.713
	C729.979,444.98,723.856,438.861,716.267,438.861z M446.272,407.408H337.724l-75.7-75.698l117.944-118.012L510.009,343.74
	L446.272,407.408z"/>
</svg>
