<svg xmlns="http://www.w3.org/2000/svg" viewBox="0 0 512 512">
<path fill="#B8B8B8" d="M490.665,371.135H21.335c-11.783,0-21.333,7.163-21.333,16v40c0,8.837,9.55,16,21.333,16h469.33
	c11.782,0,21.333-7.163,21.333-16v-40C511.998,378.298,502.447,371.135,490.665,371.135z M69.891,191.059L4.709,256.246
	c-6.271,6.272-6.271,16.44,0,22.711l36.167,36.17c6.271,6.271,16.439,6.271,22.714,0l65.187-65.187l65.186,65.189
	c6.275,6.27,16.44,6.268,22.714,0l36.168-36.172c6.27-6.271,6.269-16.441,0.001-22.711l-65.191-65.187l65.185-65.187
	c6.271-6.271,6.271-16.44,0.001-22.71l-36.168-36.168c-6.274-6.271-16.439-6.271-22.715,0l-65.186,65.188L63.584,66.994
	c-6.273-6.271-16.44-6.27-22.713,0L4.703,103.163c-6.271,6.27-6.271,16.439,0,22.709L69.891,191.059z M495.998,227.135h-162
	c-8.837,0-16,7.163-16,16v40c0,8.837,7.163,16,16,16h162c8.837,0,16-7.163,16-16v-40
	C511.998,234.298,504.835,227.135,495.998,227.135z M495.998,83.135h-162c-8.837,0-16,7.163-16,16v40c0,8.837,7.163,16,16,16h162
	c8.837,0,16-7.163,16-16v-40C511.998,90.298,504.835,83.135,495.998,83.135z"/>
</svg>
