<svg xmlns="http://www.w3.org/2000/svg" viewBox="0 0 730 512">
<path fill="#B8B8B8" d="M716.267,438.861H551.537L713.899,276.5c21.468-21.388,21.468-56.162,0-77.549L531.049,16.101
	c-21.388-21.468-56.081-21.468-77.55,0L160.938,308.662c-21.467,21.387-21.467,56.162,0,77.548l109.712,109.71
	c10.286,10.287,24.243,16.08,38.773,16.08h406.844c7.592,0,13.713-6.12,13.713-13.713v-45.713
	C729.979,444.98,723.856,438.861,716.267,438.861z M446.273,407.408h-108.55l-75.7-75.698l117.944-118.012L510.009,343.74
	L446.273,407.408z M308.069,55.699c5.363-5.286,5.447-13.986,0.083-19.355L276.111,4.062c-5.363-5.368-13.983-5.408-19.354-0.163
	L136.045,123.757L83.719,70.903c-5.325-5.366-13.985-5.366-19.313,0.001l-32.324,32.037c-5.364,5.285-5.407,13.985-0.08,19.353
	l94.044,94.736c5.285,5.366,13.942,5.448,19.311,0.078L308.069,55.699z"/>
</svg>
