<svg xmlns="http://www.w3.org/2000/svg" viewBox="0 0 512 512">
<path fill="#0071a6" d="M452.095,195.5c-23.554,0-42.639,19.087-42.639,42.63h-8.521v-45.578c0-23.544-19.085-42.63-42.63-42.63
	c-23.543,0-42.633,19.087-42.633,42.63v25.578h-8.522V155.5c0-23.543-19.086-42.63-42.632-42.63
	c-23.542,0-42.628,19.087-42.628,42.63v42.63h-8.525V42.63c0-23.543-19.086-42.63-42.63-42.63s-42.63,19.087-42.63,42.63v260.474
	l-33.727-46.379c-13.847-19.041-40.509-23.25-59.551-9.404c-19.04,13.849-23.249,40.511-9.402,59.551l136.412,187.572
	C169.861,505.47,182.677,512,196.316,512h221.675c19.783,0,36.966-13.609,41.497-32.865l34.102-104.941
	c0.761-3.195,1.141-6.479,1.141-9.766V238.13C494.725,214.586,475.64,195.5,452.095,195.5z"/>
</svg>
