<svg xmlns="http://www.w3.org/2000/svg" viewBox="0 0 512 512">
<path fill="#E96C27" d="M8,256C8,119.033,119.033,8,256,8c136.969,0,248,111.033,248,248S392.969,504,256,504
	C119.033,504,8,392.967,8,256z M80.455,381.868C119.657,436.446,183.673,472,256,472s136.345-35.554,175.545-90.132
	c-3.141-26.99-22.666-49.648-49.538-56.366l-32.372-8.093C323.565,339.79,290.722,352,256,352c-34.722,0-67.563-12.21-93.634-34.591
	l-32.374,8.093C103.122,332.22,83.596,354.878,80.455,381.868z M144,208c0,61.855,50.146,112,112,112c61.856,0,112-50.145,112-112
	c0-61.856-50.144-112-112-112C194.144,96,144,146.144,144,208z"/>
</svg>
