<svg xmlns="http://www.w3.org/2000/svg" viewBox="0 0 512 512">
<path fill="#E98D27" d="M301.3,99.8c-4.8-4.7-12.399-4.7-17.1,0L21.6,362.4L0.4,483.9c-2.9,16.396,11.4,30.6,27.8,27.8l121.5-21.3
	L412.3,227.8c4.7-4.7,4.7-12.3,0-17L301.3,99.8z M136,460.3l-64.5,11.3l-31.1-31.1L51.7,376H88v48h48V460.3z M297.9,185.899
	l-154,154c-5.5,5.502-14.3,5.502-19.8,0.002s-5.5-14.301,0-19.801l154-154c5.5-5.5,14.301-5.5,19.801,0S303.4,180.399,297.9,185.899
	z"/>
<path fill="#DF3834" d="M497.9,74.2L437.8,14.1C419-4.6,388.6-4.6,369.9,14.1L323.8,60.2c-4.7,4.7-4.7,12.3,0,17l111,111
	c4.7,4.7,12.3,4.7,17,0l46.102-46.1C516.7,123.3,516.7,92.9,497.9,74.2z"/>
<g>
	<path fill="#646464" d="M2.797,470.16L0.4,483.9c-2.9,16.396,11.4,30.6,27.8,27.8l13.73-2.407L2.797,470.16z"/>
</g>
</svg>
