<svg xmlns="http://www.w3.org/2000/svg" viewBox="0 0 16 16">
<path fill="#4a6484" d="M7.845,10.766c-0.625,0-1.042,0.416-1.042,0.938c0,0.52,0.418,0.936,1.042,0.936
	c0.626,0,1.043-0.418,1.043-0.936C8.888,11.078,8.471,10.766,7.845,10.766z M7.951,3.362c-1.253,0-2.814,0.625-2.711,2.605h1.354
	c0-0.833,0.521-1.458,1.461-1.458c0.729,0,1.354,0.311,1.354,1.25c0,0.625-0.417,0.937-1.043,1.458
	C7.637,7.74,7.116,8.365,7.116,9.305v0.521h1.356V9.408c0-0.73,0.313-0.939,1.042-1.564c0.625-0.522,1.25-1.042,1.25-2.19
	C10.765,4.091,9.41,3.362,7.951,3.362z"/>
<path fill="#4a6484" d="M8,0C3.583,0,0,3.582,0,8s3.582,8,8,8c4.417,0,8-3.582,8-8S12.418,0,8,0z M8,14.5
	c-3.584,0-6.5-2.916-6.5-6.5S4.416,1.5,8,1.5s6.5,2.916,6.5,6.5S11.584,14.5,8,14.5z"/>
</svg>
