<svg xmlns="http://www.w3.org/2000/svg" viewBox="0 0 512 512">
<path fill="#0071a6" d="M118.268,204.84c0,104.32,84.57,188.889,188.891,188.889c104.322,0,188.892-84.569,188.892-188.889
	c0-104.321-84.569-188.891-188.892-188.891C202.838,15.95,118.268,100.519,118.268,204.84z M188.864,208.409l17.233-17.234
	c4.759-4.757,12.475-4.757,17.233,0l53.36,53.361l114.294-114.292c4.759-4.761,12.477-4.761,17.233,0l17.234,17.234
	c4.76,4.758,4.76,12.475,0,17.234L285.312,304.858c-4.761,4.758-12.477,4.758-17.236-0.002l-79.211-79.213
	C184.104,220.885,184.104,213.168,188.864,208.409z"/>
<path fill="#0071a6" d="M454,409.244V454H58V58h44.764c16.012-20.835,35.226-39.08,56.907-54H58C28.177,4,4,28.177,4,58v396
	c0,29.824,24.177,54,54,54h396c29.824,0,54-24.176,54-54V352.335C493.08,374.018,474.836,393.232,454,409.244z"/>
</svg>
