<svg xmlns="http://www.w3.org/2000/svg" viewBox="0 0 512 512">
<path fill="#75310C" d="M168,160h208c4.399,0,8-3.6,8-8v-32c0-4.4-3.601-8-8-8H168c-4.4,0-8,3.6-8,8v32C160,156.4,163.6,160,168,160
	z M480,384V16c0-8.8-7.2-16-16-16H112C67.8,0,32,35.8,32,80v352c0,44.2,35.8,80,80,80h352c8.8,0,16-7.2,16-16v-16
	c0-7.8-5.599-14.3-12.9-15.7c-4.198-13-4.198-51.6,0-64.6C474.5,398.2,480,391.8,480,384z M426,464H112c-17.7,0-32-14.3-32-32
	c0-17.6,14.399-32,32-32h314C423.3,417.3,423.3,446.7,426,464z M432,352H112c-11.4,0-22.2,2.4-32,6.7V80c0-17.7,14.3-32,32-32h320
	V352z M168,240h208c4.399,0,8-3.6,8-8v-32c0-4.4-3.601-8-8-8H168c-4.4,0-8,3.6-8,8v32C160,236.4,163.6,240,168,240z"/>
</svg>
