<svg xmlns="http://www.w3.org/2000/svg" viewBox="0 0 512 512">
<path fill="#75310C" d="M454,4H58C28.177,4,4,28.177,4,58v396c0,29.824,24.177,54,54,54h396c29.824,0,54-24.176,54-54V58
	C508,28.177,483.824,4,454,4z M454,454H58V58h396V454z M413.652,182.06L219.49,374.665c-5.293,5.25-13.84,5.217-19.091-0.076
	L98.27,271.634c-5.25-5.294-5.216-13.843,0.079-19.094l25.559-25.353c5.293-5.251,13.841-5.217,19.091,0.077l67.266,67.81
	l159.021-157.742c5.293-5.25,13.84-5.217,19.091,0.077l25.353,25.558C418.98,168.263,418.945,176.81,413.652,182.06L413.652,182.06z
	"/>
</svg>
