<svg xmlns="http://www.w3.org/2000/svg" viewBox="0 0 512 512">
<path fill="#B8B8B8" d="M369.777,199.111c0-78.578-82.755-142.223-184.889-142.223C82.755,56.889,0,120.533,0,199.111
	c0,30.489,12.533,58.578,33.778,81.777c-11.911,26.845-31.556,48.178-31.822,48.445C0,331.378-0.533,334.4,0.622,337.066
	c1.156,2.667,3.645,4.268,6.489,4.268c32.533,0,59.466-10.934,78.844-22.223c28.622,13.955,62.489,22.223,98.933,22.223
	C287.022,341.334,369.777,277.689,369.777,199.111z M478.223,394.666C499.467,371.556,512,343.378,512,312.889
	c0-59.466-47.556-110.4-114.934-131.644c0.8,5.867,1.156,11.822,1.156,17.867c0,94.133-95.734,170.666-213.334,170.666
	c-9.6,0-18.933-0.711-28.178-1.688c28,51.111,93.778,87.022,170.4,87.022c36.444,0,70.311-8.178,98.934-22.223
	c19.377,11.289,46.311,22.223,78.844,22.223c2.845,0,5.423-1.689,6.489-4.267c1.155-2.578,0.622-5.601-1.333-7.733
	C509.777,442.845,490.133,421.6,478.223,394.666z"/>
</svg>
