<svg xmlns="http://www.w3.org/2000/svg" viewBox="0 0 512 512">
<path fill="#B8B8B8" d="M163.427,216.329c-14.629,0-26.448,11.818-26.448,26.447c0,14.63,11.819,26.448,26.448,26.448
	c14.628,0,26.448-11.817,26.448-26.448C189.875,228.146,178.056,216.329,163.427,216.329z M255.994,216.329
	c-14.629,0-26.448,11.818-26.448,26.447c0,14.63,11.818,26.448,26.448,26.448c14.629,0,26.448-11.817,26.448-26.448
	C282.442,228.146,270.623,216.329,255.994,216.329z M348.562,216.329c-14.629,0-26.448,11.818-26.448,26.447
	c0,14.63,11.819,26.448,26.448,26.448c14.63,0,26.448-11.817,26.448-26.448C375.01,228.146,363.191,216.329,348.562,216.329z
	 M255.994,70.866c-116.866,0-211.583,76.946-211.583,171.91c0,39.341,16.448,75.376,43.722,104.386
	c-12.314,32.564-37.936,60.169-38.349,60.499c-5.455,5.785-6.942,14.216-3.802,21.488c3.141,7.274,10.331,11.985,18.266,11.985
	c50.829,0,90.914-21.24,114.965-38.268c23.886,7.521,49.672,11.819,76.781,11.819c116.866,0,211.582-76.946,211.582-171.911
	C467.576,147.812,372.86,70.866,255.994,70.866z M255.994,375.015c-22.067,0-43.887-3.388-64.797-10l-18.762-5.951l-16.116,11.405
	c-11.819,8.348-28.018,17.688-47.524,23.969c6.034-10,11.902-21.241,16.447-33.226l8.761-23.224l-17.026-18.017
	c-14.959-15.952-32.895-42.317-32.895-77.196c0-72.897,77.112-132.239,171.911-132.239s171.911,59.342,171.911,132.239
	S350.793,375.015,255.994,375.015z"/>
</svg>
