<svg xmlns="http://www.w3.org/2000/svg" viewBox="0 0 512 512">
<path fill="#0071a6" d="M216,0h80c13.301,0,24,10.7,24,24v168h87.7c17.8,0,26.7,21.5,14.101,34.1L269.7,378.3
	c-7.5,7.5-19.8,7.5-27.3,0L90.1,226.1C77.5,213.5,86.4,192,104.2,192H192V24C192,10.7,202.7,0,216,0z M512,376v112
	c0,13.3-10.699,24-24,24H24c-13.3,0-24-10.7-24-24V376c0-13.3,10.7-24,24-24h146.7l49,49c20.101,20.1,52.5,20.1,72.601,0l49-49H488
	C501.301,352,512,362.7,512,376z M388,464c0-11-9-20-20-20s-20,9-20,20s9,20,20,20S388,475,388,464z M452,464c0-11-9-20-20-20
	s-20,9-20,20s9,20,20,20S452,475,452,464z"/>
</svg>
