<svg xmlns="http://www.w3.org/2000/svg" viewBox="0 0 512 512">
<path fill="#0071a6" d="M497.9,142.1L451.8,188.2c-4.7,4.7-12.3,4.7-17,0l-111-111c-4.7-4.7-4.7-12.3,0-17L369.9,14.1
	C388.6-4.6,419-4.6,437.8,14.1L497.9,74.2C516.7,92.9,516.7,123.3,497.9,142.1z M284.2,99.8L21.6,362.4L0.4,483.9
	c-2.9,16.399,11.4,30.6,27.8,27.8l121.5-21.3L412.3,227.8c4.7-4.7,4.7-12.3,0-17l-111-111C296.5,95.1,288.9,95.1,284.2,99.8
	L284.2,99.8z M124.1,339.9c-5.5-5.5-5.5-14.301,0-19.801l154-154c5.5-5.5,14.301-5.5,19.801,0s5.5,14.3,0,19.8l-154,154
	C138.4,345.4,129.6,345.4,124.1,339.9L124.1,339.9z M88,424h48v36.3l-64.5,11.3l-31.1-31.1L51.7,376H88V424z"/>
</svg>
