<svg xmlns="http://www.w3.org/2000/svg" viewBox="0 0 512 512">
<path fill="#75310C" d="M67.108,188.891c0,104.32,84.57,188.889,188.892,188.889c104.322,0,188.892-84.568,188.892-188.889
	C444.892,84.57,360.323,0,256,0C151.679,0.001,67.108,84.57,67.108,188.891z M137.704,192.46l17.233-17.234
	c4.759-4.757,12.475-4.757,17.233,0l53.359,53.361l114.295-114.292c4.759-4.761,12.477-4.761,17.232,0l17.234,17.234
	c4.76,4.758,4.76,12.475,0,17.234L234.153,288.908c-4.762,4.759-12.478,4.759-17.236-0.002l-79.211-79.212
	C132.944,204.936,132.944,197.219,137.704,192.46z"/>
<path fill="#75310C" d="M101.99,414.547c-53.49,0-38.074,23.641-24.189,28.39s99.836,47.949,140.015,60.015s40.178,12.065,76.368,0
	s127.713-54.846,140.015-60.015s29.821-28.39-24.188-28.39H101.99z"/>
</svg>
