<svg xmlns="http://www.w3.org/2000/svg" viewBox="0 0 512 512">
<path fill="#B8B8B8" d="M15.999,132h352c8.837,0,16-7.163,16-16V76c0-8.837-7.163-16-16-16h-352c-8.837,0-16,7.163-16,16v40
	C-0.001,124.837,7.162,132,15.999,132z M15.999,292h222c8.837,0,16-7.163,16-16v-40c0-8.837-7.163-16-16-16h-222
	c-8.837,0-16,7.163-16,16v40C-0.001,284.837,7.162,292,15.999,292z M367.999,380h-352c-8.837,0-16,7.163-16,16v40
	c0,8.837,7.163,16,16,16h352c8.837,0,16-7.163,16-16v-40C383.999,387.163,376.836,380,367.999,380z M459.896,256l48.597-48.598
	c4.675-4.675,4.675-12.256,0-16.931l-26.964-26.964c-4.676-4.675-12.256-4.675-16.933,0l-48.598,48.598l-48.598-48.598
	c-4.677-4.675-12.256-4.675-16.933,0l-26.964,26.964c-4.675,4.675-4.675,12.256,0,16.931L372.103,256l-48.596,48.598
	c-4.675,4.676-4.675,12.256,0,16.932l26.964,26.965c4.675,4.675,12.256,4.675,16.933,0l48.598-48.598l48.598,48.598
	c4.677,4.675,12.257,4.675,16.933,0l26.964-26.965c4.675-4.676,4.675-12.256,0-16.932L459.896,256z"/>
</svg>
