<svg xmlns="http://www.w3.org/2000/svg" viewBox="0 0 512 512">
<path fill="#0071a6" d="M506.239,419.567c16.406,28.438-4.188,63.987-36.958,63.987H42.715c-32.833,0-53.332-35.604-36.957-63.987
	L219.043,49.766c16.415-28.453,57.53-28.401,73.916,0L506.239,419.567z M256,343.111c-22.582,0-40.889,18.307-40.889,40.889
	s18.307,40.889,40.889,40.889c22.583,0,40.891-18.307,40.891-40.889S278.584,343.111,256,343.111z M217.18,196.137l6.594,120.89
	c0.309,5.656,4.986,10.086,10.649,10.086h43.153c5.665,0,10.343-4.43,10.65-10.086l6.594-120.89
	c0.334-6.109-4.531-11.247-10.65-11.247h-56.34C221.711,184.89,216.847,190.027,217.18,196.137z"/>
</svg>
