<svg xmlns="http://www.w3.org/2000/svg" viewBox="0 0 512 512">
<path fill="#FFFFFF" d="M337.927,392.551l-60.462,60.468c-5.818,5.817-5.818,15.25,0,21.066l33.548,33.552
	c5.816,5.817,15.25,5.817,21.07,0l60.468-60.468l60.468,60.469c5.82,5.817,15.25,5.816,21.069,0l33.551-33.551
	c5.815-5.818,5.814-15.254,0-21.068l-60.472-60.468l60.467-60.469c5.816-5.816,5.816-15.25,0-21.066l-33.55-33.55
	c-5.82-5.817-15.25-5.817-21.071,0l-60.466,60.469l-60.47-60.469c-5.818-5.817-15.25-5.815-21.069,0l-33.549,33.552
	c-5.817,5.816-5.817,15.248,0,21.064L337.927,392.551z"/>
<path fill="#FFFFFF" d="M392.546,297.847l25.261-25.263c-13.7,3.403-28.415,5.704-43.812,6.712L392.546,297.847z"/>
<path fill="#FFFFFF" d="M476.901,246.859c6.422,2.077,12.311,5.648,17.223,10.558l8.52,8.52c6.052-9.585,9.355-19.931,9.355-30.722
	v-45.146C511.998,211.613,498.835,231.383,476.901,246.859z"/>
<path fill="#FFFFFF" d="M356.228,209.135c-28.839,0-55.834-4.522-78.996-12.396c22.48,13.234,38.514,29.739,47.087,48.116
	c8.877,0.559,17.237,3.791,24.146,9.311c2.573,0.073,5.16,0.116,7.766,0.116c86.025,0,155.771-40.212,155.771-89.816v-45.146
	C511.998,168.923,442.258,209.135,356.228,209.135z"/>
<path fill="#FFFFFF" d="M155.768,366.607c36.783,0,70.582-7.356,97.231-19.649c-5.353-7.339-8.25-16.149-8.25-25.408
	c0-11.551,4.499-22.41,12.667-30.578l33.546-33.549c3.745-3.742,8.057-6.703,12.735-8.825
	c-20.507-35.792-78.983-61.623-147.931-61.623c-86.029,0-155.77,40.212-155.77,89.815S69.739,366.607,155.768,366.607z"/>
<path fill="#FFFFFF" d="M244.755,463.552c0-6.462,1.41-12.707,4.081-18.386c-25.966,11.173-58.177,17.788-93.068,17.788
	c-86.029,0-155.77-40.212-155.77-89.815v45.146c0,49.604,69.74,89.814,155.77,89.814c36.66,0,70.356-7.306,96.964-19.525
	C247.557,481.314,244.755,472.65,244.755,463.552z"/>
<path fill="#FFFFFF" d="M155.768,437.356c60.203,0,112.424-19.698,138.354-48.522l-24.903-24.904
	c-28.41,17.407-68.726,28.279-113.451,28.279c-86.029,0-155.77-40.212-155.77-89.816v45.146
	C-0.002,397.143,69.739,437.356,155.768,437.356z"/>
<path fill="#FFFFFF" d="M200.817,170.517c14.866,2.386,29.115,5.955,42.407,10.617c-26.503-16.103-42.767-37.863-42.767-61.815
	l0.002,45.146C200.459,166.499,200.588,168.516,200.817,170.517z"/>
<ellipse fill="#FFFFFF" cx="356.228" cy="93.717" rx="155.771" ry="89.817"/>
</svg>
