<svg xmlns="http://www.w3.org/2000/svg" viewBox="0 0 512 512">
<path fill="#B8B8B8" d="M504,256c0,136.997-111.043,248-248,248S8,392.997,8,256C8,119.083,119.043,8,256,8S504,119.083,504,256z
	 M262.655,90c-54.497,0-89.255,22.957-116.549,63.758c-3.536,5.286-2.354,12.415,2.715,16.258l34.699,26.31
	c5.205,3.947,12.621,3.008,16.665-2.122c17.863-22.658,30.112-35.797,57.303-35.797c20.429,0,45.698,13.148,45.698,32.958
	c0,14.976-12.363,22.667-32.534,33.976C247.128,238.528,216,254.941,216,296v4c0,6.627,5.373,12,12,12h56c6.627,0,12-5.373,12-12
	v-1.333c0-28.462,83.187-29.647,83.187-106.667C379.186,133.998,319.021,90,262.655,90z M256,338c-25.364,0-46,20.635-46,46
	c0,25.364,20.636,46,46,46c25.365,0,46-20.636,46-46C302,358.635,281.365,338,256,338z"/>
</svg>
