<svg xmlns="http://www.w3.org/2000/svg" viewBox="0 0 512 512">
<path fill="#75310C" d="M304.083,405.907c4.686,4.686,4.686,12.284,0,16.971l-44.674,44.674
	c-59.264,59.263-155.693,59.267-214.962,0c-59.264-59.265-59.264-155.696,0-214.96l44.676-44.675c4.686-4.686,12.284-4.686,16.971,0
	l39.598,39.598c4.687,4.686,4.687,12.284,0,16.971l-44.675,44.674c-28.072,28.072-28.072,73.75,0,101.823
	c28.072,28.071,73.75,28.072,101.824,0l44.674-44.675c4.687-4.686,12.284-4.686,16.971,0L304.083,405.907z M247.515,145.691
	c4.687,4.686,12.284,4.686,16.971,0l44.674-44.674c28.072-28.075,73.75-28.073,101.824,0c28.072,28.073,28.072,73.75,0,101.823
	l-44.675,44.674c-4.686,4.686-4.686,12.284,0,16.97l39.598,39.599c4.687,4.687,12.284,4.687,16.972,0l44.675-44.675
	c59.265-59.265,59.265-155.695,0-214.96c-59.267-59.264-155.695-59.264-214.961,0l-44.674,44.674
	c-4.687,4.686-4.687,12.284,0,16.971L247.515,145.691L247.515,145.691z M482.343,504.971l22.627-22.627
	c9.373-9.373,9.373-24.568,0-33.94L63.598,7.029c-9.373-9.373-24.569-9.373-33.94,0L7.029,29.657
	c-9.373,9.373-9.373,24.569,0,33.941l441.373,441.373C457.775,514.343,472.971,514.343,482.343,504.971L482.343,504.971z"/>
</svg>
