<svg xmlns="http://www.w3.org/2000/svg" viewBox="0 0 512 512">
<path fill="#0071a6" d="M296,384h-80c-13.3,0-24-10.7-24-24V192h-87.7c-17.8,0-26.7-21.5-14.1-34.1L242.3,5.7
	c7.5-7.5,19.8-7.5,27.3,0l152.2,152.2c12.601,12.6,3.7,34.1-14.1,34.1H320v168C320,373.3,309.3,384,296,384z M512,376v112
	c0,13.3-10.7,24-24,24H24c-13.3,0-24-10.7-24-24V376c0-13.3,10.7-24,24-24h136v8c0,30.9,25.1,56,56,56h80c30.9,0,56-25.1,56-56v-8
	h136C501.3,352,512,362.7,512,376z M388,464c0-11-9-20-20-20s-20,9-20,20s9,20,20,20S388,475,388,464z M452,464c0-11-9-20-20-20
	s-20,9-20,20s9,20,20,20S452,475,452,464z"/>
</svg>
