<svg xmlns="http://www.w3.org/2000/svg" viewBox="0 0 512 512">
<path fill="#4a6484" d="M256,8C119.033,8,8,119.033,8,256s111.033,248,248,248c136.969,0,248-111.033,248-248S392.969,8,256,8z
	 M314.174,403.938c-0.429,1.458-1.723,3.322-3.036,3.761c-15.679,5.23-31.172,11.46-47.253,14.912
	c-13.919,2.987-28.362,1.754-41.893-4.396c-16.893-7.677-26.282-24.703-24.848-43.213c1.707-22.033,9.016-42.646,14.436-63.768
	c4.644-18.102,8.756-36.348,12.65-54.627c0.822-3.857,1.327-9.621-0.301-13.504c-1.516-3.616-5.594-8.474-11.75-9.865
	c-9.429-2.131-18.638-1.169-27.745,1.677c-2.923,0.914-5.828,1.888-9.603,3.115c1.448-5.99,2.62-11.248,4.047-16.435
	c0.315-1.145,1.325-2.579,2.36-2.974c19.665-7.486,39.042-16.146,60.67-16.262c11.257-0.06,22.354,1.352,32.172,7.201
	c14.766,8.795,20.898,22.142,20.626,39.307c-0.333,21.087-7.522,40.541-12.799,60.481c-4.289,16.206-8.945,32.332-12.542,48.691
	c-1.556,7.085-2.505,14.834-1.027,22.014c1.612,7.839,5.661,11.419,12.914,12.992c9.484,2.056,18.639,0.894,27.711-2.033
	c2.733-0.881,5.478-1.728,9.094-2.866C316.62,394.146,315.596,399.101,314.174,403.938z M280.957,166.456
	c-19.797-0.051-36.932-12.853-40.726-30.429c-4.728-21.899,9.88-42.278,33.439-46.647c25.704-4.769,49.532,14.89,48.826,40.283
	C321.928,149.995,303.281,166.514,280.957,166.456z"/>
</svg>
