<svg xmlns="http://www.w3.org/2000/svg" viewBox="0 0 512 512">
<path fill="#4a6484" d="M316,352h40c6.6,0,12-5.4,12-12V204c0-6.6-5.4-12-12-12h-40c-6.602,0-12,5.4-12,12v136
	C304,346.6,309.399,352,316,352z M220,352h40c6.6,0,12-5.4,12-12V140c0-6.6-5.4-12-12-12h-40c-6.602,0-12,5.4-12,12v200
	C208,346.6,213.399,352,220,352z M412,352h40c6.6,0,12-5.4,12-12V108c0-6.6-5.4-12-12-12h-40c-6.602,0-12,5.4-12,12v232
	C400,346.6,405.399,352,412,352z M500,384H64V76c0-6.6-5.4-12-12-12H12C5.4,64,0,69.4,0,76v360c0,6.6,5.398,12,12,12h488
	c6.6,0,12-5.4,12-12v-40C512,389.4,506.6,384,500,384z M124,352h40c6.6,0,12-5.4,12-12v-72c0-6.6-5.4-12-12-12h-40
	c-6.602,0-12,5.4-12,12v72C112,346.6,117.399,352,124,352z"/>
</svg>
