<svg xmlns="http://www.w3.org/2000/svg" viewBox="0 0 512 512">
<g>
	<path fill="#FFF" d="M231.19,404.585c4.263,4.339,9.983,6.728,16.109,6.728c6.042,0,11.707-2.332,15.95-6.566l5.791-5.778
		c-0.132-0.089-0.264-0.179-0.394-0.271c-6.021-4.192-11.713-8.952-16.932-14.158c-5.4-5.396-10.249-11.194-14.514-17.324
		l-5.42,5.409C222.873,381.514,222.609,395.852,231.19,404.585z"/>
	<path fill="#FFF" d="M122,388.899c0-33.469,13.029-64.902,36.685-88.508l24.497-24.45c6.727-6.713,15.631-10.409,25.073-10.409
		c3.514,0,6.908,0.5,10.112,1.435c5.247-22.099,16.466-42.393,32.84-58.91c0.174-0.181,0.31-0.318,0.39-0.397l0.063-0.064
		l0.064-0.064l44.363-44.275c1.059-1.057,2.14-2.085,3.229-3.099h-49.574c-13.211,0-24.023-10.811-24.023-24.023V0H25.524
		C12.211,0,1.5,10.71,1.5,24.023v464.453c0,13.313,10.71,24.023,24.023,24.023h202.274c-26.084-4.034-50.125-16.14-69.111-35.09
		C135.029,453.803,122,422.369,122,388.899z M55.5,114.78c0-5.215,4.243-9.458,9.458-9.458h89.587c5.215,0,9.458,4.243,9.458,9.458
		v17.917c0,5.216-4.243,9.459-9.458,9.459H64.959c-5.215,0-9.458-4.243-9.458-9.459V114.78z M55.5,204.367v-17.917
		c0-5.216,4.243-9.459,9.458-9.459h89.587c5.215,0,9.458,4.243,9.458,9.459v17.917c0,5.215-4.243,9.458-9.458,9.458H64.959
		C59.743,213.825,55.5,209.582,55.5,204.367z"/>
	<path fill="#FFF" d="M380.238,433.171l-44.324,44.238c-18.988,18.951-43.029,31.057-69.113,35.091h95.052
		c13.314,0,24.023-10.711,24.023-24.023v-61.324c-1.638,1.857-3.324,3.683-5.082,5.456
		C380.585,432.823,380.399,433.011,380.238,433.171z"/>
	<path fill="#FFF" d="M384.7,126.666c0.393,0,0.783,0.011,1.175,0.014v-4.661c0-6.306-2.502-12.412-7.007-16.917L280.873,7.007
		C276.369,2.502,270.262,0,263.857,0h-6.106v128.125h107.702C371.764,127.162,378.194,126.666,384.7,126.666z"/>
	<path fill="#FFF" d="M385.875,262.123v-32.714c-0.392-0.02-0.78-0.058-1.176-0.058c-6.042,0-11.706,2.332-15.949,6.566
		l-5.79,5.778c0.135,0.091,0.269,0.183,0.402,0.276c6.025,4.2,11.716,8.958,16.922,14.154
		C382.229,258.067,384.075,260.08,385.875,262.123z"/>
</g>
<path fill="#FFF" d="M363.513,272.472c39.908,39.95,39.36,104.001,0.24,143.339c-0.073,0.08-0.161,0.167-0.24,0.248
	l-44.888,44.887c-39.591,39.591-104.002,39.586-143.586,0c-39.591-39.584-39.591-104.003,0-143.587l24.785-24.785
	c6.573-6.573,17.893-2.204,18.231,7.084c0.434,11.839,2.556,23.731,6.473,35.217c1.326,3.889,0.378,8.189-2.527,11.096l-8.742,8.742
	c-18.721,18.72-19.308,49.202-0.771,68.106c18.719,19.089,49.487,19.202,68.35,0.34l44.888-44.881
	c18.831-18.831,18.752-49.267,0-68.02c-2.473-2.467-4.962-4.384-6.907-5.724c-2.79-1.916-4.511-5.038-4.64-8.421
	c-0.267-7.059,2.234-14.332,7.813-19.909l14.063-14.063c3.688-3.688,9.474-4.141,13.75-1.156
	C354.701,264.403,359.289,268.247,363.513,272.472L363.513,272.472z M457.654,178.326c-39.585-39.585-103.997-39.591-143.588,0
	l-44.888,44.888c-0.079,0.08-0.166,0.167-0.24,0.247c-39.119,39.338-39.668,103.389,0.24,143.34
	c4.225,4.223,8.812,8.066,13.708,11.486c4.276,2.984,10.063,2.53,13.75-1.157l14.063-14.063c5.577-5.577,8.078-12.851,7.813-19.909
	c-0.13-3.382-1.851-6.505-4.64-8.42c-1.946-1.34-4.437-3.257-6.908-5.725c-18.752-18.752-18.831-49.188,0-68.019l44.888-44.881
	c18.862-18.863,49.63-18.749,68.35,0.34c18.536,18.904,17.95,49.386-0.771,68.106l-8.741,8.742
	c-2.905,2.905-3.854,7.207-2.527,11.095c3.917,11.486,6.04,23.379,6.473,35.217c0.34,9.289,11.659,13.657,18.232,7.084
	l24.785-24.784C497.243,282.329,497.243,217.91,457.654,178.326L457.654,178.326z"/>
</svg>
