<svg xmlns="http://www.w3.org/2000/svg" viewBox="0 0 512 512">
<path fill="#4a6484" d="M288,136V0H88C74.7,0,64,10.7,64,24v464c0,13.3,10.7,24,24,24h336c13.302,0,24-10.7,24-24V160H312
	C298.802,160,288,149.2,288,136z M352,372c0,6.6-5.399,12-12,12H172c-6.6,0-12-5.4-12-12v-8c0-6.6,5.4-12,12-12h168
	c6.601,0,12,5.4,12,12V372z M352,308c0,6.6-5.399,12-12,12H172c-6.6,0-12-5.4-12-12v-8c0-6.6,5.4-12,12-12h168c6.601,0,12,5.4,12,12
	V308z M352,236v8c0,6.6-5.399,12-12,12H172c-6.6,0-12-5.4-12-12v-8c0-6.6,5.4-12,12-12h168C346.6,224,352,229.4,352,236z M448,121.9
	v6.1H320V0h6.101c6.399,0,12.5,2.5,17,7L441,105C445.5,109.5,448,115.6,448,121.9z"/>
</svg>
