<svg xmlns="http://www.w3.org/2000/svg" viewBox="0 0 512 512">
<path fill="#ffffff" d="M440.971,104.97L343.03,7.029C338.529,2.529,332.424,0,326.059,0H320v128h128v-6.059
	C447.995,115.576,445.471,109.471,440.971,104.97z"/>
<path fill="#ffffff" d="M312,160c-13.2,0-24-10.8-24-24V0H88C74.745,0,64,10.745,64,24v464c0,13.255,10.745,24,24,24h336
	c13.255,0,24-10.745,24-24V160H312z M121.167,105.783c0-6.6,5.397-12,12-12h84.752c6.6,0,12,5.4,12,12v8c0,6.6-5.399,12-12,12
	h-84.752c-6.603,0-12-5.4-12-12V105.783z M121.167,177.783v-8c0-6.6,5.397-12,12-12h84.752c6.6,0,12,5.4,12,12v8
	c0,6.6-5.399,12-12,12h-84.752C126.567,189.783,121.167,184.383,121.167,177.783z M377.228,286.702L234.275,428.507
	c-4.705,4.668-12.303,4.637-16.97-0.063l-82.601-83.271c-4.668-4.705-4.642-12.303,0.063-16.97l28.397-28.171
	c4.705-4.67,12.304-4.639,16.971,0.066l45.98,46.354l106.032-105.184c4.709-4.668,12.309-4.637,16.977,0.068l28.169,28.396
	C381.964,274.438,381.933,282.035,377.228,286.702z"/>
</svg>
