<svg xmlns="http://www.w3.org/2000/svg" viewBox="0 0 512 512">
<path fill="#FFFFFF" d="M255.327,68.332c-3.508-10.333-13.211-17.281-24.123-17.281h-68.985c-10.911,0-20.61,6.948-24.122,17.281
	L16.106,427.271c-5.617,16.525,6.672,33.678,24.125,33.678h48.42c11.371,0,21.361-7.529,24.494-18.455l19.356-67.537h127.842
	l19.852,67.684c3.185,10.857,13.14,18.309,24.45,18.309h48.544c17.455,0,29.741-17.152,24.126-33.678L255.327,68.332z
	 M156.009,294.695l23.506-79.685c7.454-25.8,16.624-70.512,16.624-70.512h1.147c0,0,9.171,44.716,16.624,70.512l22.93,79.685
	H156.009z M491.665,242.208l-87.104-88.442c-7.472-7.586-13.584-5.081-13.584,5.566v193.336c0,10.646,6.112,13.152,13.584,5.566
	l87.104-88.441C499.137,262.207,499.137,249.794,491.665,242.208z"/>
</svg>
