<svg xmlns="http://www.w3.org/2000/svg" viewBox="0 0 512 512">
<path fill="#4a6484" d="M324.405,187.598c57.88,57.94,57.086,150.832,0.35,207.886c-0.107,0.113-0.233,0.242-0.35,0.355l-65.1,65.1
	c-57.417,57.419-150.833,57.411-208.242,0c-57.417-57.407-57.417-150.835,0-208.243L87.01,216.75
	c9.532-9.532,25.949-3.197,26.441,10.274c0.625,17.168,3.707,34.417,9.385,51.077c1.924,5.637,0.549,11.879-3.661,16.089
	l-12.682,12.679c-27.147,27.15-27.999,71.358-1.116,98.774c27.145,27.686,71.771,27.851,99.127,0.496l65.097-65.09
	c27.311-27.311,27.195-71.452,0-98.648c-3.585-3.579-7.197-6.359-10.018-8.301c-4.046-2.779-6.542-7.306-6.73-12.212
	c-0.383-10.237,3.247-20.786,11.333-28.875l20.396-20.397c5.349-5.349,13.742-6.005,19.94-1.677
	C311.627,175.896,318.28,181.471,324.405,187.598L324.405,187.598z M460.939,51.061c-57.412-57.41-150.825-57.419-208.246,0
	l-65.096,65.1c-0.116,0.116-0.242,0.242-0.349,0.358c-56.736,57.052-57.531,149.942,0.349,207.885
	c6.122,6.122,12.775,11.696,19.879,16.655c6.202,4.332,14.594,3.671,19.94-1.675l20.396-20.398
	c8.092-8.09,11.719-18.636,11.333-28.876c-0.186-4.905-2.683-9.433-6.73-12.21c-2.817-1.943-6.432-4.723-10.018-8.3
	c-27.193-27.197-27.307-71.339,0-98.649l65.1-65.089c27.356-27.357,71.978-27.192,99.127,0.494
	c26.883,27.416,26.032,71.624-1.119,98.774l-12.678,12.678c-4.214,4.214-5.588,10.453-3.665,16.093
	c5.681,16.657,8.763,33.905,9.388,51.074c0.493,13.47,16.908,19.805,26.441,10.272l35.946-35.944
	C518.354,201.894,518.354,108.467,460.939,51.061z"/>
</svg>
