<svg xmlns="http://www.w3.org/2000/svg" viewBox="0 0 512 512">
<path fill="#4a6484" d="M504,255.531c0.254,136.64-111.18,248.372-247.819,248.468c-59.016,0.042-113.224-20.53-155.822-54.911
	c-11.077-8.939-11.905-25.541-1.839-35.606l11.267-11.268c8.609-8.608,22.354-9.551,31.891-1.983
	C173.062,425.135,212.781,440,256,440c101.705,0,184-82.311,184-184c0-101.705-82.311-184-184-184
	c-48.813,0-93.148,18.969-126.067,49.932l50.754,50.754c10.08,10.08,2.94,27.314-11.313,27.314H24c-8.837,0-16-7.163-16-16V38.627
	c0-14.254,17.234-21.393,27.314-11.314l49.372,49.372C129.209,34.136,189.552,8,256,8C392.81,8,503.747,118.78,504,255.531z"/>
<path fill="#4a6484" d="M256.001,291.736c-64.063,0-116.826-27.875-123.82-63.736h-0.796v28c0,39.683,55.792,71.853,124.616,71.853
	c68.821,0,124.614-32.172,124.614-71.853v-36.118C380.613,259.566,324.822,291.736,256.001,291.736z M380.615,191.883
	c0-39.684-55.791-71.854-124.614-71.854c-27.815,0-53.5,5.256-74.235,14.138l18.719,18.719
	c12.629,12.629,16.373,31.451,9.539,47.951c-6.835,16.5-22.791,27.162-40.651,27.162h-21.117
	c21.594,21.371,61.758,35.736,107.745,35.736C324.824,263.736,380.615,231.566,380.615,191.883z M256.001,355.854
	c-68.824,0-124.616-32.17-124.616-71.852v36.117c0,39.682,55.792,71.852,124.616,71.852c68.821,0,124.614-32.17,124.614-71.852
	v-36.117C380.613,323.684,324.822,355.854,256.001,355.854z"/>
</svg>
