<svg xmlns="http://www.w3.org/2000/svg" viewBox="0 0 512 512">
<path fill="#FFFFFF" d="M155.77,462.954C69.74,462.954,0,422.742,0,373.139v45.146C0,467.889,69.74,508.1,155.77,508.1
	c86.028,0,155.77-40.211,155.77-89.814v-45.146C311.538,422.742,241.798,462.954,155.77,462.954z M155.77,392.209
	C69.74,392.209,0,351.997,0,302.393v45.146c0,49.604,69.74,89.817,155.77,89.817c86.028,0,155.77-40.214,155.77-89.817v-45.146
	C311.538,351.997,241.798,392.209,155.77,392.209z M356.23,183.534c86.029,0,155.771-40.212,155.771-89.817
	C512,44.112,442.26,3.9,356.23,3.9c-86.029,0-155.77,40.212-155.77,89.817C200.46,143.322,270.201,183.534,356.23,183.534z
	 M200.461,164.464c0,2.035,0.129,4.051,0.359,6.052c14.866,2.386,29.115,5.955,42.407,10.618
	c-26.503-16.103-42.767-37.864-42.767-61.816V164.464z M155.77,186.975C69.74,186.975,0,227.188,0,276.792
	c0,49.604,69.74,89.815,155.77,89.815c86.028,0,155.77-40.213,155.77-89.815C311.539,227.188,241.799,186.975,155.77,186.975z
	 M356.23,279.881c-8.403,0-16.648-0.389-24.691-1.127v45.145c8.043,0.74,16.288,1.129,24.691,1.129
	c86.028,0,155.771-40.213,155.771-89.816v-45.146C512,239.669,442.26,279.881,356.23,279.881z M356.23,209.135
	c-28.836,0-55.834-4.523-78.996-12.397c25.656,15.104,42.917,34.468,50.271,56.013c9.313,1.001,18.908,1.53,28.725,1.53
	c86.028,0,155.771-40.212,155.771-89.816v-45.146C512,168.923,442.26,209.135,356.23,209.135z M356.23,350.626
	c-8.403,0-16.648-0.39-24.691-1.128v45.146c8.043,0.737,16.288,1.127,24.691,1.127c86.028,0,155.771-40.211,155.771-89.816v-45.145
	C512,310.414,442.26,350.626,356.23,350.626z"/>
</svg>
