<svg xmlns="http://www.w3.org/2000/svg" viewBox="0 0 512 512">
<path fill="#4a6484" d="M311.537,347.54v-45.147c0,13.364-5.067,26.045-14.146,37.441l13.771,13.895
	C311.405,351.682,311.537,349.621,311.537,347.54z"/>
<path fill="#4a6484" d="M155.769,462.954C69.74,462.954,0,422.742,0,373.139v45.146C0,467.889,69.74,508.1,155.77,508.1
	c37.922,0,72.674-7.814,99.688-20.804l-32.762-33.036C202.42,459.832,179.728,462.954,155.769,462.954z"/>
<path fill="#4a6484" d="M155.77,366.607c15.753,0,30.957-1.354,45.289-3.861l29.634-29.428c7.977-7.976,18.677-12.404,30.063-12.404
	c8.376,0,16.386,2.398,23.265,6.855c17.353-14.482,27.521-32.045,27.521-50.979c0-49.604-69.739-89.817-155.771-89.817
	C69.741,186.974,0,227.188,0,276.792C0,326.396,69.74,366.607,155.77,366.607z"/>
<path fill="#4a6484" d="M155.77,437.356c16.081,0,31.592-1.406,46.188-4.017l-5.607-5.655c-8.102-8.132-12.51-18.933-12.416-30.424
	c0.02-2.226,0.212-4.424,0.563-6.584c-9.313,1.001-18.91,1.53-28.726,1.53C69.74,392.209,0,351.997,0,302.393v45.146
	C0,397.143,69.74,437.356,155.77,437.356z"/>
<path fill="#4a6484" d="M200.46,164.464L200.46,164.464c0.001,2.035,0.13,4.051,0.358,6.052
	c14.866,2.386,29.115,5.955,42.407,10.618c-26.503-16.103-42.767-37.864-42.767-61.816L200.46,164.464L200.46,164.464z"/>
<ellipse fill="#4a6484" cx="356.23" cy="93.717" rx="155.771" ry="89.817"/>
<path fill="#4a6484" d="M470.63,251.015c8.81,1.436,16.937,5.572,23.384,12.019l6.304,6.349C507.841,258.848,512,247.31,512,235.211
	v-45.146C512,213.592,496.305,235.002,470.63,251.015z"/>
<path fill="#4a6484" d="M512,281.146v-20.336c0,5.948-1.015,11.762-2.929,17.389L512,281.146z"/>
<path fill="#4a6484" d="M356.229,209.135c-28.836,0-55.834-4.523-78.996-12.396c25.656,15.104,42.917,34.468,50.271,56.013
	c9.313,1.001,18.906,1.53,28.725,1.53c86.028,0,155.771-40.212,155.771-89.816V119.32C512,168.923,442.26,209.135,356.229,209.135z"
	/>
<path fill="#4a6484" d="M371.361,324.605l54.631-54.221c-20.987,6.072-44.68,9.495-69.762,9.495c-8.403,0-16.648-0.389-24.691-1.127
	v45.146c8.043,0.74,16.288,1.129,24.691,1.129C361.335,325.027,366.381,324.882,371.361,324.605z"/>
<path fill="#4a6484" d="M331.536,364.126l13.835-13.731c-4.669-0.187-9.285-0.479-13.835-0.896V364.126z"/>
<path fill="#4a6484" d="M473.972,283.079c-5.645-5.642-14.769-5.761-20.409-0.12L326.302,409.26l-55.226-55.707
	c-5.646-5.643-14.77-5.762-20.41-0.119l-34.098,33.857c-5.644,5.643-5.765,14.767-0.121,20.409l99.167,100.006
	c5.644,5.646,14.769,5.765,20.41,0.12l171.68-170.238c5.646-5.645,5.767-14.648,0.121-20.412L473.972,283.079z"/>
</svg>
