<svg xmlns="http://www.w3.org/2000/svg" viewBox="0 0 512 512">
<path fill="#4a6484" d="M433.111,220.955c-19.981-4.853-40.024-2.694-57.543,4.894l-99.849-95.25
	c1.292-3.438,2.395-6.989,3.282-10.649c11.854-48.809-18.104-97.984-66.914-109.838C163.28-1.742,114.104,28.218,102.252,77.026
	c-8.88,36.569,5.71,73.343,34.113,94.473l-27.961,115.136c-45.111,4.205-84.623,36.439-95.913,82.933
	c-14.225,58.568,21.726,117.582,80.297,131.806c58.571,14.223,117.581-21.727,131.805-80.296c1.684-6.935,2.655-13.873,2.979-20.744
	l113.727-33.364c12.088,14.777,28.906,25.889,48.89,30.74c48.81,11.854,97.984-18.105,109.839-66.915
	C511.881,281.982,481.92,232.808,433.111,220.955z M323.275,287.869c-0.889,3.66-1.538,7.32-1.967,10.97l-113.736,33.366
	c-8.027-11.334-18.226-21.169-30.172-28.816l27.96-115.136c7.396-1.217,14.561-3.344,21.349-6.283l99.851,95.251
	C325.266,280.659,324.164,284.21,323.275,287.869z"/>
</svg>
