<svg xmlns="http://www.w3.org/2000/svg" viewBox="0 0 512 512">
<path fill="#4a6484" d="M441,105L343.1,7c-4.5-4.5-10.6-7-17-7H320v128h128v-6.1C448,115.6,445.5,109.5,441,105z M288,136V0H88
	C74.7,0,64,10.7,64,24v464c0,13.3,10.7,24,24,24h336c13.3,0,24-10.7,24-24V160H312C298.8,160,288,149.2,288,136z M192,435.2
	c0,6.399-6.4,12.8-12.8,12.8h-38.4c-6.4,0-12.8-6.4-12.8-12.8v-70.4c0-6.399,6.4-12.8,12.8-12.8h38.4c6.4,0,12.8,6.4,12.8,12.8
	V435.2z M288,435.2c0,6.399-6.4,12.8-12.8,12.8h-38.4c-6.399,0-12.8-6.4-12.8-12.8V236.8c0-6.4,6.4-12.8,12.8-12.8h38.4
	c6.399,0,12.8,6.4,12.8,12.8V435.2L288,435.2z M320,300.8c0-6.399,6.4-12.8,12.8-12.8h38.4c6.399,0,12.8,6.4,12.8,12.8v134.4
	c0,6.399-6.4,12.8-12.8,12.8h-38.4c-6.399,0-12.8-6.4-12.8-12.8V300.8L320,300.8z"/>
</svg>
