<svg xmlns="http://www.w3.org/2000/svg" viewBox="0 0 512 512">
<path fill="#FFFFFF" d="M473,356.75V31.25C473,18.366,462.635,8,449.75,8H132c-51.344,0-93,41.656-93,93v310
	c0,51.344,41.656,93,93,93h317.75c12.888,0,23.25-10.366,23.25-23.25v-15.5c0-7.266-3.391-13.854-8.618-18.116
	c-4.069-14.917-4.069-57.446,0-72.364C469.609,370.604,473,364.016,473,356.75z M163,137.813c0-3.197,2.616-5.813,5.813-5.813
	h205.375c3.198,0,5.813,2.616,5.813,5.813v19.375c0,3.197-2.612,5.813-5.813,5.813H168.812c-3.197,0-5.813-2.616-5.813-5.813
	L163,137.813L163,137.813z M163,199.813c0-3.197,2.616-5.813,5.813-5.813h205.375c3.198,0,5.813,2.616,5.813,5.813v19.375
	c0,3.197-2.612,5.813-5.813,5.813H168.812c-3.197,0-5.813-2.616-5.813-5.813L163,199.813L163,199.813z M408.481,442H132
	c-17.145,0-31-13.854-31-31c0-17.05,13.95-31,31-31h276.481C406.64,396.565,406.64,425.435,408.481,442z"/>
</svg>
