<svg xmlns="http://www.w3.org/2000/svg" viewBox="0 0 512 512">
<path fill="#4a6484" d="M469.333,56.889H42.666C19.112,56.889,0,76,0,99.556v312.889C0,436,19.112,455.111,42.666,455.111h426.667
	C492.889,455.111,512,436,512,412.444V99.556C512,76,492.889,56.889,469.333,56.889z M156.445,142.222
	c31.378,0,56.889,25.511,56.889,56.889c0,31.377-25.511,56.889-56.889,56.889s-56.889-25.511-56.889-56.889
	C99.556,167.733,125.067,142.222,156.445,142.222z M256,352.711c0,9.422-8.889,17.066-19.911,17.066H76.8
	c-11.022,0-19.911-7.645-19.911-17.066v-17.066c0-28.267,26.756-51.2,59.733-51.2h4.444c10.934,4.533,22.845,7.111,35.378,7.111
	s24.533-2.578,35.378-7.111h4.444c32.978,0,59.733,22.934,59.733,51.2V352.711z M455.111,305.777c0,3.912-3.2,7.111-7.11,7.111H320
	c-3.911,0-7.111-3.199-7.111-7.111v-14.222c0-3.911,3.2-7.111,7.111-7.111h128c3.91,0,7.11,3.2,7.11,7.111V305.777z
	 M455.111,248.889c0,3.911-3.2,7.111-7.11,7.111H320c-3.911,0-7.111-3.2-7.111-7.111v-14.222c0-3.911,3.2-7.111,7.111-7.111h128
	c3.91,0,7.11,3.2,7.11,7.111V248.889z M455.111,192c0,3.911-3.2,7.111-7.11,7.111H320c-3.911,0-7.111-3.2-7.111-7.111v-14.222
	c0-3.911,3.2-7.111,7.111-7.111h128c3.91,0,7.11,3.2,7.11,7.111V192z"/>
</svg>
