<svg xmlns="http://www.w3.org/2000/svg" viewBox="0 0 512 512">
<path fill="#4a6484" d="M388,0c-68.5,0-124,55.5-124,124s55.5,124,124,124s124-55.5,124-124S456.5,0,388,0z M322,144
	c-3.303,0-6-2.715-6-6v-28c0-3.304,2.697-6,6-6h132c3.285,0,6,2.696,6,6v28c0,3.285-2.715,6-6,6H322z"/>
<g>
	<path fill="#4a6484" d="M500,384H64V76c0-6.6-5.399-12-12-12H12C5.4,64,0,69.4,0,76v360c0,6.6,5.398,12,12,12h488
		c6.601,0,12-5.4,12-12v-40C512,389.4,506.6,384,500,384z"/>
	<path fill="#4a6484" d="M316,352h40c6.601,0,12-5.4,12-12v-63.298c-23.375-3.045-45.116-11.355-64-23.693V340
		C304,346.6,309.399,352,316,352z"/>
	<path fill="#4a6484" d="M412,352h40c6.601,0,12-5.4,12-12v-82.101c-19.157,10.917-40.869,17.845-64,19.636V340
		C400,346.6,405.399,352,412,352z"/>
	<path fill="#4a6484" d="M220,352h40c6.601,0,12-5.4,12-12V225.178c-22.833-26.145-36.997-60.046-37.948-97.178H220
		c-6.602,0-12,5.4-12,12v200C208,346.6,213.399,352,220,352z"/>
	<path fill="#4a6484" d="M124,352h40c6.601,0,12-5.4,12-12v-72c0-6.6-5.399-12-12-12h-40c-6.602,0-12,5.4-12,12v72
		C112,346.6,117.399,352,124,352z"/>
</g>
</svg>
