<svg xmlns="http://www.w3.org/2000/svg" viewBox="0 0 512 512">
<path fill="#FFFFFF" d="M444.788,291.1l42.616,24.601c4.867,2.809,7.126,8.618,5.459,13.983
	c-11.07,35.644-29.97,67.844-54.688,94.586c-3.812,4.125-9.969,5.062-14.832,2.256l-42.584-24.597
	c-17.917,15.353-38.517,27.263-60.761,35.13v49.184c0,5.618-3.895,10.486-9.377,11.718c-34.956,7.85-72.499,8.256-109.219,0.007
	c-5.49-1.231-9.403-6.096-9.403-11.723v-49.186c-22.242-7.867-42.842-19.776-60.759-35.13l-42.584,24.597
	c-4.863,2.806-11.021,1.869-14.832-2.256c-24.718-26.742-43.619-58.942-54.688-94.586c-1.667-5.364,0.592-11.175,5.459-13.983
	L67.212,291.1c-4.279-23.203-4.279-46.995,0-70.199l-42.614-24.599c-4.867-2.809-7.126-8.618-5.459-13.985
	c11.068-35.642,29.97-67.842,54.688-94.586c3.812-4.125,9.969-5.06,14.832-2.254l42.584,24.595
	c17.917-15.352,38.517-27.262,60.759-35.13V25.759c0-5.618,3.896-10.486,9.377-11.718c34.956-7.85,72.499-8.256,109.221-0.007
	C316.087,15.267,320,20.13,320,25.757v49.184c22.244,7.868,42.844,19.778,60.761,35.13l42.584-24.595
	c4.862-2.807,11.021-1.871,14.832,2.254c24.718,26.744,43.618,58.944,54.688,94.586c1.667,5.366-0.592,11.175-5.459,13.985
	L444.788,220.9C449.069,244.104,449.069,267.896,444.788,291.1z M336,256c0-44.112-35.888-80-80-80c-44.11,0-80,35.888-80,80
	c0,44.111,35.89,80,80,80C300.112,336,336,300.111,336,256z"/>
</svg>
