<svg xmlns="http://www.w3.org/2000/svg" viewBox="0 0 512 512">
<path fill="#4a6484" d="M444.788,291.1l42.616,24.6c4.867,2.809,7.126,8.618,5.459,13.984c-11.07,35.643-29.97,67.843-54.688,94.586
	c-3.811,4.125-9.969,5.061-14.832,2.255l-42.584-24.596c-17.917,15.352-38.516,27.262-60.76,35.13v49.183
	c0,5.618-3.895,10.486-9.377,11.718c-34.956,7.85-72.499,8.256-109.219,0.007c-5.49-1.232-9.403-6.096-9.403-11.723v-49.185
	c-22.243-7.868-42.842-19.777-60.759-35.13l-42.584,24.596c-4.863,2.806-11.021,1.87-14.832-2.255
	c-24.718-26.743-43.619-58.943-54.688-94.586c-1.667-5.365,0.592-11.175,5.459-13.984l42.616-24.6
	c-4.28-23.203-4.28-46.995,0-70.199l-42.615-24.599c-4.867-2.809-7.126-8.618-5.459-13.985
	c11.069-35.642,29.97-67.842,54.688-94.586c3.811-4.125,9.969-5.06,14.832-2.254l42.584,24.595
	c17.917-15.352,38.516-27.262,60.759-35.13V25.759c0-5.618,3.896-10.486,9.377-11.718c34.956-7.85,72.499-8.256,109.22-0.007
	C316.087,15.267,320,20.13,320,25.757v49.184c22.244,7.868,42.843,19.778,60.76,35.13l42.584-24.595
	c4.863-2.807,11.021-1.871,14.832,2.254c24.718,26.744,43.619,58.944,54.688,94.586c1.667,5.366-0.592,11.175-5.459,13.985
	L444.788,220.9C449.069,244.104,449.069,267.896,444.788,291.1z M336,256c0-44.112-35.888-80-80-80c-44.111,0-80,35.888-80,80
	c0,44.111,35.889,80,80,80C300.112,336,336,300.111,336,256z"/>
</svg>
