<svg xmlns="http://www.w3.org/2000/svg" viewBox="0 0 512 512">
<path fill="#FFFFFF" d="M433.769,312.7V456c0,13.3-9.512,24-21.336,24H309.312c-5.867,0-10.668-5.4-10.668-12V356
	c0-6.6-4.801-12-10.668-12h-64.007c-5.866,0-10.667,5.4-10.667,12v112c0,6.6-4.8,12-10.668,12H99.512
	c-11.822,0-21.335-10.7-21.335-24V312.7c0-3.604,1.424-7,3.911-9.3l167.129-154.8c3.911-3.6,9.601-3.6,13.601,0l167.129,154.8
	C432.345,305.7,433.769,309.1,433.769,312.7z M508.089,251.8l-74.318-68.9V44.4c0-6.6-4.801-12-10.668-12h-49.783
	c-5.867,0-10.668,5.4-10.668,12V117l-79.563-73.7c-15.731-14.6-38.493-14.6-54.228,0l-225,208.5c-4.535,4.2-5.156,11.8-1.424,16.9
	l22.67,31c3.732,5.1,10.49,5.8,15.022,1.6l209.089-193.7c3.911-3.6,9.601-3.6,13.601,0l209.088,193.7
	c4.535,4.2,11.291,3.5,15.023-1.6l22.67-31C513.332,263.5,512.621,256,508.089,251.8z"/>
</svg>
