<svg xmlns="http://www.w3.org/2000/svg" viewBox="0 0 512 512">
<g>
	<path fill="#4a6484" d="M497.84,311.313l-92.16-36c-3.278-1.28-10.08-2.961-17.76,0l-92.16,36
		c-8.56,3.358-14.16,11.199-14.16,19.92c0,89.278,54.96,151.04,106.32,171.119c7.68,2.961,14.4,1.28,17.76,0
		c41.04-16,106.32-71.521,106.32-171.119C512,322.511,506.4,314.671,497.84,311.313z M396.8,464.352V313.072l76.4,29.84
		C468.72,412.591,424.48,451.231,396.8,464.352z"/>
	<path fill="#4a6484" d="M239,104c-6.6,0-12,5.4-12,12v141.7l-66.8,48.6c-5.4,3.9-6.5,11.4-2.601,16.8L176.4,349
		c3.899,5.3,11.399,6.5,16.8,2.6L278.1,289.9c3.102-2.301,4.9-5.9,4.9-9.7V116c0-6.6-5.4-12-12-12H239z"/>
	<path fill="#4a6484" d="M294.947,456.976c-4.135-5.971-7.941-12.143-11.428-18.487c-9.07,1.366-18.355,2.079-27.807,2.079
		c-102.269,0-185.174-82.905-185.174-185.174c0-102.269,82.905-185.174,185.174-185.174c102.269,0,185.174,82.905,185.174,185.174
		c0,2.271-0.056,4.528-0.137,6.779l61.765,24.126c1.255-10.126,1.91-20.439,1.91-30.905c0-137.36-111.353-248.712-248.712-248.712
		S7,118.033,7,255.394s111.353,248.712,248.712,248.712c24.909,0,48.955-3.679,71.644-10.492
		C315.39,483.01,304.438,470.68,294.947,456.976z"/>
</g>
</svg>
