<svg xmlns="http://www.w3.org/2000/svg" viewBox="0 0 512 512">
<path fill="#FFFFFF" d="M324.405,187.598c57.88,57.94,57.086,150.832,0.35,207.886c-0.106,0.112-0.232,0.241-0.35,0.354
	l-65.1,65.101c-57.417,57.419-150.833,57.41-208.242,0c-57.417-57.407-57.417-150.836,0-208.243L87.01,216.75
	c9.531-9.532,25.948-3.197,26.44,10.274c0.625,17.168,3.707,34.417,9.385,51.078c1.925,5.637,0.55,11.879-3.66,16.088l-12.683,12.68
	c-27.146,27.149-27.999,71.357-1.116,98.773c27.146,27.687,71.771,27.852,99.127,0.496l65.098-65.09
	c27.311-27.311,27.194-71.451,0-98.648c-3.585-3.579-7.197-6.359-10.019-8.301c-4.046-2.779-6.542-7.306-6.729-12.212
	c-0.383-10.237,3.247-20.786,11.333-28.875l20.396-20.397c5.35-5.349,13.742-6.005,19.94-1.677
	C311.627,175.896,318.28,181.471,324.405,187.598L324.405,187.598z M460.939,51.061c-57.412-57.41-150.825-57.419-208.246,0
	l-65.096,65.1c-0.116,0.116-0.242,0.242-0.35,0.358c-56.735,57.052-57.53,149.942,0.35,207.885
	c6.122,6.122,12.774,11.695,19.879,16.654c6.202,4.332,14.594,3.672,19.939-1.675l20.396-20.397
	c8.092-8.09,11.719-18.637,11.333-28.877c-0.187-4.904-2.684-9.433-6.73-12.209c-2.816-1.943-6.432-4.724-10.018-8.301
	c-27.193-27.197-27.308-71.339,0-98.648l65.1-65.089c27.356-27.357,71.979-27.192,99.128,0.494
	c26.883,27.416,26.031,71.624-1.119,98.774l-12.679,12.678c-4.214,4.214-5.588,10.453-3.665,16.093
	c5.682,16.657,8.764,33.906,9.389,51.074c0.492,13.471,16.908,19.806,26.44,10.272l35.946-35.944
	C518.354,201.894,518.354,108.467,460.939,51.061z"/>
</svg>
