<svg xmlns="http://www.w3.org/2000/svg" viewBox="0 0 512 512">
<path fill="#4a6484" d="M168,116V76c0-8.837,7.163-16,16-16h292c8.837,0,16,7.163,16,16v40c0,8.837-7.163,16-16,16H184
	C175.163,132,168,124.837,168,116z M184,292h292c8.837,0,16-7.163,16-16v-40c0-8.837-7.163-16-16-16H184c-8.837,0-16,7.163-16,16v40
	C168,284.837,175.163,292,184,292z M184,452h292c8.837,0,16-7.163,16-16v-40c0-8.837-7.163-16-16-16H184c-8.837,0-16,7.163-16,16v40
	C168,444.837,175.163,452,184,452z M36,144h64c8.837,0,16-7.163,16-16V64c0-8.837-7.163-16-16-16H36c-8.837,0-16,7.163-16,16v64
	C20,136.837,27.163,144,36,144z M36,304h64c8.837,0,16-7.163,16-16v-64c0-8.837-7.163-16-16-16H36c-8.837,0-16,7.163-16,16v64
	C20,296.837,27.163,304,36,304z M36,464h64c8.837,0,16-7.163,16-16v-64c0-8.837-7.163-16-16-16H36c-8.837,0-16,7.163-16,16v64
	C20,456.837,27.163,464,36,464z"/>
</svg>
