<svg xmlns="http://www.w3.org/2000/svg" viewBox="0 0 512 512">
<path fill="#4a6484" d="M497.778,227.556h-26.223c-7.822-17.778-19.199-33.511-33.244-46.667l16.8-67.111h-28.444
	c-26.133,0-49.244,12-64.889,30.489c-6.756-0.978-13.422-2.044-20.444-2.044H227.556c-68.801,0-126.134,48.889-139.378,113.778
	h-38.4c-13.155,0-23.556-12-20.889-25.6c1.955-10.133,11.467-17.066,21.777-17.066h0.89c2.933,0,5.333-2.4,5.333-5.333v-17.778
	c0-2.933-2.4-5.333-5.333-5.333c-25.334,0-47.911,18.134-51.111,43.2c-3.911,30.399,19.733,56.355,49.333,56.355h35.556
	c0,46.4,22.578,87.2,56.889,113.155v71.733c0,7.822,6.4,14.223,14.223,14.223h56.889c7.822,0,14.223-6.4,14.223-14.223v-42.666
	h113.777v42.666c0,7.822,6.399,14.223,14.222,14.223h56.89c7.822,0,14.222-6.4,14.222-14.223V397.6
	c10.489-7.91,19.822-17.244,27.822-27.822h43.289c7.822,0,14.223-6.399,14.223-14.222V241.778
	C512,233.956,505.6,227.556,497.778,227.556z M384,284.444c-7.822,0-14.223-6.399-14.223-14.222S376.178,256,384,256
	c7.821,0,14.222,6.4,14.222,14.223S391.822,284.444,384,284.444z M227.556,113.778h113.777c4.8,0,9.511,0.355,14.133,0.711
	c0-0.267,0.089-0.444,0.089-0.711c0-47.111-38.222-85.333-85.333-85.333c-47.11,0-85.333,38.222-85.333,85.333
	c0,1.867,0.444,3.645,0.533,5.511C198.933,115.822,212.978,113.778,227.556,113.778z"/>
</svg>
