<svg xmlns="http://www.w3.org/2000/svg" viewBox="0 0 512 512">
<path fill="#FFFFFF" d="M496,128v16c0,4.418-3.582,8-8,8h-24v12c0,6.627-5.373,12-12,12H60c-6.627,0-12-5.373-12-12v-12H24
	c-4.419,0-8-3.582-8-8v-16c0-3.237,1.95-6.154,4.939-7.392l232-88c1.959-0.811,4.159-0.811,6.118,0l232,88
	C494.049,121.846,495.998,124.763,496,128z M472,432H40c-13.255,0-24,10.745-24,24v16c0,4.418,3.581,8,8,8h464c4.418,0,8-3.582,8-8
	v-16C496,442.745,485.255,432,472,432z M96,192v192H60c-6.627,0-12,5.373-12,12v20h416v-20c0-6.627-5.373-12-12-12h-36V192h-64v192
	h-64V192h-64v192h-64V192H96z"/>
</svg>
