<svg xmlns="http://www.w3.org/2000/svg" viewBox="0 0 512 512">
<path fill="#4a6484" d="M96,224c35.301,0,64-28.7,64-64c0-35.3-28.699-64-64-64s-64,28.7-64,64C32,195.3,60.699,224,96,224z
	 M320,256c61.899,0,112-50.1,112-112c0-61.9-50.101-112-112-112c-61.9,0-112,50.1-112,112C208,205.899,258.1,256,320,256z
	 M396.801,288H388.5c-20.8,10-43.9,16-68.5,16s-47.6-6-68.499-16H243.2C179.6,288,128,339.6,128,403.199V432c0,26.5,21.5,48,48,48
	h288c26.5,0,48-21.5,48-48v-28.801C512,339.6,460.4,288,396.801,288z M173.1,274.6C161.5,263.1,145.6,256,128,256H64
	c-35.301,0-64,28.7-64,64v32c0,17.699,14.3,32,32,32h65.899C104.2,336.602,132.8,296.701,173.1,274.6L173.1,274.6z"/>
</svg>
