<?xml version="1.0" encoding="utf-8"?>
<!-- Generator: Adobe Illustrator 24.1.2, SVG Export Plug-In . SVG Version: 6.00 Build 0)  -->
<svg version="1.1" id="Layer_1" xmlns="http://www.w3.org/2000/svg" xmlns:xlink="http://www.w3.org/1999/xlink" x="0px" y="0px"
	 width="70px" height="60px" viewBox="0 0 70 60" enable-background="new 0 0 70 60" xml:space="preserve">
<g id="Layer_2_1_">
</g>
<circle opacity="0.4" fill="#4A6484" enable-background="new    " cx="35" cy="30" r="25.001"/>
<circle fill="#FFFFFF" cx="35" cy="30" r="20"/>
<path fill="#354A5B" d="M35,9.25c-11.442,0-20.75,9.309-20.75,20.75c0,11.441,9.309,20.75,20.75,20.75
	c11.441,0,20.75-9.309,20.75-20.75C55.75,18.559,46.442,9.25,35,9.25z M52.608,22.25h-7.615c-0.972-4.785-2.827-8.637-5.2-10.871
	C45.537,12.859,50.249,16.914,52.608,22.25z M44.251,30c0,2.18-0.194,4.279-0.532,6.25H26.281c-0.338-1.971-0.532-4.07-0.532-6.25
	c0-2.178,0.194-4.277,0.532-6.25h17.438C44.057,25.723,44.251,27.822,44.251,30z M35,10.75c3.698,0,6.965,4.801,8.43,11.5H26.57
	C28.035,15.551,31.302,10.75,35,10.75z M30.207,11.379c-2.373,2.234-4.228,6.086-5.2,10.871h-7.615
	C19.751,16.914,24.463,12.859,30.207,11.379z M15.75,30c0-2.189,0.385-4.287,1.062-6.25h7.916c-0.311,1.967-0.478,4.064-0.478,6.25
	c0,2.188,0.167,4.285,0.478,6.25h-7.916C16.135,34.287,15.75,32.189,15.75,30z M17.392,37.75h7.615
	c0.972,4.787,2.827,8.639,5.2,10.871C24.463,47.143,19.751,43.086,17.392,37.75z M35,49.25c-3.697,0-6.965-4.799-8.43-11.5h16.86
	C41.965,44.451,38.697,49.25,35,49.25z M39.793,48.621c2.373-2.232,4.228-6.084,5.2-10.871h7.615
	C50.249,43.086,45.537,47.143,39.793,48.621z M45.272,36.25c0.311-1.965,0.478-4.062,0.478-6.25c0-2.186-0.167-4.283-0.478-6.25
	h7.916c0.677,1.963,1.062,4.061,1.062,6.25c0,2.189-0.385,4.287-1.062,6.25H45.272z"/>
<g id="Layer_4">
</g>
</svg>
