<?xml version="1.0" encoding="utf-8"?>
<!-- Generator: Adobe Illustrator 16.0.0, SVG Export Plug-In . SVG Version: 6.00 Build 0)  -->
<!DOCTYPE svg PUBLIC "-//W3C//DTD SVG 1.1//EN" "http://www.w3.org/Graphics/SVG/1.1/DTD/svg11.dtd">
<svg version="1.1" xmlns="http://www.w3.org/2000/svg" xmlns:xlink="http://www.w3.org/1999/xlink" x="0px" y="0px" width="70px"
	 height="60px" viewBox="0 0 70 60" enable-background="new 0 0 70 60" xml:space="preserve">
<g id="Layer_2">
</g>
<g id="Layer_3">
</g>
<g id="Layer_4">
	<g>
		<path opacity="0.4" fill="#4A6484" d="M54.723,29.58c0,13.807-11.191,25-25.002,25c-13.806,0-25-11.193-25-25s11.193-25,25-25
			C43.531,4.58,54.723,15.773,54.723,29.58z"/>
		<g>
			<path fill="#FFFFFF" d="M38.952,38.836c0-1.93,0.377-3.773,1.037-5.475c-0.924-0.252-1.891-0.396-2.895-0.396h-1.374
				c-1.826,0.836-3.857,1.314-5.998,1.314c-2.139,0-4.165-0.479-5.999-1.314h-1.375c-6.105,0-11.061,4.951-11.061,11.057v1.674
				c0,2.182,1.77,3.951,3.95,3.951h28.225C40.677,46.883,38.952,43.057,38.952,38.836z"/>
			<g>
				<circle fill="#FFFFFF" cx="29.723" cy="19.546" r="10.534"/>
				<path fill="#354A5B" d="M29.723,30.83c-6.222,0-11.284-5.063-11.284-11.285S23.5,8.262,29.723,8.262
					c6.221,0,11.282,5.061,11.282,11.283S35.943,30.83,29.723,30.83z M29.723,9.762c-5.395,0-9.784,4.389-9.784,9.783
					s4.389,9.785,9.784,9.785c5.395,0,9.782-4.391,9.782-9.785S35.117,9.762,29.723,9.762z"/>
			</g>
			<path fill="#354A5B" d="M43.464,50.396H15.239c-2.592,0-4.7-2.109-4.7-4.701v-1.674c0-6.51,5.298-11.807,11.811-11.807h1.375
				c0.107,0,0.214,0.021,0.312,0.066c3.637,1.66,7.769,1.652,11.373,0.002c0.098-0.045,0.205-0.068,0.313-0.068h1.374
				c1.02,0,2.059,0.141,3.092,0.422c0.205,0.057,0.377,0.195,0.473,0.387c0.096,0.189,0.107,0.41,0.029,0.609
				c-0.654,1.686-0.986,3.438-0.986,5.203c0,3.885,1.523,7.535,4.289,10.279c0.217,0.213,0.281,0.537,0.166,0.816
				C44.042,50.213,43.767,50.396,43.464,50.396z M22.349,33.715c-5.686,0-10.311,4.623-10.311,10.307v1.674
				c0,1.766,1.436,3.201,3.2,3.201h26.534c-2.314-2.84-3.57-6.354-3.57-10.061c0-1.67,0.268-3.326,0.797-4.936
				c-0.639-0.123-1.277-0.186-1.904-0.186h-1.213c-3.907,1.742-8.377,1.75-12.319,0H22.349z"/>
			<g>
				<g>
					<path fill="#4A6484" d="M62.413,40.363c0.186-1.014,0.186-2.049,0-3.061l1.854-1.072c0.215-0.123,0.311-0.373,0.238-0.611
						c-0.482-1.551-1.309-2.961-2.389-4.127c-0.164-0.178-0.432-0.223-0.645-0.1l-1.855,1.072c-0.783-0.67-1.684-1.188-2.652-1.533
						v-2.141c0-0.244-0.174-0.461-0.41-0.512c-1.604-0.357-3.234-0.344-4.76,0c-0.236,0.051-0.406,0.268-0.406,0.512v2.141
						c-0.973,0.346-1.871,0.863-2.654,1.533l-1.855-1.072c-0.209-0.123-0.482-0.078-0.646,0.1c-1.078,1.166-1.904,2.576-2.387,4.127
						c-0.072,0.238,0.029,0.488,0.238,0.611l1.854,1.072c-0.186,1.012-0.186,2.047,0,3.061l-1.854,1.072
						c-0.217,0.121-0.311,0.373-0.238,0.611c0.482,1.553,1.309,2.955,2.387,4.125c0.164,0.18,0.432,0.223,0.646,0.1l1.855-1.07
						c0.783,0.668,1.682,1.188,2.654,1.531v2.143c0,0.242,0.17,0.459,0.406,0.512c1.605,0.357,3.236,0.342,4.76,0
						c0.236-0.053,0.41-0.27,0.41-0.512v-2.143c0.969-0.344,1.869-0.863,2.652-1.531l1.855,1.07c0.207,0.123,0.48,0.08,0.645-0.1
						c1.08-1.164,1.906-2.572,2.389-4.125c0.072-0.238-0.029-0.49-0.238-0.611L62.413,40.363z"/>
					<path fill="#FFFFFF" d="M54.183,42.318c-1.928,0-3.486-1.566-3.486-3.486c0-1.918,1.566-3.486,3.486-3.486
						c1.918,0,3.484,1.568,3.484,3.486C57.667,40.752,56.108,42.318,54.183,42.318z"/>
				</g>
				<g>
					<path fill="#354A5B" d="M54.179,50.398c-0.855,0-1.713-0.094-2.547-0.279c-0.574-0.127-0.994-0.65-0.994-1.244v-1.629
						c-0.703-0.295-1.363-0.676-1.973-1.139l-1.412,0.814c-0.508,0.293-1.184,0.184-1.574-0.242
						c-1.164-1.266-2.047-2.791-2.549-4.41c-0.178-0.584,0.064-1.193,0.586-1.488l1.402-0.811c-0.094-0.758-0.094-1.52,0-2.275
						l-1.41-0.814c-0.518-0.305-0.754-0.912-0.58-1.48c0.508-1.633,1.391-3.158,2.553-4.418c0.391-0.422,1.08-0.527,1.578-0.236
						l1.406,0.813c0.607-0.461,1.268-0.842,1.973-1.139v-1.629c0-0.596,0.42-1.119,1-1.244c1.639-0.371,3.406-0.373,5.08,0.002
						c0.574,0.123,0.996,0.646,0.996,1.242v1.629c0.705,0.297,1.367,0.678,1.973,1.139l1.41-0.814c0.5-0.289,1.182-0.184,1.572,0.24
						c1.162,1.256,2.045,2.781,2.553,4.412c0.176,0.58-0.064,1.188-0.582,1.484l-1.406,0.814c0.094,0.756,0.094,1.518,0,2.275
						l1.408,0.814c0.518,0.303,0.754,0.908,0.582,1.479c-0.51,1.637-1.393,3.164-2.557,4.418c-0.238,0.26-0.58,0.41-0.938,0.41l0,0
						c-0.227,0-0.447-0.061-0.641-0.176l-1.402-0.809c-0.609,0.461-1.27,0.842-1.973,1.139v1.629c0,0.594-0.42,1.117-1,1.244
						C55.89,50.305,55.034,50.398,54.179,50.398z M52.138,48.693c1.348,0.273,2.744,0.273,4.076-0.002v-1.959
						c0-0.318,0.201-0.602,0.5-0.707c0.887-0.314,1.699-0.783,2.416-1.395c0.242-0.207,0.586-0.238,0.861-0.08l1.695,0.979
						c0.916-1.023,1.619-2.238,2.049-3.535l-1.697-0.98c-0.273-0.158-0.42-0.473-0.361-0.785c0.168-0.926,0.168-1.865,0-2.791
						c-0.059-0.313,0.088-0.625,0.361-0.785l1.697-0.98c-0.43-1.295-1.133-2.514-2.049-3.537l-1.695,0.979
						c-0.275,0.158-0.619,0.127-0.861-0.078c-0.713-0.609-1.525-1.078-2.418-1.396c-0.299-0.107-0.498-0.391-0.498-0.707v-1.957
						c-1.355-0.277-2.75-0.277-4.076-0.002v1.959c0,0.318-0.199,0.602-0.498,0.707c-0.891,0.316-1.705,0.787-2.418,1.396
						c-0.244,0.207-0.586,0.238-0.863,0.078l-1.695-0.979c-0.914,1.025-1.617,2.242-2.047,3.537l1.695,0.98
						c0.275,0.16,0.42,0.473,0.363,0.785c-0.17,0.926-0.17,1.865,0,2.791c0.057,0.313-0.088,0.627-0.363,0.785l-1.695,0.98
						c0.426,1.287,1.129,2.504,2.047,3.537l1.695-0.98c0.275-0.158,0.619-0.127,0.863,0.08c0.717,0.613,1.529,1.082,2.416,1.395
						c0.299,0.105,0.5,0.389,0.5,0.707V48.693z"/>
					<path fill="#354A5B" d="M54.183,43.068c-2.336,0-4.236-1.9-4.236-4.236s1.9-4.236,4.236-4.236s4.234,1.9,4.234,4.236
						S56.519,43.068,54.183,43.068z M54.183,36.096c-1.508,0-2.736,1.227-2.736,2.736s1.229,2.736,2.736,2.736
						s2.734-1.227,2.734-2.736S55.69,36.096,54.183,36.096z"/>
				</g>
			</g>
		</g>
	</g>
</g>
</svg>
