<svg xmlns="http://www.w3.org/2000/svg" viewBox="0 0 512 512">
<path fill="#FFFFFF" d="M409.364,490.07l-150.89-386.078c-2.42-6.19-8.358-10.242-14.987-10.242
	c-6.629,0-12.568,4.052-14.987,10.242L77.625,490.07c-3.236,8.263,0.848,17.596,9.112,20.83c1.948,0.754,3.927,1.1,5.875,1.1
	c6.409,0,12.505-3.864,14.987-10.242l53.569-137.081c0.472,0.063,0.88,0.282,1.352,0.282h161.934c0.471,0,0.88-0.22,1.352-0.282
	l53.584,137.081c3.205,8.295,12.506,12.348,20.801,9.143C408.484,507.666,412.569,498.333,409.364,490.07z M173.643,332.785
	l69.845-178.742l69.845,178.742H173.643z"/>
</svg>
