<svg xmlns="http://www.w3.org/2000/svg" viewBox="0 0 512 512">
<path fill="#FFFFFF" d="M160.866,240.352c0-8.892-7.227-16.088-16.087-16.088H16.086C7.164,224.264,0,231.46,0,240.352
	s7.164,16.086,16.086,16.086h128.693C153.64,256.438,160.866,249.243,160.866,240.352z M381.836,490.07L253.804,162.463
	c-4.839-12.38-25.136-12.38-29.974,0L95.797,490.07c-3.236,8.263,0.88,17.596,9.143,20.83c8.294,3.205,17.595-0.848,20.831-9.143
	l45.621-116.722c2.326,1.288,4.839,2.199,7.667,2.199h128.064l44.741,114.522C354.346,508.136,360.44,512,366.85,512
	c1.948,0,3.928-0.346,5.876-1.1C380.988,507.666,385.073,498.333,381.836,490.07z M183.111,355.062l55.706-142.548l55.707,142.548
	H183.111z"/>
</svg>
