<svg xmlns="http://www.w3.org/2000/svg" viewBox="0 0 512 512">
<path fill="#FFFFFF" d="M492.75,158.75v-3.25h-1.281C452.406,64.094,361.688,0,256,0S59.594,64.094,20.531,155.5h-1.219v3.063
	C6.938,188.625,0,221.5,0,256s6.938,67.375,19.313,97.438v3.063h1.219C59.594,447.906,150.313,512,256,512h0.031
	c0.031,0,0.031,0,0.031,0c0.031,0,0.031,0,0.063,0c105.625-0.063,196.281-64.125,235.344-155.5h1.281v-3.25
	c12.344-30,19.25-62.813,19.25-97.25S505.094,188.75,492.75,158.75z M456,155.5h-82.375C363.781,109.813,347.469,71,327,43.688
	C383.344,62.5,429.594,103.063,456,155.5z M352,256.375c0,24-1.781,46.813-4.969,68.125H164.969
	c-3.188-21.313-4.969-44.125-4.969-68.125c0-24.25,1.844-47.375,5.094-68.875h181.813C350.156,209,352,232.125,352,256.375z
	 M256.063,32.719c32.25,0,67.125,48.656,84.594,122.781H171.375C188.844,81.375,223.781,32.719,256.063,32.719z M185.031,43.656
	C164.531,71,148.219,109.813,138.406,155.5H56.031C82.406,103.063,128.688,62.5,185.031,43.656z M32,256
	c0-23.906,3.844-46.906,10.75-68.5h90.094C129.75,209.438,128,232.469,128,256.375c0,23.625,1.719,46.406,4.75,68.125h-90
	C35.844,302.906,32,279.906,32,256z M56.031,356.5h82.188c9.688,45.438,25.781,84.125,46.031,111.563
	C128.25,449.094,82.281,408.688,56.031,356.5z M256.094,480c0,0-0.031,0-0.063,0c-32.375,0-67.406-48.969-84.813-123.5h169.594
	C323.406,431,288.438,479.938,256.094,480z M327.781,468.063c20.219-27.438,36.313-66.125,46-111.563H456
	C429.719,408.688,383.781,449.094,327.781,468.063z M469.25,324.5h-90c3.031-21.719,4.75-44.5,4.75-68.125
	c0-23.906-1.75-46.938-4.844-68.875h90.094C476.188,209.094,480,232.094,480,256S476.188,302.906,469.25,324.5z"/>
</svg>
