<svg xmlns="http://www.w3.org/2000/svg" viewBox="0 0 512 512">
<path id="path2_1_" fill="#ffffff" d="M334.134,334.198c12.499-12.499,32.748-12.563,45.311-0.063v0.063l123.181,123.18
	c12.5,12.499,12.5,32.748,0,45.247c-12.499,12.5-32.748,12.5-45.247,0l-123.181-123.18c-12.499-12.499-12.499-32.748,0-45.247l0,0
	H334.134z"/>
<path id="path4_1_" fill="#ffffff" d="M207.987,384.008c97.183,0,175.989-78.808,175.989-176.02
	c0-97.182-78.808-175.989-175.989-175.989l0,0c-97.182,0-175.989,78.808-175.989,175.989
	C31.998,305.2,110.806,384.008,207.987,384.008z M415.974,207.987c0,114.899-93.119,208.018-207.987,208.018
	C93.119,416.005,0,322.887,0,207.987C0,93.119,93.119,0,207.987,0C322.855,0,415.974,93.119,415.974,207.987z"/>
</svg>
