<svg xmlns="http://www.w3.org/2000/svg" viewBox="0 0 512 512">
<g>
	<path fill="#202020" d="M256,256c70.666,0,128-57.334,128-128C384,57.332,326.666,0,256,0c-70.668,0-128,57.332-128,128
		C128,198.666,185.332,256,256,256z M256,32c52.935,0,96,43.065,96,96s-43.065,96-96,96s-96-43.065-96-96S203.065,32,256,32z"/>
	<path fill="#202020" d="M256,298.666c-213.334,0-256,128-256,170.666C0,512,42.666,512,42.666,512h426.666
		c0,0,42.668,0,42.668-42.668C512,426.666,469.332,298.666,256,298.666z M477.022,477.684c-2.834,1.664-6.769,2.229-8.15,2.316
		H43.126c-1.382-0.088-5.315-0.652-8.148-2.314c-1.257-0.738-2.978-1.748-2.978-8.354c0-13.861,8.073-48.15,38.627-78.705
		c17.467-17.467,39.855-31.365,66.544-41.307c33.224-12.377,73.204-18.654,118.829-18.654s85.604,6.277,118.828,18.654
		c26.688,9.941,49.077,23.84,66.544,41.307C471.927,421.182,480,455.471,480,469.332C480,475.936,478.279,476.947,477.022,477.684z"
		/>
</g>
</svg>
