<?xml version="1.0" encoding="utf-8"?>
<svg version="1.1" xmlns="http://www.w3.org/2000/svg" xmlns:xlink="http://www.w3.org/1999/xlink" x="0px" y="0px" width="75px" height="78.516px" viewBox="0 0 75 78.516">
<path fill="#1A1A1A" d="M0.22,58.944V53.66h3.819v0.623H0.921v1.622H3.84v0.615H0.921v1.802h3.243v0.621H0.22L0.22,58.944z"/>
<path fill="#1A1A1A" d="M5.096,58.944V53.66h1.988c0.397,0,0.722,0.058,0.962,0.163c0.251,0.104,0.439,0.271,0.576,0.489c0.136,0.227,0.209,0.456,0.209,0.696c0,0.23-0.063,0.439-0.188,0.639c-0.115,0.199-0.304,0.361-0.555,0.486c0.324,0.089,0.565,0.251,0.743,0.476c0.167,0.227,0.251,0.492,0.251,0.803c0,0.246-0.053,0.476-0.157,0.688c-0.104,0.209-0.229,0.376-0.387,0.492c-0.146,0.115-0.346,0.199-0.575,0.261c-0.23,0.06-0.513,0.089-0.848,0.089L5.096,58.944L5.096,58.944z M5.797,55.884h1.141c0.313,0,0.533-0.026,0.669-0.063c0.178-0.052,0.314-0.141,0.397-0.267c0.095-0.12,0.137-0.271,0.137-0.46c0-0.172-0.042-0.33-0.126-0.46c-0.084-0.136-0.198-0.225-0.355-0.277c-0.157-0.047-0.429-0.071-0.806-0.071H5.797V55.884z M5.797,58.323h1.318c0.22,0,0.376-0.013,0.471-0.026c0.167-0.031,0.293-0.078,0.408-0.146c0.104-0.066,0.198-0.161,0.262-0.293c0.073-0.125,0.104-0.275,0.104-0.442c0-0.199-0.053-0.366-0.146-0.515c-0.104-0.146-0.241-0.245-0.419-0.309c-0.178-0.057-0.439-0.083-0.774-0.083H5.797V58.323z"/>
<path fill="#1A1A1A" d="M10.045,58.944V53.66h1.998c0.346,0,0.617,0.016,0.806,0.053c0.251,0.042,0.471,0.125,0.648,0.246c0.179,0.121,0.314,0.293,0.419,0.513c0.104,0.214,0.167,0.455,0.167,0.717c0,0.45-0.146,0.832-0.429,1.142c-0.293,0.313-0.806,0.466-1.549,0.466h-1.359v2.148L10.045,58.944L10.045,58.944z M10.746,56.171h1.37c0.45,0,0.764-0.083,0.963-0.251c0.188-0.167,0.282-0.403,0.282-0.711c0-0.22-0.063-0.408-0.167-0.565c-0.115-0.157-0.262-0.261-0.439-0.313c-0.126-0.031-0.335-0.047-0.659-0.047h-1.35V56.171z"/>
<path fill="#1A1A1A" d="M14.596,56.37c0-0.879,0.23-1.564,0.701-2.063c0.471-0.492,1.078-0.743,1.821-0.743c0.491,0,0.931,0.12,1.318,0.352c0.397,0.234,0.69,0.56,0.899,0.973c0.209,0.418,0.313,0.889,0.313,1.418c0,0.539-0.114,1.017-0.324,1.438c-0.22,0.424-0.522,0.741-0.921,0.962c-0.397,0.215-0.826,0.325-1.286,0.325c-0.492,0-0.942-0.12-1.329-0.361c-0.397-0.24-0.69-0.57-0.89-0.983C14.69,57.275,14.596,56.836,14.596,56.37z M15.318,56.381c0,0.638,0.167,1.141,0.513,1.507c0.345,0.366,0.764,0.549,1.287,0.549c0.522,0,0.952-0.188,1.297-0.555c0.335-0.372,0.513-0.896,0.513-1.575c0-0.429-0.073-0.806-0.22-1.125c-0.146-0.324-0.355-0.57-0.638-0.748c-0.283-0.178-0.597-0.267-0.942-0.267c-0.491,0-0.921,0.173-1.276,0.513C15.496,55.021,15.318,55.585,15.318,56.381z"/>
<path fill="#1A1A1A" d="M20.55,53.66h4.153v5.282h-0.7v-4.66h-2.752v4.66H20.55V53.66z"/>
<path fill="#1A1A1A" d="M25.865,58.944V53.66h3.818v0.623h-3.117v1.622h2.919v0.615h-2.919v1.802h3.232v0.621H25.865L25.865,58.944z"/>
<path fill="#1A1A1A" d="M30.782,53.66h0.628v4.186l2.814-4.186h0.701v5.282h-0.638V54.77l-2.805,4.175h-0.701V53.66H30.782zM33.409,52.406h0.439c-0.031,0.298-0.146,0.526-0.324,0.688c-0.188,0.162-0.43,0.241-0.732,0.241c-0.314,0-0.555-0.079-0.743-0.235c-0.178-0.162-0.293-0.393-0.324-0.694h0.439c0.031,0.16,0.104,0.281,0.198,0.364c0.104,0.078,0.23,0.12,0.397,0.12c0.199,0,0.346-0.042,0.45-0.115C33.305,52.698,33.378,52.573,33.409,52.406z"/>
<path fill="#1A1A1A" d="M39.844,57.092l0.69,0.173c-0.146,0.575-0.408,1.017-0.784,1.313c-0.389,0.303-0.848,0.455-1.402,0.455c-0.563,0-1.025-0.115-1.381-0.353c-0.356-0.229-0.628-0.563-0.816-1.004c-0.188-0.438-0.282-0.911-0.282-1.418c0-0.549,0.104-1.025,0.313-1.438c0.209-0.407,0.513-0.718,0.899-0.932c0.388-0.214,0.816-0.318,1.276-0.318c0.533,0,0.974,0.137,1.34,0.402c0.354,0.272,0.604,0.649,0.753,1.135l-0.69,0.162c-0.125-0.382-0.303-0.665-0.533-0.837c-0.229-0.178-0.521-0.267-0.879-0.267c-0.408,0-0.743,0.1-1.015,0.293c-0.272,0.192-0.472,0.456-0.576,0.785c-0.115,0.33-0.167,0.665-0.167,1.015c0,0.45,0.063,0.837,0.198,1.172c0.126,0.34,0.335,0.586,0.607,0.753c0.282,0.167,0.575,0.251,0.899,0.251c0.388,0,0.724-0.114,0.994-0.34C39.563,57.872,39.738,57.537,39.844,57.092z"/>
<path fill="#1A1A1A" d="M41.413,53.66h0.7v2.313c0.313,0,0.533-0.058,0.671-0.183c0.125-0.125,0.293-0.424,0.491-0.896c0.146-0.345,0.271-0.586,0.365-0.73c0.096-0.144,0.229-0.264,0.407-0.361c0.168-0.094,0.366-0.141,0.575-0.141c0.271,0,0.408,0,0.432,0.005v0.605c-0.021,0-0.074-0.005-0.146-0.005c-0.073-0.005-0.115-0.005-0.137-0.005c-0.222,0-0.389,0.052-0.502,0.162c-0.104,0.11-0.23,0.34-0.377,0.691c-0.18,0.448-0.324,0.73-0.449,0.847c-0.115,0.115-0.272,0.209-0.439,0.278c0.346,0.094,0.68,0.406,1.016,0.945l1.088,1.758h-0.869L43.35,57.51c-0.24-0.396-0.438-0.67-0.605-0.816c-0.168-0.149-0.377-0.225-0.628-0.225v2.475h-0.701L41.413,53.66L41.413,53.66z"/>
<path fill="#1A1A1A" d="M45.714,53.66h0.628v4.186l2.814-4.186h0.701v5.282h-0.641V54.77l-2.813,4.175h-0.69V53.66z"/>
<path fill="#1A1A1A" d="M56.814,57.092l0.701,0.173c-0.146,0.575-0.408,1.017-0.795,1.313c-0.379,0.303-0.839,0.455-1.394,0.455c-0.563,0-1.036-0.115-1.394-0.353c-0.354-0.229-0.627-0.563-0.806-1.004c-0.188-0.438-0.282-0.911-0.282-1.418c0-0.549,0.104-1.025,0.313-1.438c0.21-0.407,0.513-0.718,0.899-0.932s0.814-0.318,1.275-0.318c0.533,0,0.975,0.137,1.339,0.402c0.356,0.272,0.606,0.649,0.743,1.135l-0.682,0.162c-0.125-0.382-0.303-0.665-0.532-0.837c-0.24-0.178-0.522-0.267-0.88-0.267c-0.407,0-0.752,0.1-1.024,0.293c-0.271,0.192-0.46,0.456-0.563,0.785c-0.114,0.33-0.168,0.665-0.168,1.015c0,0.45,0.063,0.837,0.188,1.172c0.137,0.34,0.335,0.586,0.617,0.753c0.271,0.167,0.574,0.251,0.898,0.251c0.389,0,0.724-0.114,0.994-0.34C56.543,57.872,56.721,57.537,56.814,57.092z"/>
<path fill="#1A1A1A" d="M57.559,53.66h2.301v2.255h1.269c0.826,0,1.37,0.157,1.632,0.46c0.252,0.309,0.389,0.652,0.389,1.041c0,0.438-0.146,0.806-0.449,1.094c-0.305,0.288-0.807,0.434-1.527,0.434h-2.009v-4.66h-1.603V53.66H57.559z M59.859,58.348h1.277c0.438,0,0.764-0.073,0.961-0.22c0.188-0.152,0.293-0.382,0.293-0.706c0-0.22-0.063-0.403-0.179-0.555c-0.114-0.146-0.271-0.246-0.46-0.288s-0.514-0.063-0.963-0.063h-0.934v1.832H59.859z"/>
<path fill="#1A1A1A" d="M63.982,53.66h0.701v2.37h1.014c0.054-0.748,0.305-1.347,0.744-1.79c0.438-0.444,0.981-0.671,1.643-0.671c0.689,0,1.256,0.241,1.716,0.729c0.45,0.486,0.671,1.146,0.671,1.972c0,0.868-0.221,1.543-0.671,2.03s-1.036,0.732-1.737,0.732c-0.638,0-1.172-0.209-1.601-0.635c-0.418-0.424-0.67-1.005-0.743-1.748h-1.035v2.292h-0.701V53.66L63.982,53.66z M66.398,56.328c0,0.665,0.158,1.183,0.472,1.554c0.304,0.366,0.7,0.555,1.203,0.555c0.513,0,0.921-0.188,1.225-0.555c0.304-0.372,0.46-0.905,0.46-1.596c0-0.659-0.146-1.179-0.449-1.561c-0.304-0.377-0.711-0.563-1.213-0.563c-0.522,0-0.943,0.191-1.236,0.574C66.557,55.12,66.398,55.648,66.398,56.328z"/>
<path fill="#1A1A1A" d="M71.129,57.453l0.669-0.173c0.054,0.256,0.188,0.513,0.397,0.769c0.229,0.256,0.514,0.388,0.88,0.388s0.659-0.095,0.879-0.288c0.209-0.188,0.313-0.418,0.313-0.686c0-0.293-0.104-0.523-0.336-0.696c-0.229-0.172-0.533-0.256-0.92-0.256h-0.337v-0.604c0.325,0,0.565-0.021,0.732-0.06c0.179-0.037,0.323-0.131,0.461-0.288c0.125-0.149,0.188-0.324,0.188-0.518c0-0.23-0.084-0.431-0.263-0.604c-0.178-0.173-0.429-0.256-0.731-0.256c-0.263,0-0.492,0.068-0.682,0.199c-0.188,0.136-0.313,0.313-0.387,0.534c-0.074,0.22-0.115,0.382-0.115,0.492l-0.67-0.152c0.168-1.125,0.785-1.687,1.863-1.687c0.513,0,0.92,0.146,1.224,0.431c0.306,0.288,0.461,0.623,0.461,1.009c0,0.492-0.229,0.874-0.7,1.146c0.271,0.072,0.49,0.226,0.68,0.454C74.916,56.841,75,57.113,75,57.432c0,0.456-0.167,0.837-0.523,1.143c-0.354,0.309-0.813,0.46-1.399,0.46C72.081,59.033,71.432,58.505,71.129,57.453z"/>
<path fill="#1A1A1A" d="M0.22,68.785v-5.279h3.819v0.623H0.921v1.617H3.84v0.615H0.921v1.802h3.243v0.623L0.22,68.785L0.22,68.785z"/>
<path fill="#1A1A1A" d="M5.096,68.785v-5.279h1.988c0.397,0,0.722,0.053,0.962,0.157c0.251,0.108,0.439,0.271,0.576,0.497c0.136,0.22,0.209,0.448,0.209,0.694c0,0.227-0.063,0.439-0.188,0.64c-0.115,0.197-0.304,0.354-0.555,0.479c0.324,0.094,0.565,0.251,0.743,0.481c0.167,0.225,0.251,0.49,0.251,0.795c0,0.251-0.053,0.479-0.157,0.688c-0.104,0.215-0.229,0.377-0.387,0.492c-0.146,0.115-0.346,0.204-0.575,0.261c-0.23,0.06-0.513,0.091-0.848,0.091H5.096V68.785zM5.797,65.725h1.141c0.313,0,0.533-0.021,0.669-0.063C7.785,65.61,7.921,65.52,8.004,65.4c0.095-0.125,0.137-0.275,0.137-0.46c0-0.178-0.042-0.33-0.126-0.465c-0.084-0.131-0.198-0.225-0.355-0.271c-0.157-0.054-0.429-0.073-0.806-0.073H5.797V65.725zM5.797,68.162h1.318c0.22,0,0.376-0.012,0.471-0.026c0.167-0.026,0.293-0.079,0.408-0.146c0.104-0.063,0.198-0.163,0.262-0.293C8.329,67.57,8.36,67.42,8.36,67.252c0-0.194-0.053-0.366-0.146-0.513c-0.104-0.143-0.241-0.246-0.419-0.306c-0.178-0.057-0.439-0.088-0.774-0.088H5.797V68.162z"/>
<path fill="#1A1A1A" d="M10.045,68.785v-5.279h1.998c0.346,0,0.617,0.016,0.806,0.047c0.251,0.042,0.471,0.125,0.648,0.246c0.179,0.126,0.314,0.293,0.419,0.513c0.105,0.222,0.167,0.461,0.167,0.724c0,0.443-0.146,0.825-0.429,1.135c-0.293,0.313-0.806,0.471-1.549,0.471h-1.359v2.146h-0.701V68.785z M10.746,66.012h1.37c0.45,0,0.764-0.084,0.963-0.251c0.188-0.168,0.282-0.403,0.282-0.707c0-0.225-0.063-0.414-0.167-0.57c-0.115-0.155-0.262-0.261-0.439-0.309c-0.126-0.031-0.335-0.047-0.659-0.047h-1.35V66.012z"/>
<path fill="#1A1A1A" d="M14.596,66.211c0-0.874,0.23-1.561,0.701-2.056c0.471-0.497,1.078-0.743,1.821-0.743c0.491,0,0.931,0.113,1.318,0.345c0.397,0.235,0.69,0.56,0.899,0.979c0.209,0.413,0.313,0.891,0.313,1.417c0,0.534-0.114,1.017-0.324,1.436c-0.22,0.423-0.522,0.743-0.921,0.962c-0.397,0.22-0.826,0.325-1.286,0.325c-0.492,0-0.942-0.121-1.329-0.361c-0.397-0.241-0.69-0.563-0.89-0.982C14.69,67.116,14.596,66.677,14.596,66.211z M15.318,66.221c0,0.639,0.167,1.141,0.513,1.507c0.345,0.366,0.764,0.549,1.287,0.549c0.522,0,0.952-0.183,1.297-0.555c0.335-0.372,0.513-0.895,0.513-1.575c0-0.429-0.073-0.806-0.22-1.125c-0.146-0.317-0.355-0.568-0.638-0.749c-0.283-0.178-0.597-0.261-0.942-0.261c-0.491,0-0.921,0.167-1.276,0.507S15.318,65.426,15.318,66.221z"/>
<path fill="#1A1A1A" d="M20.55,63.506h4.153v5.279h-0.7v-4.656h-2.752v4.656H20.55V63.506z"/>
<path fill="#1A1A1A" d="M25.865,68.785v-5.279h3.818v0.623h-3.117v1.617h2.919v0.615h-2.919v1.802h3.232v0.623L25.865,68.785L25.865,68.785z"/>
<path fill="#1A1A1A" d="M30.782,63.506h0.628v4.18l2.814-4.18h0.701v5.279h-0.638v-4.169l-2.805,4.169h-0.701v-5.279H30.782zM33.409,62.246h0.439c-0.031,0.303-0.146,0.531-0.324,0.688c-0.188,0.162-0.43,0.246-0.732,0.246c-0.314,0-0.555-0.083-0.743-0.24c-0.178-0.163-0.293-0.393-0.324-0.694h0.439c0.031,0.162,0.104,0.288,0.198,0.364c0.104,0.078,0.23,0.12,0.397,0.12c0.199,0,0.346-0.037,0.45-0.113C33.305,62.539,33.378,62.413,33.409,62.246z"/>
<path fill="#1A1A1A" d="M39.844,66.933l0.69,0.178c-0.146,0.575-0.408,1.011-0.784,1.313c-0.389,0.298-0.848,0.45-1.402,0.45c-0.563,0-1.025-0.115-1.381-0.348c-0.356-0.229-0.628-0.568-0.816-1.009c-0.188-0.438-0.282-0.911-0.282-1.413c0-0.549,0.104-1.028,0.313-1.438c0.209-0.413,0.513-0.724,0.899-0.938c0.388-0.209,0.816-0.317,1.276-0.317c0.533,0,0.974,0.136,1.34,0.401c0.354,0.272,0.604,0.648,0.753,1.137l-0.69,0.16c-0.125-0.382-0.303-0.664-0.533-0.837c-0.229-0.178-0.521-0.261-0.879-0.261c-0.408,0-0.743,0.094-1.015,0.288c-0.272,0.199-0.472,0.46-0.576,0.785c-0.115,0.33-0.167,0.665-0.167,1.015c0,0.45,0.063,0.842,0.198,1.177c0.126,0.336,0.335,0.588,0.607,0.756c0.282,0.16,0.575,0.244,0.899,0.244c0.388,0,0.724-0.113,0.994-0.34C39.563,67.712,39.738,67.377,39.844,66.933z"/>
<path fill="#1A1A1A" d="M41.413,63.506h0.7v2.313c0.313,0,0.533-0.063,0.671-0.188c0.125-0.12,0.293-0.418,0.491-0.889c0.146-0.347,0.271-0.593,0.365-0.732c0.096-0.146,0.229-0.267,0.407-0.361c0.168-0.1,0.366-0.146,0.575-0.146c0.271,0,0.408,0,0.432,0.005v0.607c-0.021,0-0.074,0-0.146-0.007c-0.073,0-0.115,0-0.137,0c-0.222,0-0.389,0.054-0.502,0.157c-0.104,0.11-0.23,0.34-0.377,0.696c-0.18,0.445-0.324,0.728-0.449,0.842c-0.115,0.115-0.272,0.209-0.439,0.283c0.346,0.089,0.68,0.408,1.016,0.939l1.088,1.76h-0.869l-0.889-1.436c-0.24-0.396-0.438-0.669-0.605-0.814c-0.168-0.146-0.377-0.222-0.628-0.222v2.471h-0.701L41.413,63.506L41.413,63.506z"/>
<path fill="#1A1A1A" d="M45.714,63.506h0.628v4.18l2.814-4.18h0.701v5.279h-0.641v-4.169l-2.813,4.169h-0.69V63.506z"/>
<path fill="#1A1A1A" d="M3.976,75.193l0.701,0.18c-0.146,0.576-0.408,1.01-0.795,1.313c-0.377,0.304-0.848,0.45-1.392,0.45c-0.575,0-1.036-0.115-1.392-0.345c-0.356-0.23-0.628-0.565-0.816-1.004C0.094,75.346,0,74.869,0,74.367c0-0.551,0.104-1.031,0.324-1.439c0.209-0.408,0.502-0.722,0.89-0.931c0.387-0.215,0.816-0.319,1.287-0.319c0.522,0,0.973,0.131,1.328,0.403c0.356,0.267,0.618,0.644,0.754,1.135l-0.69,0.163c-0.115-0.388-0.293-0.665-0.534-0.842c-0.229-0.173-0.522-0.264-0.879-0.264c-0.397,0-0.742,0.096-1.015,0.293c-0.272,0.193-0.46,0.455-0.575,0.779c-0.104,0.33-0.168,0.669-0.168,1.015c0,0.45,0.073,0.844,0.199,1.179c0.136,0.334,0.335,0.586,0.606,0.753c0.283,0.163,0.576,0.246,0.9,0.246c0.397,0,0.722-0.115,0.994-0.34C3.693,75.973,3.882,75.638,3.976,75.193z"/>
<path fill="#1A1A1A" d="M5.158,74.477c0-0.879,0.241-1.563,0.712-2.062c0.471-0.498,1.077-0.743,1.82-0.743c0.481,0,0.921,0.115,1.318,0.351c0.387,0.23,0.69,0.556,0.89,0.975c0.209,0.419,0.313,0.89,0.313,1.418c0,0.534-0.115,1.015-0.324,1.438c-0.22,0.419-0.523,0.743-0.921,0.958c-0.397,0.222-0.826,0.324-1.287,0.324c-0.491,0-0.941-0.12-1.328-0.354c-0.388-0.24-0.691-0.569-0.89-0.982C5.263,75.376,5.158,74.937,5.158,74.477z M5.88,74.487c0,0.635,0.168,1.137,0.513,1.501c0.346,0.366,0.774,0.551,1.287,0.551c0.523,0,0.963-0.185,1.298-0.557c0.345-0.371,0.513-0.895,0.513-1.573c0-0.431-0.073-0.808-0.22-1.125c-0.146-0.319-0.355-0.57-0.639-0.743c-0.282-0.18-0.596-0.269-0.941-0.269c-0.492,0-0.921,0.167-1.276,0.507C6.06,73.119,5.88,73.692,5.88,74.487z"/>
<path fill="#1A1A1A" d="M11.112,71.767h0.7v4.656h2.752v-4.656h0.701v4.656h0.481v2.093H15.13v-1.47h-4.018V71.767z"/>
<path fill="#1A1A1A" d="M16.584,71.767h0.628v4.182l2.814-4.182h0.701v5.278h-0.639v-4.169l-2.814,4.169h-0.69V71.767z"/>
<path fill="#1A1A1A" d="M21.293,77.045l2.029-5.278h0.754l2.155,5.278h-0.796l-0.617-1.596h-2.207l-0.576,1.596H21.293zM22.82,74.88h1.789l-0.555-1.465c-0.167-0.445-0.293-0.813-0.377-1.096c-0.063,0.342-0.156,0.677-0.282,1.012L22.82,74.88z"/>
<path fill="#1A1A1A" d="M27.34,71.767h3.307v5.278h-0.701V72.39h-1.904v2.72c0,0.551-0.031,0.957-0.083,1.215c-0.053,0.256-0.157,0.454-0.325,0.602c-0.167,0.141-0.376,0.209-0.627,0.209c-0.157,0-0.335-0.026-0.555-0.083l0.115-0.623c0.114,0.052,0.22,0.073,0.303,0.073c0.157,0,0.272-0.06,0.356-0.178c0.073-0.12,0.114-0.397,0.114-0.844V71.767z"/>
<path fill="#1A1A1A" d="M31.808,77.045v-5.278h3.819v0.623h-3.118v1.616h2.92v0.618h-2.92v1.799h3.244v0.623L31.808,77.045L31.808,77.045z"/>
<path fill="#1A1A1A" d="M36.736,77.045v-5.278h0.701v2.166h2.741v-2.166h0.701v5.278h-0.701v-2.49h-2.741v2.49H36.736z"/>
<path fill="#1A1A1A" d="M46.007,72.4v-0.675h0.647V72.4c0.681,0.037,1.203,0.235,1.602,0.607c0.389,0.366,0.576,0.826,0.576,1.375c0,0.534-0.188,0.989-0.564,1.366c-0.377,0.372-0.91,0.581-1.61,0.617v0.68h-0.648v-0.68c-0.628-0.026-1.149-0.216-1.56-0.57c-0.42-0.356-0.629-0.827-0.629-1.413c0-0.591,0.209-1.063,0.617-1.412C44.855,72.615,45.379,72.426,46.007,72.4z M46.007,73.001c-0.438,0.021-0.784,0.146-1.057,0.387c-0.272,0.235-0.408,0.565-0.408,0.994c0,0.419,0.136,0.749,0.397,0.989c0.271,0.239,0.617,0.372,1.065,0.388L46.007,73.001L46.007,73.001z M46.654,72.996v2.768c0.461-0.021,0.807-0.151,1.068-0.393c0.262-0.24,0.387-0.57,0.387-0.989c0-0.413-0.125-0.743-0.377-0.983C47.48,73.159,47.115,73.022,46.654,72.996z"/>
<path fill="#1A1A1A" d="M49.491,74.477c0-0.879,0.229-1.563,0.7-2.062c0.472-0.497,1.078-0.743,1.83-0.743c0.48,0,0.922,0.115,1.317,0.351c0.39,0.23,0.69,0.556,0.892,0.975c0.209,0.419,0.313,0.89,0.313,1.418c0,0.534-0.113,1.015-0.325,1.438c-0.22,0.419-0.521,0.743-0.92,0.958c-0.397,0.222-0.825,0.324-1.286,0.324c-0.492,0-0.941-0.12-1.328-0.354c-0.397-0.24-0.69-0.569-0.892-0.982C49.596,75.376,49.491,74.937,49.491,74.477z M50.213,74.487c0,0.635,0.167,1.137,0.514,1.501c0.344,0.366,0.773,0.551,1.287,0.551c0.521,0,0.961-0.185,1.297-0.557c0.347-0.371,0.514-0.895,0.514-1.573c0-0.431-0.073-0.808-0.221-1.125c-0.146-0.319-0.354-0.57-0.639-0.743c-0.283-0.18-0.597-0.269-0.941-0.269c-0.49,0-0.92,0.167-1.275,0.507C50.391,73.122,50.213,73.692,50.213,74.487z"/>
<path fill="#1A1A1A" d="M55.465,77.045v-5.278h0.701v2.166h2.741v-2.166h0.7v5.278h-0.7v-2.49h-2.741v2.49H55.465z"/>
<path fill="#1A1A1A" d="M61.251,71.767h3.213v4.656h0.472v1.857h-0.617v-1.235h-3.494v1.235h-0.617v-1.857h0.406c0.42-0.638,0.64-1.938,0.64-3.887L61.251,71.767L61.251,71.767z M63.764,72.39h-1.843v0.271c0,0.443-0.042,1.062-0.114,1.842c-0.084,0.78-0.24,1.417-0.48,1.92h2.438V72.39z"/>
<rect x="0" y="0" fill="#114D97" width="75.004" height="49.943"/>
<polygon fill="#F7EC2F" points="30.705,13.393 28.987,12.158 27.272,13.393 27.858,11.295 26.215,9.961 28.288,9.904 28.987,7.847 29.689,9.904 31.761,9.961 30.118,11.295 "/>
<polygon fill="#F7EC2F" points="30.944,42.203 29.229,40.968 27.513,42.203 28.1,40.106 26.457,38.772 28.527,38.708 29.229,36.653 29.93,38.708 32.001,38.772 30.359,40.106 "/>
<polygon fill="#F7EC2F" points="39.283,44.431 37.567,43.197 35.853,44.431 36.438,42.339 34.784,40.999 36.866,40.938 37.567,38.881 38.258,40.938 40.34,40.999 38.697,42.339 "/>
<polygon fill="#F7EC2F" points="47.582,42.134 45.865,40.901 44.148,42.134 44.734,40.037 43.082,38.708 45.164,38.646 45.865,36.579 46.557,38.646 48.639,38.708 46.996,40.037 "/>
<polygon fill="#F7EC2F" points="53.682,35.951 51.965,34.716 50.25,35.951 50.836,33.859 49.191,32.526 51.275,32.462 51.965,30.402 52.666,32.462 54.736,32.526 53.096,33.859 "/>
<polygon fill="#F7EC2F" points="55.9,27.638 54.184,26.404 52.467,27.638 53.053,25.54 51.41,24.212 53.482,24.144 54.184,22.088 54.885,24.144 56.957,24.212 55.314,25.54 "/>
<polygon fill="#F7EC2F" points="53.482,19.257 51.766,18.028 50.061,19.257 50.646,17.164 48.992,15.83 51.074,15.768 51.766,13.712 52.467,15.768 54.549,15.83 52.896,17.164 "/>
<polygon fill="#F7EC2F" points="47.467,13.22 45.75,11.986 44.033,13.22 44.621,11.116 42.977,9.788 45.049,9.726 45.75,7.669 46.451,9.726 48.523,9.788 46.881,11.116 "/>
<polygon fill="#F7EC2F" points="39.043,11.066 37.327,9.83 35.611,11.066 36.197,8.972 34.554,7.632 36.626,7.575 37.327,5.513 38.027,7.575 40.109,7.632 38.457,8.972 "/>
<polygon fill="#F7EC2F" points="24.708,19.53 22.992,18.294 21.276,19.53 21.862,17.431 20.22,16.097 22.292,16.034 22.992,13.979 23.693,16.034 25.765,16.097 24.123,17.431 "/>
<polygon fill="#F7EC2F" points="22.542,27.812 20.826,26.576 19.11,27.812 19.696,25.713 18.043,24.379 20.125,24.317 20.826,22.26 21.518,24.317 23.601,24.379 21.957,25.713 "/>
<polygon fill="#F7EC2F" points="24.813,36.171 23.097,34.937 21.381,36.171 21.967,34.073 20.324,32.744 22.396,32.676 23.097,30.62 23.798,32.676 25.871,32.744 24.228,34.073 "/>
</svg>
