<svg  xmlns="http://www.w3.org/2000/svg" x="0px" y="0px" width="60px" height="60px" viewBox="0 0 60 60">
<g>
	<circle opacity="0.4" fill="#4A6484" cx="30" cy="30" r="25"/>
	<g>
		<path fill="#FFFFFF" d="M21.522,28.879c1.006,0,3.283,0.136,5.763,1.201c2.804,1.2,3.781,2.584,4.034,3.024l1.385,0.679
			c1.467,0.107,4.726,0.165,6.382-1.21c1.438-1.192,3.39-2.961,4.215-3.714l2.929,1.56c0.231,0.121,0.507,0.117,0.73-0.014
			c0.224-0.131,0.365-0.369,0.372-0.628l0.151-5.868c0.005-0.216-0.085-0.425-0.244-0.571c-0.161-0.148-0.377-0.217-0.593-0.193
			c-0.012,0.001-1.232,0.13-2.647-0.388c-0.875-0.32-1.644-0.818-2.284-1.481c-2.145-2.22-2.275-4.955-2.275-4.98
			c-0.01-0.306-0.205-0.575-0.492-0.68L22.455,9.577l-12.09-4.426c-0.389-0.142-0.82,0.058-0.963,0.447l-1.891,5.165
			c-0.143,0.389,0.059,0.82,0.447,0.962l11.386,4.168l-3.288,8.98c-0.114,0.314-0.007,0.667,0.264,0.864l3.755,2.729L21.522,28.879
			z"/>
		<path fill="#4A6484" d="M31.319,33.104c-0.034,0.188-0.117,0.553-0.312,1.172c-0.194,0.619-0.634,1.235-1.246,1.741l0.499,1.481
			c0.092,0.044,0.192,0.072,0.302,0.075l3.908,0.109c0.492,0.022,1.332,0.193,1.568,0.443c0.354,0.375,0.43,1.168,0.43,1.457
			c0.002,0.029,0.121,2.927-0.61,5.751c-0.713,2.755-3.008,6.123-3.032,6.157c-0.225,0.328-0.153,0.775,0.162,1.018
			c0.109,0.084,2.537,1.939,5.591,3.056c0.24,0.088,0.484,0.171,0.731,0.249c3.637,1.143,6.963,0.731,7.104,0.713
			c0.289-0.038,0.53-0.24,0.618-0.518c0.029-0.093,0.726-2.302,1.066-3.9c0.605-2.839,1.009-7.83,0.646-10.736
			c-0.116-0.925-0.336-2.067-0.568-3.277c-0.312-1.62-0.633-3.295-0.723-4.54c-0.12-1.7-0.121-3.677-0.121-3.781l0.015-0.557
			l-1.483-0.693l-2.326-1.239c-0.28-0.149-0.627-0.106-0.861,0.111c-0.026,0.024-2.72,2.505-4.547,4.022
			c-1.199,0.995-4.123,0.971-5.556,0.849L31.319,33.104z"/>
		<path fill="#354A5B" d="M24.174,34.702c-0.195-0.071-0.359-0.222-0.441-0.43c-0.151-0.385,0.038-0.821,0.424-0.973
			c0.016-0.007,1.687-0.667,2.791-1.25c1.055-0.556,2.521-1.884,2.535-1.897c0.307-0.278,0.781-0.254,1.06,0.05
			c0.278,0.306,0.256,0.781-0.05,1.06c-0.066,0.06-1.621,1.468-2.846,2.114c-1.178,0.621-2.869,1.29-2.941,1.317
			C24.528,34.765,24.34,34.763,24.174,34.702z"/>
		<path fill="#354A5B" d="M18.623,20.044L8.021,16.162c-0.39-0.143-0.589-0.573-0.446-0.962c0.143-0.389,0.572-0.589,0.961-0.447
			l10.604,3.882c0.39,0.142,0.59,0.573,0.447,0.962C19.443,19.986,19.013,20.186,18.623,20.044z"/>
		<path fill="#354A5B" d="M12.578,17.831c-0.389-0.142-0.588-0.573-0.446-0.962l1.425-3.894c0.143-0.389,0.574-0.588,0.963-0.446
			c0.389,0.143,0.589,0.573,0.446,0.962l-1.425,3.893C13.398,17.773,12.967,17.973,12.578,17.831z"/>
		<path fill="#354A5B" d="M20.049,16.15l-12.09-4.426c-0.389-0.143-0.59-0.573-0.447-0.962l1.891-5.165
			c0.143-0.389,0.574-0.589,0.963-0.447l12.09,4.426c0.389,0.142,0.589,0.573,0.447,0.962l-1.892,5.165
			C20.869,16.093,20.438,16.293,20.049,16.15z M9.179,10.574l10.682,3.91l1.375-3.756L10.554,6.817L9.179,10.574z"/>
		<path fill="#354A5B" d="M31.836,33.677c-0.199-0.073-0.361-0.228-0.44-0.429c-0.02-0.046-0.775-1.741-4.11-3.167
			c-3.318-1.425-6.277-1.188-6.305-1.185c-0.181,0.016-0.361-0.033-0.507-0.14l-4.153-3.018c-0.271-0.197-0.378-0.55-0.264-0.864
			l5.437-14.849c0.142-0.389,0.573-0.589,0.962-0.446l16.492,6.038c0.287,0.105,0.482,0.375,0.492,0.68
			c0,0.025,0.131,2.76,2.275,4.98c0.641,0.663,1.409,1.161,2.284,1.481c1.415,0.518,2.636,0.389,2.647,0.388
			c0.216-0.024,0.432,0.044,0.593,0.193c0.159,0.146,0.249,0.355,0.244,0.571l-0.151,5.868c-0.007,0.26-0.148,0.498-0.372,0.628
			c-0.224,0.131-0.499,0.135-0.73,0.014l-2.929-1.56c-0.825,0.753-2.777,2.522-4.215,3.714c-2.054,1.705-6.574,1.207-7.084,1.144
			C31.945,33.71,31.889,33.696,31.836,33.677z M27.082,28.386c0.262,0.096,0.527,0.2,0.795,0.315
			c3.022,1.293,4.248,2.818,4.696,3.567c1.433,0.122,4.356,0.146,5.556-0.849c1.827-1.517,4.521-3.998,4.547-4.022
			c0.234-0.217,0.581-0.26,0.861-0.111l2.326,1.239l0.1-3.872c-0.617-0.024-1.51-0.134-2.479-0.489h-0.001
			c-1.089-0.398-2.047-1.02-2.846-1.847c-1.982-2.051-2.51-4.425-2.648-5.457l-15.344-5.617L17.66,24.856l3.479,2.528
			C21.948,27.355,24.32,27.375,27.082,28.386z"/>
		<path fill="#4A6484" d="M29.871,27.134l-7.981-2.922c-0.389-0.142-0.589-0.573-0.446-0.962l2.879-7.865
			c0.143-0.389,0.573-0.588,0.961-0.446l7.983,2.922c2.459,0.9,3.728,3.634,2.827,6.094l-0.129,0.352
			C35.064,26.766,32.331,28.035,29.871,27.134z"/>
		<path fill="#354A5B" d="M38.579,55.565c-3.054-1.117-5.481-2.972-5.591-3.056c-0.315-0.243-0.387-0.69-0.162-1.018
			c0.024-0.034,2.319-3.402,3.032-6.157c0.731-2.824,0.612-5.722,0.61-5.751c0-0.288-0.076-1.082-0.43-1.457
			c-0.236-0.25-1.076-0.421-1.568-0.443l-3.908-0.109c-0.416-0.012-0.739-0.357-0.729-0.771c0.012-0.414,0.357-0.74,0.771-0.729
			l3.92,0.109c0.316,0.015,1.86,0.124,2.605,0.914c0.83,0.881,0.84,2.302,0.838,2.46c0.004,0.084,0.131,3.103-0.658,6.152
			c-0.594,2.297-2.111,4.861-2.844,6.014c0.957,0.653,3.017,1.949,5.293,2.66c2.553,0.802,4.991,0.76,5.989,0.697
			c0.224-0.739,0.648-2.188,0.882-3.284c0.581-2.719,0.971-7.481,0.625-10.237c-0.109-0.875-0.325-1.995-0.553-3.179
			c-0.32-1.663-0.65-3.382-0.746-4.716c-0.128-1.794-0.125-3.823-0.125-3.908c0.001-0.414,0.338-0.75,0.752-0.748
			s0.75,0.337,0.748,0.751c0,0.021-0.002,2.061,0.121,3.798c0.09,1.245,0.411,2.92,0.723,4.54c0.232,1.21,0.452,2.352,0.568,3.277
			c0.363,2.906-0.04,7.897-0.646,10.736c-0.341,1.598-1.037,3.807-1.066,3.9c-0.088,0.278-0.329,0.48-0.618,0.518
			c-0.141,0.018-3.467,0.429-7.104-0.713C39.063,55.737,38.819,55.653,38.579,55.565z"/>
		<path fill="#202020" d="M32.094,32.973"/>
		<path fill="#354A5B" d="M23.814,38.24c-2.447-0.895-3.89-2.917-4.103-4.807c-0.274-2.431,0.444-5.344,0.476-5.467
			c0.1-0.401,0.508-0.646,0.909-0.545c0.401,0.095,0.646,0.507,0.546,0.909c-0.007,0.028-0.684,2.776-0.441,4.935
			c0.193,1.708,1.916,3.661,4.729,3.919c2.5,0.229,4.582-1.331,5.078-2.907c0.309-0.983,0.336-1.325,0.337-1.339
			c0.029-0.405,0.376-0.722,0.782-0.704c0.403,0.018,0.724,0.346,0.717,0.752c-0.002,0.111-0.037,0.565-0.406,1.74
			c-0.78,2.486-3.699,4.221-6.645,3.952C25.075,38.611,24.414,38.459,23.814,38.24z"/>
		<path fill="#FFFFFF" d="M41.395,39.473c-0.695-0.255-1.055-1.028-0.8-1.724c0.255-0.695,1.028-1.054,1.724-0.8
			c0.695,0.255,1.055,1.028,0.801,1.724C42.864,39.368,42.09,39.727,41.395,39.473z"/>
		<path fill="#FFFFFF" d="M40.973,50.608c-0.695-0.254-1.055-1.028-0.8-1.724c0.255-0.695,1.028-1.055,1.724-0.8
			c0.695,0.254,1.055,1.028,0.8,1.724C42.441,50.504,41.668,50.863,40.973,50.608z"/>
		<path fill="#354A5B" d="M41.6,22.744c-0.207-0.019-0.404-0.121-0.537-0.3c-0.248-0.333-0.178-0.803,0.154-1.05
			c0.015-0.011,0.643-0.395,1.557-1.244c0.874-0.812,1.52-1.775,1.53-1.792c0.224-0.348,0.688-0.449,1.036-0.227
			c0.349,0.223,0.45,0.687,0.227,1.036c-0.047,0.074-0.758,1.139-1.772,2.082c-0.976,0.906-1.62,1.304-1.683,1.35
			C41.959,22.712,41.775,22.759,41.6,22.744z"/>
		<path fill="#FFFFFF" d="M29.086,22.399l-6.429-2.354c-0.389-0.142-0.589-0.573-0.446-0.962c0.143-0.389,0.572-0.589,0.962-0.447
			l6.429,2.354c0.389,0.142,0.588,0.573,0.445,0.962C29.905,22.341,29.475,22.541,29.086,22.399z"/>
	</g>
</g>
</svg>
