<svg  xmlns="http://www.w3.org/2000/svg" x="0px" y="0px" width="60px" height="60px" viewBox="0 0 60 60">
<g>
	<circle opacity="0.4" fill="#4A6484" cx="30" cy="30.001" r="25"/>
	<path fill="#FFFFFF" d="M30,56.733c-0.092,0-0.183-0.016-0.27-0.049c-0.412-0.16-10.182-4.033-15.938-15.631
		c-4.365-8.797-4.225-26.672-4.217-27.428c0.005-0.381,0.294-0.697,0.672-0.738c0.058-0.006,5.797-0.635,10.845-3.02
		c5.022-2.371,8.298-6.289,8.329-6.328C29.564,3.366,29.777,3.267,30,3.267l0,0c0.224,0,0.436,0.1,0.578,0.271
		c0.033,0.039,3.322,3.965,8.33,6.33c5.049,2.385,10.787,3.014,10.844,3.02c0.379,0.041,0.668,0.357,0.672,0.738
		c0.008,0.756,0.15,18.631-4.217,27.428c-5.754,11.598-15.523,15.471-15.937,15.631C30.184,56.718,30.092,56.733,30,56.733z"/>
	<g>
		<g>
			<g>
				<g>
					<path fill="#354A5B" d="M30,56.733c-0.092,0-0.183-0.016-0.27-0.049c-0.412-0.16-10.182-4.033-15.938-15.631
						c-4.365-8.797-4.225-26.672-4.217-27.428c0.005-0.381,0.294-0.697,0.672-0.738c0.058-0.006,5.797-0.635,10.845-3.02
						c5.022-2.371,8.298-6.289,8.329-6.328C29.564,3.366,29.777,3.267,30,3.267l0,0c0.224,0,0.436,0.1,0.578,0.271
						c0.033,0.039,3.322,3.965,8.33,6.33c5.049,2.385,10.787,3.014,10.844,3.02c0.379,0.041,0.668,0.357,0.672,0.738
						c0.008,0.756,0.15,18.631-4.217,27.428c-5.754,11.598-15.523,15.471-15.937,15.631C30.184,56.718,30.092,56.733,30,56.733z
						 M11.076,14.296c0.019,3.328,0.311,18.533,4.061,26.092C20.102,50.392,28.401,54.46,30,55.169
						c1.6-0.709,9.898-4.777,14.863-14.781c3.752-7.559,4.043-22.764,4.061-26.092c-1.708-0.24-6.353-1.039-10.656-3.072
						C34.15,9.28,31.193,6.417,30,5.144c-1.191,1.273-4.148,4.137-8.267,6.08C17.43,13.257,12.785,14.056,11.076,14.296z"/>
				</g>
			</g>
			<path fill="#4A6484" d="M45.988,16.632c-2.188-0.455-5.443-1.305-8.523-2.762c-3.004-1.418-5.447-3.322-6.967-4.67
				c-0.284-0.252-0.711-0.252-0.995,0c-2.181,1.934-4.589,3.549-6.968,4.67c-3.084,1.457-6.337,2.307-8.523,2.762
				c-0.356,0.074-0.607,0.396-0.596,0.76c0.155,4.563,0.822,15.791,3.666,21.523c3.881,7.816,10.081,11.727,12.567,13.045
				c0.11,0.057,0.23,0.086,0.351,0.086c0.121,0,0.242-0.029,0.352-0.086c2.486-1.318,8.686-5.227,12.566-13.045
				c2.844-5.73,3.512-16.961,3.666-21.523C46.597,17.028,46.346,16.706,45.988,16.632z M40.678,37.804
				C37.494,44.218,32.617,47.757,30,49.292c-2.609-1.529-7.492-5.068-10.678-11.488c-2.396-4.83-3.131-14.531-3.348-19.051
				c2.189-0.529,4.959-1.361,7.629-2.621c2.17-1.025,4.358-2.42,6.396-4.076c1.617,1.313,3.811,2.855,6.398,4.074
				c2.666,1.262,5.438,2.096,7.628,2.623C43.811,23.272,43.075,32.974,40.678,37.804z"/>
			<path fill="#4A6484" d="M35.25,27.034v-1.776c0-2.899-2.352-5.25-5.25-5.25c-2.899,0-5.25,2.35-5.25,5.25v1.776
				c-0.709,0.12-1.25,0.732-1.25,1.475v8c0,0.829,0.672,1.5,1.5,1.5h10c0.828,0,1.5-0.671,1.5-1.5v-8
				C36.5,27.766,35.959,27.153,35.25,27.034z M30,22.008c1.792,0,3.25,1.458,3.25,3.25v1.75h-6.5v-1.75
				C26.75,23.466,28.208,22.008,30,22.008z M30.75,32.8v1.458c0,0.414-0.336,0.75-0.75,0.75s-0.75-0.336-0.75-0.75V32.8
				c-0.446-0.26-0.75-0.738-0.75-1.292c0-0.829,0.672-1.5,1.5-1.5s1.5,0.671,1.5,1.5C31.5,32.062,31.196,32.541,30.75,32.8z"/>
		</g>
	</g>
</g>
</svg>
