<svg  xmlns="http://www.w3.org/2000/svg" x="0px" y="0px" width="60px" height="60px" viewBox="0 0 60 60">
<g>
	<circle opacity="0.4" fill="#4A6484" cx="30" cy="30" r="25"/>
	<g>
		<path fill="#FFFFFF" d="M27.265,12.726c-2.233,0-4.05,1.559-4.05,3.475v37.537c0,2.488,2.73,3.75,8.117,3.75
			s8.117-1.262,8.117-3.75V16.201c0-1.916-1.816-3.475-4.05-3.475H27.265z"/>
		<rect x="21.715" y="41.095" fill="#354A5B" width="19.234" height="1.5"/>
		<rect x="21.715" y="28.519" fill="#4A6484" width="19.234" height="9.287"/>
		<g>
			<path fill="#FFFFFF" d="M28.52,11.976v-1.629c0-1.105,1.119-2,2.5-2h0.625c1.381,0,2.5,0.894,2.5,2v1.629H28.52z"/>
			<path fill="#354A5B" d="M34.145,12.726H28.52c-0.414,0-0.75-0.336-0.75-0.75v-1.629c0-1.516,1.458-2.75,3.25-2.75h0.625
				c1.792,0,3.25,1.234,3.25,2.75v1.629C34.895,12.39,34.559,12.726,34.145,12.726z M29.27,11.226h4.125v-0.879
				c0-0.678-0.801-1.25-1.75-1.25H31.02c-0.949,0-1.75,0.572-1.75,1.25V11.226z"/>
		</g>
		<path fill="#354A5B" d="M31.332,58.988c-7.949,0-9.617-2.855-9.617-5.25V16.201c0-2.742,2.49-4.975,5.55-4.975h8.135
			c3.06,0,5.55,2.232,5.55,4.975v37.537C40.949,56.132,39.281,58.988,31.332,58.988z M27.265,12.726
			c-2.233,0-4.05,1.559-4.05,3.475v37.537c0,2.488,2.73,3.75,8.117,3.75s8.117-1.262,8.117-3.75V16.201
			c0-1.916-1.816-3.475-4.05-3.475H27.265z"/>
		<g>
			<path fill="#FFFFFF" d="M44.658,2.283c-0.123-0.379-0.539-0.602-0.922-0.498l-9.652,2.633c-0.384,0.104-0.595,0.5-0.473,0.877
				l0.388,1.18c0.124,0.377,0.534,0.586,0.911,0.461l9.498-3.1c0.377-0.123,0.586-0.533,0.462-0.91L44.658,2.283z"/>
			<path fill="#354A5B" d="M34.688,7.723L34.688,7.723c-0.639,0-1.202-0.408-1.4-1.016l-0.389-1.178
				C32.776,5.15,32.813,4.738,33,4.395c0.188-0.348,0.502-0.596,0.887-0.701l9.652-2.631c0.748-0.207,1.592,0.25,1.832,0.988
				l0.211,0.639c0.123,0.375,0.092,0.775-0.086,1.127c-0.178,0.35-0.482,0.611-0.854,0.732l-9.497,3.1
				C34.996,7.697,34.844,7.723,34.688,7.723z M43.945,2.518l-9.664,2.623l0.42,1.074l9.475-3.092L43.945,2.518z"/>
		</g>
		<g>
			<path fill="#FFFFFF" d="M42.192,8.664c0.062-0.392-0.207-0.783-0.595-0.869l-7.425-1.637c-0.388-0.086-0.755,0.166-0.815,0.559
				l-0.191,1.225c-0.062,0.393,0.209,0.763,0.604,0.826l7.494,1.166c0.393,0.061,0.765-0.211,0.826-0.604L42.192,8.664z"/>
			<path fill="#354A5B" d="M41.375,10.693L41.375,10.693c-0.075,0-0.15-0.006-0.227-0.018l-7.494-1.168
				c-0.389-0.061-0.73-0.268-0.963-0.586s-0.327-0.708-0.266-1.095l0.19-1.225c0.124-0.805,0.919-1.352,1.718-1.176l7.426,1.637
				c0.77,0.17,1.295,0.941,1.174,1.718l-0.103,0.664C42.72,10.156,42.094,10.693,41.375,10.693z M34.087,6.908l-0.18,1.148
				l7.446,1.132l0.098-0.639L34.087,6.908z"/>
		</g>
		<path fill="#354A5B" d="M18.574,37.873c-0.828,0-1.5-0.672-1.5-1.5c0-5.67-0.463-10.031-0.834-13.537
			c-0.567-5.352-0.942-8.887,0.815-12.225c3.772-7.162,12.511-5.546,12.88-5.474c0.813,0.158,1.344,0.947,1.186,1.76
			c-0.158,0.811-0.943,1.34-1.756,1.186l0,0c-0.281-0.055-6.93-1.248-9.655,3.927c-1.333,2.531-1.015,5.535-0.486,10.512
			c0.379,3.574,0.851,8.021,0.851,13.852C20.074,37.201,19.402,37.873,18.574,37.873z"/>
		<g>
			<circle fill="#FFFFFF" cx="31.332" cy="6.611" r="2.801"/>
			<path fill="#354A5B" d="M31.332,10.164c-1.958,0-3.551-1.594-3.551-3.552c0-1.957,1.593-3.551,3.551-3.551
				s3.551,1.594,3.551,3.551C34.883,8.57,33.29,10.164,31.332,10.164z M31.332,4.561c-1.131,0-2.051,0.92-2.051,2.051
				s0.92,2.052,2.051,2.052s2.051-0.921,2.051-2.052S32.463,4.561,31.332,4.561z"/>
		</g>
		<path fill="#354A5B" d="M20.037,52.253L20.037,52.253c-0.002,0-0.012,0-0.014,0l-3.311-0.018
			c-0.723-0.004-1.392-0.291-1.836-0.789c-0.398-0.443-0.583-1.012-0.52-1.602l1.201-11.342c0.109-1.025,1.074-1.826,2.197-1.826
			l1.417,0.008c1.126,0.004,2.087,0.816,2.185,1.848l1.053,11.359c0.055,0.586-0.137,1.15-0.537,1.59
			C21.426,51.972,20.756,52.253,20.037,52.253z M17.759,38.177c-0.377,0-0.685,0.256-0.708,0.484l-1.203,11.344
			c-0.018,0.166,0.032,0.314,0.146,0.441c0.162,0.182,0.428,0.287,0.727,0.289l3.311,0.018h0.006c0.299,0,0.563-0.104,0.728-0.283
			c0.116-0.127,0.167-0.275,0.152-0.441l-1.052-11.355c-0.022-0.229-0.326-0.486-0.7-0.488L17.759,38.177z"/>
		<path fill="#FFFFFF" d="M17.759,38.177c-0.377,0-0.685,0.256-0.708,0.484l-1.203,11.344c-0.018,0.166,0.032,0.314,0.146,0.441
			c0.162,0.182,0.428,0.287,0.727,0.289l3.311,0.018h0.006c0.299,0,0.563-0.104,0.728-0.283c0.116-0.127,0.167-0.275,0.152-0.441
			l-1.052-11.355c-0.022-0.229-0.326-0.486-0.7-0.488L17.759,38.177z"/>
	</g>
</g>
</svg>
