<svg xmlns="http://www.w3.org/2000/svg" viewBox="0 0 512 512">

	<path fill="#FFFFFF" d="M364.14,374.524c-8.317-2.971-17.478,1.372-20.443,9.696C323.271,441.51,268.739,480,208,480
		c-79.401,0-144-64.598-144-143.999c0-54.176,30.025-103.28,78.358-128.149c7.856-4.043,10.95-13.69,6.907-21.547
		c-4.042-7.857-13.689-10.95-21.548-6.907c-28.334,14.58-52.241,36.598-69.137,63.674C41.191,270.941,32,303.075,32,336.002
		c0,97.046,78.953,175.999,176,175.999c74.235,0,140.881-47.031,165.838-117.032C376.805,386.645,372.464,377.491,364.14,374.524z"
		/>
	<circle fill="#FFFFFF" cx="210.125" cy="48" r="48"/>
	<path fill="#FFFFFF" d="M479.382,442.167l-71.614-150.83c-3.719-8.442-12.153-14.341-21.972-14.341H277.473l-9.822-64.079h93.474
		c8.837,0,16-7.164,16-16s-7.163-16-16-16h-98.379l-4.371-28.516c-2.678-17.469-19.007-29.462-36.479-26.782
		c-17.469,2.678-29.459,19.01-26.782,36.479c0,0,22.511,140.61,23.147,143.625c2.195,10.99,11.896,19.272,23.531,19.272
		l146.856-0.005l61.796,130.842c2.731,5.783,8.481,9.171,14.479,9.171c2.289,0,4.614-0.494,6.821-1.536
		C479.736,459.693,483.154,450.157,479.382,442.167z"/>

</svg>
