<svg xmlns="http://www.w3.org/2000/svg" viewBox="0 0 40 40">
<path fill="#A3A3A3" d="M23.102,20L38.359,4.245c0.854-0.856,0.854-2.245,0-3.102c-0.857-0.857-2.246-0.857-3.104,0L19.999,16.898
	L4.744,1.142c-0.856-0.856-2.244-0.856-3.101,0c-0.857,0.857-0.857,2.246,0,3.103L16.898,20L1.642,35.754
	c-0.856,0.855-0.856,2.245,0,3.104C2.07,39.286,2.632,39.5,3.193,39.5c0.562,0,1.123-0.214,1.551-0.643l15.255-15.756l15.257,15.756
	c0.43,0.429,0.989,0.643,1.551,0.643c0.563,0,1.123-0.214,1.551-0.643c0.856-0.856,0.856-2.244,0-3.104L23.102,20z"/>
</svg>
