<svg xmlns="http://www.w3.org/2000/svg" viewBox="0 0 512 512">
<path fill="#D13530" d="M255,8C118.043,8,7,119.013,7,256c0,136.957,111.043,248,248,248s248-111.043,248-248
	C503,119.013,391.957,8,255,8z M255,472c-119.103,0-216-96.897-216-216c0-57.702,22.47-111.947,63.269-152.742
	C143.063,62.465,197.305,40,255,40c57.695,0,111.938,22.465,152.732,63.258C448.531,144.053,471,198.298,471,256
	C471,375.103,374.102,472,255,472z"/>
<path fill="#D13530" d="M364.515,272H147.484c-8.836,0-16-7.163-16-16c0-8.836,7.164-16,16-16h217.031c8.837,0,16,7.164,16,16
	C380.515,264.837,373.352,272,364.515,272z"/>
</svg>
