<svg xmlns="http://www.w3.org/2000/svg" viewBox="0 0 512 512">
<g>
	<path fill="#b35b58" d="M149.846,460.038c-20.399,0-40.165-11.412-55.652-32.134c-0.957-1.28-1.895-2.592-2.813-3.937
		c-14.071,7.132-29.233,9.676-45.6,7.729c-19.455-2.321-35.966-10.104-36.659-10.436c-7.979-3.799-11.365-13.347-7.565-21.325
		c3.8-7.978,13.348-11.362,21.325-7.564c0.089,0.041,12.611,5.871,26.689,7.55c5.385,0.644,14.97,1.786,26.999-4.305
		c-5.978-15.09-10.345-32.287-12.912-51.074c-6.796-49.707-3.3-107.57,9.845-162.932c12.746-53.681,32.657-95.847,54.63-115.684
		c16.5-14.896,31.482-15.23,41.144-12.886c15.706,3.809,27.98,14.162,35.5,29.94c12.181,25.564,12.383,65.538,0.603,118.812
		c-10.132,45.817-28.75,98.488-52.426,148.313c-10.993,23.131-22.95,41.314-35.98,54.634c10.145,15.412,22.083,23.299,32.874,23.299
		c17.124,0,27.686-17.091,41.841-43.165c13.06-24.053,27.86-51.314,56.78-51.314c16.038,0,28.407,5.659,36.766,16.821
		c6.554,8.753,9.382,19.364,11.878,28.726c3.693,13.858,6.133,20.702,12.51,23.575c9.317,4.192,17.492,0.035,33.928-10.46
		c12.438-7.941,26.566-16.918,43.368-16.668c22.881,0.377,35.448,12.145,44.625,20.736c6.944,6.503,10.862,9.937,17.184,10.807
		c13.996,1.927,31.112-11.51,36.013-16.369c6.271-6.222,16.402-6.181,22.627,0.097c6.222,6.273,6.18,16.403-0.097,22.627
		c-3.082,3.057-31.039,29.736-62.907,25.348c-16.695-2.3-26.673-11.643-34.69-19.148c-8.369-7.836-13.205-11.935-23.277-12.1
		c-7.196-0.111-16.15,5.595-25.62,11.643c-16.132,10.302-38.228,24.409-64.293,12.666c-20.938-9.433-26.235-29.733-30.287-44.509
		c-4.604-16.791-7.146-21.791-17.724-21.791c-9.882,0-19.427,17.582-28.657,34.584C205.32,426.827,187.289,460.038,149.846,460.038z
		 M160.338,83.979c-3.632,0-7.773,3.001-10.763,5.701c-16.769,15.138-33.987,53.197-44.939,99.325
		c-12.077,50.866-15.458,105.979-9.273,151.205c1.646,12.054,4.063,22.903,7.051,32.53c6.973-8.989,14.248-20.82,21.636-36.368
		c22.67-47.709,40.457-97.957,50.083-141.487c9.917-44.846,10.54-79.699,1.754-98.138c-4.43-9.298-10.198-11.647-14.151-12.606
		C161.278,84.03,160.813,83.979,160.338,83.979z"/>
	<g>
		<path fill="#CD5955" d="M496.002,294.273c-4.095,0-8.189-1.563-11.313-4.688L286.697,91.599c-6.249-6.249-6.249-16.379,0-22.627
			c6.248-6.249,16.379-6.249,22.627,0l197.99,197.989c6.249,6.248,6.249,16.379,0,22.627
			C504.191,292.711,500.097,294.273,496.002,294.273z"/>
		<path fill="#CD5955" d="M298.01,294.273c-4.096,0-8.188-1.563-11.313-4.688c-6.249-6.248-6.249-16.379,0-22.627L484.689,68.97
			c6.248-6.247,16.38-6.248,22.627,0c6.248,6.249,6.248,16.379,0,22.627L309.324,289.585
			C306.199,292.711,302.105,294.273,298.01,294.273z"/>
	</g>
</g>
</svg>
