<svg xmlns="http://www.w3.org/2000/svg" viewBox="0 0 512 512">
<path fill="#FFFFFF" d="M504,256c0,136.967-111.032,248-248,248C119.033,504,8,392.967,8,256S119.033,8,256,8
	C392.968,8,504,119.033,504,256z M227.314,387.314l184-184c6.247-6.248,6.247-16.379,0-22.627l-22.628-22.627
	c-6.247-6.249-16.379-6.249-22.628,0L216,308.118l-70.059-70.059c-6.248-6.248-16.379-6.248-22.628,0l-22.627,22.626
	c-6.248,6.248-6.248,16.379,0,22.627l104,104C210.935,393.563,221.065,393.563,227.314,387.314L227.314,387.314z"/>
</svg>
