<svg xmlns="http://www.w3.org/2000/svg" viewBox="0 0 512 512">
<path fill="#FFFFFF" d="M504,256c0,136.997-111.043,248-248,248S8,392.997,8,256C8,119.083,119.043,8,256,8S504,119.083,504,256z
	 M256,306c-25.404,0-46,20.596-46,46s20.596,46,46,46c25.404,0,46-20.596,46-46S281.404,306,256,306z M212.327,140.654l7.418,136
	c0.348,6.363,5.609,11.346,11.982,11.346h48.546c6.373,0,11.635-4.982,11.98-11.346l7.418-136
	c0.375-6.874-5.098-12.654-11.98-12.654h-63.383C217.424,128,211.952,133.78,212.327,140.654z"/>
</svg>
