<svg xmlns="http://www.w3.org/2000/svg" viewBox="0 0 512 512">
<g>
	<path fill="#D13530" d="M79.488,464.512c-8.189,0-16.379-3.124-22.627-9.373c-12.497-12.496-12.497-32.758,0-45.255L409.884,56.861
		c12.498-12.497,32.759-12.497,45.255,0c12.497,12.497,12.497,32.758,0,45.255L102.115,455.139
		C95.867,461.388,87.677,464.512,79.488,464.512z"/>
	<path fill="#D13530" d="M47.488,79.488c0-8.189,3.124-16.379,9.373-22.627c12.496-12.497,32.758-12.497,45.255,0l353.022,353.023
		c12.497,12.498,12.497,32.759,0,45.255c-12.496,12.497-32.758,12.497-45.255,0L56.861,102.116
		C50.612,95.867,47.488,87.678,47.488,79.488z"/>
</g>
</svg>
