<svg xmlns="http://www.w3.org/2000/svg" viewBox="0 0 512 512">
<path fill="#c6d9f0" d="M256,0C114.615,0,0,114.615,0,256s114.615,256,256,256c141.386,0,256-114.615,256-256S397.385,0,256,0z
	 M256,452.5c-108.523,0-196.5-87.977-196.5-196.5S147.476,59.5,256,59.5c108.524,0,196.5,87.977,196.5,196.5
	S364.524,452.5,256,452.5z"/>
<path fill="#00699b" d="M384.017,477.733l-29.754-51.536C325.357,442.923,291.797,452.5,256,452.5
	c-35.799,0-69.357-9.577-98.264-26.303l-29.754,51.535C165.64,499.522,209.361,512,256,512
	C302.636,512,346.357,499.522,384.017,477.733z"/>
</svg>
