<svg xmlns="http://www.w3.org/2000/svg" viewBox="0 0 512 512">
<path fill="#767676" d="M255,8C118.043,8,7,119.013,7,256c0,136.957,111.043,248,248,248s248-111.043,248-248
	C503,119.013,391.957,8,255,8z M255,472c-119.103,0-216-96.897-216-216c0-57.702,22.47-111.947,63.269-152.742
	C143.063,62.465,197.305,40,255,40c57.695,0,111.938,22.465,152.732,63.258C448.531,144.053,471,198.298,471,256
	C471,375.103,374.102,472,255,472z"/>
<g>
	<path fill="#767676" d="M252.481,299.527c-8.179,0-15.155-6.24-15.915-14.545c-3.869-42.299,15.421-54.672,42.15-71.699
		c17.789-13.25,20.806-22.556,20.806-38.267c0-15.985-15.938-30.543-33.437-30.543c-25.659,0-37.345,19.326-37.345,37.281
		c0,8.836-7.164,16-16,16s-16-7.164-16-16c0-17.91,6.38-34.788,17.964-47.526c12.759-14.029,31.006-21.755,51.381-21.755
		c35.471,0,65.437,28.641,65.437,62.543c0,23.439-5.82,43.349-34.227,64.327c-0.295,0.219-0.599,0.427-0.908,0.625l-0.326,0.207
		c-25.768,16.415-29.728,18.936-27.628,41.893c0.805,8.801-5.677,16.586-14.477,17.391
		C253.462,299.504,252.969,299.527,252.481,299.527z"/>
	<circle fill="#767676" cx="255" cy="365.527" r="34"/>
</g>
</svg>
