<svg xmlns="http://www.w3.org/2000/svg" viewBox="0 0 512 512">
<path fill="#658723" d="M432,32H80c-26.51,0-48,21.49-48,48v352c0,26.51,21.49,48,48,48h352c26.513,0,48-21.49,48-48V80
	C480,53.49,458.51,32,432,32z M448,432c0,8.822-7.178,16-16,16H80c-8.822,0-16-7.178-16-16V80c0-8.822,7.178-16,16-16h352
	c8.822,0,16,7.178,16,16V432z"/>
<path fill="#658723" d="M216.49,353.592c-0.021,0-0.042,0-0.063,0c-4.265-0.017-8.347-1.736-11.339-4.775l-84.165-85.499
	c-6.199-6.298-6.12-16.428,0.178-22.627c6.298-6.199,16.428-6.119,22.627,0.178l72.852,74.007l151.78-151.78
	c6.248-6.249,16.379-6.249,22.627,0c6.249,6.248,6.249,16.379,0,22.627L227.804,348.905
	C224.803,351.906,220.733,353.592,216.49,353.592z"/>
</svg>
