<svg xmlns="http://www.w3.org/2000/svg" viewBox="0 0 512 512">
<path fill="#4a6484" d="M512.013,422.166L512,78.446c0-17.046-12.605-30.659-28.04-30.66c-0.593,0-1.188,0.02-1.789,0.061
	c-5.231,0.335-10.931,0.768-17.005,1.322V36.013c0-20.017-12.762-36.005-28.386-36.005c-0.601,0-1.202,0.023-1.811,0.071
	C390.992,3.35,314.602,14.407,256,51.606C197.397,14.407,121.008,3.35,77.03,0.079c-0.607-0.048-1.211-0.071-1.81-0.071
	C59.594,0.007,46.833,15.995,46.833,36.013v13.155c-6.073-0.555-11.771-0.986-17.002-1.321c-0.6-0.041-1.197-0.061-1.789-0.061
	C12.606,47.786,0,61.399,0,78.446l-0.014,343.72c-0.134,5.353,0.775,20.114,13.362,32.701
	c10.029,10.029,23.773,12.797,31.215,13.558c26.619,3.173,107.971,12.007,136.172,13.768c0,0,30.791,29.8,75.265,29.8
	c44.473,0,75.265-29.8,75.265-29.8s109.542-10.594,136.167-13.767c7.379-0.748,21.166-3.506,31.22-13.559
	C511.238,442.28,512.148,427.519,512.013,422.166z M94.833,394.64V49.999c38.564,4.535,93.524,15.523,135.442,42.133
	c0.569,0.361,1.145,0.705,1.725,1.04V427.13C184.02,407.403,133.99,398.523,94.833,394.64z M417.166,394.642
	c-39.177,3.887-89.2,12.768-137.166,32.489V93.171c0.58-0.334,1.155-0.678,1.725-1.039c41.918-26.609,96.877-37.598,135.441-42.133
	V394.642z"/>
</svg>
