<svg xmlns="http://www.w3.org/2000/svg" viewBox="0 0 512 512">
<path fill="#4a6484" d="M463,356.75V31.25C463,18.366,452.635,8,439.75,8H142c-51.344,0-93,41.656-93,93v310
	c0,51.344,41.656,93,93,93h297.75c12.893,0,23.25-10.366,23.25-23.25v-15.5c0-7.266-3.391-13.854-8.613-18.116
	c-4.068-14.917-4.068-57.446,0-72.364C459.609,370.604,463,364.016,463,356.75z M167.5,137.813c0-3.197,2.616-5.813,5.813-5.813
	h185.375c3.198,0,5.813,2.616,5.813,5.813v19.375c0,3.197-2.607,5.813-5.813,5.813H173.312c-3.197,0-5.813-2.616-5.813-5.813
	L167.5,137.813z M167.5,199.813c0-3.197,2.616-5.813,5.813-5.813h185.375c3.198,0,5.813,2.616,5.813,5.813v19.375
	c0,3.197-2.607,5.813-5.813,5.813H173.312c-3.197,0-5.813-2.616-5.813-5.813L167.5,199.813z M398.481,442H142
	c-17.145,0-31-13.854-31-31c0-17.05,13.95-31,31-31h256.481C396.64,396.565,396.64,425.435,398.481,442z"/>
</svg>
