<svg xmlns="http://www.w3.org/2000/svg" viewBox="0 0 512 512">
<path fill="#4a6484" d="M433.9,98L350,14.1C341,5.1,328.8,0,316.1,0H112C85.5,0,64,21.5,64,48v416c0,26.5,21.5,48,48,48h288
	c26.5,0,48-21.5,48-48V131.9C448,119.2,442.9,106.9,433.9,98z M320,51.9L396.1,128H320V51.9z M400,464H112V48h160v104
	c0,13.3,10.7,24,24,24h104V464z"/>
<path fill="#4a6484" d="M256.697,184.193c-37.153,0-60.851,15.652-79.459,43.469c-2.411,3.604-1.606,8.464,1.851,11.085
	l23.657,17.937c3.549,2.691,8.605,2.051,11.362-1.446c12.178-15.448,20.529-24.406,39.067-24.406c13.93,0,31.157,8.964,31.157,22.47
	c0,10.21-8.429,15.455-22.181,23.165c-16.039,8.991-37.261,20.182-37.261,48.175v2.727c0,4.518,3.663,8.183,8.181,8.183h38.18
	c4.519,0,8.182-3.665,8.182-8.183v-0.908c0-19.405,56.717-20.214,56.717-72.725C336.148,214.19,295.129,184.193,256.697,184.193z
	 M252.162,353.276c-17.293,0-31.363,14.068-31.363,31.361S234.869,416,252.162,416s31.361-14.069,31.361-31.362
	S269.455,353.276,252.162,353.276z"/>
</svg>
