<svg  xmlns="http://www.w3.org/2000/svg" x="0px" y="0px" width="60px" height="60px" viewBox="0 0 60 60">
<g>
	<circle opacity="0.4" fill="#4A6484" cx="30" cy="30" r="25"/>
	<g>
		<path fill="#FFFFFF" d="M42.201,15.475c1.818,0,3.299,1.221,3.299,2.723v34.125c0,1.502-1.48,2.725-3.299,2.725h-24.4
			c-1.82,0-3.301-1.223-3.301-2.725V18.197c0-1.502,1.48-2.723,3.301-2.723H42.201"/>
		<path fill="#4A6484" d="M41.345,26.619v14.109c0,4.166-3.459,7.555-7.711,7.555h-7.267c-4.252,0-7.711-3.389-7.711-7.555V26.619
			H41.345z"/>
		<path fill="#FFFFFF" d="M26.65,30.844c-0.414,0-0.75-0.336-0.75-0.75v-3.475h1.5v3.475C27.4,30.508,27.064,30.844,26.65,30.844z"
			/>
		<path fill="#4A6484" d="M22.629,56.547c-0.413,0-0.748-0.334-0.75-0.746c-0.005-0.348-0.145-3.375-3.69-3.375
			c-4.095,0-5.185-3.186-5.188-4.869c-0.002-0.414,0.334-0.75,0.748-0.752h0.001c0.414,0,0.749,0.336,0.751,0.748
			c0.004,0.342,0.142,3.373,3.688,3.373c4.095,0,5.186,3.184,5.19,4.869C23.379,56.209,23.007,56.553,22.629,56.547z"/>
		<path fill="#4A6484" d="M37.371,56.547h-0.002c-0.414-0.002-0.749-0.338-0.748-0.752c0.004-1.684,1.094-4.869,5.189-4.869
			c3.64,0,3.688-3.234,3.689-3.373c0.001-0.412,0.337-0.748,0.75-0.748c0.001,0,0.001,0,0.002,0
			c0.414,0.002,0.749,0.338,0.748,0.752c-0.004,1.684-1.094,4.869-5.189,4.869c-3.64,0-3.688,3.234-3.689,3.373
			C38.12,56.211,37.784,56.547,37.371,56.547z"/>
		<rect x="13" y="25.869" fill="#354A5B" width="34.001" height="1.5"/>
		<path fill="#4A6484" d="M34.497,21.887h-8.992c-4.253,0-7.712-3.102-7.712-6.916c0-0.414,1.5-0.414,1.5,0
			c0,2.986,2.787,5.416,6.212,5.416h8.992c3.426,0,6.213-2.43,6.213-5.416c0-0.414,1.5-0.414,1.5,0
			C42.21,18.785,38.75,21.887,34.497,21.887z"/>
		<path fill="#354A5B" d="M42.201,15.475c1.818,0,3.299,1.221,3.299,2.723v34.125c0,1.502-1.48,2.725-3.299,2.725h-24.4
			c-1.82,0-3.301-1.223-3.301-2.725V18.197c0-1.502,1.48-2.723,3.301-2.723H42.201 M42.201,13.975h-24.4
			c-2.65,0-4.801,1.891-4.801,4.223v34.125c0,2.332,2.15,4.225,4.801,4.225h24.4c2.65,0,4.799-1.893,4.799-4.225V18.197
			C47,15.865,44.852,13.975,42.201,13.975L42.201,13.975z"/>
		<path fill="#354A5B" d="M38.937,5.766H21.064c-0.414,0-0.75-0.336-0.75-0.75V3.406c0-1.357,1.439-2.42,3.277-2.42h12.816
			c1.839,0,3.278,1.063,3.278,2.42v1.609C39.687,5.43,39.351,5.766,38.937,5.766z M21.814,4.266h16.372V3.406
			c0-0.426-0.776-0.92-1.778-0.92H23.592c-1.001,0-1.777,0.494-1.777,0.92V4.266z"/>
		<g>
			<g>
				<rect x="23" y="5.016" fill="#354A5B" width="1.5" height="9.695"/>
				<rect x="35.501" y="5.016" fill="#354A5B" width="1.5" height="9.695"/>
			</g>
		</g>
		<g>
			<circle fill="#4A6484" cx="19.32" cy="57.678" r="1.5"/>
			<path fill="#354A5B" d="M19.32,60c-1.281,0-2.322-1.043-2.322-2.322c0-1.281,1.041-2.322,2.322-2.322
				c1.279,0,2.322,1.041,2.322,2.322C21.643,58.957,20.6,60,19.32,60z M19.32,56.855c-0.454,0-0.822,0.369-0.822,0.822
				S18.866,58.5,19.32,58.5c0.453,0,0.822-0.369,0.822-0.822S19.773,56.855,19.32,56.855z"/>
		</g>
		<path fill="#FFFFFF" d="M21.814,4.266h16.372V3.406c0-0.426-0.776-0.92-1.778-0.92H23.592c-1.001,0-1.777,0.494-1.777,0.92V4.266
			z"/>
		<g>
			<circle fill="#4A6484" cx="40.681" cy="57.678" r="1.5"/>
			<path fill="#354A5B" d="M40.681,60c-1.281,0-2.322-1.043-2.322-2.322c0-1.281,1.041-2.322,2.322-2.322
				c1.279,0,2.322,1.041,2.322,2.322C43.003,58.957,41.96,60,40.681,60z M40.681,56.855c-0.454,0-0.822,0.369-0.822,0.822
				s0.368,0.822,0.822,0.822c0.453,0,0.822-0.369,0.822-0.822S41.134,56.855,40.681,56.855z"/>
		</g>
	</g>
</g>
</svg>
