<?xml version="1.0" encoding="utf-8"?>
<!-- Generator: Adobe Illustrator 16.0.0, SVG Export Plug-In . SVG Version: 6.00 Build 0)  -->
<!DOCTYPE svg PUBLIC "-//W3C//DTD SVG 1.1//EN" "http://www.w3.org/Graphics/SVG/1.1/DTD/svg11.dtd">
<svg version="1.1" xmlns="http://www.w3.org/2000/svg" xmlns:xlink="http://www.w3.org/1999/xlink" x="0px" y="0px" width="70px"
	 height="60px" viewBox="0 0 70 60" enable-background="new 0 0 70 60" xml:space="preserve">
<g id="Layer_2">
</g>
<g id="Layer_3">
	<g>
		<circle opacity="0.4" fill="#4A6484" cx="30.429" cy="30" r="25.001"/>
		<g>
			<path fill="#FFFFFF" d="M38.244,39.186c0-7.104,4.924-13.096,11.533-14.762C47.359,16.094,39.688,10,30.58,10
				c-11.045,0-20,8.955-20,20s8.955,20,20,20c3.656,0,7.071-0.996,10.02-2.709C39.115,44.939,38.244,42.164,38.244,39.186z"/>
			<g>
				<path fill="#4A6484" d="M61.706,40.715c0.186-1.014,0.186-2.049,0-3.061l1.854-1.072c0.215-0.123,0.311-0.373,0.238-0.611
					c-0.482-1.551-1.309-2.961-2.389-4.127c-0.164-0.178-0.432-0.223-0.645-0.1l-1.855,1.072c-0.783-0.67-1.684-1.188-2.652-1.533
					v-2.141c0-0.244-0.174-0.461-0.41-0.512c-1.604-0.357-3.234-0.344-4.76,0c-0.236,0.051-0.406,0.268-0.406,0.512v2.141
					c-0.972,0.346-1.87,0.863-2.653,1.533l-1.855-1.072c-0.209-0.123-0.482-0.078-0.646,0.1c-1.078,1.166-1.904,2.576-2.387,4.127
					c-0.072,0.238,0.029,0.488,0.238,0.611l1.854,1.072c-0.186,1.012-0.186,2.047,0,3.061l-1.854,1.072
					c-0.217,0.121-0.311,0.373-0.238,0.611c0.482,1.553,1.309,2.955,2.387,4.125c0.164,0.18,0.432,0.223,0.646,0.1l1.855-1.07
					c0.783,0.668,1.682,1.188,2.653,1.531v2.143c0,0.242,0.17,0.459,0.406,0.512c1.605,0.357,3.236,0.342,4.76,0
					c0.236-0.053,0.41-0.27,0.41-0.512v-2.143c0.969-0.344,1.869-0.863,2.652-1.531l1.855,1.07c0.207,0.123,0.48,0.08,0.645-0.1
					c1.08-1.164,1.906-2.572,2.389-4.125c0.072-0.238-0.029-0.49-0.238-0.611L61.706,40.715z"/>
				<path fill="#FFFFFF" d="M53.476,42.67c-1.928,0-3.486-1.566-3.486-3.486c0-1.918,1.566-3.486,3.486-3.486
					c1.918,0,3.484,1.568,3.484,3.486C56.96,41.104,55.401,42.67,53.476,42.67z"/>
			</g>
			<g>
				<path fill="#354A5B" d="M53.472,50.75c-0.855,0-1.713-0.094-2.547-0.279c-0.574-0.127-0.994-0.65-0.994-1.244v-1.629
					c-0.702-0.295-1.362-0.676-1.972-1.139l-1.412,0.814c-0.508,0.293-1.184,0.184-1.574-0.242c-1.166-1.266-2.047-2.791-2.551-4.41
					c-0.178-0.584,0.064-1.193,0.586-1.488l1.404-0.811c-0.094-0.758-0.094-1.52,0-2.275l-1.41-0.814
					c-0.518-0.305-0.754-0.912-0.582-1.48c0.508-1.633,1.391-3.158,2.555-4.418c0.391-0.422,1.08-0.527,1.578-0.236l1.406,0.813
					c0.607-0.461,1.268-0.842,1.972-1.139v-1.629c0-0.596,0.42-1.119,1-1.244c1.639-0.371,3.406-0.373,5.08,0.002
					c0.574,0.123,0.996,0.646,0.996,1.242v1.629c0.705,0.297,1.367,0.678,1.973,1.139l1.41-0.814c0.5-0.289,1.182-0.184,1.572,0.24
					c1.162,1.256,2.045,2.781,2.553,4.412c0.176,0.58-0.064,1.188-0.582,1.484l-1.406,0.814c0.094,0.756,0.094,1.518,0,2.275
					l1.408,0.814c0.518,0.303,0.754,0.908,0.582,1.479c-0.51,1.637-1.393,3.164-2.557,4.418c-0.238,0.26-0.58,0.41-0.938,0.41l0,0
					c-0.227,0-0.447-0.061-0.641-0.176l-1.402-0.809c-0.609,0.461-1.27,0.842-1.973,1.139v1.629c0,0.594-0.42,1.117-1,1.244
					C55.183,50.656,54.327,50.75,53.472,50.75z M51.431,49.045c1.348,0.273,2.744,0.273,4.076-0.002v-1.959
					c0-0.318,0.201-0.602,0.5-0.707c0.887-0.314,1.699-0.783,2.416-1.395c0.242-0.207,0.586-0.238,0.861-0.08l1.695,0.979
					c0.916-1.023,1.619-2.238,2.049-3.535l-1.697-0.98c-0.273-0.158-0.42-0.473-0.361-0.785c0.168-0.926,0.168-1.865,0-2.791
					c-0.059-0.313,0.088-0.625,0.361-0.785l1.697-0.98c-0.43-1.295-1.133-2.514-2.049-3.537l-1.695,0.979
					c-0.275,0.158-0.619,0.127-0.861-0.078c-0.713-0.609-1.525-1.078-2.418-1.396c-0.299-0.107-0.498-0.391-0.498-0.707v-1.957
					c-1.355-0.277-2.75-0.277-4.076-0.002v1.959c0,0.318-0.199,0.602-0.498,0.707c-0.891,0.316-1.704,0.787-2.417,1.396
					c-0.244,0.207-0.586,0.238-0.863,0.078l-1.695-0.979c-0.914,1.025-1.617,2.242-2.047,3.537l1.695,0.98
					c0.275,0.16,0.42,0.473,0.363,0.785c-0.17,0.926-0.17,1.865,0,2.791c0.057,0.313-0.088,0.627-0.363,0.785l-1.695,0.98
					c0.426,1.287,1.129,2.504,2.047,3.537l1.695-0.98c0.275-0.158,0.619-0.127,0.863,0.08c0.717,0.613,1.528,1.082,2.415,1.395
					c0.299,0.105,0.5,0.389,0.5,0.707V49.045z"/>
				<path fill="#354A5B" d="M53.476,43.42c-2.336,0-4.235-1.9-4.235-4.236s1.899-4.236,4.235-4.236s4.234,1.9,4.234,4.236
					S55.812,43.42,53.476,43.42z M53.476,36.447c-1.508,0-2.736,1.227-2.736,2.736s1.229,2.736,2.736,2.736s2.734-1.227,2.734-2.736
					S54.983,36.447,53.476,36.447z"/>
			</g>
			<path fill="#354A5B" d="M50.497,24.215C47.941,15.404,39.75,9.25,30.58,9.25C19.138,9.25,9.83,18.559,9.83,30
				s9.309,20.75,20.75,20.75c3.636,0,7.231-0.973,10.397-2.811c0.176-0.104,0.303-0.271,0.352-0.471
				c0.049-0.197,0.014-0.406-0.094-0.578c-0.988-1.564-1.652-3.285-1.986-5.072c-0.068-0.369-0.123-0.736-0.162-1.104
				c-0.01-0.086-0.02-0.172-0.027-0.26c-0.039-0.426-0.064-0.85-0.064-1.27c0-0.373,0.02-0.742,0.047-1.109
				c0.014-0.164,0.033-0.326,0.053-0.49c0.021-0.188,0.043-0.375,0.072-0.563c0.033-0.221,0.072-0.441,0.117-0.662
				c0.02-0.102,0.043-0.201,0.064-0.303c0.355-1.572,0.971-3.09,1.84-4.484c0.008-0.014,0.006-0.033,0.014-0.047
				c1.936-3.09,5.016-5.432,8.759-6.377c0.197-0.049,0.365-0.178,0.467-0.354C50.528,24.619,50.554,24.41,50.497,24.215z
				 M48.18,22.25h-7.607c-0.973-4.791-2.83-8.645-5.208-10.877C41.016,12.844,45.793,16.848,48.18,22.25z M39.83,30
				c0,0.271-0.01,0.539-0.018,0.807l-0.004,0.119c-0.75,1.234-1.328,2.576-1.723,3.988c0,0.006-0.002,0.012-0.004,0.018
				C38,35.225,37.93,35.52,37.865,35.816c-0.025,0.113-0.047,0.225-0.07,0.338c-0.006,0.031-0.014,0.064-0.02,0.096H21.861
				c-0.338-1.971-0.532-4.07-0.532-6.25c0-2.178,0.194-4.277,0.532-6.25h17.438C39.637,25.723,39.83,27.822,39.83,30z
				 M37.754,42.025c-1.771,4.529-4.444,7.225-7.174,7.225c-3.697,0-6.965-4.799-8.43-11.5h15.413
				c-0.006,0.082-0.014,0.166-0.02,0.248c-0.029,0.395-0.049,0.791-0.049,1.188c0,0.436,0.025,0.867,0.061,1.297
				c0.008,0.09,0.018,0.18,0.025,0.268c0.039,0.396,0.092,0.791,0.162,1.182C37.748,41.963,37.748,41.994,37.754,42.025z
				 M22.15,22.25c1.465-6.699,4.732-11.5,8.43-11.5s6.965,4.801,8.43,11.5H22.15z M25.787,11.379
				c-2.373,2.234-4.228,6.086-5.2,10.871h-7.615C15.331,16.914,20.043,12.859,25.787,11.379z M12.392,23.75h7.916
				c-0.311,1.967-0.478,4.064-0.478,6.25c0,2.188,0.167,4.285,0.478,6.25h-7.916c-0.677-1.963-1.062-4.061-1.062-6.25
				S11.715,25.713,12.392,23.75z M12.972,37.75h7.615c0.972,4.787,2.827,8.639,5.2,10.871C20.043,47.143,15.331,43.086,12.972,37.75
				z M35.354,48.637c1.121-1.061,2.139-2.5,3.014-4.281c0.314,0.914,0.711,1.805,1.191,2.654
				C38.221,47.719,36.807,48.262,35.354,48.637z M41.301,28.855c-0.049-1.773-0.193-3.488-0.449-5.105h7.92
				c0.018,0.055,0.041,0.105,0.059,0.158C45.824,24.824,43.24,26.574,41.301,28.855z"/>
		</g>
	</g>
</g>
<g id="Layer_4">
</g>
</svg>
