<?xml version="1.0" encoding="utf-8"?>
<!-- Generator: Adobe Illustrator 16.0.0, SVG Export Plug-In . SVG Version: 6.00 Build 0)  -->
<!DOCTYPE svg PUBLIC "-//W3C//DTD SVG 1.1//EN" "http://www.w3.org/Graphics/SVG/1.1/DTD/svg11.dtd">
<svg version="1.1" xmlns="http://www.w3.org/2000/svg" xmlns:xlink="http://www.w3.org/1999/xlink" x="0px" y="0px" width="70px"
	 height="60px" viewBox="0 0 70 60" enable-background="new 0 0 70 60" xml:space="preserve">
<g id="Layer_2">
</g>
<g id="Layer_3">
	<g>
		<path opacity="0.4" fill="#4A6484" d="M54.269,30c0,13.807-11.191,25-25.003,25C15.459,55,4.266,43.807,4.266,30
			c0-13.809,11.193-25,24.999-25C43.077,5,54.269,16.191,54.269,30z"/>
		<g>
			<path fill="#FFFFFF" d="M39.406,40.684c0-5.297,2.739-9.98,6.871-12.715V23.75L31.026,8.5h-0.029H12.276v43h31.646
				C41.134,48.736,39.406,44.906,39.406,40.684z"/>
			
				<path fill="none" stroke="#FF2565" stroke-width="1.5" stroke-linecap="round" stroke-linejoin="round" stroke-miterlimit="10" d="
				M46.277,23.75"/>
			
				<path fill="none" stroke="#FF2565" stroke-width="1.5" stroke-linecap="round" stroke-linejoin="round" stroke-miterlimit="10" d="
				M62.868,42.213c0.187-1.014,0.187-2.049,0-3.061l1.854-1.072c0.216-0.123,0.311-0.373,0.238-0.611
				c-0.481-1.551-1.309-2.961-2.388-4.127c-0.164-0.178-0.432-0.223-0.646-0.1l-1.855,1.072c-0.783-0.67-1.683-1.188-2.651-1.533
				v-2.141c0-0.244-0.174-0.461-0.41-0.512c-1.604-0.357-3.234-0.344-4.76,0c-0.236,0.051-0.407,0.268-0.407,0.512v2.141
				c-0.972,0.346-1.871,0.863-2.653,1.533l-1.855-1.072c-0.209-0.123-0.482-0.078-0.646,0.1c-1.078,1.166-1.905,2.576-2.387,4.127
				c-0.072,0.238,0.029,0.488,0.238,0.611l1.854,1.072c-0.187,1.012-0.187,2.047,0,3.061l-1.854,1.072
				c-0.217,0.121-0.311,0.373-0.238,0.611c0.481,1.553,1.309,2.955,2.387,4.125c0.164,0.18,0.431,0.223,0.646,0.1l1.855-1.07
				c0.782,0.668,1.682,1.188,2.653,1.531v2.143c0,0.242,0.171,0.459,0.407,0.512c1.604,0.357,3.235,0.342,4.76,0
				c0.236-0.053,0.41-0.27,0.41-0.512v-2.143c0.969-0.344,1.868-0.863,2.651-1.531l1.855,1.07c0.208,0.123,0.481,0.08,0.646-0.1
				c1.079-1.164,1.906-2.572,2.388-4.125c0.072-0.238-0.029-0.49-0.238-0.611L62.868,42.213z"/>
			<g>
				<path fill="#4A6484" d="M62.868,42.213c0.187-1.014,0.187-2.049,0-3.061l1.854-1.072c0.216-0.123,0.311-0.373,0.238-0.611
					c-0.481-1.551-1.309-2.961-2.388-4.127c-0.164-0.178-0.432-0.223-0.646-0.1l-1.855,1.072c-0.783-0.67-1.683-1.188-2.651-1.533
					v-2.141c0-0.244-0.174-0.461-0.41-0.512c-1.604-0.357-3.234-0.344-4.76,0c-0.236,0.051-0.407,0.268-0.407,0.512v2.141
					c-0.972,0.346-1.871,0.863-2.653,1.533l-1.855-1.072c-0.209-0.123-0.482-0.078-0.646,0.1c-1.078,1.166-1.905,2.576-2.387,4.127
					c-0.072,0.238,0.029,0.488,0.238,0.611l1.854,1.072c-0.187,1.012-0.187,2.047,0,3.061l-1.854,1.072
					c-0.217,0.121-0.311,0.373-0.238,0.611c0.481,1.553,1.309,2.955,2.387,4.125c0.164,0.18,0.431,0.223,0.646,0.1l1.855-1.07
					c0.782,0.668,1.682,1.188,2.653,1.531v2.143c0,0.242,0.171,0.459,0.407,0.512c1.604,0.357,3.235,0.342,4.76,0
					c0.236-0.053,0.41-0.27,0.41-0.512v-2.143c0.969-0.344,1.868-0.863,2.651-1.531l1.855,1.07c0.208,0.123,0.481,0.08,0.646-0.1
					c1.079-1.164,1.906-2.572,2.388-4.125c0.072-0.238-0.029-0.49-0.238-0.611L62.868,42.213z"/>
				<path fill="#354A5B" d="M54.633,52.25c-0.854,0-1.711-0.096-2.546-0.281c-0.576-0.129-0.994-0.652-0.994-1.244v-1.629
					c-0.704-0.295-1.364-0.678-1.974-1.139l-1.41,0.814c-0.517,0.293-1.186,0.182-1.575-0.244c-1.165-1.264-2.047-2.789-2.55-4.408
					c-0.177-0.586,0.065-1.195,0.59-1.488l1.399-0.811c-0.095-0.756-0.095-1.518,0-2.275l-1.41-0.814
					c-0.516-0.305-0.752-0.912-0.58-1.479c0.507-1.633,1.39-3.16,2.554-4.418c0.393-0.426,1.083-0.529,1.578-0.238l1.404,0.813
					c0.606-0.461,1.268-0.842,1.974-1.139v-1.629c0-0.596,0.421-1.119,1-1.244c1.639-0.371,3.404-0.373,5.08,0.001
					c0.575,0.124,0.997,0.647,0.997,1.243v1.629c0.705,0.297,1.365,0.68,1.971,1.139l1.411-0.814
					c0.503-0.289,1.181-0.184,1.571,0.24c1.164,1.258,2.048,2.783,2.553,4.412c0.177,0.582-0.063,1.189-0.583,1.486l-1.405,0.813
					c0.095,0.758,0.095,1.52,0,2.275l1.41,0.816c0.515,0.299,0.754,0.906,0.58,1.479c-0.507,1.633-1.39,3.16-2.556,4.416
					c-0.236,0.26-0.579,0.41-0.937,0.41l0,0c-0.227,0-0.447-0.061-0.641-0.174l-1.404-0.811c-0.608,0.461-1.268,0.842-1.971,1.139
					v1.629c0,0.592-0.419,1.115-0.997,1.244C56.344,52.154,55.489,52.25,54.633,52.25z M52.593,50.543
					c1.343,0.273,2.744,0.271,4.077,0v-1.961c0-0.316,0.2-0.6,0.499-0.707c0.886-0.314,1.699-0.783,2.416-1.395
					c0.24-0.207,0.585-0.238,0.861-0.078l1.696,0.979c0.916-1.027,1.619-2.242,2.047-3.537l-1.697-0.98
					c-0.274-0.16-0.419-0.475-0.361-0.785c0.17-0.926,0.17-1.865,0-2.789c-0.058-0.313,0.087-0.627,0.361-0.785l1.697-0.982
					c-0.428-1.293-1.132-2.512-2.047-3.537l-1.696,0.98c-0.274,0.158-0.622,0.127-0.862-0.08c-0.712-0.609-1.524-1.078-2.416-1.396
					c-0.299-0.107-0.498-0.389-0.498-0.707v-1.957c-1.354-0.277-2.75-0.275-4.077-0.002v1.959c0,0.318-0.199,0.602-0.499,0.707
					c-0.893,0.318-1.705,0.787-2.416,1.396c-0.243,0.207-0.59,0.238-0.863,0.08l-1.696-0.98c-0.915,1.025-1.618,2.242-2.047,3.537
					l1.697,0.982c0.274,0.158,0.419,0.473,0.361,0.785c-0.17,0.924-0.17,1.863,0,2.789c0.058,0.311-0.087,0.625-0.361,0.785
					l-1.697,0.98c0.425,1.287,1.129,2.504,2.047,3.537l1.696-0.979c0.275-0.16,0.619-0.129,0.862,0.078
					c0.716,0.611,1.528,1.08,2.416,1.395c0.3,0.107,0.5,0.391,0.5,0.707V50.543z"/>
			</g>
			
				<path fill="none" stroke="#FF2565" stroke-width="1.5" stroke-linecap="round" stroke-linejoin="round" stroke-miterlimit="10" d="
				M54.638,44.168c-1.928,0-3.486-1.566-3.486-3.486c0-1.918,1.566-3.486,3.486-3.486c1.918,0,3.485,1.568,3.485,3.486
				C58.123,42.602,56.563,44.168,54.638,44.168z"/>
			<g>
				<path fill="#FFFFFF" d="M54.638,44.168c-1.928,0-3.486-1.566-3.486-3.486c0-1.918,1.566-3.486,3.486-3.486
					c1.918,0,3.485,1.568,3.485,3.486C58.123,42.602,56.563,44.168,54.638,44.168z"/>
				<path fill="#354A5B" d="M54.638,44.918c-2.336,0-4.236-1.9-4.236-4.236s1.9-4.236,4.236-4.236c2.335,0,4.235,1.9,4.235,4.236
					S56.973,44.918,54.638,44.918z M54.638,37.945c-1.509,0-2.736,1.229-2.736,2.736c0,1.51,1.228,2.736,2.736,2.736
					c1.508,0,2.735-1.227,2.735-2.736C57.373,39.174,56.146,37.945,54.638,37.945z"/>
			</g>
			<g>
				<g>
					<path fill="#354A5B" d="M32.956,42.346H19.597c-0.414,0-0.75,0.336-0.75,0.75s0.336,0.75,0.75,0.75h13.359
						c0.414,0,0.75-0.336,0.75-0.75S33.37,42.346,32.956,42.346z"/>
					<path fill="#354A5B" d="M19.597,28.846h6.328c0.414,0,0.75-0.336,0.75-0.75s-0.336-0.75-0.75-0.75h-6.328
						c-0.414,0-0.75,0.336-0.75,0.75S19.183,28.846,19.597,28.846z"/>
					<path fill="#354A5B" d="M19.597,33.846h13.328c0.414,0,0.75-0.336,0.75-0.75s-0.336-0.75-0.75-0.75H19.597
						c-0.414,0-0.75,0.336-0.75,0.75S19.183,33.846,19.597,33.846z"/>
					<path fill="#354A5B" d="M32.956,37.346H19.597c-0.414,0-0.75,0.336-0.75,0.75s0.336,0.75,0.75,0.75h13.359
						c0.414,0,0.75-0.336,0.75-0.75S33.37,37.346,32.956,37.346z"/>
					<path fill="#354A5B" d="M46.969,23.461c-0.038-0.092-0.093-0.174-0.161-0.242L31.557,7.969
						c-0.136-0.135-0.323-0.219-0.53-0.219c-0.005,0-0.009,0.002-0.014,0.002s-0.01-0.002-0.015-0.002H12.276
						c-0.414,0-0.75,0.336-0.75,0.75v43c0,0.414,0.336,0.75,0.75,0.75h31.646c0.304,0,0.578-0.184,0.693-0.465
						c0.116-0.281,0.051-0.604-0.165-0.818c-2.77-2.744-4.294-6.396-4.294-10.283c0-4.863,2.443-9.381,6.535-12.089
						c0.21-0.139,0.336-0.374,0.336-0.626V23.75C47.027,23.649,47.007,23.551,46.969,23.461z M31.776,10.311L44.467,23h-12.69
						V10.311z M38.656,40.684c0,3.709,1.258,7.225,3.573,10.066H13.026V9.25h17.25v14.5c0,0.414,0.336,0.75,0.75,0.75h14.501v3.072
						C41.217,30.58,38.656,35.451,38.656,40.684z"/>
				</g>
			</g>
		</g>
	</g>
</g>
<g id="Layer_4">
</g>
</svg>
