<svg xmlns="http://www.w3.org/2000/svg" viewBox="0 0 512 512">
<path fill="#FFFFFF" d="M450.934,78.788h-35.438V52.206c0-24.367-19.939-44.303-44.309-44.303h-17.721
	c-24.367,0-44.305,19.936-44.305,44.303v26.582H202.836V52.206c0-24.367-19.937-44.303-44.304-44.303h-17.721
	c-24.367,0-44.305,19.936-44.305,44.303v26.583H61.065c-19.381,0-35.442,16.06-35.442,35.442v354.425
	c0,19.379,16.06,35.438,35.442,35.438h389.868c19.381,0,35.443-16.056,35.443-35.438V114.23
	C486.377,94.848,470.32,78.788,450.934,78.788z"/>
<path fill="#767676" d="M450.934,78.788h-35.438V52.206c0-24.367-19.939-44.303-44.309-44.303h-17.721
	c-24.367,0-44.305,19.936-44.305,44.303v26.582H202.836V52.206c0-24.367-19.937-44.303-44.304-44.303h-17.721
	c-24.367,0-44.305,19.936-44.305,44.303v26.583H61.065c-19.381,0-35.442,16.06-35.442,35.442v354.425
	c0,19.379,16.06,35.438,35.442,35.438h389.868c19.381,0,35.443-16.056,35.443-35.438V114.23
	C486.377,94.848,470.32,78.788,450.934,78.788z M140.812,468.656H61.065V388.91h79.746L140.812,468.656L140.812,468.656z
	 M140.812,365.282H61.065v-79.746h79.746L140.812,365.282L140.812,365.282z M140.812,261.908H61.065v-79.746h79.746L140.812,261.908
	L140.812,261.908z M140.812,140.813c-4.707,0-8.861-4.153-8.861-8.861V52.206c0-4.708,4.152-8.861,8.861-8.861h17.721
	c4.707,0,8.861,4.153,8.861,8.861v79.746c0,4.708-4.154,8.861-8.861,8.861H140.812z M244.185,468.656h-79.746V388.91h79.746V468.656
	z M244.185,365.282h-79.746v-79.746h79.746V365.282z M244.185,261.908h-79.746v-79.746h79.746V261.908z M347.559,468.656h-79.746
	V388.91h79.746V468.656z M347.559,365.282h-79.746v-79.746h79.746V365.282z M347.559,261.908h-79.746v-79.746h79.746V261.908z
	 M344.611,131.952V52.206c0-4.708,4.147-8.861,8.855-8.861h17.721c4.707,0,8.86,4.153,8.86,8.861v79.746
	c0,4.708-4.153,8.861-8.86,8.861h-17.721C348.76,140.813,344.611,136.66,344.611,131.952z M450.933,468.656h-79.745V388.91h79.745
	V468.656z M450.933,365.282h-79.745v-79.746h79.745V365.282z M450.933,261.908h-79.745v-79.746h79.745V261.908z"/>
<path fill="#0071A6" d="M450.934,78.788h-70.885v53.164c0,4.708-4.152,8.861-8.859,8.861h-17.722c-4.708,0-8.855-4.153-8.855-8.861
	V78.788l-177.218,0.001v53.163c0,4.708-4.154,8.861-8.861,8.861h-17.721c-4.707,0-8.861-4.153-8.861-8.861V78.789H61.065
	c-19.381,0-35.442,16.06-35.442,35.442v67.931h460.754V114.23C486.377,94.848,470.32,78.788,450.934,78.788z"/>
</svg>
