<svg xmlns="http://www.w3.org/2000/svg" viewBox="0 0 512 512">
<path fill="#2394D5" d="M194.377,175.359c-16.755-16.248-45.702-4.883-45.702,18.354v138.493c0,14.34,12.012,26.015,26.716,26.015
	h142.803c23.823,0,35.753-28.091,18.886-44.341l-39.823-38.698L495.474,82.604c10.47-10.16,10.47-26.493,0-36.763l-25.173-24.443
	c-10.497-10.158-27.444-10.158-37.913,0L234.17,213.975L194.377,175.359z M460.105,217.368l-17.849,17.314
	c-4.996,4.856-7.86,11.477-7.86,18.354V429.18H77.588V82.877h179.428c7.072,0,13.89-2.751,18.888-7.605l17.848-17.315
	c16.836-16.333,4.938-44.341-18.916-44.341H59.753c-29.581,0-53.546,23.265-53.546,51.946v380.823
	c0,28.707,23.965,51.999,53.546,51.999h392.55c29.58,0,53.49-23.292,53.49-51.999V235.776
	C505.795,212.597,477.057,201.034,460.105,217.368z"/>
</svg>
