<svg xmlns="http://www.w3.org/2000/svg" viewBox="0 0 512 512">
<path fill="#2394D5" d="M251.14,53.64c-15.62-15.62-40.94-15.62-56.56,0L75.8,172.43c-6.25,6.25-6.25,16.38,0,22.62l22.63,22.63
	c6.25,6.25,16.38,6.25,22.63,0l101.82-101.82l22.63,22.62L93.95,290.029C41.453,342.527,8.381,411.323,0.17,485.11l-0.03,0.229
	c-1.7,15.28,11.21,28.2,26.49,26.51c73.881-8.157,142.779-41.241,195.34-93.8l196.79-196.79l-82.77-82.77L251.14,53.64L251.14,53.64
	z"/>
<path fill="#E98D27" d="M93.451,290.539L290.745,93.245L251.14,53.64c-15.62-15.62-40.94-15.62-56.56,0L75.8,172.43
	c-6.25,6.25-6.25,16.38,0,22.62l22.63,22.63c6.25,6.25,16.38,6.25,22.63,0l101.82-101.82l22.63,22.62L93.95,290.029
	C93.782,290.197,93.619,290.371,93.451,290.539z"/>
<path fill="#E98D27" d="M497.94,74.17l-60.11-60.11c-18.75-18.75-49.16-18.75-67.91,0l-56.55,56.55l128.02,128.02l56.551-56.55
	C516.69,123.33,516.69,92.93,497.94,74.17z"/>
<path fill="#FFFFFF" d="M298.465,179.646L102.037,376.072c-5.499,5.504-14.299,5.504-19.799,0.004c-5.5-5.502-5.5-14.301,0-19.803
	l196.426-196.426c5.5-5.5,14.299-5.5,19.801,0.001C303.965,165.347,303.965,174.146,298.465,179.646z"/>
<path fill="#165E87" d="M3.084,464.775c-1.18,6.73-2.155,13.511-2.915,20.335l-0.03,0.229c-1.7,15.28,11.21,28.2,26.49,26.51
	c6.91-0.763,13.776-1.744,20.589-2.938L3.084,464.775z"/>
</svg>
