<svg xmlns="http://www.w3.org/2000/svg" viewBox="0 0 512 512">
<path fill="#2394D5" d="M6,47.667c0-8.463,5.2-15.942,12.705-19.203c7.791-3.261,16.927-1.631,22.773,4.555l42.313,42.003
	C129.706,31.724,191.869,6,256,6c137.704,0,250,112.293,250,250c0,137.708-112.296,250-250,250
	c-74.535,0-144.853-32.867-192.394-90.165c-3.233-4.244-3.233-10.431,0.646-14.002l44.617-44.929
	c2.275-1.939,5.201-2.924,8.126-2.924c2.925,0.338,5.874,1.631,7.479,3.908c31.912,41.328,79.762,64.775,131.523,64.775
	c91.796,0,166.666-74.871,166.666-166.667S347.796,89.333,256,89.333c-42.65,0-82.998,16.278-113.614,44.591l44.928,44.928
	c6.187,5.848,7.816,14.984,4.558,22.463c-3.264,7.816-10.74,13.018-19.202,13.018H26.832C15.445,214.333,6,204.887,6,193.5V47.667z"
	/>
</svg>
