<svg xmlns="http://www.w3.org/2000/svg" viewBox="0 0 512 512">
<g>
	<path fill="#2394D5" d="M311.084,104.407L196.819,218.663c-39.579,39.58-64.514,91.447-70.703,147.076l-0.022,0.174
		c-1.282,11.52,8.451,21.26,19.972,19.984c55.7-6.146,107.645-31.096,147.271-70.719l148.364-148.364L379.3,104.413l-34.112-34.111
		L311.084,104.407z"/>
	<path fill="#E98D27" d="M345.188,70.301L315.33,40.442c-11.773-11.776-30.864-11.776-42.645,0l-89.552,89.559
		c-4.711,4.712-4.711,12.35,0,17.053l17.063,17.063c4.712,4.712,12.349,4.712,17.061,0l76.766-76.765l17.063,17.054L345.188,70.301z
		"/>
	<path fill="#E98D27" d="M501.398,55.92l-45.319-45.318c-14.137-14.136-37.063-14.136-51.2,0l-42.634,42.634l96.52,96.518
		l42.639-42.635C515.534,92.984,515.534,70.064,501.398,55.92z"/>
	<path fill="#FFFFFF" d="M351.008,135.442L202.916,283.534c-4.146,4.146-10.78,4.146-14.927,0.002
		c-4.146-4.148-4.146-10.783,0-14.93l148.09-148.094c4.146-4.147,10.78-4.147,14.929,0
		C355.154,124.662,355.154,131.295,351.008,135.442z"/>
	<path fill="#165E87" d="M128.312,350.409c-0.89,5.072-1.625,10.186-2.197,15.33l-0.022,0.174
		c-1.281,11.52,8.452,21.26,19.972,19.984c5.21-0.574,10.386-1.313,15.521-2.217L128.312,350.409z"/>
</g>
<g>
	<path fill="#767676" d="M295.697,463.992c-0.004,0.003-0.006,0.006-0.008,0.008H71.704c-0.002-0.002-0.005-0.005-0.007,0V48.007
		c0.002-0.002,0.005-0.005,0.007-0.007l123.388,1.909L244.886,0H71.697c-26.5,0-48,21.5-48,48v416c0,26.5,21.5,48,48,48h224
		c26.5,0,48-21.5,48-48V333.005l-48,48.096V463.992z"/>
</g>
</svg>
