<svg xmlns="http://www.w3.org/2000/svg" viewBox="0 0 512 512">
<g>
	<path fill="#767676" d="M256,457.747c-6.398,0-12.796-2.44-17.678-7.322L51.253,263.355c-9.763-9.764-9.763-25.593,0-35.355
		c9.764-9.763,25.592-9.763,35.355,0L256,397.392L425.392,228c9.766-9.763,25.594-9.763,35.355,0
		c9.763,9.763,9.763,25.592,0,35.355L273.678,450.425C268.796,455.307,262.398,457.747,256,457.747z"/>
	<path fill="#767676" d="M256,291.321c-6.398,0-12.796-2.44-17.678-7.322L51.253,96.93c-9.763-9.764-9.763-25.593,0-35.355
		c9.764-9.763,25.592-9.763,35.355,0L256,230.966L425.392,61.575c9.766-9.763,25.594-9.763,35.355,0
		c9.763,9.763,9.763,25.592,0,35.355L273.678,283.999C268.796,288.881,262.398,291.321,256,291.321z"/>
</g>
</svg>
