<svg xmlns="http://www.w3.org/2000/svg" viewBox="0 0 512 512">
<path fill="#EFC06A" d="M506.238,419.566c16.406,28.438-4.188,63.987-36.958,63.987H42.715c-32.833,0-53.333-35.604-36.958-63.987
	L219.042,49.764c16.416-28.452,57.53-28.4,73.915,0L506.238,419.566L506.238,419.566z M256,343.111
	c-22.582,0-40.889,18.307-40.889,40.889s18.307,40.889,40.889,40.889S296.89,406.582,296.89,384S278.582,343.111,256,343.111z
	 M217.179,196.137l6.594,120.892c0.309,5.654,4.986,10.085,10.649,10.085h43.152c5.665,0,10.342-4.431,10.65-10.085l6.594-120.892
	c0.333-6.11-4.531-11.248-10.65-11.248h-56.34C221.71,184.889,216.846,190.026,217.179,196.137z"/>
</svg>
