<svg xmlns="http://www.w3.org/2000/svg" viewBox="0 0 512 512">
<path fill="#A3A3A3" d="M318.933,256L492.259,82.673c17.379-17.378,17.379-45.554,0-62.933c-17.377-17.378-45.555-17.378-62.932,0
	L256,193.068L82.673,19.74c-17.378-17.378-45.554-17.378-62.933,0c-17.378,17.378-17.378,45.554,0,62.933L193.068,256
	L19.741,429.327c-17.378,17.378-17.378,45.554,0,62.932c8.689,8.689,20.078,13.034,31.466,13.034s22.777-4.345,31.466-13.034
	L256,318.932l173.327,173.327c8.688,8.689,20.077,13.034,31.466,13.034s22.777-4.345,31.466-13.034
	c17.379-17.378,17.379-45.554,0-62.932L318.933,256z"/>
</svg>
