<svg xmlns="http://www.w3.org/2000/svg" viewBox="0 0 512 512">
<path fill="#4a6484" d="M61.028,291.448c-19.662,0-35.449-15.786-35.449-35.448c0-19.663,15.787-35.449,35.449-35.449
	c19.664,0,35.451,15.787,35.451,35.449C96.479,275.662,80.691,291.448,61.028,291.448z M118.079,162.392
	c-24.366,0-44.313-19.948-44.313-44.313c0-24.367,19.947-44.313,44.313-44.313s44.313,19.946,44.313,44.313
	C162.392,142.445,142.445,162.392,118.079,162.392z M118.079,429.37c-19.381,0-35.449-16.068-35.449-35.448
	c0-19.662,16.067-35.448,35.449-35.448c19.662,0,35.448,15.786,35.448,35.448C153.527,413.302,137.741,429.37,118.079,429.37z
	 M256,114.202c-29.352,0-53.175-23.82-53.175-53.175c0-29.352,23.823-53.173,53.175-53.173c29.354,0,53.175,23.822,53.175,53.173
	C309.175,90.382,285.354,114.202,256,114.202z M256,486.42c-19.662,0-35.449-15.784-35.449-35.447
	c0-19.665,15.786-35.451,35.449-35.451c19.662,0,35.448,15.785,35.448,35.451C291.448,470.635,275.662,486.42,256,486.42z
	 M393.922,180.115c-34.339,0-62.038-27.697-62.038-62.036c0-34.056,27.699-62.038,62.038-62.038
	c34.056,0,62.035,27.982,62.035,62.038C455.957,152.418,427.978,180.115,393.922,180.115z M393.922,429.37
	c-19.662,0-35.45-16.068-35.45-35.448c0-19.662,15.787-35.448,35.45-35.448c19.38,0,35.447,15.786,35.447,35.448
	C429.369,413.302,413.302,429.37,393.922,429.37z M450.973,291.448c-19.665,0-35.451-15.786-35.451-35.448
	c0-19.663,15.784-35.449,35.451-35.449c19.662,0,35.448,15.787,35.448,35.449C486.421,275.662,470.635,291.448,450.973,291.448z"/>
</svg>
