<?xml version="1.0" encoding="UTF-8"?>
<svg version="1.1" xmlns="http://www.w3.org/2000/svg" xmlns:xlink="http://www.w3.org/1999/xlink" x="0px" y="0px" width="82px" height="65.68px" viewBox="0 0 82 65.68">
<defs>
<linearGradient id="SVGID_1_" gradientUnits="userSpaceOnUse" x1="58.2744" y1="25.2605" x2="59.7073" y2="49.5906">
<stop offset="0" stop-color="#ED1C24"/>
<stop offset="0.83" stop-color="#ED1C24"/>
<stop offset="0.96" stop-color="#B51218"/>
<stop offset="1" stop-color="#B51218"/>
</linearGradient>
<linearGradient id="SVGID_2_" gradientUnits="userSpaceOnUse" x1="9.124" y1="38.7258" x2="62.9365" y2="38.7258">
<stop offset="0" stop-color="#FFD400"/>
<stop offset="0.13" stop-color="#FFD400"/>
<stop offset="0.46" stop-color="#FFF200"/>
<stop offset="0.88" stop-color="#FFF200"/>
<stop offset="1" stop-color="#FFD400"/>
</linearGradient>
<linearGradient id="SVGID_3_" gradientUnits="userSpaceOnUse" x1="23.6235" y1="48.9094" x2="23.6235" y2="0.0071">
<stop offset="0" stop-color="#DCDDDE"/>
<stop offset="0.31" stop-color="#EBEBEC"/>
<stop offset="0.54" stop-color="#FFFFFF"/>
<stop offset="0.72" stop-color="#FFFFFF"/>
<stop offset="0.99" stop-color="#DCDDDE"/>
<stop offset="1" stop-color="#D1D3D4"/>
</linearGradient>
<linearGradient id="SVGID_4_" gradientUnits="userSpaceOnUse" x1="39.415" y1="-0.2146" x2="40.6521" y2="25.1713">
<stop offset="0" stop-color="#D51920"/>
<stop offset="0.06" stop-color="#D51920"/>
<stop offset="0.11" stop-color="#ED1C24"/>
<stop offset="0.99" stop-color="#ED1C24"/>
<stop offset="1" stop-color="#B51218"/>
</linearGradient>
<linearGradient id="SVGID_5_" gradientUnits="userSpaceOnUse" x1="25.5503" y1="49.1838" x2="66.2371" y2="8.3985">
<stop offset="0" stop-color="#02428D"/>
<stop offset="0.14" stop-color="#034EA2"/>
<stop offset="0.41" stop-color="#0062AF"/>
<stop offset="0.86" stop-color="#034EA2"/>
<stop offset="1" stop-color="#023F88"/>
</linearGradient>
<linearGradient id="SVGID_6_" gradientUnits="userSpaceOnUse" x1="9.123" y1="11.6936" x2="123.8082" y2="11.6936">
<stop offset="0" stop-color="#008641"/>
<stop offset="0.01" stop-color="#008641"/>
<stop offset="0.11" stop-color="#00A651"/>
<stop offset="0.88" stop-color="#00A651"/>
<stop offset="0.97" stop-color="#009247"/>
<stop offset="1" stop-color="#009247"/>
</linearGradient>
</defs>
<path fill="#717171" d="M80.658,54.327h-0.357l-1.314,2.428h0.357l0.395-0.766h1.48l0.395,0.766h0.357L80.658,54.327zM79.842,55.792l0.633-1.238l0.648,1.238H79.842z"/>
<polygon fill="#717171" points="74.287,56.755 74.287,54.575 75.447,56.755 75.768,56.755 76.924,54.575 76.924,56.755 77.254,56.755 77.254,54.327 76.725,54.327 75.605,56.472 74.484,54.327 73.957,54.327 73.957,56.755"/>
<path fill="#717171" d="M70.809,54.327h-0.355l-1.314,2.428h0.357l0.395-0.766h1.48l0.396,0.766h0.355L70.809,54.327zM69.992,55.792l0.635-1.238l0.646,1.238H69.992z"/>
<path fill="#717171" d="M67.445,54.638c-0.086-0.105-0.205-0.186-0.359-0.236c-0.156-0.051-0.34-0.076-0.557-0.074h-1.285v2.43h0.328v-0.002V55.79h0.844c0.162,0,0.313-0.016,0.453-0.041c0.141-0.027,0.262-0.068,0.367-0.127c0.104-0.061,0.188-0.135,0.246-0.229s0.09-0.205,0.09-0.338C67.572,54.884,67.529,54.745,67.445,54.638z M67.17,55.327c-0.045,0.068-0.107,0.121-0.189,0.158c-0.08,0.035-0.172,0.063-0.273,0.074c-0.107,0.016-0.221,0.021-0.342,0.021h-0.791V54.54h0.861c0.199,0,0.355,0.018,0.475,0.055c0.117,0.039,0.201,0.098,0.254,0.174c0.053,0.078,0.074,0.176,0.074,0.295C67.236,55.171,67.217,55.259,67.17,55.327z"/>
<polygon fill="#717171" points="61.752,54.54 63.385,54.54 63.385,54.327 61.416,54.327 61.416,56.757 61.752,56.757"/>
<path fill="#717171" d="M59.33,55.157c-0.041-0.129-0.104-0.244-0.184-0.354c-0.082-0.104-0.186-0.199-0.309-0.277c-0.123-0.076-0.268-0.139-0.434-0.182s-0.352-0.063-0.561-0.063s-0.396,0.021-0.561,0.063c-0.166,0.045-0.311,0.105-0.438,0.188c-0.123,0.076-0.227,0.17-0.309,0.275c-0.082,0.107-0.143,0.225-0.184,0.352c-0.039,0.127-0.057,0.26-0.057,0.4c0,0.191,0.037,0.363,0.107,0.518c0.07,0.152,0.176,0.283,0.313,0.391c0.133,0.107,0.297,0.191,0.486,0.248s0.404,0.086,0.643,0.088c0.236-0.002,0.451-0.031,0.641-0.088s0.354-0.141,0.486-0.248c0.135-0.107,0.236-0.236,0.311-0.391c0.07-0.152,0.105-0.324,0.105-0.518C59.389,55.419,59.369,55.284,59.33,55.157z M58.902,56.115c-0.096,0.154-0.236,0.271-0.416,0.355s-0.395,0.125-0.641,0.127c-0.25-0.002-0.467-0.043-0.646-0.127c-0.182-0.084-0.322-0.203-0.42-0.355c-0.1-0.156-0.148-0.34-0.148-0.555c0-0.227,0.049-0.42,0.145-0.58s0.234-0.281,0.416-0.365s0.398-0.127,0.654-0.129c0.254,0.002,0.471,0.045,0.65,0.129s0.314,0.205,0.41,0.365s0.143,0.354,0.145,0.58C59.049,55.775,58.998,55.958,58.902,56.115z"/>
<path fill="#717171" d="M54.402,54.638c-0.084-0.105-0.203-0.186-0.359-0.236c-0.154-0.051-0.34-0.076-0.555-0.074h-1.287v2.43h0.33v-0.002V55.79h0.844c0.162,0,0.313-0.016,0.451-0.041c0.141-0.027,0.262-0.068,0.367-0.127c0.105-0.061,0.188-0.135,0.248-0.229c0.059-0.094,0.088-0.205,0.09-0.338C54.529,54.884,54.486,54.745,54.402,54.638zM54.127,55.327c-0.045,0.068-0.107,0.121-0.188,0.158c-0.08,0.035-0.174,0.063-0.277,0.074c-0.105,0.016-0.219,0.021-0.342,0.021h-0.789V54.54h0.863c0.197,0,0.355,0.018,0.473,0.055c0.117,0.039,0.201,0.098,0.254,0.174c0.051,0.078,0.074,0.176,0.074,0.295C54.195,55.171,54.172,55.259,54.127,55.327z"/>
<polygon fill="#717171" points="47.619,56.755 47.949,56.755 47.949,54.519 49.787,54.519 49.787,56.755 50.123,56.755 50.123,54.327 47.619,54.327"/>
<path fill="#717171" d="M43.105,54.327H42.75l-1.313,2.428h0.355l0.396-0.766h1.477l0.398,0.766h0.355L43.105,54.327zM42.291,55.792l0.633-1.238l0.646,1.238H42.291z"/>
<polygon fill="#717171" points="37.434,56.755 37.434,55.568 39.391,55.568 39.391,56.755 39.715,56.755 39.715,54.327 39.391,54.327 39.391,55.374 37.434,55.374 37.434,54.327 37.104,54.327 37.104,56.755"/>
<path fill="#717171" d="M34.898,55.675c-0.107-0.105-0.273-0.17-0.494-0.203c0.188-0.051,0.324-0.119,0.408-0.211c0.086-0.09,0.127-0.193,0.127-0.313c-0.002-0.123-0.029-0.225-0.08-0.307c-0.051-0.08-0.123-0.145-0.217-0.189c-0.094-0.047-0.201-0.08-0.326-0.1s-0.262-0.027-0.41-0.025h-1.344v2.428h1.359c0.209,0,0.383-0.016,0.52-0.045c0.137-0.033,0.25-0.072,0.332-0.123c0.084-0.053,0.145-0.105,0.186-0.166s0.068-0.121,0.082-0.18c0.014-0.061,0.02-0.111,0.018-0.16C35.061,55.913,35.006,55.777,34.898,55.675z M32.896,54.532h0.953c0.104,0,0.203,0.004,0.297,0.012c0.092,0.01,0.174,0.029,0.246,0.059c0.072,0.027,0.127,0.07,0.17,0.127c0.041,0.057,0.061,0.131,0.063,0.225c-0.002,0.088-0.021,0.162-0.059,0.221c-0.039,0.059-0.092,0.105-0.162,0.137c-0.068,0.035-0.15,0.059-0.242,0.07c-0.092,0.014-0.193,0.021-0.301,0.021h-0.965V54.532z M34.656,56.349c-0.055,0.07-0.143,0.121-0.264,0.152c-0.121,0.033-0.279,0.051-0.475,0.049h-1.021v-0.959h1.021c0.193,0,0.352,0.016,0.473,0.049s0.209,0.086,0.266,0.156c0.057,0.072,0.084,0.166,0.084,0.281C34.74,56.189,34.711,56.279,34.656,56.349z"/>
<polygon fill="#717171" points="28.211,56.755 30.143,54.626 30.143,56.755 30.479,56.755 30.479,54.327 30.068,54.327 28.152,56.482 28.152,54.327 27.822,54.327 27.822,56.755"/>
<polygon fill="#717171" points="24.563,56.755 24.896,56.755 24.896,54.54 25.975,54.54 25.975,54.327 23.469,54.327 23.469,54.54 24.563,54.54"/>
<path fill="#717171" d="M20.639,54.327h-0.355l-1.313,2.428h0.355l0.396-0.766h1.479l0.396,0.766h0.355L20.639,54.327zM19.822,55.792l0.635-1.238l0.648,1.238H19.822z"/>
<path fill="#717171" d="M17.275,54.638c-0.084-0.105-0.203-0.186-0.357-0.236c-0.156-0.051-0.34-0.076-0.557-0.074h-1.287v2.43h0.328v-0.002V55.79h0.844c0.164,0,0.313-0.016,0.453-0.041c0.141-0.027,0.262-0.068,0.367-0.127c0.105-0.061,0.188-0.135,0.248-0.229c0.059-0.094,0.088-0.205,0.09-0.338C17.402,54.884,17.359,54.745,17.275,54.638z M17,55.327c-0.045,0.068-0.109,0.121-0.189,0.158c-0.08,0.035-0.172,0.063-0.275,0.074c-0.105,0.016-0.221,0.021-0.342,0.021h-0.791V54.54h0.865c0.197,0,0.355,0.018,0.473,0.055c0.119,0.039,0.201,0.098,0.254,0.174c0.051,0.078,0.074,0.176,0.074,0.295C17.066,55.171,17.045,55.259,17,55.327z"/>
<polygon fill="#717171" points="10.807,56.755 13.1,56.755 13.1,56.552 11.143,56.552 11.143,55.607 12.895,55.607 12.895,55.413 11.143,55.413 11.143,54.536 13.057,54.536 13.057,54.327 10.807,54.327 10.807,56.755"/>
<polygon fill="#717171" points="6.227,56.755 6.557,56.755 6.557,54.519 8.395,54.519 8.395,56.755 8.729,56.755 8.729,54.327 6.227,54.327"/>
<path fill="#717171" d="M4.139,55.157c-0.039-0.129-0.102-0.244-0.182-0.354c-0.082-0.104-0.186-0.199-0.309-0.277c-0.123-0.076-0.268-0.139-0.434-0.182c-0.164-0.043-0.352-0.063-0.561-0.063s-0.395,0.021-0.563,0.063c-0.166,0.045-0.311,0.105-0.434,0.188c-0.123,0.076-0.227,0.17-0.311,0.275c-0.08,0.107-0.143,0.225-0.184,0.352c-0.039,0.127-0.061,0.26-0.061,0.4c0.002,0.191,0.037,0.363,0.109,0.518c0.072,0.152,0.176,0.283,0.311,0.391c0.137,0.107,0.297,0.191,0.488,0.248s0.406,0.086,0.643,0.088c0.238-0.002,0.451-0.031,0.643-0.088c0.189-0.057,0.352-0.141,0.486-0.248c0.133-0.107,0.236-0.236,0.309-0.391c0.072-0.152,0.107-0.324,0.109-0.518C4.201,55.419,4.18,55.284,4.139,55.157z M3.711,56.115c-0.098,0.152-0.234,0.271-0.414,0.355s-0.395,0.125-0.643,0.127c-0.25-0.002-0.467-0.043-0.646-0.127c-0.182-0.084-0.322-0.203-0.418-0.355c-0.1-0.156-0.15-0.34-0.15-0.555c0-0.227,0.049-0.42,0.146-0.58C1.682,54.82,1.818,54.698,2,54.615s0.398-0.127,0.654-0.129c0.256,0.002,0.471,0.045,0.65,0.129s0.316,0.205,0.41,0.365c0.096,0.16,0.143,0.354,0.145,0.58C3.857,55.775,3.809,55.958,3.711,56.115z"/>
<polygon fill="#717171" points="82,64.454 82,63.452 79.037,63.452 79.037,62.044 81.627,62.044 81.627,61.103 79.037,61.103 79.037,59.929 81.871,59.929 81.871,58.927 77.904,58.927 77.904,64.454"/>
<polygon fill="#717171" points="72.344,64.454 73.752,64.454 75.797,60.29 75.797,64.454 76.938,64.454 76.938,58.927 75.557,58.927 73.482,63.193 73.482,58.927 72.344,58.927"/>
<polygon fill="#717171" points="66.988,64.454 68.119,64.454 68.119,62.052 70.305,62.052 70.305,64.454 71.436,64.454 71.436,58.927 70.305,58.927 70.305,61.068 68.119,61.068 68.119,58.927 66.988,58.927"/>
<polygon fill="#717171" points="66.193,64.454 66.193,63.452 63.23,63.452 63.23,62.044 65.822,62.044 65.822,61.103 63.23,61.103 63.23,59.929 66.064,59.929 66.064,58.927 62.1,58.927 62.1,64.454"/>
<polygon fill="#717171" points="56.383,64.454 57.584,64.454 58.973,60.195 60.355,64.454 61.582,64.454 59.639,58.927 58.352,58.927"/>
<path fill="#717171" d="M56.018,62.314c-0.053-0.152-0.129-0.291-0.23-0.406c-0.104-0.119-0.227-0.215-0.373-0.283c-0.148-0.068-0.318-0.107-0.51-0.115c0.143-0.027,0.275-0.078,0.396-0.148c0.123-0.072,0.229-0.164,0.322-0.27c0.092-0.107,0.162-0.223,0.215-0.348c0.051-0.123,0.078-0.252,0.078-0.383c0-0.24-0.047-0.455-0.137-0.643c-0.092-0.188-0.23-0.352-0.416-0.488c-0.135-0.104-0.314-0.182-0.545-0.229c-0.229-0.049-0.508-0.074-0.838-0.074h-2.398v5.527h2.615c0.631,0,1.105-0.137,1.424-0.41c0.314-0.271,0.477-0.684,0.477-1.232C56.098,62.634,56.068,62.47,56.018,62.314zM52.711,59.927h0.002h1.164c0.207,0,0.373,0.02,0.502,0.063c0.125,0.039,0.219,0.104,0.275,0.189c0.059,0.086,0.088,0.197,0.088,0.336c0,0.152-0.029,0.275-0.092,0.363c-0.061,0.088-0.156,0.15-0.289,0.188c-0.131,0.039-0.301,0.057-0.51,0.055h-1.141V59.927z M54.848,63.152c-0.055,0.092-0.135,0.16-0.232,0.203c-0.102,0.041-0.221,0.068-0.354,0.08c-0.137,0.016-0.283,0.02-0.445,0.018h-1.104v-1.408h1.123c0.166-0.002,0.316,0.004,0.451,0.021c0.135,0.016,0.248,0.051,0.346,0.098c0.096,0.051,0.17,0.125,0.221,0.223s0.078,0.23,0.078,0.393C54.932,62.935,54.902,63.062,54.848,63.152z"/>
<path fill="#717171" d="M49.119,58.927h-1.287l-1.969,5.527h1.199l0.371-1.166h2.023l0.379,1.166h1.227L49.119,58.927zM47.762,62.363l0.691-2.168l0.699,2.168H47.762z"/>
<path fill="#717171" d="M45.432,59.845c-0.102-0.229-0.24-0.414-0.418-0.547c-0.174-0.137-0.377-0.23-0.604-0.289c-0.23-0.057-0.471-0.084-0.725-0.082h-2.271v5.527h1.131v-1.865h1.096c0.279-0.002,0.535-0.043,0.771-0.129s0.439-0.211,0.617-0.373c0.176-0.162,0.313-0.359,0.406-0.59c0.1-0.234,0.148-0.498,0.15-0.791C45.584,60.361,45.533,60.075,45.432,59.845z M43.428,61.587h-0.881v-1.66h0.896c0.32,0,0.563,0.07,0.727,0.213c0.16,0.143,0.242,0.357,0.242,0.643C44.412,61.318,44.084,61.587,43.428,61.587z"/>
<polygon fill="#717171" points="36.975,59.927 39.299,59.927 39.299,64.452 40.43,64.452 40.43,58.925 35.844,58.925 35.844,64.452 36.975,64.452 36.975,59.927"/>
<path fill="#717171" d="M30.604,58.925l1.967,3.895l-0.146,0.33c-0.053,0.111-0.145,0.199-0.271,0.256c-0.131,0.059-0.297,0.09-0.496,0.09h-0.225v0.959h0.707c0.303,0,0.564-0.084,0.791-0.252c0.225-0.168,0.406-0.418,0.549-0.75l1.926-4.525H34.18l-0.893,2.186c-0.039,0.094-0.076,0.186-0.109,0.273c-0.035,0.088-0.07,0.184-0.105,0.287c-0.025-0.082-0.051-0.154-0.078-0.223c-0.025-0.068-0.051-0.139-0.078-0.211l-1.045-2.313h-1.268V58.925z"/>
<path fill="#717171" d="M27.846,60.47c-0.121-0.34-0.293-0.635-0.52-0.883s-0.504-0.438-0.826-0.57c-0.322-0.135-0.691-0.203-1.1-0.203c-0.428,0.002-0.809,0.074-1.137,0.221c-0.33,0.145-0.607,0.35-0.834,0.607c-0.227,0.264-0.396,0.568-0.514,0.92c-0.117,0.35-0.178,0.732-0.178,1.145c0.002,0.404,0.064,0.781,0.186,1.127c0.123,0.346,0.301,0.646,0.531,0.904s0.51,0.457,0.836,0.6c0.33,0.145,0.699,0.217,1.109,0.221c0.344-0.004,0.65-0.059,0.928-0.158c0.275-0.102,0.521-0.242,0.732-0.426s0.389-0.396,0.531-0.643c0.143-0.248,0.252-0.518,0.326-0.811c0.072-0.291,0.107-0.598,0.107-0.918C28.025,61.187,27.965,60.81,27.846,60.47zM26.814,62.212c-0.037,0.188-0.094,0.365-0.172,0.527c-0.076,0.16-0.172,0.303-0.291,0.426c-0.119,0.125-0.26,0.223-0.42,0.293c-0.162,0.066-0.348,0.104-0.555,0.105c-0.213-0.002-0.4-0.039-0.564-0.107c-0.16-0.072-0.301-0.17-0.414-0.295c-0.115-0.127-0.209-0.271-0.279-0.436c-0.074-0.164-0.127-0.34-0.16-0.527c-0.035-0.189-0.051-0.383-0.051-0.578c0-0.254,0.031-0.49,0.094-0.707c0.061-0.217,0.156-0.408,0.279-0.57c0.125-0.164,0.279-0.291,0.465-0.383c0.186-0.094,0.4-0.143,0.646-0.145c0.242,0.002,0.455,0.049,0.641,0.141c0.184,0.094,0.338,0.223,0.463,0.389c0.123,0.166,0.217,0.357,0.279,0.578c0.064,0.221,0.096,0.459,0.096,0.715C26.871,61.835,26.852,62.027,26.814,62.212z"/>
<path fill="#717171" d="M22.01,59.845c-0.102-0.229-0.24-0.414-0.418-0.547c-0.176-0.137-0.377-0.23-0.605-0.289c-0.227-0.057-0.467-0.084-0.723-0.082h-2.271v5.527h1.131v-1.865h1.098c0.277-0.002,0.533-0.043,0.77-0.129c0.234-0.086,0.439-0.211,0.615-0.373c0.178-0.162,0.313-0.359,0.41-0.59c0.096-0.234,0.146-0.498,0.148-0.791C22.162,60.361,22.109,60.075,22.01,59.845z M20.004,61.587h-0.881v-1.66h0.896c0.32,0,0.563,0.07,0.725,0.213c0.16,0.143,0.244,0.357,0.244,0.643C20.988,61.318,20.66,61.587,20.004,61.587z"/>
<path fill="#717171" d="M16.828,61.804c-0.102-0.221-0.24-0.402-0.424-0.543c-0.184-0.139-0.398-0.242-0.646-0.309c-0.25-0.068-0.525-0.102-0.824-0.102h-1.33v-0.924h2.928v-1.002h-4.061v5.529h0.002h2.59c0.273,0,0.527-0.043,0.76-0.129c0.23-0.082,0.436-0.205,0.607-0.367c0.174-0.16,0.307-0.354,0.404-0.584c0.096-0.227,0.145-0.488,0.146-0.777C16.979,62.29,16.928,62.025,16.828,61.804z M15.49,63.255c-0.176,0.131-0.438,0.195-0.783,0.195h-1.105v-1.613h0.002h1.088c0.35,0,0.615,0.068,0.793,0.207c0.18,0.137,0.27,0.346,0.27,0.619C15.754,62.929,15.666,63.124,15.49,63.255z"/>
<path fill="#717171" d="M11.463,60.47c-0.123-0.34-0.295-0.635-0.521-0.883s-0.504-0.438-0.824-0.57c-0.324-0.135-0.691-0.203-1.1-0.203c-0.428,0.002-0.809,0.074-1.137,0.221c-0.332,0.145-0.609,0.35-0.834,0.607c-0.229,0.264-0.396,0.568-0.514,0.92c-0.117,0.35-0.176,0.732-0.176,1.145c0,0.404,0.063,0.781,0.184,1.127c0.123,0.346,0.301,0.646,0.533,0.904c0.229,0.258,0.508,0.457,0.836,0.6c0.326,0.145,0.695,0.217,1.107,0.221c0.34-0.004,0.648-0.059,0.926-0.158c0.277-0.102,0.523-0.242,0.734-0.426s0.389-0.396,0.531-0.643c0.145-0.248,0.252-0.518,0.324-0.811c0.072-0.291,0.109-0.598,0.109-0.918C11.641,61.187,11.582,60.81,11.463,60.47zM10.43,62.212c-0.037,0.188-0.094,0.365-0.172,0.527c-0.076,0.16-0.174,0.303-0.291,0.426c-0.121,0.125-0.26,0.223-0.422,0.293c-0.162,0.066-0.346,0.104-0.553,0.105c-0.215-0.002-0.402-0.039-0.564-0.107c-0.162-0.072-0.301-0.17-0.414-0.295c-0.115-0.127-0.209-0.271-0.281-0.436s-0.125-0.34-0.158-0.527c-0.035-0.189-0.051-0.383-0.051-0.578c0-0.254,0.031-0.49,0.094-0.707c0.061-0.217,0.154-0.408,0.277-0.57c0.127-0.164,0.281-0.291,0.467-0.383c0.186-0.094,0.4-0.143,0.646-0.145c0.242,0.002,0.455,0.049,0.641,0.141c0.184,0.094,0.338,0.223,0.461,0.389c0.125,0.166,0.219,0.357,0.281,0.578c0.064,0.221,0.094,0.459,0.094,0.715C10.484,61.835,10.467,62.027,10.43,62.212z"/>
<path fill="#717171" d="M5.209,63.581v-4.656H1.002v3.377c0,0.256-0.039,0.49-0.123,0.705c-0.08,0.215-0.205,0.404-0.369,0.574H0v2.098h0.863l0.035-0.328c0.02-0.209,0.059-0.381,0.117-0.512c0.061-0.135,0.145-0.23,0.252-0.295c0.109-0.063,0.248-0.092,0.416-0.092h2.438v0.002c0.166,0,0.303,0.029,0.412,0.092s0.193,0.16,0.258,0.293c0.061,0.133,0.102,0.303,0.125,0.514l0.023,0.326h0.873v-2.098H5.209z M4.061,63.581H1.469c0.107-0.117,0.195-0.215,0.26-0.291c0.066-0.08,0.111-0.141,0.139-0.184c0.09-0.146,0.158-0.307,0.199-0.482c0.045-0.174,0.068-0.363,0.068-0.572v-2.176h1.926V63.581z"/>
<path fill="url(#SVGID_1_)" d="M50.06,25.704c-1.416,1.364-2.775,2.783-4.096,4.238c3.383,5.054,7.27,9.78,11.619,14.11c1.715,1.709,3.498,3.354,5.354,4.934h9.32C63.362,42.602,55.878,34.668,50.06,25.704"/>	
<path fill="url(#SVGID_2_)" d="M62.937,48.987H54.62c-5.633-2.971-11.439-5.527-17.389-7.689c1.08-1.672,2.219-3.303,3.408-4.897c5.793,2.179,11.443,4.737,16.941,7.653C59.298,45.762,61.081,47.408,62.937,48.987 M34.972,34.404c-2.492-0.819-5.012-1.553-7.547-2.235c-0.25,1.915-0.527,3.825-0.842,5.729c1.688,0.463,3.365,0.965,5.035,1.492C32.679,37.688,33.804,36.032,34.972,34.404z M9.124,28.465v5.807c3.998,0.568,7.957,1.304,11.869,2.208c0.307-1.896,0.57-3.801,0.813-5.712C17.624,29.818,13.396,29.049,9.124,28.465z"/>
<path fill="url(#SVGID_3_)" d="M23.013,14.74c-0.035,1.6-0.143,3.997-0.266,5.988c-0.211,3.364-0.527,6.711-0.947,10.04c-0.24,1.911-0.506,3.815-0.813,5.711c-0.684,4.205-1.543,8.373-2.557,12.506h5.92c0.867-3.668,1.609-7.367,2.227-11.09c0.314-1.902,0.594-3.813,0.842-5.728c0.557-4.288,0.949-8.606,1.172-12.953c0.104-2.006,0.166-3.664,0.201-6.035c0.129-6.949-0.307-13.179-0.307-13.179h-5.764C22.722,0.001,23.187,5.153,23.013,14.74z"/>
<path fill="url(#SVGID_4_)" d="M43.77,14.204c-0.791-1.747-1.48-3.502-2.207-5.315c-1.303-3.252-2.797-8.888-2.797-8.888h-5.932c0,0,1.613,6.604,3.328,10.846c0.723,1.868,1.406,3.575,2.191,5.328c1.332,2.975,2.82,5.875,4.457,8.697c1.357-1.447,2.762-2.851,4.213-4.209C45.846,18.556,44.764,16.401,43.77,14.204"/>
<path fill="url(#SVGID_5_)" d="M47.02,20.663c-1.451,1.358-2.855,2.762-4.213,4.209c-2.823,3.001-5.438,6.188-7.833,9.531c-1.168,1.629-2.293,3.284-3.355,4.985c-1.924,3.084-3.65,6.297-5.203,9.598h6.393c1.344-2.643,2.822-5.205,4.426-7.689c1.08-1.672,2.219-3.303,3.408-4.897c1.668-2.234,3.446-4.389,5.323-6.457c1.32-1.455,2.682-2.874,4.098-4.238c4.412-4.247,9.271-8.052,14.531-11.307V7.739C58.209,11.362,52.313,15.707,47.02,20.663"/>
<path fill="url(#SVGID_6_)" d="M38.35,16.175c-3.219,1.111-6.469,2.127-9.754,3.04c0.104-2.006,0.17-4.018,0.201-6.035c2.473-0.718,4.928-1.496,7.359-2.333C36.832,12.648,37.564,14.422,38.35,16.175 M41.563,8.889c0.676,1.798,1.416,3.569,2.207,5.315C53.648,10.401,63.154,5.646,72.174,0H60.787C54.572,3.386,48.152,6.358,41.563,8.889z M22.75,20.729c0.125-1.992,0.215-3.987,0.268-5.988c-4.578,1.144-9.213,2.091-13.895,2.829v5.817C13.711,22.687,18.256,21.802,22.75,20.729z"/>
</svg>