<?xml version="1.0" encoding="utf-8"?>
<svg version="1.1" xmlns="http://www.w3.org/2000/svg" xmlns:xlink="http://www.w3.org/1999/xlink" x="0px" y="0px" width="75px" height="78.516px" viewBox="0 0 75 78.516">
<rect x="0" y="0" fill="#114D97" width="75.004" height="49.943"/>
<polygon fill="#F7EC2F" points="30.705,13.393 28.987,12.158 27.272,13.393 27.858,11.295 26.215,9.961 28.288,9.904 28.987,7.847 29.689,9.904 31.761,9.961 30.118,11.295 "/>
<polygon fill="#F7EC2F" points="30.944,42.203 29.229,40.968 27.513,42.203 28.1,40.106 26.457,38.772 28.527,38.708 29.229,36.653 29.93,38.708 32.001,38.772 30.359,40.106 "/>
<polygon fill="#F7EC2F" points="39.283,44.431 37.567,43.197 35.853,44.431 36.438,42.339 34.784,40.999 36.866,40.938 37.567,38.881 38.258,40.938 40.34,40.999 38.697,42.339 "/>
<polygon fill="#F7EC2F" points="47.582,42.134 45.865,40.901 44.148,42.134 44.734,40.037 43.082,38.708 45.164,38.646 45.865,36.579 46.557,38.646 48.639,38.708 46.996,40.037 "/>
<polygon fill="#F7EC2F" points="53.682,35.951 51.965,34.716 50.25,35.951 50.836,33.859 49.191,32.526 51.275,32.462 51.965,30.402 52.666,32.462 54.736,32.526 53.096,33.859 "/>
<polygon fill="#F7EC2F" points="55.9,27.638 54.184,26.404 52.467,27.638 53.053,25.54 51.41,24.212 53.482,24.144 54.184,22.088 54.885,24.144 56.957,24.212 55.314,25.54 "/>
<polygon fill="#F7EC2F" points="53.482,19.257 51.766,18.028 50.061,19.257 50.646,17.164 48.992,15.83 51.074,15.768 51.766,13.712 52.467,15.768 54.549,15.83 52.896,17.164 "/>
<polygon fill="#F7EC2F" points="47.467,13.22 45.75,11.986 44.033,13.22 44.621,11.116 42.977,9.788 45.049,9.726 45.75,7.669 46.451,9.726 48.523,9.788 46.881,11.116 "/>
<polygon fill="#F7EC2F" points="39.043,11.066 37.327,9.83 35.611,11.066 36.197,8.972 34.554,7.632 36.626,7.575 37.327,5.513 38.027,7.575 40.109,7.632 38.457,8.972 "/>
<polygon fill="#F7EC2F" points="24.708,19.53 22.992,18.294 21.276,19.53 21.862,17.431 20.22,16.097 22.292,16.034 22.992,13.979 23.693,16.034 25.765,16.097 24.123,17.431 "/>
<polygon fill="#F7EC2F" points="22.542,27.812 20.826,26.576 19.11,27.812 19.696,25.713 18.043,24.379 20.125,24.317 20.826,22.26 21.518,24.317 23.601,24.379 21.957,25.713 "/>
<polygon fill="#F7EC2F" points="24.813,36.171 23.097,34.937 21.381,36.171 21.967,34.073 20.324,32.744 22.396,32.676 23.097,30.62 23.798,32.676 25.871,32.744 24.228,34.073 "/>
<path fill="#1A1A1A" d="M0.013,59.604v-5.959h4.419v1.01H1.216v1.32h2.993v1.006H1.216v1.621h3.33v1.006H0.013V59.604z"/>
<path fill="#1A1A1A" d="M5.476,53.644h1.202v3.228c0,0.513,0.017,0.845,0.045,0.998c0.052,0.244,0.174,0.438,0.368,0.586c0.193,0.15,0.459,0.222,0.795,0.222c0.341,0,0.598-0.069,0.772-0.21s0.277-0.309,0.313-0.515c0.033-0.202,0.053-0.54,0.053-1.011v-3.299h1.202v3.13c0,0.719-0.032,1.222-0.097,1.519c-0.066,0.296-0.184,0.544-0.358,0.746c-0.176,0.205-0.409,0.366-0.702,0.488c-0.293,0.119-0.675,0.181-1.147,0.181c-0.569,0-1-0.067-1.295-0.199c-0.295-0.13-0.527-0.302-0.698-0.51c-0.169-0.213-0.283-0.432-0.337-0.661c-0.078-0.343-0.118-0.845-0.118-1.514v-3.179H5.476z"/>
<path fill="#1A1A1A" d="M11.499,59.604v-5.959h2.534c0.637,0,1.098,0.053,1.389,0.162c0.289,0.106,0.518,0.298,0.692,0.572c0.174,0.272,0.26,0.587,0.26,0.938c0,0.449-0.13,0.818-0.395,1.107c-0.262,0.292-0.656,0.477-1.178,0.55c0.259,0.153,0.474,0.319,0.643,0.501c0.168,0.181,0.398,0.503,0.684,0.967l0.73,1.161h-1.439l-0.871-1.295c-0.308-0.462-0.52-0.757-0.634-0.877c-0.114-0.118-0.235-0.204-0.362-0.248c-0.127-0.043-0.33-0.066-0.604-0.066h-0.246v2.486L11.499,59.604L11.499,59.604z M12.702,56.166h0.89c0.58,0,0.938-0.023,1.083-0.074c0.144-0.049,0.256-0.133,0.337-0.252c0.081-0.119,0.123-0.268,0.123-0.447c0-0.202-0.055-0.362-0.164-0.486c-0.106-0.125-0.257-0.202-0.452-0.233c-0.097-0.015-0.39-0.021-0.877-0.021h-0.94V56.166z"/>
<path fill="#1A1A1A" d="M17.204,56.661c0-0.607,0.092-1.115,0.272-1.528c0.136-0.306,0.32-0.578,0.556-0.818c0.234-0.243,0.492-0.421,0.771-0.537c0.371-0.158,0.8-0.236,1.285-0.236c0.878,0,1.58,0.272,2.107,0.816c0.528,0.546,0.791,1.305,0.791,2.273c0,0.964-0.26,1.716-0.785,2.26c-0.523,0.543-1.222,0.815-2.096,0.815c-0.887,0-1.592-0.271-2.114-0.812C17.467,58.354,17.204,57.61,17.204,56.661z M18.445,56.621c0,0.674,0.156,1.185,0.467,1.534c0.311,0.349,0.708,0.521,1.187,0.521c0.481,0,0.874-0.171,1.181-0.518c0.307-0.346,0.462-0.864,0.462-1.556c0-0.683-0.15-1.192-0.448-1.528c-0.302-0.337-0.699-0.504-1.195-0.504s-0.896,0.17-1.2,0.51C18.597,55.421,18.445,55.936,18.445,56.621z"/>
<path fill="#1A1A1A" d="M23.926,59.604v-5.959h1.933c0.731,0,1.208,0.031,1.43,0.089c0.342,0.091,0.627,0.285,0.858,0.585c0.23,0.301,0.346,0.687,0.346,1.161c0,0.364-0.066,0.674-0.2,0.92c-0.13,0.252-0.302,0.446-0.505,0.589c-0.205,0.144-0.411,0.238-0.625,0.283c-0.287,0.058-0.703,0.086-1.248,0.086H25.13v2.246H23.926z M25.13,54.654v1.691h0.66c0.474,0,0.79-0.031,0.95-0.095c0.161-0.063,0.286-0.161,0.376-0.293c0.09-0.133,0.136-0.286,0.136-0.462c0-0.217-0.065-0.397-0.191-0.538c-0.128-0.143-0.288-0.229-0.484-0.265c-0.144-0.024-0.432-0.039-0.867-0.039H25.13z"/>
<path fill="#1A1A1A" d="M29.505,59.611v-5.966h4.425v1.011h-3.22v1.321h2.996v1.007H30.71v1.624h3.333v1.007h-4.538V59.611z"/>
<path fill="#1A1A1A" d="M40.446,59.611h-1.312l-0.52-1.354h-2.386l-0.494,1.354h-1.277l2.325-5.966h1.273L40.446,59.611zM38.229,57.25l-0.824-2.214l-0.807,2.214H38.229z"/>
<path fill="#1A1A1A" d="M41.098,59.611v-5.966h1.173l2.44,3.985v-3.985h1.12v5.966h-1.21l-2.404-3.892v3.892H41.098z"/>
<path fill="#1A1A1A" d="M49.413,53.644h1.203v3.231c0,0.513,0.017,0.846,0.046,0.999c0.053,0.245,0.174,0.438,0.368,0.587c0.194,0.15,0.458,0.221,0.795,0.221c0.343,0,0.599-0.068,0.774-0.21c0.173-0.141,0.278-0.309,0.313-0.515c0.034-0.202,0.053-0.541,0.053-1.012v-3.303h1.205v3.134c0,0.719-0.033,1.223-0.098,1.521c-0.066,0.296-0.186,0.544-0.362,0.746c-0.175,0.205-0.408,0.367-0.7,0.489c-0.294,0.118-0.677,0.181-1.147,0.181c-0.572,0-1.004-0.068-1.299-0.2c-0.292-0.13-0.526-0.302-0.695-0.51c-0.171-0.213-0.284-0.432-0.339-0.662c-0.08-0.343-0.117-0.846-0.117-1.516V53.644z"/>
<path fill="#1A1A1A" d="M55.452,59.611v-5.966h1.173l2.441,3.985v-3.985h1.12v5.966h-1.211l-2.403-3.892v3.892H55.452z"/>
<path fill="#1A1A1A" d="M61.425,59.611v-5.966h1.201v5.966H61.425z"/>
<path fill="#1A1A1A" d="M63.533,56.664c0-0.607,0.088-1.116,0.271-1.53c0.137-0.306,0.322-0.578,0.557-0.819c0.232-0.242,0.493-0.42,0.769-0.536c0.375-0.158,0.803-0.237,1.288-0.237c0.876,0,1.582,0.272,2.11,0.817c0.528,0.547,0.791,1.306,0.791,2.275c0,0.966-0.26,1.718-0.785,2.263c-0.525,0.544-1.223,0.816-2.1,0.816c-0.886,0-1.594-0.271-2.118-0.813S63.533,57.615,63.533,56.664z M64.772,56.625c0,0.674,0.158,1.185,0.469,1.535c0.313,0.349,0.709,0.521,1.188,0.521c0.482,0,0.872-0.171,1.184-0.518c0.307-0.347,0.46-0.866,0.46-1.557c0-0.684-0.147-1.194-0.449-1.53c-0.301-0.337-0.699-0.505-1.194-0.505c-0.494,0-0.896,0.171-1.202,0.511C64.926,55.423,64.772,55.939,64.772,56.625z"/>
<path fill="#1A1A1A" d="M70.271,59.611v-5.966h1.174l2.439,3.985v-3.985h1.119v5.966h-1.209l-2.404-3.892v3.892H70.271z"/>
<path fill="#1A1A1A" d="M0.013,68.535v-5.509h3.981v0.65H0.741v1.686h3.047v0.647H0.741v1.872h3.381v0.652L0.013,68.535L0.013,68.535z"/>
<path fill="#1A1A1A" d="M7.658,68.535v-0.587c-0.311,0.449-0.733,0.675-1.268,0.675c-0.235,0-0.454-0.045-0.658-0.133c-0.205-0.092-0.356-0.205-0.454-0.339c-0.099-0.139-0.169-0.307-0.21-0.504c-0.026-0.132-0.04-0.341-0.04-0.633v-2.473h0.676v2.215c0,0.353,0.013,0.591,0.041,0.713c0.042,0.178,0.133,0.316,0.271,0.418c0.138,0.106,0.308,0.153,0.512,0.153c0.202,0,0.392-0.053,0.569-0.155c0.181-0.104,0.306-0.245,0.378-0.426c0.075-0.179,0.112-0.437,0.112-0.777v-2.141h0.676v3.992L7.658,68.535L7.658,68.535z"/>
<path fill="#1A1A1A" d="M9.315,68.535v-3.992h0.606v0.605c0.156-0.281,0.3-0.469,0.431-0.558c0.132-0.093,0.276-0.136,0.434-0.136c0.229,0,0.461,0.073,0.694,0.216l-0.23,0.63c-0.165-0.098-0.33-0.146-0.497-0.146c-0.148,0-0.28,0.045-0.399,0.132c-0.118,0.087-0.201,0.213-0.25,0.371c-0.076,0.236-0.115,0.503-0.115,0.788v2.09H9.315z"/>
<path fill="#1A1A1A" d="M11.633,66.538c0-0.736,0.205-1.288,0.615-1.643c0.345-0.292,0.761-0.44,1.256-0.44c0.547,0,0.998,0.177,1.343,0.538c0.35,0.359,0.525,0.854,0.525,1.488c0,0.514-0.078,0.919-0.232,1.213c-0.155,0.292-0.378,0.521-0.674,0.687c-0.294,0.16-0.614,0.239-0.963,0.239c-0.559,0-1.01-0.177-1.355-0.536C11.802,67.73,11.633,67.213,11.633,66.538z M12.327,66.538c0,0.51,0.112,0.893,0.337,1.148c0.22,0.255,0.501,0.383,0.839,0.383c0.335,0,0.614-0.128,0.837-0.385c0.223-0.255,0.334-0.645,0.334-1.168c0-0.493-0.113-0.865-0.335-1.122c-0.224-0.256-0.5-0.381-0.836-0.381c-0.338,0-0.62,0.125-0.839,0.379C12.439,65.646,12.327,66.029,12.327,66.538z"/>
<path fill="#1A1A1A" d="M16.164,70.064v-5.521h0.617v0.52c0.145-0.202,0.308-0.354,0.49-0.453c0.187-0.105,0.404-0.154,0.667-0.154c0.339,0,0.641,0.087,0.9,0.26c0.262,0.178,0.457,0.423,0.589,0.744c0.132,0.317,0.199,0.67,0.199,1.05c0,0.407-0.071,0.774-0.219,1.102c-0.147,0.329-0.359,0.579-0.637,0.754c-0.281,0.175-0.575,0.259-0.881,0.259c-0.227,0-0.429-0.046-0.607-0.142c-0.179-0.093-0.325-0.216-0.443-0.359v1.942L16.164,70.064L16.164,70.064z M16.778,66.563c0,0.513,0.104,0.894,0.308,1.137c0.209,0.249,0.459,0.37,0.756,0.37c0.303,0,0.558-0.128,0.772-0.383c0.214-0.256,0.32-0.646,0.32-1.182c0-0.509-0.103-0.888-0.312-1.143c-0.209-0.252-0.458-0.379-0.749-0.379c-0.289,0-0.542,0.137-0.765,0.403C16.887,65.657,16.778,66.047,16.778,66.563z"/>
<path fill="#1A1A1A" d="M23.174,67.251l0.699,0.085c-0.11,0.405-0.315,0.723-0.611,0.949c-0.302,0.225-0.68,0.338-1.146,0.338c-0.582,0-1.043-0.18-1.386-0.539c-0.344-0.355-0.514-0.865-0.514-1.512c0-0.671,0.172-1.193,0.518-1.562c0.348-0.372,0.793-0.556,1.346-0.556c0.533,0,0.968,0.178,1.306,0.542c0.338,0.361,0.505,0.875,0.505,1.533c0,0.04,0,0.103-0.002,0.178h-2.974c0.023,0.441,0.148,0.775,0.372,1.01c0.22,0.232,0.498,0.351,0.832,0.351c0.248,0,0.46-0.065,0.635-0.198C22.933,67.74,23.07,67.536,23.174,67.251z M20.954,66.158h2.227c-0.028-0.339-0.115-0.591-0.256-0.758c-0.214-0.262-0.495-0.39-0.834-0.39c-0.313,0-0.575,0.104-0.785,0.311C21.094,65.529,20.977,65.807,20.954,66.158z"/>
<path fill="#1A1A1A" d="M27.325,68.041c-0.25,0.214-0.491,0.363-0.723,0.451c-0.231,0.086-0.479,0.128-0.744,0.128c-0.441,0-0.777-0.104-1.013-0.317c-0.236-0.217-0.354-0.486-0.354-0.82c0-0.199,0.046-0.377,0.135-0.538c0.086-0.159,0.206-0.29,0.349-0.39c0.145-0.098,0.306-0.172,0.487-0.221c0.132-0.032,0.334-0.068,0.601-0.103c0.545-0.064,0.947-0.142,1.206-0.23c0.002-0.096,0.003-0.153,0.003-0.175c0-0.277-0.063-0.474-0.191-0.588c-0.173-0.151-0.428-0.227-0.771-0.227c-0.317,0-0.552,0.055-0.704,0.167c-0.151,0.113-0.262,0.31-0.334,0.593l-0.663-0.095c0.06-0.279,0.159-0.507,0.295-0.682c0.139-0.174,0.338-0.31,0.598-0.403c0.26-0.094,0.564-0.138,0.906-0.138c0.339,0,0.617,0.038,0.831,0.117c0.213,0.084,0.368,0.182,0.468,0.304c0.102,0.122,0.171,0.275,0.211,0.461c0.023,0.118,0.034,0.322,0.034,0.623v0.902c0,0.63,0.015,1.026,0.045,1.192c0.026,0.167,0.083,0.328,0.168,0.481h-0.707C27.391,68.394,27.346,68.229,27.325,68.041z M27.269,66.533c-0.245,0.102-0.613,0.183-1.106,0.259c-0.278,0.037-0.472,0.082-0.589,0.131c-0.116,0.051-0.206,0.124-0.268,0.221s-0.091,0.202-0.091,0.321c0,0.179,0.069,0.33,0.204,0.449c0.138,0.119,0.336,0.18,0.6,0.18c0.26,0,0.491-0.057,0.693-0.17c0.204-0.115,0.354-0.27,0.448-0.468c0.074-0.151,0.11-0.379,0.11-0.678V66.533z"/>
<path fill="#1A1A1A" d="M29,68.535v-3.992h0.608v0.568c0.294-0.438,0.717-0.656,1.271-0.656c0.242,0,0.461,0.042,0.664,0.125c0.202,0.091,0.351,0.203,0.451,0.343c0.101,0.14,0.171,0.309,0.211,0.5c0.024,0.126,0.039,0.345,0.039,0.657v2.455h-0.676v-2.43c0-0.271-0.027-0.479-0.08-0.616c-0.052-0.136-0.146-0.244-0.281-0.327c-0.133-0.08-0.29-0.118-0.469-0.118c-0.29,0-0.538,0.09-0.748,0.271c-0.21,0.185-0.313,0.528-0.313,1.043v2.178L29,68.535L29,68.535z"/>
<path fill="#1A1A1A" d="M35.541,66.763l0.686-0.06c0.032,0.275,0.109,0.503,0.228,0.68c0.12,0.177,0.304,0.319,0.554,0.43c0.25,0.108,0.533,0.164,0.846,0.164c0.279,0,0.523-0.042,0.735-0.124c0.214-0.082,0.372-0.196,0.476-0.341c0.105-0.146,0.156-0.304,0.156-0.471c0-0.173-0.051-0.325-0.15-0.453c-0.1-0.127-0.266-0.235-0.495-0.326c-0.15-0.056-0.475-0.145-0.981-0.266c-0.505-0.122-0.858-0.237-1.063-0.345c-0.263-0.137-0.458-0.31-0.587-0.514s-0.195-0.433-0.195-0.683c0-0.281,0.079-0.541,0.237-0.78c0.161-0.242,0.389-0.428,0.693-0.552c0.303-0.124,0.638-0.188,1.011-0.188c0.408,0,0.768,0.066,1.079,0.198c0.313,0.133,0.55,0.326,0.72,0.581c0.166,0.255,0.259,0.542,0.271,0.869l-0.698,0.054c-0.036-0.352-0.166-0.614-0.38-0.791c-0.22-0.177-0.54-0.268-0.963-0.268c-0.439,0.001-0.761,0.082-0.961,0.245c-0.204,0.16-0.306,0.357-0.306,0.582c0,0.2,0.073,0.359,0.214,0.489c0.141,0.128,0.506,0.259,1.1,0.394c0.59,0.132,0.999,0.252,1.217,0.351c0.321,0.15,0.559,0.339,0.712,0.562c0.153,0.228,0.229,0.49,0.229,0.785c0,0.291-0.084,0.568-0.255,0.826c-0.165,0.259-0.408,0.462-0.722,0.608c-0.312,0.141-0.669,0.211-1.06,0.211c-0.497,0-0.916-0.07-1.253-0.217c-0.336-0.146-0.601-0.361-0.791-0.653C35.65,67.465,35.55,67.133,35.541,66.763z"/>
<path fill="#1A1A1A" d="M40.581,66.538c0-0.736,0.206-1.288,0.614-1.643c0.347-0.292,0.764-0.44,1.257-0.44c0.549,0,0.997,0.177,1.346,0.538c0.348,0.359,0.52,0.854,0.52,1.488c0,0.514-0.075,0.919-0.228,1.213c-0.157,0.292-0.379,0.521-0.673,0.687c-0.297,0.16-0.617,0.239-0.966,0.239c-0.559,0-1.011-0.177-1.354-0.536C40.753,67.73,40.581,67.213,40.581,66.538z M41.275,66.538c0,0.51,0.112,0.893,0.336,1.148c0.222,0.255,0.504,0.383,0.841,0.383c0.335,0,0.616-0.128,0.838-0.385c0.224-0.255,0.333-0.645,0.333-1.168c0-0.493-0.111-0.865-0.334-1.122c-0.224-0.256-0.503-0.381-0.837-0.381c-0.337,0-0.619,0.125-0.841,0.379C41.388,65.646,41.275,66.029,41.275,66.538z"/>
<path fill="#1A1A1A" d="M47.717,67.073l0.665,0.089c-0.074,0.454-0.26,0.814-0.56,1.072c-0.299,0.26-0.668,0.389-1.103,0.389c-0.544,0-0.984-0.18-1.314-0.537c-0.335-0.354-0.498-0.867-0.498-1.531c0-0.43,0.07-0.81,0.212-1.132c0.144-0.324,0.361-0.564,0.653-0.728c0.291-0.163,0.608-0.24,0.951-0.24c0.433,0,0.786,0.107,1.063,0.327c0.275,0.218,0.452,0.531,0.53,0.932l-0.657,0.102c-0.063-0.267-0.173-0.468-0.332-0.604c-0.16-0.137-0.354-0.201-0.577-0.201c-0.341,0-0.62,0.122-0.83,0.364c-0.213,0.247-0.319,0.631-0.319,1.16c0,0.534,0.103,0.924,0.309,1.167c0.203,0.243,0.472,0.365,0.802,0.365c0.266,0,0.49-0.083,0.665-0.246C47.557,67.662,47.668,67.412,47.717,67.073z"/>
<path fill="#1A1A1A" d="M48.964,63.804v-0.778h0.676v0.778H48.964z M48.964,68.535v-3.992h0.676v3.992H48.964z"/>
<path fill="#1A1A1A" d="M53.38,68.041c-0.251,0.214-0.491,0.363-0.724,0.451c-0.229,0.086-0.479,0.128-0.744,0.128c-0.439,0-0.776-0.104-1.012-0.317c-0.235-0.217-0.354-0.486-0.354-0.82c0-0.199,0.043-0.377,0.133-0.538c0.089-0.159,0.208-0.29,0.35-0.39c0.145-0.098,0.307-0.172,0.486-0.221c0.134-0.032,0.335-0.068,0.602-0.103c0.546-0.064,0.95-0.142,1.207-0.23c0.002-0.096,0.004-0.153,0.004-0.175c0-0.278-0.066-0.474-0.192-0.588c-0.173-0.151-0.431-0.227-0.771-0.227c-0.317,0-0.552,0.055-0.704,0.167c-0.153,0.113-0.265,0.31-0.336,0.593l-0.662-0.095c0.062-0.279,0.159-0.507,0.299-0.682c0.139-0.174,0.336-0.31,0.597-0.403c0.26-0.094,0.561-0.138,0.905-0.138c0.34,0,0.617,0.038,0.83,0.117c0.211,0.084,0.369,0.182,0.472,0.304c0.096,0.122,0.166,0.274,0.207,0.461c0.025,0.118,0.034,0.322,0.034,0.623v0.902c0,0.63,0.016,1.026,0.044,1.192c0.026,0.167,0.084,0.328,0.168,0.481h-0.705C53.446,68.394,53.401,68.229,53.38,68.041z M53.326,66.533c-0.248,0.102-0.617,0.183-1.107,0.259c-0.278,0.037-0.476,0.082-0.589,0.131c-0.116,0.051-0.206,0.124-0.266,0.221c-0.063,0.097-0.096,0.202-0.096,0.321c0,0.179,0.069,0.33,0.204,0.449c0.136,0.119,0.338,0.18,0.601,0.18c0.258,0,0.493-0.057,0.694-0.17c0.204-0.115,0.351-0.27,0.445-0.468c0.076-0.151,0.113-0.379,0.113-0.678V66.533z"/>
<path fill="#1A1A1A" d="M55.041,68.535v-5.509h0.679v5.509H55.041z"/>
<path fill="#1A1A1A" d="M59.013,68.535v-5.509h3.717v0.65H59.74v1.706h2.586v0.65H59.74v2.502H59.013z"/>
<path fill="#1A1A1A" d="M65.685,68.535v-0.587c-0.312,0.449-0.729,0.675-1.267,0.675c-0.232,0-0.451-0.045-0.656-0.133c-0.207-0.092-0.356-0.205-0.457-0.339c-0.099-0.139-0.165-0.307-0.206-0.504c-0.03-0.133-0.042-0.341-0.042-0.633v-2.473h0.675v2.215c0,0.353,0.015,0.591,0.043,0.713c0.042,0.178,0.131,0.316,0.27,0.418c0.138,0.106,0.308,0.153,0.51,0.153c0.206,0,0.394-0.053,0.572-0.155c0.177-0.104,0.304-0.245,0.376-0.426c0.073-0.179,0.114-0.437,0.114-0.777v-2.141h0.675v3.992L65.685,68.535L65.685,68.535z"/>
<path fill="#1A1A1A" d="M67.491,68.535v-3.992h0.61v0.568c0.289-0.438,0.713-0.656,1.268-0.656c0.24,0,0.464,0.042,0.66,0.125c0.204,0.091,0.354,0.203,0.458,0.343c0.095,0.14,0.164,0.309,0.207,0.5c0.024,0.126,0.037,0.345,0.037,0.657v2.455h-0.676v-2.43c0-0.271-0.026-0.479-0.08-0.616c-0.051-0.136-0.143-0.244-0.277-0.327c-0.135-0.08-0.289-0.118-0.473-0.118c-0.285,0-0.536,0.09-0.745,0.271c-0.211,0.185-0.313,0.528-0.313,1.043v2.178L67.491,68.535L67.491,68.535z"/>
<path fill="#1A1A1A" d="M74.359,68.535v-0.502c-0.253,0.395-0.626,0.59-1.118,0.59c-0.315,0-0.605-0.084-0.874-0.26c-0.267-0.176-0.475-0.422-0.621-0.736c-0.147-0.313-0.218-0.677-0.218-1.081c0-0.399,0.063-0.761,0.195-1.086c0.136-0.324,0.334-0.574,0.601-0.748c0.265-0.171,0.562-0.257,0.889-0.257c0.242,0,0.456,0.049,0.644,0.154c0.188,0.1,0.341,0.234,0.457,0.393v-1.975h0.674v5.509L74.359,68.535L74.359,68.535z M72.22,66.545c0,0.51,0.111,0.891,0.323,1.145c0.216,0.253,0.469,0.38,0.763,0.38c0.298,0,0.548-0.12,0.755-0.364c0.206-0.239,0.308-0.611,0.308-1.105c0-0.545-0.104-0.947-0.313-1.202c-0.213-0.259-0.468-0.384-0.779-0.384c-0.301,0-0.551,0.122-0.751,0.369C72.323,65.628,72.22,66.017,72.22,66.545z"/>
</svg>
