<?xml version="1.0" encoding="utf-8"?>
<svg version="1.1" xmlns="http://www.w3.org/2000/svg" xmlns:xlink="http://www.w3.org/1999/xlink" x="0px" y="0px" width="82px" height="65.68px" viewBox="0 0 82 65.68">
<defs>
<linearGradient id="SVGID_1_" gradientUnits="userSpaceOnUse" x1="58.2744" y1="25.2605" x2="59.7073" y2="49.5906">
<stop  offset="0" stop-color="#ED1C24"/>
<stop  offset="0.83" stop-color="#ED1C24"/>
<stop  offset="0.96" stop-color="#B51218"/>
<stop  offset="1" stop-color="#B51218"/>
</linearGradient>
<linearGradient id="SVGID_2_" gradientUnits="userSpaceOnUse" x1="9.124" y1="38.7258" x2="62.9365" y2="38.7258">
<stop  offset="0" stop-color="#FFD400"/>
<stop  offset="0.13" stop-color="#FFD400"/>
<stop  offset="0.46" stop-color="#FFF200"/>
<stop  offset="0.88" stop-color="#FFF200"/>
<stop  offset="1" stop-color="#FFD400"/>
</linearGradient>
<linearGradient id="SVGID_3_" gradientUnits="userSpaceOnUse" x1="23.6235" y1="48.9094" x2="23.6235" y2="0.0071">
<stop  offset="0" stop-color="#DCDDDE"/>
<stop  offset="0.31" stop-color="#EBEBEC"/>
<stop  offset="0.54" stop-color="#FFFFFF"/>
<stop  offset="0.72" stop-color="#FFFFFF"/>
<stop  offset="0.99" stop-color="#DCDDDE"/>
<stop  offset="1" stop-color="#D1D3D4"/>
</linearGradient>
<linearGradient id="SVGID_4_" gradientUnits="userSpaceOnUse" x1="39.415" y1="-0.2146" x2="40.6521" y2="25.1713">
<stop  offset="0" stop-color="#D51920"/>
<stop  offset="0.06" stop-color="#D51920"/>
<stop  offset="0.11" stop-color="#ED1C24"/>
<stop  offset="0.99" stop-color="#ED1C24"/>
<stop  offset="1" stop-color="#B51218"/>
</linearGradient>
<linearGradient id="SVGID_5_" gradientUnits="userSpaceOnUse" x1="25.5503" y1="49.1838" x2="66.2371" y2="8.3985">
<stop  offset="0" stop-color="#02428D"/>
<stop  offset="0.14" stop-color="#034EA2"/>
<stop  offset="0.41" stop-color="#0062AF"/>
<stop  offset="0.86" stop-color="#034EA2"/>
<stop  offset="1" stop-color="#023F88"/>
</linearGradient>
<linearGradient id="SVGID_6_" gradientUnits="userSpaceOnUse" x1="9.123" y1="11.6936" x2="123.8082" y2="11.6936">
<stop  offset="0" stop-color="#008641"/>
<stop  offset="0.01" stop-color="#008641"/>
<stop  offset="0.11" stop-color="#00A651"/>
<stop  offset="0.88" stop-color="#00A651"/>
<stop  offset="0.97" stop-color="#009247"/>
<stop  offset="1" stop-color="#009247"/>
</linearGradient>
</defs>
<path fill="#717171" d="M2.962,55.222c-0.038-0.131-0.094-0.251-0.168-0.36c-0.074-0.107-0.168-0.202-0.28-0.283c-0.112-0.08-0.245-0.143-0.396-0.188c-0.151-0.044-0.322-0.065-0.512-0.065s-0.361,0.022-0.513,0.066c-0.151,0.045-0.284,0.107-0.397,0.188c-0.112,0.08-0.207,0.176-0.282,0.285c-0.074,0.108-0.13,0.229-0.167,0.359c-0.038,0.131-0.057,0.269-0.057,0.411c0.001,0.196,0.033,0.373,0.1,0.529c0.065,0.157,0.16,0.291,0.284,0.4c0.123,0.111,0.271,0.196,0.445,0.255c0.175,0.06,0.37,0.089,0.587,0.09c0.217-0.001,0.412-0.03,0.585-0.09c0.173-0.059,0.321-0.144,0.444-0.255c0.122-0.109,0.217-0.243,0.282-0.4c0.065-0.156,0.098-0.333,0.099-0.529C3.017,55.492,2.998,55.354,2.962,55.222z M2.57,56.204c-0.089,0.157-0.215,0.279-0.38,0.365c-0.164,0.088-0.359,0.13-0.584,0.132c-0.229-0.002-0.427-0.044-0.592-0.132c-0.166-0.086-0.293-0.208-0.383-0.365c-0.089-0.159-0.135-0.349-0.135-0.567c0-0.231,0.044-0.432,0.132-0.596c0.088-0.163,0.215-0.289,0.38-0.376c0.165-0.086,0.363-0.13,0.598-0.131c0.233,0.001,0.432,0.045,0.595,0.131c0.164,0.087,0.288,0.213,0.375,0.376c0.086,0.164,0.129,0.362,0.13,0.596C2.705,55.857,2.659,56.045,2.57,56.204z"/>
<path fill="#717171" d="M6.877,54.692C6.8,54.58,6.691,54.499,6.55,54.448c-0.143-0.054-0.312-0.078-0.507-0.077H4.867v2.493h0.301v-0.993h0.771c0.147,0,0.285-0.015,0.413-0.041c0.128-0.027,0.239-0.071,0.335-0.131c0.097-0.061,0.172-0.138,0.226-0.233c0.054-0.095,0.082-0.211,0.083-0.347C6.994,54.945,6.955,54.802,6.877,54.692z M6.626,55.398c-0.042,0.069-0.099,0.123-0.172,0.16c-0.073,0.039-0.157,0.064-0.253,0.079c-0.097,0.014-0.2,0.021-0.311,0.021H5.168V54.59h0.789c0.181,0,0.324,0.019,0.432,0.058c0.108,0.039,0.185,0.1,0.231,0.179c0.047,0.08,0.069,0.181,0.068,0.303C6.688,55.238,6.667,55.327,6.626,55.398z"/>
<polygon fill="#717171" points="8.735,56.865 10.829,56.865 10.829,56.656 9.041,56.656 9.041,55.684 10.643,55.684 10.643,55.486 9.041,55.486 9.041,54.585 10.791,54.585 10.791,54.371 8.735,54.371 "/>
<path fill="#717171" d="M14.901,56.807c-0.018-0.018-0.033-0.037-0.044-0.06c-0.011-0.023-0.021-0.05-0.026-0.082c-0.007-0.033-0.013-0.074-0.018-0.125c-0.005-0.05-0.01-0.112-0.016-0.187c-0.006-0.084-0.011-0.16-0.017-0.229c-0.006-0.069-0.019-0.132-0.038-0.188c-0.021-0.057-0.057-0.108-0.106-0.158c-0.051-0.049-0.125-0.095-0.222-0.139c0.163-0.06,0.283-0.138,0.361-0.235c0.079-0.098,0.117-0.219,0.117-0.363c-0.001-0.135-0.028-0.246-0.082-0.333c-0.053-0.088-0.126-0.156-0.22-0.205c-0.094-0.05-0.203-0.084-0.326-0.104s-0.255-0.028-0.396-0.027H12.63v2.493h0.301v-1.122h0.856c0.082,0,0.149,0.001,0.204,0.003c0.056,0.002,0.101,0.005,0.138,0.01c0.037,0.006,0.067,0.013,0.094,0.021c0.026,0.011,0.052,0.022,0.076,0.036c0.057,0.036,0.101,0.086,0.131,0.15c0.03,0.063,0.052,0.136,0.065,0.215c0.013,0.079,0.023,0.161,0.029,0.246c0.008,0.083,0.017,0.164,0.026,0.24c0.011,0.076,0.029,0.144,0.054,0.199h0.363C14.942,56.844,14.92,56.825,14.901,56.807z M14.076,55.525c-0.1,0.012-0.206,0.017-0.321,0.017h-0.822v-0.955h0.832c0.107-0.001,0.21,0.002,0.308,0.009c0.098,0.008,0.185,0.025,0.261,0.055c0.076,0.027,0.137,0.073,0.182,0.137c0.045,0.062,0.067,0.146,0.068,0.257c-0.001,0.109-0.022,0.198-0.065,0.266c-0.043,0.066-0.103,0.116-0.178,0.15C14.264,55.49,14.176,55.514,14.076,55.525z"/>
<path fill="#717171" d="M18.006,54.371h-0.325l-1.2,2.493h0.325l0.363-0.787h1.349l0.363,0.787h0.325L18.006,54.371z M17.26,55.875l0.579-1.271l0.593,1.271H17.26z"/>
<polygon fill="#717171" points="21.587,56.865 21.894,56.865 21.894,54.589 22.878,54.589 22.878,54.371 20.588,54.371 20.588,54.589 21.587,54.589 "/>
<polygon fill="#717171" points="24.566,56.865 24.877,56.865 24.877,54.371 24.566,54.371 "/>
<path fill="#717171" d="M29.412,55.222c-0.037-0.131-0.094-0.251-0.167-0.36c-0.075-0.107-0.169-0.202-0.28-0.283c-0.113-0.08-0.245-0.143-0.396-0.188c-0.152-0.044-0.322-0.065-0.513-0.065s-0.361,0.022-0.513,0.066c-0.151,0.045-0.283,0.107-0.396,0.188c-0.113,0.08-0.207,0.176-0.282,0.285c-0.075,0.108-0.131,0.229-0.168,0.359c-0.038,0.131-0.056,0.269-0.056,0.411c0.001,0.196,0.033,0.373,0.1,0.529c0.065,0.157,0.16,0.291,0.283,0.4c0.124,0.111,0.272,0.196,0.445,0.255c0.175,0.06,0.37,0.089,0.587,0.09c0.217-0.001,0.412-0.03,0.586-0.09c0.173-0.059,0.32-0.144,0.443-0.255c0.123-0.109,0.217-0.243,0.282-0.4c0.065-0.156,0.098-0.333,0.099-0.529C29.467,55.492,29.449,55.354,29.412,55.222z M29.021,56.204c-0.088,0.157-0.215,0.279-0.379,0.365c-0.164,0.088-0.359,0.13-0.585,0.132c-0.229-0.002-0.426-0.044-0.591-0.132c-0.166-0.086-0.294-0.208-0.383-0.365c-0.09-0.159-0.135-0.349-0.136-0.567c0.001-0.231,0.045-0.432,0.133-0.596c0.087-0.163,0.214-0.289,0.379-0.376c0.165-0.086,0.364-0.13,0.598-0.131c0.233,0.001,0.432,0.045,0.596,0.131c0.164,0.087,0.288,0.213,0.374,0.376c0.086,0.164,0.129,0.362,0.13,0.596C29.155,55.857,29.11,56.045,29.021,56.204z"/>
<polygon fill="#717171" points="31.317,56.865 31.585,56.865 31.585,54.73 33.326,56.865 33.627,56.865 33.627,54.371 33.359,54.371 33.359,56.506 31.623,54.371 31.317,54.371 "/>
<path fill="#717171" d="M36.734,54.371H36.41l-1.2,2.493h0.325l0.363-0.787h1.348l0.363,0.787h0.326L36.734,54.371z M35.989,55.875l0.578-1.271l0.593,1.271H35.989z"/>
<polygon fill="#717171" points="39.608,56.865 41.507,56.865 41.507,56.656 39.914,56.656 39.914,54.371 39.608,54.371 "/>
<path fill="#717171" d="M46.463,54.692c-0.078-0.11-0.188-0.191-0.329-0.242c-0.142-0.054-0.311-0.078-0.506-0.077h-1.176v2.493h0.301v-0.993h0.771c0.147,0,0.285-0.015,0.414-0.041c0.127-0.027,0.238-0.071,0.334-0.131c0.098-0.061,0.172-0.138,0.227-0.233c0.055-0.095,0.082-0.211,0.082-0.347C46.579,54.945,46.54,54.802,46.463,54.692z M46.211,55.398c-0.042,0.069-0.1,0.123-0.172,0.16c-0.073,0.039-0.157,0.064-0.253,0.079c-0.097,0.014-0.2,0.021-0.312,0.021h-0.723V54.59h0.789c0.182,0,0.324,0.019,0.432,0.058c0.108,0.039,0.186,0.1,0.231,0.179c0.047,0.08,0.069,0.181,0.067,0.303C46.271,55.238,46.252,55.327,46.211,55.398z"/>
<path fill="#717171" d="M50.59,56.807c-0.018-0.018-0.033-0.037-0.044-0.06c-0.012-0.022-0.021-0.05-0.026-0.082c-0.006-0.033-0.013-0.074-0.018-0.125c-0.005-0.05-0.011-0.112-0.016-0.187c-0.006-0.084-0.012-0.16-0.019-0.229c-0.005-0.068-0.018-0.132-0.038-0.188c-0.02-0.057-0.056-0.108-0.104-0.158c-0.052-0.049-0.125-0.095-0.222-0.139c0.162-0.06,0.283-0.138,0.36-0.235c0.078-0.097,0.117-0.219,0.116-0.363c0-0.135-0.027-0.246-0.081-0.333c-0.054-0.088-0.126-0.156-0.222-0.205c-0.092-0.05-0.201-0.084-0.324-0.104s-0.256-0.028-0.396-0.027H48.32v2.493h0.301v-1.122h0.855c0.082,0,0.149,0.001,0.205,0.003c0.055,0.002,0.101,0.005,0.137,0.01c0.037,0.006,0.068,0.013,0.095,0.021c0.026,0.011,0.051,0.022,0.075,0.036c0.058,0.036,0.102,0.086,0.132,0.15c0.03,0.063,0.052,0.136,0.065,0.215c0.012,0.079,0.022,0.161,0.028,0.246c0.007,0.083,0.017,0.164,0.026,0.24s0.027,0.144,0.054,0.199h0.363C50.631,56.844,50.607,56.825,50.59,56.807z M49.766,55.525c-0.101,0.012-0.207,0.017-0.322,0.017h-0.821v-0.955h0.832c0.106-0.001,0.21,0.002,0.308,0.009c0.098,0.008,0.186,0.025,0.262,0.055c0.076,0.027,0.137,0.073,0.182,0.137c0.044,0.062,0.066,0.146,0.066,0.257c0,0.109-0.021,0.198-0.064,0.266c-0.043,0.066-0.102,0.116-0.178,0.15C49.952,55.49,49.863,55.514,49.766,55.525z"/>
<path fill="#717171" d="M55.121,55.222c-0.037-0.131-0.094-0.251-0.167-0.36c-0.075-0.107-0.168-0.202-0.28-0.283c-0.111-0.08-0.244-0.143-0.396-0.188c-0.15-0.044-0.321-0.065-0.512-0.065c-0.191,0-0.361,0.022-0.513,0.066c-0.151,0.045-0.284,0.107-0.397,0.188c-0.112,0.08-0.207,0.176-0.281,0.285c-0.074,0.108-0.131,0.229-0.168,0.359s-0.057,0.269-0.057,0.411c0.002,0.196,0.033,0.373,0.101,0.529c0.065,0.157,0.159,0.291,0.282,0.4c0.125,0.111,0.272,0.196,0.447,0.255c0.174,0.06,0.368,0.089,0.586,0.09c0.217-0.001,0.411-0.03,0.586-0.09c0.172-0.059,0.32-0.144,0.443-0.255c0.122-0.109,0.217-0.243,0.281-0.4c0.064-0.156,0.099-0.333,0.099-0.529C55.176,55.492,55.158,55.354,55.121,55.222z M54.73,56.204c-0.09,0.157-0.217,0.279-0.381,0.365c-0.164,0.088-0.358,0.13-0.584,0.132c-0.229-0.002-0.427-0.044-0.592-0.132c-0.166-0.086-0.293-0.208-0.383-0.365c-0.089-0.159-0.135-0.349-0.137-0.567c0.002-0.231,0.046-0.432,0.134-0.596c0.088-0.163,0.215-0.289,0.379-0.376c0.165-0.086,0.364-0.13,0.599-0.131c0.232,0.001,0.432,0.045,0.596,0.131c0.164,0.087,0.287,0.213,0.373,0.376c0.088,0.164,0.131,0.362,0.131,0.596C54.865,55.857,54.818,56.045,54.73,56.204z"/>
<path fill="#717171" d="M58.284,55.582v0.199h1.022c0,0.131-0.021,0.251-0.065,0.361c-0.044,0.111-0.108,0.208-0.195,0.292c-0.087,0.083-0.194,0.147-0.323,0.194s-0.277,0.07-0.447,0.071c-0.164-0.001-0.311-0.027-0.441-0.078c-0.131-0.053-0.243-0.125-0.338-0.222c-0.094-0.097-0.165-0.212-0.217-0.346c-0.049-0.135-0.074-0.284-0.074-0.45c0-0.224,0.044-0.415,0.131-0.574s0.212-0.282,0.373-0.367c0.162-0.085,0.355-0.129,0.581-0.13c0.267,0,0.479,0.049,0.642,0.146c0.161,0.096,0.271,0.238,0.324,0.428h0.297c-0.035-0.162-0.109-0.302-0.222-0.418c-0.11-0.116-0.254-0.207-0.429-0.27c-0.174-0.063-0.371-0.096-0.594-0.096c-0.215,0-0.408,0.03-0.582,0.091c-0.172,0.062-0.32,0.146-0.444,0.261c-0.123,0.111-0.218,0.247-0.283,0.406c-0.065,0.156-0.101,0.336-0.101,0.531c0,0.197,0.033,0.375,0.099,0.534c0.063,0.159,0.155,0.296,0.276,0.409s0.265,0.201,0.433,0.262c0.167,0.062,0.354,0.092,0.56,0.093c0.159,0,0.303-0.02,0.43-0.054c0.127-0.036,0.244-0.088,0.35-0.155c0.105-0.068,0.205-0.152,0.298-0.251v0.412h0.234v-1.281L58.284,55.582L58.284,55.582z"/>
<path fill="#717171" d="M63.768,56.807c-0.019-0.018-0.033-0.037-0.043-0.06c-0.013-0.022-0.021-0.05-0.027-0.082c-0.008-0.033-0.014-0.074-0.018-0.125c-0.005-0.05-0.011-0.112-0.017-0.187c-0.006-0.084-0.011-0.16-0.017-0.229c-0.006-0.069-0.02-0.132-0.039-0.188c-0.019-0.056-0.055-0.108-0.105-0.158c-0.05-0.049-0.125-0.095-0.221-0.139c0.162-0.06,0.281-0.138,0.359-0.235c0.08-0.098,0.118-0.219,0.117-0.363c-0.001-0.135-0.027-0.246-0.08-0.333c-0.055-0.088-0.128-0.156-0.222-0.205c-0.095-0.05-0.202-0.084-0.325-0.104c-0.124-0.021-0.255-0.028-0.396-0.027h-1.237v2.493h0.302v-1.122h0.855c0.082,0,0.148,0.001,0.205,0.003c0.055,0.002,0.1,0.005,0.137,0.01c0.037,0.006,0.068,0.013,0.095,0.021c0.025,0.011,0.052,0.022,0.075,0.036c0.059,0.036,0.102,0.086,0.132,0.15c0.03,0.063,0.052,0.136,0.065,0.215c0.013,0.079,0.021,0.161,0.029,0.246c0.006,0.083,0.016,0.164,0.025,0.24s0.027,0.144,0.053,0.199h0.363C63.809,56.844,63.785,56.825,63.768,56.807z M62.941,55.525c-0.1,0.012-0.207,0.017-0.32,0.017h-0.822v-0.955h0.832c0.107-0.001,0.209,0.002,0.309,0.009c0.097,0.008,0.184,0.025,0.26,0.055c0.076,0.027,0.138,0.073,0.182,0.137c0.045,0.062,0.067,0.146,0.068,0.257c-0.001,0.109-0.021,0.198-0.065,0.266c-0.043,0.066-0.102,0.116-0.178,0.15C63.129,55.49,63.042,55.514,62.941,55.525z"/>
<path fill="#717171" d="M66.871,54.371h-0.324l-1.199,2.493h0.324l0.363-0.787h1.349l0.363,0.787h0.323L66.871,54.371zM66.126,55.875l0.578-1.271l0.593,1.271H66.126z"/>
<polyline fill="#717171" points="70.047,56.865 70.047,54.628 71.107,56.865 71.398,56.865 72.456,54.628 72.456,56.865 72.758,56.865 72.758,54.371 72.273,54.371 71.252,56.573 70.229,54.371 69.745,54.371 69.745,56.865 "/>
<polygon fill="#717171" points="74.952,56.865 74.952,54.628 76.014,56.865 76.307,56.865 77.361,54.628 77.361,56.865 77.663,56.865 77.663,54.371 77.182,54.371 76.157,56.573 75.134,54.371 74.65,54.371 74.65,56.865 "/>
<polygon fill="#717171" points="79.557,56.865 81.65,56.865 81.65,56.656 79.861,56.656 79.861,55.684 81.465,55.684 81.465,55.486 79.861,55.486 79.861,54.585 81.613,54.585 81.613,54.371 79.557,54.371 "/>
<path fill="#717171" d="M2.938,62.89H4.24c-0.086,0.402-0.244,0.706-0.479,0.908c-0.232,0.203-0.54,0.305-0.924,0.305c-0.273-0.005-0.512-0.058-0.712-0.161c-0.202-0.104-0.368-0.246-0.499-0.426c-0.133-0.181-0.229-0.388-0.295-0.621c-0.064-0.232-0.096-0.481-0.096-0.746c0-0.271,0.031-0.524,0.095-0.764c0.065-0.236,0.161-0.446,0.294-0.627c0.133-0.182,0.301-0.323,0.504-0.425c0.205-0.104,0.446-0.156,0.727-0.157c0.313,0,0.571,0.073,0.78,0.225c0.208,0.15,0.364,0.377,0.469,0.681h1.229c-0.054-0.411-0.189-0.764-0.409-1.055c-0.221-0.291-0.507-0.513-0.863-0.666c-0.355-0.155-0.763-0.231-1.224-0.233c-0.446,0.003-0.845,0.08-1.196,0.233c-0.352,0.152-0.648,0.366-0.893,0.643c-0.244,0.275-0.432,0.599-0.56,0.968c-0.128,0.368-0.191,0.771-0.192,1.205c0,0.326,0.037,0.636,0.112,0.931c0.074,0.296,0.185,0.567,0.331,0.814s0.325,0.461,0.539,0.646c0.215,0.184,0.46,0.324,0.739,0.425c0.278,0.101,0.588,0.151,0.929,0.152c0.357,0,0.682-0.068,0.972-0.21c0.291-0.139,0.549-0.347,0.774-0.622l0.117,0.725h0.823v-3.121H2.938V62.89L2.938,62.89z"/>
<path fill="#717171" d="M11.516,60.865c-0.127-0.357-0.308-0.665-0.546-0.926c-0.236-0.259-0.526-0.458-0.864-0.599c-0.339-0.142-0.724-0.212-1.151-0.214c-0.448,0.003-0.847,0.08-1.191,0.231c-0.346,0.152-0.637,0.365-0.873,0.639c-0.238,0.273-0.416,0.594-0.539,0.962c-0.122,0.366-0.184,0.767-0.184,1.199c0.001,0.425,0.066,0.817,0.193,1.181c0.128,0.36,0.313,0.677,0.556,0.946c0.242,0.271,0.534,0.479,0.876,0.63c0.345,0.149,0.73,0.226,1.162,0.229c0.356-0.003,0.68-0.059,0.971-0.164c0.29-0.106,0.546-0.255,0.768-0.445c0.222-0.191,0.407-0.417,0.556-0.675c0.151-0.259,0.265-0.54,0.342-0.847c0.076-0.306,0.114-0.627,0.114-0.964C11.703,61.615,11.641,61.219,11.516,60.865zM10.433,62.687c-0.039,0.196-0.098,0.38-0.18,0.55c-0.079,0.172-0.182,0.32-0.306,0.449c-0.125,0.13-0.271,0.231-0.44,0.306c-0.17,0.072-0.363,0.109-0.58,0.111c-0.224-0.002-0.421-0.039-0.592-0.112c-0.169-0.075-0.314-0.179-0.434-0.311c-0.121-0.131-0.219-0.283-0.294-0.455c-0.076-0.172-0.132-0.356-0.166-0.554c-0.036-0.197-0.053-0.399-0.053-0.604c0-0.267,0.033-0.513,0.098-0.739c0.065-0.228,0.163-0.429,0.293-0.6c0.131-0.172,0.292-0.305,0.487-0.4c0.193-0.098,0.42-0.147,0.678-0.15c0.253,0.001,0.477,0.051,0.67,0.147c0.193,0.098,0.354,0.231,0.484,0.404c0.129,0.174,0.229,0.376,0.294,0.606c0.066,0.23,0.1,0.48,0.1,0.749C10.492,62.29,10.473,62.491,10.433,62.687z"/>
<path fill="#717171" d="M17.695,60.865c-0.127-0.357-0.308-0.665-0.547-0.926c-0.236-0.259-0.525-0.458-0.863-0.599c-0.34-0.142-0.724-0.212-1.152-0.214c-0.447,0.003-0.846,0.08-1.191,0.231c-0.345,0.152-0.636,0.365-0.873,0.639c-0.238,0.273-0.416,0.594-0.538,0.962c-0.122,0.366-0.184,0.767-0.184,1.199c0.001,0.425,0.066,0.817,0.192,1.181c0.129,0.36,0.313,0.677,0.557,0.946c0.241,0.271,0.534,0.479,0.876,0.63c0.344,0.149,0.729,0.226,1.161,0.229c0.357-0.003,0.681-0.059,0.972-0.164c0.289-0.106,0.546-0.255,0.767-0.445c0.223-0.191,0.407-0.417,0.557-0.675c0.15-0.259,0.264-0.54,0.341-0.847c0.077-0.306,0.115-0.627,0.115-0.964C17.882,61.615,17.82,61.219,17.695,60.865z M16.612,62.687c-0.039,0.196-0.098,0.38-0.18,0.55c-0.08,0.172-0.183,0.32-0.306,0.449c-0.125,0.13-0.271,0.231-0.44,0.306c-0.171,0.072-0.363,0.109-0.581,0.111c-0.223-0.002-0.42-0.039-0.591-0.112c-0.169-0.075-0.315-0.179-0.435-0.311c-0.12-0.131-0.219-0.283-0.294-0.455c-0.075-0.172-0.131-0.356-0.165-0.554c-0.037-0.197-0.054-0.399-0.054-0.604c0-0.267,0.033-0.513,0.099-0.739c0.064-0.229,0.162-0.429,0.292-0.6c0.132-0.172,0.293-0.305,0.487-0.4c0.194-0.097,0.421-0.147,0.679-0.15c0.253,0.001,0.477,0.051,0.669,0.147c0.193,0.098,0.355,0.231,0.484,0.404c0.13,0.174,0.229,0.376,0.294,0.606c0.066,0.23,0.1,0.48,0.1,0.749C16.671,62.29,16.651,62.491,16.612,62.687z"/>
<path fill="#717171" d="M23.566,61.269c-0.042-0.255-0.11-0.497-0.205-0.728c-0.093-0.231-0.218-0.438-0.373-0.622c-0.156-0.184-0.346-0.33-0.572-0.44c-0.167-0.076-0.369-0.136-0.606-0.175c-0.236-0.04-0.511-0.06-0.823-0.06h-2.234v5.79h2.162c0.598,0,1.05-0.072,1.357-0.219c0.249-0.117,0.458-0.277,0.632-0.478c0.173-0.2,0.313-0.425,0.421-0.679c0.105-0.252,0.184-0.519,0.232-0.795c0.049-0.278,0.073-0.559,0.071-0.836C23.63,61.778,23.608,61.524,23.566,61.269zM22.293,63.042c-0.071,0.249-0.173,0.441-0.306,0.579c-0.132,0.138-0.292,0.232-0.479,0.287c-0.187,0.054-0.396,0.078-0.63,0.075h-0.94v-3.69h0.94c0.304,0,0.555,0.041,0.753,0.121c0.198,0.08,0.354,0.196,0.466,0.352c0.111,0.153,0.189,0.34,0.236,0.563c0.045,0.221,0.066,0.473,0.064,0.756C22.397,62.474,22.362,62.793,22.293,63.042z"/>
<path fill="#717171" d="M29.582,62.89h1.303c-0.086,0.402-0.244,0.706-0.479,0.908c-0.231,0.203-0.539,0.305-0.924,0.305c-0.273-0.005-0.512-0.058-0.712-0.161c-0.202-0.104-0.368-0.246-0.499-0.426c-0.133-0.181-0.229-0.388-0.294-0.621c-0.065-0.232-0.097-0.481-0.097-0.746c0-0.271,0.031-0.524,0.096-0.764c0.063-0.236,0.161-0.446,0.293-0.627c0.133-0.182,0.301-0.323,0.504-0.425c0.205-0.104,0.446-0.156,0.728-0.157c0.312,0,0.571,0.073,0.779,0.225c0.208,0.15,0.364,0.377,0.469,0.681h1.23c-0.055-0.411-0.19-0.764-0.41-1.055c-0.221-0.291-0.507-0.513-0.862-0.666c-0.356-0.155-0.764-0.231-1.225-0.233c-0.446,0.003-0.845,0.08-1.196,0.233c-0.351,0.152-0.648,0.366-0.893,0.643c-0.244,0.275-0.431,0.599-0.559,0.968c-0.129,0.368-0.192,0.771-0.193,1.205c0,0.326,0.037,0.636,0.113,0.931c0.073,0.296,0.184,0.567,0.33,0.814s0.325,0.461,0.539,0.646c0.215,0.184,0.461,0.324,0.739,0.425c0.279,0.101,0.588,0.151,0.929,0.152c0.357,0,0.682-0.068,0.972-0.21c0.291-0.139,0.549-0.347,0.774-0.622l0.118,0.725h0.823v-3.121h-2.397L29.582,62.89L29.582,62.89z"/>
<path fill="#717171" d="M38.161,60.865c-0.127-0.357-0.309-0.665-0.547-0.926c-0.236-0.259-0.526-0.458-0.863-0.599c-0.34-0.142-0.725-0.212-1.152-0.214c-0.448,0.003-0.847,0.08-1.191,0.231c-0.346,0.152-0.637,0.365-0.873,0.639c-0.238,0.273-0.416,0.594-0.539,0.962c-0.122,0.366-0.184,0.767-0.184,1.199c0.002,0.425,0.066,0.817,0.193,1.181c0.128,0.36,0.313,0.677,0.557,0.946c0.241,0.271,0.533,0.479,0.876,0.63c0.344,0.149,0.729,0.226,1.161,0.229c0.357-0.003,0.68-0.059,0.971-0.164c0.289-0.106,0.546-0.255,0.768-0.445c0.222-0.191,0.407-0.417,0.557-0.675c0.15-0.259,0.264-0.54,0.341-0.847c0.077-0.306,0.114-0.627,0.114-0.964C38.347,61.615,38.285,61.219,38.161,60.865zM37.078,62.687c-0.039,0.196-0.099,0.38-0.18,0.55c-0.08,0.172-0.183,0.32-0.307,0.449c-0.125,0.13-0.271,0.231-0.439,0.306c-0.171,0.072-0.364,0.109-0.581,0.111c-0.224-0.002-0.421-0.039-0.591-0.112c-0.169-0.075-0.315-0.179-0.435-0.311c-0.12-0.131-0.219-0.283-0.294-0.455s-0.131-0.356-0.166-0.554c-0.036-0.197-0.053-0.399-0.053-0.604c0-0.267,0.033-0.513,0.098-0.739c0.065-0.229,0.163-0.429,0.293-0.6c0.131-0.172,0.293-0.305,0.487-0.4c0.194-0.097,0.42-0.147,0.679-0.15c0.253,0.001,0.476,0.051,0.669,0.147c0.193,0.098,0.354,0.231,0.484,0.404c0.13,0.174,0.229,0.376,0.294,0.606c0.066,0.23,0.1,0.48,0.1,0.749C37.137,62.29,37.116,62.491,37.078,62.687z"/>
<path fill="#717171" d="M41.85,65.034l2.01-5.79h-1.213l-1.039,3.283c-0.076,0.244-0.134,0.457-0.174,0.639c-0.043,0.181-0.077,0.33-0.106,0.446c-0.044-0.182-0.09-0.363-0.134-0.55c-0.045-0.186-0.094-0.365-0.147-0.545l-0.986-3.273h-1.267l1.927,5.79H41.85L41.85,65.034z"/>
<polygon fill="#717171" points="48.809,65.034 48.809,63.985 45.704,63.985 45.704,62.51 48.419,62.51 48.419,61.524 45.704,61.524 45.704,60.293 48.672,60.293 48.672,59.244 44.52,59.244 44.52,65.034 "/>
<path fill="#717171" d="M54.111,64.635c-0.043-0.193-0.065-0.446-0.065-0.759c0-0.353-0.019-0.633-0.055-0.845c-0.036-0.213-0.091-0.364-0.163-0.458c-0.063-0.077-0.137-0.146-0.219-0.202c-0.084-0.057-0.18-0.102-0.287-0.134c0.294-0.131,0.514-0.308,0.658-0.528c0.146-0.223,0.22-0.488,0.22-0.801c0-0.294-0.052-0.554-0.154-0.776s-0.253-0.408-0.452-0.554c-0.136-0.102-0.273-0.176-0.412-0.224c-0.14-0.049-0.295-0.08-0.466-0.094c-0.172-0.014-0.374-0.02-0.606-0.018h-2.532v5.79h1.187v-2.28h1.094c0.244,0,0.438,0.027,0.586,0.083c0.146,0.058,0.246,0.144,0.302,0.261c0.026,0.05,0.048,0.16,0.063,0.33c0.018,0.171,0.032,0.398,0.045,0.684c0.008,0.194,0.02,0.366,0.037,0.52c0.019,0.152,0.051,0.287,0.098,0.404h1.322C54.223,64.962,54.158,64.829,54.111,64.635z M52.896,61.415c-0.049,0.1-0.121,0.175-0.213,0.224c-0.095,0.049-0.207,0.083-0.34,0.101c-0.133,0.015-0.283,0.021-0.451,0.021h-1.131v-1.466h1.131c0.172-0.002,0.326,0.005,0.459,0.02c0.135,0.017,0.246,0.047,0.338,0.097c0.093,0.046,0.16,0.117,0.209,0.217c0.047,0.098,0.072,0.228,0.072,0.393S52.945,61.316,52.896,61.415z"/>
<polygon fill="#717171" points="56.244,60.999 58.66,65.034 59.782,65.034 59.782,59.244 58.66,59.244 58.66,63.281 56.299,59.244 55.123,59.244 55.123,65.034 56.244,65.034 "/>
<path fill="#717171" d="M63.673,59.244h-1.349l-2.063,5.79h1.256l0.391-1.223h2.117l0.396,1.223h1.285L63.673,59.244zM62.252,62.845l0.725-2.271l0.732,2.271H62.252z"/>
<polygon fill="#717171" points="67.373,60.999 69.788,65.034 70.91,65.034 70.91,59.244 69.788,59.244 69.788,63.281 67.428,59.244 66.251,59.244 66.251,65.034 67.373,65.034 "/>
<path fill="#717171" d="M74.395,59.126c-0.356,0.002-0.68,0.053-0.965,0.151c-0.285,0.103-0.535,0.244-0.752,0.43c-0.216,0.184-0.396,0.402-0.537,0.654c-0.146,0.255-0.252,0.533-0.324,0.84c-0.072,0.306-0.108,0.63-0.108,0.974c0,0.427,0.054,0.822,0.164,1.181c0.108,0.36,0.274,0.676,0.496,0.941c0.22,0.267,0.495,0.474,0.827,0.621c0.332,0.146,0.72,0.224,1.162,0.225c0.449-0.001,0.843-0.087,1.182-0.258c0.34-0.171,0.617-0.414,0.832-0.732c0.216-0.317,0.361-0.699,0.438-1.146h-1.201c-0.101,0.363-0.252,0.636-0.457,0.819s-0.463,0.275-0.773,0.275c-0.254-0.002-0.471-0.055-0.65-0.154c-0.183-0.104-0.33-0.243-0.443-0.422c-0.115-0.18-0.199-0.385-0.254-0.614c-0.055-0.23-0.081-0.478-0.081-0.736c0-0.427,0.059-0.788,0.173-1.085c0.115-0.298,0.285-0.523,0.507-0.679c0.222-0.157,0.493-0.234,0.813-0.235c0.308,0,0.559,0.081,0.752,0.245c0.195,0.163,0.334,0.41,0.416,0.741h1.201c-0.035-0.334-0.119-0.626-0.256-0.88c-0.136-0.254-0.312-0.467-0.527-0.639c-0.215-0.172-0.461-0.3-0.738-0.388C75.009,59.17,74.712,59.126,74.395,59.126L74.395,59.126z"/>
<polygon fill="#717171" points="82.003,65.034 82.003,63.985 78.898,63.985 78.898,62.51 81.613,62.51 81.613,61.524 78.898,61.524 78.898,60.293 81.867,60.293 81.867,59.244 77.714,59.244 77.714,65.034 "/>
<path fill="url(#SVGID_1_)" d="M50.06,25.704c-1.416,1.364-2.775,2.783-4.096,4.238c3.383,5.054,7.27,9.78,11.619,14.11c1.715,1.709,3.498,3.354,5.354,4.934h9.32C63.362,42.602,55.878,34.668,50.06,25.704"/>
<path fill="url(#SVGID_2_)" d="M62.937,48.987H54.62c-5.633-2.971-11.439-5.527-17.389-7.689c1.08-1.672,2.219-3.303,3.408-4.897c5.793,2.179,11.443,4.737,16.941,7.653C59.298,45.762,61.081,47.408,62.937,48.987 M34.972,34.404c-2.492-0.819-5.012-1.553-7.547-2.235c-0.25,1.915-0.527,3.825-0.842,5.729c1.688,0.463,3.365,0.965,5.035,1.492C32.679,37.688,33.804,36.032,34.972,34.404z M9.124,28.465v5.807c3.998,0.568,7.957,1.304,11.869,2.208c0.307-1.896,0.57-3.801,0.813-5.712C17.624,29.818,13.396,29.049,9.124,28.465z"/>
<path fill="url(#SVGID_3_)" d="M23.013,14.74c-0.035,1.6-0.143,3.997-0.266,5.988c-0.211,3.364-0.527,6.711-0.947,10.04c-0.24,1.911-0.506,3.815-0.813,5.711c-0.684,4.205-1.543,8.373-2.557,12.506h5.92c0.867-3.668,1.609-7.367,2.227-11.09c0.314-1.902,0.594-3.813,0.842-5.728c0.557-4.288,0.949-8.606,1.172-12.953c0.104-2.006,0.166-3.664,0.201-6.035c0.129-6.949-0.307-13.179-0.307-13.179h-5.764C22.722,0.001,23.187,5.153,23.013,14.74z"/>
<path fill="url(#SVGID_4_)" d="M43.77,14.204c-0.791-1.747-1.48-3.502-2.207-5.315c-1.303-3.252-2.797-8.888-2.797-8.888h-5.932c0,0,1.613,6.604,3.328,10.846c0.723,1.868,1.406,3.575,2.191,5.328c1.332,2.975,2.82,5.875,4.457,8.697c1.357-1.447,2.762-2.851,4.213-4.209C45.846,18.556,44.764,16.401,43.77,14.204"/>
<path fill="url(#SVGID_5_)" d="M47.02,20.663c-1.451,1.358-2.855,2.762-4.213,4.209c-2.823,3.001-5.438,6.188-7.833,9.531c-1.168,1.629-2.293,3.284-3.355,4.985c-1.924,3.084-3.65,6.297-5.203,9.598h6.393c1.344-2.643,2.822-5.205,4.426-7.689c1.08-1.672,2.219-3.303,3.408-4.897c1.668-2.234,3.446-4.389,5.323-6.457c1.32-1.455,2.682-2.874,4.098-4.238c4.412-4.247,9.271-8.052,14.531-11.307V7.739C58.209,11.362,52.313,15.707,47.02,20.663"/>
<path fill="url(#SVGID_6_)" d="M38.35,16.175c-3.219,1.111-6.469,2.127-9.754,3.04c0.104-2.006,0.17-4.018,0.201-6.035c2.473-0.718,4.928-1.496,7.359-2.333C36.832,12.648,37.564,14.422,38.35,16.175 M41.563,8.889c0.676,1.798,1.416,3.569,2.207,5.315C53.648,10.401,63.154,5.646,72.174,0H60.787C54.572,3.386,48.152,6.358,41.563,8.889z M22.75,20.729c0.125-1.992,0.215-3.987,0.268-5.988c-4.578,1.144-9.213,2.091-13.895,2.829v5.817C13.711,22.687,18.256,21.802,22.75,20.729z"/>
</svg>
