<svg  xmlns="http://www.w3.org/2000/svg" x="0px" y="0px" width="60px" height="60px" viewBox="0 0 60 60">
<g>
	<circle opacity="0.4" fill="#4A6484" cx="30" cy="30" r="25"/>
	<g>
		<path fill="#FFFFFF" d="M55.289,16.002c-2.977-5.137-8.519-8.328-14.463-8.328c-2.926,0-5.816,0.779-8.359,2.256
			c-3.859,2.236-6.617,5.844-7.766,10.154c-0.806,3.029-0.73,6.148,0.152,9.078L3.805,41.266c-1.418,0.822-1.778,2.863-0.803,4.547
			l0.35,0.604c0.684,1.178,1.845,1.91,3.031,1.91c0.475,0,0.916-0.117,1.313-0.346l21.048-12.105
			c3.119,3.271,7.491,5.205,12.112,5.205c2.925,0,5.815-0.779,8.359-2.254c3.859-2.236,6.617-5.844,7.764-10.154
			C58.126,24.359,57.525,19.861,55.289,16.002z"/>
	</g>
	<path fill="#354A5B" d="M6.383,48.326c-1.187,0-2.348-0.732-3.031-1.91l-0.35-0.604c-0.976-1.684-0.615-3.725,0.803-4.547
		l20.08-11.543c0.357-0.207,0.815-0.084,1.023,0.273l3.139,5.416c0.1,0.17,0.127,0.377,0.076,0.568
		c-0.053,0.193-0.178,0.357-0.351,0.457L7.695,47.98C7.299,48.209,6.857,48.326,6.383,48.326z M23.984,31.395L4.556,42.564
		c-0.689,0.398-0.808,1.543-0.256,2.496l0.349,0.602c0.541,0.934,1.607,1.418,2.297,1.02l19.427-11.17L23.984,31.395z"/>
	<g>
		<path fill="#4A6484" d="M28.611,35.084l-1.569,0.91c-1.063,0.615-2.55,0.039-3.32-1.291l-0.349-0.6
			c-0.771-1.33-0.533-2.908,0.529-3.523l1.569-0.91L28.611,35.084z"/>
		<path fill="#354A5B" d="M26.104,36.992c-1.187-0.002-2.348-0.734-3.031-1.914l-0.348-0.598c-0.459-0.791-0.642-1.686-0.517-2.52
			c0.135-0.895,0.604-1.617,1.319-2.031l1.567-0.908c0.173-0.1,0.378-0.127,0.569-0.076c0.191,0.049,0.355,0.176,0.456,0.348
			l3.14,5.416c0.1,0.172,0.127,0.377,0.076,0.57c-0.051,0.189-0.176,0.355-0.35,0.455l-1.568,0.908
			C27.025,36.871,26.57,36.992,26.104,36.992z M25.199,30.693l-0.92,0.535c-0.313,0.182-0.522,0.521-0.588,0.955
			c-0.075,0.498,0.043,1.047,0.33,1.545l0.348,0.598c0.543,0.934,1.607,1.42,2.297,1.02l0.92-0.533L25.199,30.693z"/>
	</g>
	<path fill="#4A6484" d="M40.85,35.441c-3.936-0.002-7.606-2.115-9.578-5.518c-3.059-5.277-1.254-12.057,4.022-15.115
		c1.685-0.977,3.6-1.494,5.537-1.494c3.937,0,7.606,2.113,9.579,5.516c3.057,5.277,1.253,12.061-4.023,15.117
		C44.701,34.926,42.788,35.439,40.85,35.441z"/>
	<path fill="#354A5B" d="M40.855,41.08c-5.945,0-11.486-3.189-14.464-8.326c-2.237-3.859-2.837-8.359-1.69-12.67
		c1.148-4.311,3.906-7.918,7.766-10.154c2.543-1.477,5.434-2.256,8.359-2.256c5.944,0,11.486,3.191,14.463,8.328
		c2.236,3.859,2.837,8.357,1.689,12.67c-1.146,4.311-3.904,7.918-7.764,10.154C46.671,40.301,43.78,41.08,40.855,41.08z
		 M40.826,9.174c-2.662,0-5.293,0.709-7.608,2.053c-3.513,2.035-6.022,5.318-7.066,9.242s-0.497,8.021,1.538,11.533
		c2.71,4.674,7.755,7.578,13.166,7.58c2.662-0.002,5.291-0.711,7.607-2.053c3.514-2.037,6.022-5.32,7.066-9.244
		c1.045-3.924,0.498-8.02-1.539-11.531C51.282,12.08,46.237,9.174,40.826,9.174z"/>
	<g>
		<path fill="#FFFFFF" d="M37.922,24.902c-0.019,0.012-0.038,0.016-0.057,0.018c-0.021-0.004-0.041-0.012-0.063-0.031
			s-0.046-0.049-0.074-0.082c-0.028-0.035-0.059-0.082-0.095-0.143c-0.031-0.057-0.057-0.105-0.073-0.15
			c-0.017-0.043-0.03-0.082-0.034-0.107c-0.004-0.029-0.004-0.053,0.006-0.07c0.008-0.018,0.021-0.033,0.041-0.043l3.935-2.389
			l-0.005-0.006l-4.881,0.777c-0.021,0.002-0.04,0-0.061-0.004c-0.018-0.008-0.039-0.02-0.063-0.039
			c-0.021-0.021-0.044-0.047-0.068-0.078c-0.021-0.033-0.047-0.074-0.076-0.121c-0.027-0.049-0.051-0.092-0.064-0.131
			c-0.016-0.039-0.025-0.074-0.031-0.102s-0.008-0.053-0.002-0.072c0.004-0.02,0.012-0.037,0.023-0.051l3.063-3.945l-0.002-0.004
			l-3.935,2.387c-0.02,0.01-0.039,0.016-0.059,0.016c-0.019,0-0.04-0.01-0.063-0.033c-0.021-0.016-0.047-0.045-0.074-0.08
			c-0.029-0.035-0.061-0.086-0.096-0.145c-0.034-0.061-0.06-0.111-0.074-0.152c-0.017-0.043-0.028-0.076-0.034-0.105
			s-0.003-0.051,0.007-0.068c0.008-0.018,0.021-0.031,0.042-0.043l4.155-2.52c0.098-0.059,0.182-0.076,0.255-0.049
			s0.127,0.076,0.164,0.139l0.215,0.377c0.044,0.076,0.075,0.146,0.095,0.213s0.026,0.131,0.021,0.193
			c-0.006,0.061-0.023,0.121-0.053,0.176c-0.031,0.059-0.071,0.115-0.121,0.178l-2.52,3.297l0.01,0.02l4.047-0.611
			c0.086-0.018,0.16-0.023,0.228-0.021c0.065,0.002,0.126,0.014,0.177,0.033c0.051,0.018,0.095,0.047,0.135,0.084
			c0.039,0.039,0.075,0.09,0.109,0.148l0.227,0.395c0.02,0.035,0.035,0.072,0.041,0.111c0.009,0.039,0.01,0.078,0,0.111
			c-0.01,0.037-0.026,0.072-0.051,0.107c-0.025,0.035-0.063,0.068-0.113,0.096L37.922,24.902z"/>
		<path fill="#FFFFFF" d="M41.565,28.424c-0.142,0.088-0.284,0.146-0.425,0.186c-0.142,0.035-0.278,0.047-0.412,0.039
			c-0.133-0.008-0.263-0.037-0.389-0.086c-0.125-0.051-0.245-0.119-0.362-0.207c-0.116-0.088-0.225-0.191-0.325-0.309
			c-0.103-0.119-0.203-0.266-0.303-0.438l-0.688-1.199c-0.031-0.057-0.043-0.121-0.034-0.191c0.008-0.068,0.058-0.131,0.149-0.188
			l4.027-2.443c0.092-0.055,0.17-0.068,0.234-0.043c0.063,0.025,0.111,0.066,0.143,0.123l0.598,1.043
			c0.158,0.275,0.262,0.516,0.311,0.723c0.05,0.205,0.059,0.396,0.029,0.574c-0.031,0.176-0.1,0.336-0.209,0.48
			c-0.107,0.146-0.252,0.273-0.43,0.381c-0.107,0.066-0.219,0.115-0.33,0.148c-0.113,0.035-0.226,0.049-0.337,0.049
			c-0.112-0.002-0.224-0.02-0.333-0.057s-0.213-0.094-0.312-0.168c0.049,0.141,0.072,0.285,0.073,0.43
			c0.001,0.146-0.022,0.289-0.07,0.43c-0.05,0.139-0.125,0.27-0.226,0.396C41.845,28.223,41.718,28.332,41.565,28.424z
			 M43.059,26.279c0.109-0.068,0.199-0.145,0.271-0.23c0.07-0.082,0.117-0.176,0.141-0.279c0.025-0.105,0.023-0.219-0.006-0.344
			c-0.029-0.127-0.093-0.277-0.193-0.451l-0.361-0.631l-1.464,0.889l0.399,0.693c0.09,0.158,0.184,0.273,0.279,0.346
			c0.097,0.07,0.198,0.119,0.303,0.141c0.105,0.021,0.211,0.021,0.322-0.008C42.857,26.381,42.962,26.338,43.059,26.279z
			 M41.162,27.803c0.135-0.082,0.24-0.176,0.316-0.281c0.078-0.105,0.128-0.223,0.15-0.348c0.021-0.127,0.014-0.266-0.023-0.414
			c-0.035-0.148-0.109-0.318-0.22-0.508l-0.418-0.732l-1.593,0.969l0.509,0.883c0.08,0.141,0.167,0.252,0.259,0.338
			c0.092,0.084,0.192,0.145,0.303,0.186c0.109,0.043,0.225,0.055,0.346,0.041C40.912,27.924,41.037,27.879,41.162,27.803z"/>
		<path fill="#FFFFFF" d="M45.616,31.025c-0.227,0.135-0.45,0.223-0.677,0.256c-0.225,0.033-0.441,0.02-0.65-0.045
			c-0.209-0.063-0.406-0.176-0.595-0.338c-0.187-0.162-0.362-0.385-0.526-0.668l-0.299-0.523l-1.627,0.986
			c-0.019,0.012-0.037,0.018-0.058,0.014c-0.021-0.002-0.041-0.012-0.062-0.027c-0.021-0.02-0.045-0.047-0.074-0.084
			c-0.029-0.031-0.059-0.08-0.094-0.141c-0.033-0.059-0.059-0.107-0.075-0.15c-0.017-0.045-0.028-0.08-0.032-0.109
			c-0.007-0.027-0.005-0.051,0.004-0.068c0.008-0.018,0.021-0.033,0.04-0.045l4.17-2.527c0.093-0.059,0.175-0.072,0.241-0.047
			c0.069,0.023,0.121,0.07,0.156,0.131l0.564,0.982c0.057,0.1,0.107,0.199,0.151,0.295c0.046,0.096,0.089,0.213,0.133,0.355
			c0.045,0.139,0.066,0.297,0.068,0.471c0.001,0.172-0.028,0.338-0.083,0.492c-0.055,0.156-0.139,0.301-0.252,0.432
			C45.927,30.803,45.786,30.92,45.616,31.025z M45.198,30.41c0.185-0.113,0.319-0.24,0.401-0.385
			c0.084-0.145,0.127-0.285,0.127-0.428c0.002-0.139-0.023-0.27-0.068-0.389c-0.046-0.121-0.1-0.232-0.16-0.336l-0.322-0.564
			l-1.814,1.098l0.316,0.553c0.105,0.186,0.219,0.324,0.334,0.416c0.117,0.096,0.24,0.158,0.369,0.191
			c0.131,0.035,0.266,0.035,0.406,0.008S45.064,30.492,45.198,30.41z"/>
	</g>
</g>
</svg>
