<svg  xmlns="http://www.w3.org/2000/svg" x="0px" y="0px" width="60px" height="60px" viewBox="0 0 60 60">
<g>
	<circle opacity="0.4" fill="#4A6484" cx="30" cy="30" r="25"/>
	<g>
		<path fill="#FFFFFF" d="M52.533,13H7.469c-2.334,0-4.225,2.149-4.225,4.8v24.4c0,2.65,1.891,4.8,4.225,4.8h45.064
			c2.332,0,4.223-2.149,4.223-4.8V17.8C56.756,15.149,54.865,13,52.533,13L52.533,13z"/>
		<path fill="#354A5B" d="M52.533,14.5c1.502,0,2.723,1.48,2.723,3.3v24.4c0,1.819-1.221,3.3-2.723,3.3H7.469
			c-1.502,0-2.725-1.48-2.725-3.3V17.8c0-1.819,1.223-3.3,2.725-3.3H52.533 M52.533,13H7.469c-2.334,0-4.225,2.149-4.225,4.8v24.4
			c0,2.65,1.891,4.8,4.225,4.8h45.064c2.332,0,4.223-2.149,4.223-4.8V17.8C56.756,15.149,54.865,13,52.533,13L52.533,13z"/>
		<g>
			<g>
				<path fill="#4A6484" d="M50.465,41.299H31.105c-0.414,0-0.75-0.336-0.75-0.75s0.336-0.75,0.75-0.75h19.359
					c0.414,0,0.75,0.336,0.75,0.75S50.879,41.299,50.465,41.299z"/>
				<path fill="#354A5B" d="M43.432,26.299H31.105c-0.414,0-0.75-0.336-0.75-0.75s0.336-0.75,0.75-0.75h12.326
					c0.414,0,0.75,0.336,0.75,0.75S43.846,26.299,43.432,26.299z"/>
				<path fill="#4A6484" d="M43.432,31.299H31.105c-0.414,0-0.75-0.336-0.75-0.75s0.336-0.75,0.75-0.75h12.326
					c0.414,0,0.75,0.336,0.75,0.75S43.846,31.299,43.432,31.299z"/>
				<path fill="#354A5B" d="M50.465,36.299H31.105c-0.414,0-0.75-0.336-0.75-0.75s0.336-0.75,0.75-0.75h19.359
					c0.414,0,0.75,0.336,0.75,0.75S50.879,36.299,50.465,36.299z"/>
			</g>
			<g>
				<path fill="#4A6484" d="M17.268,23.607c-2.568,0-4.65,2.081-4.65,4.648c0,2.568,2.082,4.648,4.65,4.648
					c2.564,0,4.648-2.08,4.648-4.648C21.916,25.688,19.832,23.607,17.268,23.607L17.268,23.607z"/>
				<path fill="#4A6484" d="M17.266,34.311c-7.02,0-8.424,4.212-8.424,5.615c0,1.404,1.404,1.404,1.404,1.404h14.041
					c0,0,1.404,0,1.404-1.404C25.691,38.522,24.287,34.311,17.266,34.311L17.266,34.311z"/>
			</g>
		</g>
		<path fill="#4A6484" d="M51.119,19.5c0,0.552-0.448,1-1,1H9.703c-0.553,0-1-0.448-1-1V19c0-0.552,0.447-1,1-1h40.416
			c0.552,0,1,0.448,1,1V19.5z"/>
	</g>
</g>
</svg>
