<svg  xmlns="http://www.w3.org/2000/svg" x="0px" y="0px" width="60px" height="60px" viewBox="0 0 60 60">
<g>
	<circle opacity="0.4" fill="#4A6484" cx="30" cy="30" r="25"/>
	<g>		
		<path fill="#FFFFFF" d="M33.8,6.3H16c-0.7,0-1.2,0.6-1.2,1.2v45c0,0.7,0.6,1.2,1.2,1.2h28c0.7,0,1.2-0.6,1.2-1.2V17.7L33.8,6.3z"/>
		<g>
			<path fill="#354A5B" d="M13.2,52.5v-45c0-1.5,1.2-2.7,2.7-2.7H34c0.2,0,0.4,0.1,0.5,0.2l11.9,11.9c0.1,0.1,0.2,0.3,0.2,0.5v35.1
				c0,1.5-1.2,2.7-2.7,2.7H16C14.5,55.3,13.2,54,13.2,52.5z M33.8,6.3H16c-0.7,0-1.2,0.6-1.2,1.2v45c0,0.7,0.6,1.2,1.2,1.2h28
				c0.7,0,1.2-0.6,1.2-1.2V17.7L33.8,6.3z"/>
			<path fill="#4A6484" d="M33.3,15.4V5.5c0-0.3,0.2-0.6,0.5-0.7s0.6-0.1,0.8,0.2l11.9,11.9c0.2,0.2,0.3,0.5,0.2,0.8
				s-0.4,0.5-0.7,0.5h-9.9C34.6,18.2,33.3,16.9,33.3,15.4z"/>
		</g>
	</g>
	<g>
		<path fill="#4A6484" d="M41.8,24.3c0,0.6-0.4,1-1,1H19.3c-0.6,0-1-0.4-1-1v-0.5c0-0.6,0.4-1,1-1h21.5c0.6,0,1,0.4,1,1V24.3z"/>
		<path fill="#4A6484" d="M25.8,45.3H19c-0.4,0-0.8-0.3-0.8-0.8s0.3-0.8,0.8-0.8h6.8c0.4,0,0.8,0.3,0.8,0.8S26.2,45.3,25.8,45.3z"/>
		<path fill="#4A6484" d="M41,35.3H19c-0.4,0-0.8-0.3-0.8-0.8s0.3-0.8,0.8-0.8h22c0.4,0,0.8,0.3,0.8,0.8S41.4,35.3,41,35.3z"/>
		<path fill="#354A5B" d="M41,30.3H19c-0.4,0-0.8-0.3-0.8-0.8s0.3-0.8,0.8-0.8h22c0.4,0,0.8,0.3,0.8,0.8S41.4,30.3,41,30.3z"/>
		<path fill="#354A5B" d="M26.8,40.3H19c-0.4,0-0.8-0.3-0.8-0.8s0.3-0.8,0.8-0.8h7.8c0.4,0,0.8,0.3,0.8,0.8S27.2,40.3,26.8,40.3z"/>
	</g>
	<path fill="#4A6484" d="M35.5,37.8c-3.4,0-6.2,2.8-6.2,6.2s2.8,6.2,6.2,6.2s6.2-2.8,6.2-6.2S39,37.8,35.5,37.8z M35.5,48.3
		c-0.6,0-1-0.5-1-1s0.5-1,1-1c0.6,0,1,0.5,1,1S36.1,48.3,35.5,48.3z M36.3,44.2c0,0.3-0.3,0.7-0.8,0.7s-0.8-0.3-0.8-0.7
		c0-0.3-0.3-2.8-0.4-3.2c0-0.4,0.5-1,1.2-1s1.2,0.6,1.2,1C36.7,41.5,36.4,43.9,36.3,44.2z"/>
</g>
</svg>
