<svg xmlns="http://www.w3.org/2000/svg" viewBox="0 0 512 512">
<path fill="#202020" d="M128.866,209.126v-80.433h80.434c8.86,0,16.087-7.194,16.087-16.086s-7.227-16.086-16.087-16.086h-80.434
	V16.088C128.866,7.196,121.639,0,112.779,0c-8.923,0-16.086,7.196-16.086,16.088v80.434H16.26c-8.924,0-16.087,7.194-16.087,16.086
	s7.163,16.086,16.087,16.086h80.433v80.433c0,8.892,7.163,16.086,16.086,16.086C121.639,225.212,128.866,218.018,128.866,209.126z
	 M510.735,490.061L322.849,9.284c-4.839-12.379-25.136-12.379-29.975,0L105.019,490.061c-3.236,8.263,0.848,17.596,9.143,20.83
	c1.948,0.754,3.896,1.1,5.844,1.1c6.41,0,12.506-3.864,15.019-10.242l73.395-187.95h198.884l73.458,187.95
	c3.205,8.295,12.567,12.379,20.8,9.143C509.854,507.656,513.939,498.323,510.735,490.061z M220.987,281.627l86.906-222.292
	l86.843,222.292H220.987z"/>
</svg>
