<svg xmlns="http://www.w3.org/2000/svg" viewBox="0 0 512 512">
<g>
	<path id="path2" fill="#202020" d="M51.221,440.185V218.336h34.131v221.849c0,9.399,7.633,17.065,17.065,17.065h307.176
		c9.432,0,17.064-7.666,17.064-17.065V218.336h34.131v221.849c0,28.265-22.932,51.196-51.195,51.196H102.417
		C74.152,491.381,51.221,468.449,51.221,440.185z M426.657,64.749v119.457l-68.261-68.262V64.749
		c0-9.433,7.633-17.065,17.065-17.065l0,0h34.131C419.024,47.684,426.657,55.316,426.657,64.749L426.657,64.749z"/>
	<path id="path4" fill="#202020" d="M231.873,30.618c13.332-13.332,34.931-13.332,48.263,0l226.849,226.815
		c6.699,6.666,6.699,17.498,0,24.164c-6.666,6.666-17.466,6.666-24.165,0L256.004,54.75L29.156,281.598
		c-6.667,6.666-17.465,6.666-24.165,0c-6.666-6.666-6.666-17.498,0-24.164L231.873,30.618z"/>
</g>
</svg>
