<?xml version="1.0" encoding="utf-8"?>
<svg version="1.1" xmlns="http://www.w3.org/2000/svg" xmlns:xlink="http://www.w3.org/1999/xlink" x="0px" y="0px" width="259.05px" height="70px" viewBox="0 0 259.05 70">
<path fill="#1A1A1A" d="M25.029,8.65c0.339,0,0.73,0.028,1.038,0.063c-0.227-0.219-0.64-0.482-1.258-0.555c0,0.005,0,0.01,0.002,0.015C24.834,8.347,24.921,8.545,25.029,8.65z M22.195,12.42c0.227,0,0.367-0.019,0.505-0.036c0.167-0.021,0.329-0.042,0.612-0.035c0.32,0.007,0.592-0.142,0.836-0.277c0.229-0.126,0.439-0.242,0.677-0.242c0.249-0.001,0.435,0.03,0.603,0.096v0.001c0.168,0.066,0.313,0.165,0.478,0.301c0.343,0.284,0.544,0.55,0.661,0.882c0.112,0.322,0.138,0.7,0.136,1.213c-0.009,1.321-0.16,2.03-0.35,2.412c-0.221,0.439-0.495,0.493-0.705,0.507c-0.004,0-1.584,0.118-2.337,0.01c-0.132-0.018-0.261-0.045-0.4-0.074c-0.095-0.02-0.199-0.04-0.331-0.063c-0.225-0.039-0.365-0.071-0.501-0.125c-0.136-0.053-0.262-0.125-0.456-0.246l0,0c-0.054-0.033-0.13-0.089-0.212-0.146c-0.138-0.097-0.296-0.204-0.378-0.204c-0.02,0-0.02,0.005-0.02,0.01c0,0.002-0.002,0.006-0.002,0.008c0.02,0.027,0.11,0.084,0.108,0.165c-0.004,0.134-0.011,0.299-0.03,0.478c-0.086,0.741-0.361,1.23-0.547,1.495c0.154-0.016,0.305-0.031,0.457-0.047c0.75-0.08,1.452-0.154,1.863-0.156c0.095-0.001,0.238,0.011,0.404,0.033c0.115,0.014,0.233,0.032,0.354,0.053s0.255,0.045,0.398,0.075c0.549,0.11,1.141,0.27,1.506,0.44c0.169-0.011,0.72-0.039,1.308-0.066c0.365-0.019,0.739-0.035,1.044-0.051c0.141-0.081,0.283-0.182,0.423-0.306c0.147-0.132,0.292-0.285,0.426-0.455c0.7-0.879,1.182-2.194,0.934-3.275l0.305-0.069c0.271,1.178-0.242,2.597-0.992,3.54c-0.149,0.185-0.305,0.352-0.465,0.495c-0.088,0.078-0.181,0.131-0.272,0.195c0.061,0.021,0.121,0.042,0.197,0.067c0.64,0.209,1.694,0.555,2.222,1.719c0.169,0.096,0.733,0.467,0.848,0.979c0.069,0.032,0.136,0.049,0.205,0.083c0.38,0.188,0.757,0.417,1.118,0.667c0.272-1.786-1.543-3.021-1.548-3.026l-0.454-0.308l0.547,0.022c0.73,0.029,1.193-0.04,1.526-0.169c0.326-0.127,0.541-0.321,0.77-0.54h0.002c0.484-0.459,0.657-1.039,0.716-1.324c-2.304,0.041-2.285-1.583-2.285-1.588v-0.174l0.173,0.019c1.684,0.173,2.319-1.002,2.503-1.47c-0.35-0.023-0.646-0.083-0.897-0.178c-0.312-0.118-0.553-0.29-0.742-0.519c-0.326-0.393-0.354-1.151-0.385-1.896c-0.008-0.233-0.017-0.466-0.037-0.695l-0.002-0.007l0.158-0.014l-0.004-0.156l0.028-0.001l0,0c0.099-0.001,0.201,0.001,0.302,0.006c0.037-0.096,0.086-0.179,0.147-0.267c0.169-0.234,0.404-0.566,0.4-1.742c0-0.822-0.16-1.343-0.244-1.564c-0.605,0.229-1.024,0.454-1.295,0.734c-0.285,0.296-0.426,0.667-0.493,1.188c-0.069,0.54-0.006,1.314-0.006,1.316l0.017,0.171l-0.17,0.001c-0.342,0-0.601-0.014-0.839-0.102c-0.242-0.09-0.454-0.251-0.689-0.541l0.244-0.198c0.197,0.242,0.365,0.374,0.553,0.444c0.158,0.057,0.337,0.077,0.562,0.081c-0.015-0.269-0.035-0.803,0.02-1.214c0.076-0.59,0.238-1.015,0.575-1.365c0.246-0.255,0.583-0.465,1.044-0.665c-0.283-0.04-0.659-0.077-1.135-0.077c-0.515,0.001-0.906,0.097-1.213,0.258c-0.3,0.159-0.523,0.383-0.7,0.641c-0.16,0.232-0.285,0.599-0.279,0.96c0.002,0.067,0.009,0.135,0.02,0.206c0.013,0.066,0.03,0.132,0.052,0.193l-0.03,0.012l-0.262,0.1v0.001l-0.002-0.002c-0.03-0.08-0.052-0.164-0.067-0.248c-0.013-0.081-0.022-0.167-0.024-0.253l0,0c-0.006-0.429,0.143-0.866,0.335-1.144c0.156-0.228,0.359-0.421,0.597-0.588c-0.244-0.02-0.486-0.037-0.744-0.049c-0.406-0.021-0.86-0.028-1.485-0.027c-0.811,0.001-1.993,0.063-2.888,0.118c-0.184,0.011-0.361,0.022-0.523,0.034c-0.151,0.009-0.29,0.019-0.408,0.028l-0.042,0.003C24.184,7.08,24.1,7.333,24.1,7.334l-0.108-0.039L23.98,7.324l-0.03-0.001l-0.004,0.115c-0.136-0.006-0.274-0.005-0.413,0.001c-0.441,0.021-0.871,0.109-1.215,0.264c-0.324,0.146-0.568,0.352-0.662,0.617c-0.028,0.08-0.041,0.166-0.041,0.257c0,0.234,0.13,0.399,0.203,0.475c0.218-0.05,0.378-0.1,0.5-0.142c0.227-0.078,0.372-0.128,0.713-0.104L23.01,9.12c-0.277-0.021-0.4,0.021-0.59,0.087c-0.143,0.049-0.322,0.11-0.614,0.171c-0.402,0.084-0.64,0.208-0.774,0.428c-0.143,0.233-0.188,0.589-0.197,1.122c-0.011,0.604,0.093,0.981,0.313,1.201C21.367,12.346,21.717,12.421,22.195,12.42z M24.432,7.924c0-0.001,0.132-0.388,0.348-0.568l0.201,0.24c-0.069,0.057-0.127,0.151-0.171,0.236c1.26,0.128,1.766,1.014,1.768,1.016l0.177,0.304L26.412,9.08c-0.253-0.053-0.899-0.119-1.409-0.118c-0.095,0-0.186,0.003-0.274,0.01c-0.08,0.005-0.151,0.014-0.208,0.026l-0.004,0.001l-0.065-0.307l0.004-0.001l0,0c0.061-0.012,0.134-0.02,0.209-0.026c-0.08-0.142-0.145-0.299-0.166-0.446c-0.004-0.03-0.004-0.061-0.007-0.091l-0.127-0.003L24.432,7.924z M6.182,9.91c0.309-0.053,0.971-0.23,1.319-0.812C7.38,8.824,6.792,7.772,5.037,8.305C5.46,8.556,6.137,9.081,6.182,9.91z M11.208,10.876c0.218,0.071,0.491,0.122,0.858,0.149c0.059-0.194,0.158-0.651,0.015-1.229c-0.054-0.221-0.147-0.477-0.363-0.701c-0.177-0.186-0.441-0.352-0.838-0.466c0.141,0.404,0.294,1.172-0.127,2.02C10.881,10.741,11.026,10.816,11.208,10.876z M16.059,13.499c0.182,0.313,0.445,0.55,0.8,0.722c0.607,0.293,1.267,0.458,1.969,0.547c0.711,0.092,1.468,0.109,2.257,0.107c0.206,0,0.424-0.013,0.642-0.025c0.809-0.045,1.649-0.094,2.579,0.411c1.113,0.604,1.392,1.313,1.463,1.641c0.102-0.034,0.208-0.11,0.305-0.304c0.13-0.26,0.24-0.7,0.29-1.44c-0.288-0.002-0.852-0.048-1.232-0.335v-0.001l-0.167-0.126v0.001c-0.428-0.325-0.743-0.537-1.509-0.535c-0.488,0.001-0.618,0.07-0.75,0.139c-0.162,0.086-0.324,0.173-0.879,0.174c-0.329,0-0.675-0.002-0.995-0.022c-0.329-0.02-0.638-0.056-0.888-0.122c-0.601-0.159-1.098-0.419-1.498-0.737c-0.08-0.064-0.156-0.128-0.225-0.191c-0.072-0.068-0.141-0.135-0.201-0.202L18.017,13.2c-0.322-0.35-0.454-0.906-0.402-1.462c0.011-0.107,0.028-0.214,0.052-0.32c0.024-0.107,0.054-0.211,0.089-0.313v-0.001l0.004-0.008v0.001c0.114-0.315,0.311-0.686,0.443-0.92c-0.021,0.001-0.043,0.001-0.065,0.003c-0.51,0.037-1.096,0.228-1.563,0.557c-0.456,0.32-0.8,0.771-0.841,1.333c-0.004,0.077-0.007,0.154,0,0.234C15.769,12.786,15.873,13.181,16.059,13.499z M2.447,14.26c-0.106,0.39-0.045,0.926,0.196,1.4c0.108,0.212,0.253,0.41,0.433,0.574c0.177,0.165,0.389,0.295,0.638,0.375c0.512,0.165,1.182,0.114,2.019-0.313l0.141,0.278c-0.666,0.341-1.241,0.457-1.731,0.425c-0.106,0.237-0.182,0.483-0.212,0.744C3.902,18,3.923,18.276,3.993,18.565c0.268,0.067,0.865,0.372,0.759,1.686c0.02,0.013,0.032,0.024,0.056,0.037c0.052,0.029,0.112,0.06,0.179,0.089c0.071,0.03,0.147,0.061,0.229,0.09l0,0c0.368,0.129,0.837,0.234,1.237,0.233c0.19,0,0.374-0.023,0.542-0.064c0.51-0.122,0.918-0.407,1.219-0.744c0.302-0.336,0.495-0.723,0.57-1.046c0.024-0.105,0.037-0.201,0.037-0.284c0-0.089-0.006-0.182-0.019-0.273c-0.004-0.045-0.013-0.092-0.022-0.14c-0.008-0.044-0.017-0.088-0.028-0.132c-0.037-0.156-0.084-0.281-0.127-0.339l0.249-0.188c0.069,0.092,0.136,0.259,0.184,0.454c0.011,0.046,0.021,0.097,0.032,0.149c0.009,0.05,0.018,0.103,0.024,0.157c0.013,0.104,0.021,0.209,0.021,0.313c0,0.109-0.015,0.229-0.045,0.355c-0.061,0.257-0.208,0.543-0.391,0.824c0.216,0.144,0.625,0.33,1.12,0.552c1.243,0.558,2.925,1.32,3.346,2.287c0.043-0.021,0.091-0.049,0.134-0.069c0.125-0.061,0.244-0.113,0.35-0.154c0.028-0.011,0.05-0.015,0.078-0.024c-0.354-0.53-0.437-1.218-0.447-1.644c-0.752-0.187-1.719-0.736-2.475-1.334c-0.158-0.124-0.303-0.249-0.435-0.369c-0.134-0.124-0.255-0.247-0.361-0.365l-0.002-0.001l0.234-0.21l0.002,0.002v0.001c0.1,0.112,0.214,0.227,0.341,0.344c0.13,0.119,0.268,0.239,0.413,0.354c0.705,0.557,1.586,1.061,2.285,1.253c0.002-0.039,0.004-0.067,0.004-0.067l0.011-0.156l0.156,0.011c0.787,0.054,1.545,0.053,2.27,0.014c-0.209-0.214-0.37-0.446-0.441-0.718c-0.093-0.361-0.076-0.771,0.011-1.246l0.035-0.193l0.182,0.078c0.002,0.001,0.67,0.288,1.66,0.467c-0.305-0.116-0.618-0.243-0.94-0.392l0,0c-0.203-0.094-0.411-0.194-0.618-0.299c-0.203-0.104-0.406-0.212-0.61-0.325l-0.052-0.028l0,0c-0.917-0.514-1.859-1.129-2.609-1.72c-0.143-0.114-0.283-0.228-0.417-0.344c-0.13-0.114-0.253-0.224-0.363-0.332l-0.153-0.133l0.175-0.113c0.467-0.305,0.811-0.602,1.033-0.94c0.221-0.332,0.327-0.709,0.324-1.178c0-0.454-0.149-0.802-0.367-1.055c-0.048-0.055-0.1-0.106-0.151-0.152c-0.054-0.046-0.11-0.089-0.168-0.126c-0.042-0.028-0.084-0.05-0.125-0.072c-0.433-0.027-0.757-0.083-1.014-0.167c-0.175-0.058-0.316-0.132-0.448-0.215c-0.009,0.114-0.011,0.238-0.009,0.387c0.013,0.477,0.028,1.137-0.324,2.165l-0.296-0.101c0.333-0.978,0.32-1.605,0.309-2.057c-0.006-0.249-0.011-0.45,0.039-0.637c-0.245-0.397-0.539-0.775-0.947-1.044C9.022,9.401,8.482,9.24,7.754,9.268c-0.486,0.79-1.436,0.946-1.665,0.97c-0.253,0.181-0.417,0.359-0.501,0.587c-0.082,0.22-0.097,0.513-0.074,0.892c0.11,0.029,0.221,0.06,0.337,0.081c0.257,0.047,0.486,0.212,0.729,0.48c0.227,0.25,0.469,0.592,0.765,1.016l-0.255,0.18c-0.292-0.415-0.528-0.749-0.742-0.985c-0.197-0.218-0.372-0.35-0.553-0.382l0,0c-0.192-0.036-0.357-0.08-0.521-0.125c-0.292-0.078-0.592-0.159-1.031-0.186c-0.272-0.016-0.484,0.02-0.666,0.129c-0.182,0.107-0.346,0.295-0.523,0.568C3.314,13.648,2.672,14.132,2.447,14.26z M31.077,6.438l-0.033-0.776c-0.164-0.051-0.484-0.148-0.657-0.195c-0.525-0.144-1.091-0.125-1.811-0.102c-0.29,0.008-0.605,0.019-0.958,0.021c-0.212,0-0.433-0.002-0.655-0.004c-0.953-0.01-1.973-0.02-2.65,0.179l0,0c-0.03,0.009-0.061,0.019-0.089,0.028c0.004,0.219,0.015,0.693,0.02,0.991l0,0c0.11-0.008,0.249-0.018,0.411-0.029l0,0c0.154-0.01,0.329-0.022,0.523-0.034c0.897-0.055,2.082-0.116,2.907-0.118c0.633-0.001,1.094,0.007,1.5,0.027c0.406,0.02,0.765,0.049,1.193,0.087l-0.002,0.033C30.874,6.509,30.964,6.466,31.077,6.438z M25.463,3.265c0.002,0.307,0.134,0.594,0.266,0.886c0.132,0.285,0.246,0.583,0.281,0.918c0.318-0.004,0.64-0.004,0.958-0.001c0.223,0.002,0.441,0.004,0.651,0.003c0.013,0,0.021,0,0.034,0l-0.004-2.258c-0.288-0.072-1.081-0.209-1.31-0.248c-0.052,0.044-0.102,0.089-0.165,0.125c-0.088,0.05-0.177,0.092-0.268,0.135C25.684,2.934,25.463,3.052,25.463,3.265z M27.443,1.607l-0.002,0.052l-0.002,0.013c-0.009,0.148-0.052,0.323-0.091,0.485c-0.021,0.089-0.041,0.175-0.056,0.25c0,0,1.046,0.025,1.089,0.011c-0.045-0.271-0.138-0.742-0.14-0.743L28.23,1.622h0.054c0.11,0,0.718,0.094,0.893,0.121l0.007-0.93c-0.216,0.024-0.88,0.124-0.882,0.124l-0.047,0.008v-0.05c0-0.144,0.089-0.722,0.117-0.893L27.301,0c0.039,0.227,0.141,0.883,0.141,0.885L27.45,0.94l-0.056-0.008C27.1,0.892,26.648,0.823,26.501,0.8c-0.002,0.254-0.004,0.781-0.004,0.945l0.897-0.131L27.443,1.607z M24.225,5.26c0.411-0.121,0.928-0.166,1.472-0.183c-0.035-0.279-0.134-0.542-0.25-0.796c-0.149-0.322-0.294-0.641-0.294-1.016c-0.002-0.4,0.307-0.57,0.618-0.721c0.078-0.038,0.155-0.075,0.225-0.112c-0.1-0.046-0.192-0.102-0.296-0.133c-0.057-0.017-0.11-0.032-0.16-0.044c-0.047-0.011-0.102-0.021-0.158-0.032c-0.139-0.025-0.266-0.037-0.37-0.037c-0.435,0.001-0.834,0.172-1.074,0.481c-0.052,0.068-0.095,0.142-0.13,0.22c-0.037,0.079-0.063,0.167-0.08,0.261c-0.013,0.077-0.021,0.159-0.021,0.244c0.002,0.889,0.309,1.625,0.439,1.896C24.171,5.278,24.197,5.269,24.225,5.26z M29.607,5.043c0.03-0.354,0.136-0.657,0.26-0.949c0.125-0.302,0.25-0.601,0.25-0.947c0-0.148-0.272-0.281-0.53-0.404c-0.188-0.091-0.352-0.188-0.467-0.305c-0.03,0.011-0.058,0.018-0.088,0.03c-0.316,0.117-0.664,0.24-1.07,0.341l0.004,2.255c0.203-0.003,0.417-0.007,0.601-0.012C28.95,5.04,29.29,5.03,29.607,5.043z M30.429,3.147c0.002,0.411-0.136,0.739-0.275,1.069c-0.112,0.269-0.212,0.545-0.235,0.852c0.186,0.02,0.372,0.047,0.551,0.097c0.188,0.051,0.499,0.146,0.661,0.197c0.173-0.257,0.672-1.078,0.67-1.924c0-0.173-0.022-0.324-0.063-0.456c-0.078-0.258-0.225-0.445-0.4-0.578c-0.177-0.134-0.385-0.213-0.583-0.25c-0.1-0.019-0.197-0.027-0.285-0.027c-0.365,0-0.688,0.089-1.012,0.197c0.076,0.044,0.171,0.09,0.266,0.137C30.065,2.626,30.429,2.802,30.429,3.147z M4.142,62.516c-0.29,0.082-0.51,0.219-0.696,0.354l0,0c-0.614,0.444-0.458,1.188-0.35,1.516c0.259-0.135,0.547-0.228,0.869-0.269c0.354-0.044,0.75-0.026,1.189,0.066c0.413-0.908,0.156-1.521,0.059-1.701C4.764,62.408,4.418,62.438,4.142,62.516z M33.396,60.42c0.657-0.145,1.176,0.157,1.383,0.305c0.147-0.119,0.441-0.429,0.441-1.006c-0.002-0.316-0.076-0.492-0.119-0.57c-0.249-0.028-0.484-0.039-0.705-0.025c-0.549,0.025-1.005,0.178-1.336,0.42c-0.32,0.232-0.521,0.553-0.573,0.928c-0.006,0.037-0.008,0.074-0.011,0.11C32.683,60.553,33.04,60.499,33.396,60.42L33.396,60.42z M32.793,64.75c-0.255,0.445-0.234,1.016-0.195,1.332c0.348-0.239,1.066-0.68,1.625-0.682c0.167,0,0.486,0.059,0.672,0.095c0.086-0.313,0.233-1.155-0.478-1.742C34.174,63.787,33.243,63.965,32.793,64.75z M37.802,67.436c-0.201-0.166-0.424-0.24-0.597-0.252c-0.056-0.004-0.104,0-0.143,0.006c-0.102,0.023-0.337,0.233-0.58,0.571c-0.052,0.072-0.102,0.147-0.147,0.22c-0.047,0.08-0.093,0.162-0.136,0.25l-0.004,0.011c-0.147,0.298-0.199,0.602-0.17,0.918c0.021,0.261,0.097,0.53,0.216,0.813c0.24-0.246,0.707-0.695,1.098-0.89c0.296-0.149,0.759-0.218,0.99-0.244c0.004-0.222-0.013-0.417-0.052-0.586C38.19,67.867,38.009,67.604,37.802,67.436zM27.809,58.298c-0.877-0.563-2.384-1.25-2.389-1.252l-0.168-0.077l0.106-0.154c0.067-0.098,0.143-0.199,0.221-0.306c0.346-0.464,0.73-0.983,0.73-1.757c-0.002-0.314-0.043-0.564-0.184-0.789c-0.141-0.23-0.389-0.445-0.795-0.688c-0.387-0.227-0.807-0.354-1.271-0.426c-0.476-0.07-0.995-0.084-1.565-0.084c-1.07,0.002-2.036-0.512-2.57-1.3c-0.112-0.164-0.206-0.341-0.279-0.528c-0.071-0.188-0.123-0.387-0.147-0.588c-0.013-0.098-0.02-0.199-0.02-0.306c-0.002-0.776,0.125-1.446,0.705-2.011c0.56-0.547,1.543-0.977,3.255-1.278c0.48-0.085,1.178-0.037,1.824,0.011c0.151,0.01,0.292,0.02,0.424,0.026c-0.48-0.438-0.888-0.951-1.148-1.465c-0.069-0.14-0.129-0.278-0.179-0.417c-0.05-0.143-0.086-0.28-0.11-0.413c-0.021-0.118-0.032-0.236-0.032-0.354c0-0.518,0.063-1.047,0.17-1.477c0.024-0.094,0.052-0.186,0.08-0.273c0.03-0.084,0.061-0.166,0.095-0.24c0.032-0.067,0.065-0.129,0.097-0.182c0.154-0.248,0.389-0.473,0.586-0.672c0.168-0.169,0.307-0.311,0.307-0.373c0-0.025-0.011-0.047-0.011-0.072c-0.438-0.15-0.923-0.25-1.509-0.273c-0.64-0.025-1.388,0.027-2.291,0.172l-0.002,0.001h-0.006c-0.423,0.065-0.94,0.081-1.457,0.097c-0.547,0.014-1.094,0.027-1.518,0.104c-0.774,0.144-1.451,0.294-2.084,0.479c-0.633,0.186-1.226,0.403-1.835,0.682c-1.366,0.623-2.231,1.26-2.851,1.941c-0.621,0.682-1.003,1.413-1.403,2.221l0,0v0.002c-0.041,0.078-0.108,0.174-0.206,0.279c-0.091,0.101-0.208,0.213-0.348,0.332c-0.711,0.598-2.056,1.375-3.759,1.617c-0.785,0.112-1.323,0.188-1.779,0.126c-0.372-0.047-0.679-0.183-0.994-0.448c0.021,0.682,0.294,2.254,2.259,3.235l0.008,0.004l0,0c0.231,0.115,0.467,0.211,0.705,0.29c0.236,0.077,0.476,0.137,0.718,0.178c1.243,0.211,2.536-0.06,3.807-0.757l0.182-0.1l0.047,0.202c0,0.002,0.212,0.979,0.679,1.449c0.912,0.918,1.704,1.653,2.698,2.211c0.994,0.561,2.201,0.941,3.947,1.152l0.147,0.02l-0.011,0.146c0,0.004-0.052,1.234-1.658,3.055c-0.069,0.082-0.147,0.162-0.227,0.242c-0.13,0.127-0.268,0.25-0.415,0.365c-0.145,0.116-0.298,0.227-0.456,0.326c-0.75,0.48-1.619,0.787-2.399,0.788c-0.486,0.002-0.826-0.065-1.091-0.313c-0.255-0.238-0.426-0.633-0.577-1.289c-0.124-0.522-0.253-0.873-0.495-1.106c-0.247-0.237-0.621-0.379-1.23-0.496l-0.004-0.001c-0.073-0.016-0.147-0.021-0.218-0.027c-0.069-0.003-0.138-0.002-0.206,0.004c-0.32,0.022-0.568,0.141-0.683,0.284c-0.067,0.179-0.51,1.194-1.721,1.392c-0.238,0.178-0.38,0.344-0.456,0.535c-0.065,0.166-0.082,0.367-0.082,0.604c0.415-0.059,0.787-0.045,1.147,0.068c0.5,0.158,0.975,0.496,1.53,1.08l-0.227,0.215C8.7,61.4,8.266,61.086,7.821,60.945c-0.441-0.137-0.906-0.108-1.485,0.035l0,0c-1.042,0.254-0.901,1.174-0.878,1.299c0.084,0.136,0.512,0.934-0.065,2.115c-0.049,0.35,0.076,0.793,0.275,1.156c0.192,0.355,0.449,0.633,0.672,0.669l0,0l0.004,0.001c0.045,0.006,0.149-0.065,0.149-0.065v0.002l0.002-0.002c0.033-0.024,0.05-0.218,0.074-0.478c0.056-0.63,0.14-1.585,0.934-2.195h0.002l0.004-0.004c0.1-0.076,0.216-0.145,0.342-0.205c0.125-0.06,0.261-0.107,0.402-0.147c0.722-0.202,1.665-0.169,2.456,0.157l-0.119,0.29c-0.727-0.3-1.589-0.33-2.252-0.146c-0.127,0.036-0.247,0.08-0.354,0.132c-0.104,0.049-0.201,0.105-0.285,0.17l-0.004,0.004c-0.683,0.527-0.761,1.398-0.813,1.975c-0.021,0.227-0.037,0.412-0.088,0.544c0.037,0.033,0.073,0.091,0.112,0.138c0.058-0.052,0.112-0.117,0.171-0.158c0.188-0.131,0.382-0.205,0.547-0.207c0.104,0,0.214,0.027,0.322,0.082c0.151,0.072,0.303,0.199,0.43,0.365c0.125,0.162,0.231,0.367,0.296,0.604c0.043,0.156,0.067,0.326,0.069,0.507c0,0.108-0.011,0.215-0.026,0.315c-0.004,0.028-0.011,0.063-0.02,0.096c-0.013,0.066-0.03,0.126-0.05,0.18c-0.021,0.059-0.047,0.109-0.075,0.153c0.011,0.013,0.015,0.026,0.026,0.038v0.002c0.049,0.061,0.11,0.123,0.184,0.187c0.071,0.064,0.151,0.125,0.24,0.185l0,0c0.417,0.277,0.988,0.488,1.524,0.488c0.091,0,0.186-0.012,0.286-0.031c0.093-0.02,0.19-0.047,0.287-0.082c0.098-0.036,0.197-0.084,0.298-0.139c0.424-0.231,0.843-0.627,1.165-1.164c-0.264-0.346-0.335-0.674-0.335-1.026c0-0.093,0.009-0.196,0.026-0.304c0.013-0.069,0.028-0.145,0.045-0.215c0.02-0.076,0.041-0.152,0.065-0.225c0.102-0.311,0.257-0.621,0.445-0.828l0.231,0.211c-0.156,0.173-0.29,0.441-0.378,0.714c-0.024,0.07-0.043,0.138-0.058,0.201c-0.018,0.065-0.03,0.13-0.042,0.19c-0.015,0.094-0.021,0.179-0.021,0.252c0,0.291,0.056,0.559,0.27,0.84c0.227,0.297,0.627,0.613,1.314,0.988c0.527,0.289,1.059,0.168,1.563,0.045c0.008-0.07,0.011-0.141,0.032-0.211l0,0c0.078-0.256,0.242-0.524,0.497-0.732c0.253-0.205,0.595-0.348,1.027-0.35c0.167,0,0.354,0.037,0.547,0.084c0.153-0.196,0.298-0.475,0.394-0.781c0.021-0.075,0.043-0.154,0.061-0.236c0.017-0.078,0.032-0.158,0.041-0.236c0.011-0.092,0.017-0.182,0.017-0.263c0-0.331-0.143-0.614-0.318-0.843c-0.184-0.236-0.402-0.415-0.54-0.525c-0.271-0.214-1.185-0.565-1.187-0.566l-0.296-0.11l0.268-0.168c0.633-0.399,1.299-0.546,1.98-0.495c0.642,0.049,1.295,0.27,1.943,0.608c0.225-0.199,0.89-0.813,1.602-1.752l0.061-0.08l0.097,0.021c0.009,0.002,2.736,0.59,3.024,2.494c0.286,0.039,1.126,0.042,1.937-1.016c0.279-0.367,0.296-1.219,0.24-1.747c-0.011-0.103-0.024-0.192-0.039-0.265c-0.013-0.061-0.026-0.103-0.034-0.119h-0.002c-0.305-0.533-1.135-1.104-1.95-1.465c-0.156-0.069-0.315-0.133-0.473-0.187c-0.156-0.054-0.303-0.097-0.439-0.126l-0.002-0.001l0.067-0.306h0.002c0.154,0.035,0.313,0.08,0.474,0.136c0.16,0.054,0.329,0.121,0.499,0.196c0.867,0.387,1.757,1.006,2.097,1.597v0.002l0,0c0.026,0.044,0.05,0.117,0.067,0.208c0.006,0.023,0.011,0.063,0.015,0.092c0.302-0.096,0.577-0.219,0.773-0.406c0.221-0.215,0.354-0.51,0.354-0.92c-0.002-0.474-0.045-0.861-0.162-1.176C28.265,58.709,28.085,58.477,27.809,58.298zM51.378,62.572c-0.48-0.271-1.502-0.313-1.829-0.32c-0.084,0.207-0.268,0.723-0.268,1.278c0,0.084,0.011,0.17,0.032,0.254v0.001c0.011,0.043,0.024,0.084,0.039,0.123h0.002c0.033,0.081,0.078,0.162,0.136,0.242c0.037,0.051,0.082,0.102,0.132,0.148c0.175-0.107,0.551-0.281,1.148-0.283c0.605-0.002,0.994,0.156,1.219,0.295C52.022,63.848,51.999,62.92,51.378,62.572zM51.904,47.71c-0.307,0.029-0.679,0.063-1.146,0.132c-1.958,0.288-2.438,1.203-2.438,1.205l-0.294,0.543l-0.002-0.617c-0.002-0.783-0.356-1.658-1.029-2.168c-0.138-0.104-0.292-0.195-0.456-0.266C46.372,46.47,46.193,46.42,46,46.395c-0.102-0.013-0.206-0.021-0.313-0.021c-0.354,0.001-0.899,0.235-1.412,0.556c-0.132,0.082-0.259,0.172-0.38,0.262s-0.236,0.185-0.344,0.279c-0.106,0.096-0.203,0.19-0.285,0.283c-0.467,0.523-0.791,0.86-1.172,1.073c-0.385,0.215-0.811,0.295-1.474,0.297c-0.873,0.002-1.515-0.258-1.986-0.87c-0.458-0.592-0.746-1.511-0.923-2.841c-0.225-1.681-0.422-2.654-0.724-3.453c-0.301-0.794-0.711-1.428-1.355-2.422l0.257-0.179c0.004,0.006,1.407,1.992,5.248,1.981c1.165-0.003,2.406-0.362,3.502-0.934c0.227-0.118,0.445-0.244,0.655-0.377c0.21-0.134,0.413-0.273,0.605-0.421c0.067-0.053,0.138-0.107,0.209-0.168c0.629-0.514,1.187-1.135,1.589-1.916c0.402-0.779,0.646-1.725,0.644-2.879c-0.004-1.499-0.097-1.867-0.409-3.076l0,0l-0.091-0.359c-0.27-1.066-0.575-2.258-0.895-3.457c-0.327-1.22-0.677-2.486-1.048-3.717c-0.607-2.018-1.165-4.011-1.569-5.877c-0.409-1.871-0.664-3.618-0.668-5.139c-0.004-2.001,0.331-2.684,0.664-3.317l0.043-0.085V9.618c0.342-0.649,0.677-1.075,1.079-1.343c0.404-0.27,0.867-0.373,1.459-0.374c1.333-0.003,2.025,0.286,2.373,0.709c0.316,0.386,0.337,0.863,0.294,1.334c0.329-0.017,0.77-0.03,1.228-0.04c0.469-0.01,0.94-0.019,1.299-0.023c-0.004-0.293-0.028-0.57-0.069-0.831c-0.041-0.262-0.102-0.507-0.175-0.735c-0.376-1.134-1.167-1.847-2.224-2.164c-0.141-0.042-0.285-0.081-0.435-0.114c-0.249-0.055-0.519-0.101-0.806-0.133c-0.288-0.034-0.586-0.053-0.886-0.059c-1.433-0.021-3.022,0.283-4.146,1.138h0.002c-0.893,0.68-1.451,1.573-1.786,2.578c-0.337,1.016-0.447,2.15-0.443,3.296c0.004,1.876,0.32,3.871,0.785,5.894c0.465,2.022,1.081,4.081,1.686,6.079v0.002v0.001c0.48,1.59,0.88,3.138,1.258,4.606c0.11,0.419,0.214,0.828,0.335,1.287l0.067,0.251c0.298,1.125,0.489,1.848,0.493,3.523c0,0.276-0.02,0.534-0.057,0.776c-0.22,1.408-1.042,2.281-1.984,2.812c-0.932,0.523-1.982,0.713-2.685,0.76c-0.121,0.006-0.233,0.01-0.335,0.01c-0.099,0.002-0.197-0.002-0.29-0.008c-0.313-0.019-0.623-0.069-0.923-0.15c-0.303-0.081-0.597-0.193-0.88-0.332c-1.392-0.682-2.568-2.028-3.281-3.782c-0.015-0.038-0.03-0.08-0.047-0.126v-0.001c-0.409-1.083-0.493-2.392-0.573-3.631c-0.019-0.274-0.037-0.545-0.058-0.822c-0.108-0.137-0.214-0.266-0.318-0.386c-0.24-0.274-0.484-0.524-0.73-0.75c-0.242-0.224-0.489-0.424-0.73-0.6c-1.163-0.845-2.285-1.172-3.111-1.169c-2.172,0.004-4.485,2.068-4.492,2.074l-0.143,0.124l-0.095-0.161c-0.03-0.048-0.061-0.103-0.088-0.167c-0.026-0.06-0.052-0.126-0.076-0.199c-0.104-0.324-0.151-0.794-0.112-1.36c-0.564,0.02-1.369,0.38-2.278,0.8c-0.271,0.125-0.551,0.255-0.848,0.385l-0.015,0.006c-1.033,0.453-2.036,0.696-2.959,0.79c-0.179,0.018-0.359,0.03-0.534,0.038c-0.173,0.006-0.344,0.009-0.513,0.005l-0.032-0.001l0,0c-0.009,0-0.017-0.004-0.026-0.005c-0.86,0.583-2.462,1.272-3.833,1.863l-0.247,0.107l-0.002-0.001c-0.039,0.017-0.203,0.126-0.452,0.29c-0.722,0.476-2.131,1.404-3.528,2.061l-0.015,0.006l-0.235,0.11l0.013-0.259c0-0.004,0.102-1.479-1.014-2.572c-0.662-0.65-1.262-0.585-1.978-0.507c-0.082,0.008-0.162,0.016-0.24,0.023c-0.251,1.051-1.178,1.079-1.446,1.062c-0.259,0.209-0.393,0.412-0.443,0.601c-0.041,0.162-0.026,0.319-0.002,0.466c0.067-0.004,0.13-0.018,0.201-0.018c0.104,0,0.203,0.004,0.296,0.012C4.812,32.689,5,32.722,5.184,32.77c0.182,0.047,0.357,0.109,0.525,0.184v-0.001c0.802,0.355,1.414,0.998,1.68,1.701l-0.294,0.11c-0.238-0.628-0.787-1.203-1.513-1.523V33.24c-0.149-0.067-0.309-0.123-0.476-0.167C4.944,33.031,4.773,33,4.594,32.985C4.5,32.978,4.41,32.974,4.323,32.974c-0.718,0.002-1.286,0.227-1.612,0.608c-0.067,0.079-0.125,0.164-0.171,0.255c-0.045,0.092-0.082,0.19-0.104,0.293c-0.013,0.056-0.021,0.117-0.026,0.18c0.015,0.078,0.045,0.215,0.074,0.375c0.032,0.178,0.061,0.375,0.063,0.515c0,0.575-0.173,0.851-0.281,0.972c0.011,0.053,0.02,0.104,0.037,0.156c0.021,0.079,0.047,0.156,0.076,0.229c0.132,0.344,0.346,0.668,0.614,0.873c0.288-0.335,0.674-0.615,1.135-0.795c0.301-0.115,0.625-0.191,0.962-0.222l0.026,0.313c-0.309,0.025-0.603,0.097-0.873,0.199c-0.447,0.174-0.823,0.44-1.078,0.766c-0.246,0.316-0.38,0.691-0.346,1.095c0.011,0.127,0.047,0.259,0.093,0.391c0.16,0.069,0.351,0.193,0.521,0.374c0.039,0.041,0.076,0.084,0.11,0.129c0.037,0.045,0.071,0.092,0.102,0.144l0,0l0.002,0.004c0.19,0.302,0.158,1.083,0.145,1.306c0.041,0.055,0.084,0.107,0.13,0.156v0.001c0.073,0.077,0.155,0.147,0.244,0.217c0.088,0.066,0.182,0.125,0.279,0.181c0.454,0.248,0.997,0.359,1.515,0.357c0.089,0,0.177-0.004,0.266-0.012c0.153-0.016,0.305-0.04,0.452-0.076c0.147-0.036,0.285-0.081,0.417-0.137c0.588-0.239,1.018-0.645,1.161-1.063C8.053,40.509,7.88,40.23,7.774,39.93c-0.143-0.397-0.194-0.815-0.14-1.17c0.039-0.255,0.134-0.479,0.29-0.646l0.229,0.215c-0.11,0.116-0.179,0.285-0.208,0.479c-0.047,0.303,0,0.666,0.125,1.019c0.125,0.354,0.329,0.692,0.594,0.94c0.214,0.202,0.471,0.348,0.761,0.392c0.702,0.106,1.288-0.005,1.712-0.238c0.082-0.045,0.155-0.095,0.225-0.146c0.056-0.043,0.106-0.09,0.153-0.14c0.045-0.261,0.303-1.327,1.351-1.407c0.078-0.139,0.162-0.343,0.227-0.572c0.021-0.07,0.039-0.137,0.052-0.197c0.015-0.066,0.028-0.132,0.039-0.195c0.017-0.106,0.026-0.209,0.026-0.3c0-0.848-0.346-1.532-0.754-1.981c-0.086-0.096-0.173-0.178-0.262-0.25c-0.086-0.07-0.173-0.133-0.257-0.183l0,0c-0.048-0.026-0.091-0.051-0.132-0.069l0.127-0.285c0.054,0.024,0.108,0.052,0.162,0.083l0,0c0.097,0.058,0.199,0.127,0.298,0.211c0.102,0.082,0.201,0.176,0.294,0.281c0.22,0.242,0.421,0.547,0.573,0.901c0.787-0.124,1.541-0.397,2.177-0.633c0.091-0.034,0.173-0.063,0.333-0.122l0.119-0.042l0.067,0.104c0.004,0.006,1.079,1.781,3.454,1.775c0.095,0,0.192-0.003,0.292-0.009c0.171-0.011,0.341-0.026,0.508-0.052c0.169-0.025,0.333-0.057,0.486-0.094c0.605-0.146,1.126-0.381,1.507-0.658c-0.084-0.014-0.168-0.021-0.253-0.041c-0.188-0.047-0.372-0.109-0.547-0.185c-0.85-0.354-1.565-1.009-1.939-1.75l0.279-0.142c0.342,0.678,0.999,1.273,1.781,1.604c0.164,0.067,0.333,0.125,0.501,0.168c0.173,0.041,0.348,0.071,0.523,0.086c0.091,0.008,0.177,0.012,0.259,0.012c0.335,0,0.69-0.104,1.044-0.262c0.361-0.162,0.722-0.383,1.059-0.61c0.7-0.479,0.942-0.952,1.024-1.202c-2.242,0.061-2.7-1.104-2.702-1.107l-0.06-0.148l0.149-0.059c1.53-0.594,3.216-0.98,4.887-0.907c0.327,0.015,0.653,0.048,0.977,0.099c0.322,0.051,0.644,0.122,0.964,0.214v-0.001l0.004,0.001l0.083,0.024l0.023,0.081c0.002,0.004,0.497,1.634,2.436,1.557l0.013,0.313c-0.372,0.015-0.683-0.039-0.966-0.118c-0.004,0.059-0.015,0.119-0.009,0.177c0.026,0.308,0.188,0.607,0.45,0.854c0.268,0.252,0.64,0.445,1.077,0.539c0.255,0.053,0.534,0.07,0.828,0.045l0.026,0.312c-0.324,0.028-0.633,0.01-0.918-0.052c-0.495-0.104-0.917-0.327-1.226-0.616c-0.315-0.297-0.515-0.667-0.549-1.054c-0.008-0.099,0.004-0.199,0.018-0.299c-0.951-0.394-1.345-1.219-1.446-1.482c-0.281-0.078-0.568-0.139-0.856-0.185c-0.311-0.05-0.625-0.08-0.94-0.094c-1.561-0.069-3.141,0.277-4.591,0.82c0.203,0.278,0.83,0.863,2.518,0.765l0.182-0.011l-0.017,0.183c0,0.002-0.061,0.831-1.2,1.609c-0.35,0.237-0.727,0.467-1.109,0.638c-0.112,0.051-0.223,0.081-0.335,0.12c0.22,0.302,0.527,0.433,1.208,0.691c0.165,0.063,0.348,0.133,0.538,0.208l0,0c0.206,0.08,0.4,0.191,0.58,0.322c0.179,0.131,0.344,0.28,0.493,0.442c0.147,0.16,0.283,0.335,0.404,0.515c0.482,0.715,0.739,1.522,0.739,1.918c0,0.11-0.004,0.225-0.011,0.338c-0.037,0.51-0.147,1.096-0.255,1.685c-0.136,0.722-0.271,1.448-0.271,2.03c0.002,0.529,0.158,0.951,0.313,1.376c0.143,0.387,0.285,0.776,0.327,1.26c0.067,0.778,0.162,1.45,0.335,2.086c0.175,0.633,0.43,1.235,0.819,1.883c0.158,0.261,0.31,0.505,0.457,0.74c0.722,1.156,1.325,2.125,1.327,3.022c0.002,0.928-0.206,1.513-0.359,1.814c0.35-0.021,0.997-0.129,1.675-0.552c0.396-0.246,0.819-0.556,1.215-0.979c0.365-0.394,0.7-0.899,0.97-1.533c-0.491-0.353-0.947-0.75-1.323-1.186c-0.272-0.313-0.508-0.645-0.689-0.99c-0.186-0.347-0.32-0.707-0.387-1.072c-0.021-0.108-0.037-0.219-0.043-0.326l0.311-0.023c0.009,0.1,0.022,0.198,0.039,0.294c0.063,0.333,0.184,0.663,0.354,0.982c0.171,0.321,0.394,0.635,0.65,0.932c1.278,1.478,3.437,2.556,4.974,2.55c2.092-0.005,4.074-1.062,4.079-1.063l0.154-0.08l0.064,0.16l0.002,0.003v0.001c0.065,0.164,0.129,0.356,0.188,0.573c0.061,0.217,0.115,0.453,0.162,0.697c0.25,1.275,0.361,2.954,0.175,4.202c-0.069,0.472-0.173,0.767-0.376,0.954l0,0c-0.208,0.188-0.495,0.25-0.936,0.251c-0.499,0.002-0.802-0.055-1.018-0.16c-0.229-0.112-0.35-0.268-0.497-0.462c-0.601-0.805-1.109-1.348-1.617-1.686c-0.497-0.331-1.003-0.469-1.61-0.469c-1.077,0.002-1.28,0.449-1.431,0.787l0,0l-0.006,0.016c0.065,0.113,0.164,0.343,0.164,0.724c0.002,0.771-0.441,1.167-0.609,1.289c-0.024,0.146-0.041,0.321-0.028,0.521c0.013,0.17,0.063,0.357,0.139,0.551c0.084-0.071,0.171-0.147,0.279-0.221c0.151-0.1,0.318-0.182,0.48-0.197l0,0l0.006-0.002H35.8c0.035-0.004,0.086-0.006,0.147-0.01c0.059-0.004,0.132-0.006,0.218-0.008c0.419-0.008,1.066,0.01,1.483,0.123l-0.082,0.303c-0.385-0.104-0.997-0.119-1.396-0.11c-0.073,0.001-0.145,0.003-0.208,0.006c-0.056,0.002-0.102,0.006-0.134,0.01h-0.004c-0.104,0.013-0.225,0.072-0.339,0.148c-0.123,0.083-0.24,0.183-0.326,0.257c-0.387,0.333-0.454,0.736-0.513,1.1c-0.004,0.016-0.008,0.041-0.011,0.061c0.899,0.768,0.621,1.869,0.534,2.135c0.028,0.078,0.061,0.154,0.097,0.229c0.045,0.086,0.095,0.168,0.149,0.242c0.242,0.336,0.582,0.566,0.956,0.662c-0.047-0.512-0.02-1.236,0.35-1.873v-0.001c0.301-0.515,0.644-0.825,1.051-0.987c0.402-0.16,0.858-0.168,1.392-0.084l-0.048,0.311c-0.482-0.077-0.886-0.071-1.23,0.064c-0.339,0.137-0.629,0.403-0.893,0.854c-0.35,0.601-0.359,1.313-0.305,1.778v0.002c0.008,0.068,0.02,0.125,0.028,0.182c0.11-0.089,0.21-0.15,0.279-0.167c0.067-0.014,0.147-0.021,0.231-0.014c0.227,0.015,0.517,0.11,0.774,0.323c0.255,0.207,0.48,0.524,0.582,0.989c0.045,0.197,0.061,0.427,0.052,0.677c0.086,0.023,0.199,0.06,0.294,0.103c0.476,0.213,0.774,0.342,1.074,0.394c0.298,0.053,0.614,0.029,1.13-0.056c0.826-0.137,1.403-0.476,1.781-1.055c0.387-0.595,0.575-1.45,0.614-2.604l0.004-0.15h0.151c0,0,0.16,0,0.353-0.021c-0.286-0.266-0.4-0.581-0.571-1.481l0.307-0.058c0.225,1.175,0.329,1.244,0.94,1.651l0.16,0.107l0,0c1.063,0.717,2.041,0.848,2.855,0.709c0.16-0.026,0.313-0.063,0.458-0.107c0.145-0.044,0.286-0.096,0.417-0.153h-0.002l0.004-0.002h0.004c0.715-0.312,0.828-0.888,0.843-1.335c0.004-0.087,0.002-0.161,0.002-0.232c-0.08-0.074-0.156-0.147-0.216-0.227c-0.073-0.102-0.132-0.206-0.175-0.313l0,0c-0.022-0.057-0.039-0.109-0.054-0.162c-0.026-0.107-0.039-0.219-0.039-0.332c-0.002-0.649,0.223-1.236,0.305-1.43c-0.164-0.334-0.352-0.611-0.577-0.807c-0.234-0.202-0.506-0.325-0.826-0.359c-0.923-0.102-1.684,0.526-1.686,0.528l-0.389,0.315l0.14-0.479c0.824-2.819,2.823-3.079,3.426-3.092c-0.078-1.619-0.158-3.394-0.158-3.396L49.2,54.639l0.173,0.01c1.055,0.071,1.854-0.078,2.447-0.361c0.512-0.246,0.871-0.592,1.106-0.98c0.238-0.391,0.353-0.824,0.381-1.244c0.032-0.479-0.059-0.928-0.206-1.276c-0.348,0.207-0.733,0.348-1.156,0.362c-0.61,0.021-1.297,0.066-1.859,0.177c-0.525,0.102-0.934,0.251-1.038,0.475l-0.283-0.133c0.153-0.331,0.644-0.53,1.262-0.649c0.579-0.109,1.282-0.158,1.909-0.182c0.865-0.029,1.593-0.584,1.986-1.389c0.082-0.166,0.149-0.346,0.199-0.531c0.049-0.188,0.084-0.383,0.099-0.584c0.006-0.089,0.011-0.178,0.011-0.264c-0.002-0.823-0.372-1.301-0.599-1.518C53.345,47.575,53.025,47.605,51.904,47.71z M16.406,34.412c-1.204,0.429-1.952,0.696-2.704,0.788l-0.037-0.311c0.718-0.087,1.453-0.35,2.637-0.773c0.467-0.166,1.005-0.357,1.632-0.572l0.102,0.297C17.403,34.057,16.871,34.247,16.406,34.412z M27.281,41.257L27.281,41.257c0.009-0.112,0.013-0.219,0.013-0.315c-0.002-0.35-0.24-1.08-0.69-1.743c-0.112-0.167-0.238-0.328-0.374-0.479c-0.139-0.148-0.286-0.285-0.445-0.4c-0.158-0.115-0.329-0.213-0.51-0.283l0,0c-0.076-0.03-0.125-0.051-0.192-0.074c-0.21,0.255-0.428,0.521-0.599,0.73v0.002l-0.117,0.143c0.43,0.239,1.494,0.943,1.496,2.098c0,0.185-0.177,0.377-0.396,0.596c-0.188,0.188-0.413,0.402-0.542,0.613c-0.028,0.043-0.054,0.094-0.078,0.146c-0.028,0.063-0.056,0.134-0.082,0.211c-0.026,0.076-0.052,0.16-0.073,0.251c-0.104,0.407-0.165,0.91-0.162,1.396c0,0.096,0.011,0.195,0.028,0.299c0.021,0.121,0.054,0.242,0.097,0.363c0.043,0.125,0.098,0.25,0.162,0.379c0.296,0.584,0.789,1.168,1.373,1.633l-0.002,0.006c0.132,0.009,0.251,0.018,0.361,0.025c0.24,0.02,0.456,0.031,0.681,0.041c-0.045-0.141-0.091-0.281-0.141-0.416c-0.167-0.449-0.331-0.896-0.331-1.483c-0.002-0.612,0.136-1.353,0.272-2.086C27.139,42.327,27.247,41.751,27.281,41.257z M12.993,41.855c0.216-0.261,0.404-0.603,0.465-0.959l0,0c0.013-0.082,0.021-0.164,0.021-0.244c-0.002-0.08-0.008-0.162-0.026-0.243v-0.003c-0.071-0.338-0.423-0.741-0.549-0.877c-0.774,0.049-1.007,0.806-1.068,1.095C12.263,40.855,12.773,41.539,12.993,41.855zM8.973,54.034c0.763,0.329,1.697,0.442,2.698,0.233c0.348-0.072,0.707-0.194,1.068-0.352c-0.346-0.311-0.692-0.641-1.055-1.005c-0.394-0.396-0.621-1.07-0.713-1.404c-1.25,0.646-2.521,0.892-3.75,0.703c0.035,0.11,0.063,0.226,0.112,0.33C7.637,53.175,8.218,53.708,8.973,54.034z M6.762,57.152c-0.113,0-0.257,0.037-0.411,0.097c-0.083,0.031-0.162,0.069-0.24,0.11c-0.162,0.086-0.315,0.188-0.437,0.301c-0.061,0.054-0.112,0.109-0.151,0.165C5.949,57.975,7,58.404,7.332,59.124c0.886-0.176,1.269-0.876,1.377-1.122c-0.326-0.324-0.765-0.557-1.171-0.695c-0.1-0.033-0.197-0.063-0.288-0.084c-0.091-0.023-0.179-0.041-0.259-0.053C6.904,57.158,6.826,57.152,6.762,57.152z M33.6,10.367c-0.028,0.04-0.037,0.076-0.061,0.113c0.045,0.005,0.086,0.007,0.129,0.013c0.69,0.093,1.438,0.333,2.093,0.78c0.527,0.359,0.903,0.658,1.197,0.99c0.298,0.335,0.506,0.698,0.688,1.181l0.004,0.012c0.088,0.24,0.143,0.475,0.197,0.706c2.222,0.097,2.464-1.56,2.483-2.03c-0.718-0.152-1.258-0.298-1.727-0.59c-0.5-0.31-0.903-0.778-1.327-1.581c-0.158-0.296-0.56-0.811-0.977-1.196v0.001c-0.082-0.076-0.162-0.145-0.24-0.206l0,0c-0.08-0.062-0.156-0.114-0.227-0.157H35.83V8.401c-0.281-0.164-0.579-0.295-0.903-0.377c-0.281-0.072-0.583-0.098-0.904-0.086c0.015,0.162,0.035,0.315,0.035,0.505C34.06,9.719,33.792,10.099,33.6,10.367z M8.127,66.664c-0.099-0.128-0.211-0.225-0.322-0.278c-0.067-0.032-0.13-0.05-0.184-0.05c-0.1,0-0.229,0.055-0.368,0.15c-0.112,0.078-0.227,0.185-0.333,0.31c-0.106,0.126-0.201,0.272-0.276,0.437l0,0c-0.1,0.217-0.16,0.459-0.16,0.716c0,0.352,0.1,0.591,0.177,0.724c0.24-0.216,0.787-0.59,1.649-0.52c0.013-0.021,0.023-0.053,0.039-0.088c0.015-0.043,0.028-0.09,0.039-0.141c0.004-0.021,0.011-0.05,0.015-0.079c0.013-0.085,0.021-0.176,0.021-0.265c0-0.15-0.021-0.294-0.056-0.426C8.316,66.963,8.229,66.796,8.127,66.664z M17.26,67.672c-0.353,0.001-0.627,0.115-0.83,0.279c-0.201,0.164-0.331,0.378-0.394,0.58l0,0c-0.015,0.048-0.026,0.096-0.032,0.142c0.804,0.313,0.99,0.962,1.027,1.328c1.094-0.631,0.817-1.933,0.724-2.263C17.576,67.691,17.412,67.671,17.26,67.672z M22.61,15.452c-0.015-0.01-0.002,0,0.006,0.006c0.002-0.001,0.002-0.003-0.004-0.006H22.61z M21.797,16.483c0.171,0.105,0.283,0.171,0.396,0.215c0.115,0.044,0.238,0.072,0.443,0.108c0.049,0.009,0.104,0.021,0.155,0.031c-0.026-0.051-0.069-0.097-0.091-0.151c-0.067-0.172-0.104-0.362-0.104-0.593l-0.002-0.132c-0.002-0.22-0.004-0.365-0.011-0.462c0-0.02,0.007-0.028,0.015-0.034c-0.374,0.006-0.43,0.038-0.467,0.111l0,0l-0.043,0.086v0.001c-0.188,0.377-0.024,0.053,0.002,0.004v-0.003l0.002-0.001l-0.002,0.004c-0.032,0.067-0.1,0.207-0.164,0.376C21.873,16.183,21.828,16.338,21.797,16.483z M13.59,20.473c-0.013,0.565,0.095,2.457,1.913,2.252c-0.125-0.58-0.024-1.293-0.024-1.296l0.018-0.137h0.138c0.002,0,0.268,0.008,0.912,0.002c1.79-0.016,3.048-0.118,3.993-0.286c0.932-0.167,1.547-0.399,2.064-0.681c0.804-0.44,1.747-0.932,2.334-1.189c0.039-0.017,0.069-0.027,0.106-0.042c-0.32-0.107-0.711-0.206-1.085-0.282c-0.127-0.026-0.259-0.049-0.389-0.071c-0.127-0.021-0.244-0.039-0.341-0.052c-0.156-0.02-0.283-0.03-0.366-0.03c-0.255,0-0.65,0.035-1.1,0.08l0.009,0.009l-0.004,0.002c-0.188,0.152-0.415,0.301-0.677,0.444c-0.259,0.143-0.551,0.276-0.871,0.402C18.613,20.226,16.247,20.633,13.59,20.473zM11.212,30.604c0.508,0.316,1.206,0.482,2.159,0.492l0.216-0.093c1.219-0.525,2.622-1.129,3.5-1.655c-0.534-0.163-1.046-0.555-1.342-1.075c-0.078-0.135-0.141-0.279-0.186-0.429c-0.037-0.122-0.054-0.251-0.065-0.38c-0.488,0.072-0.689,0.096-0.765,0.103c-0.877,0.522-1.697,0.98-2.464,1.309c-0.705,0.303-1.368,0.489-2.003,0.528C10.466,29.917,10.765,30.325,11.212,30.604z M25.208,28.808c0.562-0.463,2.589-2.018,4.545-2.021c0.882-0.002,2.073,0.339,3.294,1.228c0.25,0.183,0.506,0.391,0.761,0.624c0.251,0.231,0.501,0.488,0.752,0.774c0.119,0.137,0.233,0.277,0.346,0.419c0.664,0.554,1.239,0.89,1.792,1.085c0.553,0.196,1.091,0.255,1.677,0.254c2.179-0.005,3.072-2.128,3.32-2.89l-0.078,0.02c-0.075,0.017-0.16,0.035-0.252,0.053c-0.409,0.078-0.925,0.136-1.453,0.137c-0.104,0.001-0.21-0.001-0.312-0.005c-0.246-0.01-0.493-0.031-0.739-0.066c-0.249-0.036-0.499-0.086-0.746-0.151c-1.202-0.32-2.354-1.013-3.167-2.286c-0.024-0.037-0.057-0.077-0.098-0.12v-0.001c-0.099-0.106-0.242-0.222-0.419-0.341c-0.182-0.125-0.396-0.251-0.631-0.374c-1.159-0.607-2.857-1.174-3.984-1.172c-1.053,0.002-2.203,0.209-2.334,0.232c-1.016,0.473-1.591,0.919-1.924,1.401c-0.331,0.48-0.432,1.011-0.499,1.65c-0.063,0.615-0.007,1.091,0.097,1.418C25.174,28.723,25.191,28.767,25.208,28.808z M17.606,29.123c0.16,0.002,0.327,0.001,0.495-0.006c0.168-0.006,0.339-0.019,0.517-0.037c0.893-0.09,1.863-0.325,2.864-0.765l0.015-0.005c0.279-0.123,0.564-0.255,0.843-0.384c0.949-0.439,1.794-0.816,2.428-0.829c0.073-0.628,0.19-1.166,0.536-1.667c0.298-0.431,0.774-0.83,1.516-1.233c-0.586-0.003-1.496,0.021-2.292,0.18c-0.836,0.167-1.318,0.439-1.766,0.69c-0.456,0.258-0.882,0.496-1.588,0.599c-0.093,0.127-0.301,0.257-0.569,0.386c-0.253,0.12-0.568,0.243-0.893,0.36c-2.041,0.733-2.929,0.862-3.592,0.958c-0.061,0.009-0.108,0.016-0.21,0.031c-0.041,0.007-0.071,0.011-0.108,0.017c0.009,0.114,0.026,0.228,0.058,0.335c0.037,0.126,0.091,0.25,0.158,0.365c0.335,0.586,0.973,0.991,1.558,1.003L17.606,29.123z M20.941,18.92c0.067-0.037,0.112-0.077,0.175-0.114c-0.028,0.002-0.054,0.005-0.083,0.009c-0.664,0.07-1.362,0.145-1.921,0.176c-0.065,0.003-0.119,0.003-0.18,0.005v0.002c-0.004,0-0.011-0.001-0.015-0.001c-0.082,0.002-0.17,0.007-0.246,0.007c-1.455,0.003-2.659-0.391-3.104-0.558c-0.052,0.351-0.054,0.657,0.015,0.922c0.078,0.299,0.253,0.552,0.553,0.771c1.561-0.119,2.929-0.428,3.969-0.834C20.416,19.184,20.695,19.054,20.941,18.92z M49.411,10.265c-0.078,0.005-0.153,0.013-0.225,0.025c-0.084,0.013-0.167,0.033-0.247,0.056c-0.076,0.024-0.147,0.053-0.212,0.088c-0.287,0.152-0.471,0.428-0.471,0.88c0,0.099,0.011,0.198,0.028,0.293c0.013,0.062,0.028,0.12,0.047,0.175c0.022,0.056,0.043,0.109,0.071,0.157c0.108,0.194,0.281,0.338,0.523,0.387l0.006,0.001l0,0c0.089,0.018,0.209,0.03,0.35,0.042c0.149,0.011,0.316,0.017,0.489,0.021c0.923,0.021,2.192-0.03,2.685-0.072c0.082-0.007,0.153-0.037,0.218-0.083c0.069-0.05,0.13-0.118,0.182-0.198c0.054-0.084,0.099-0.179,0.134-0.275c0.074-0.199,0.106-0.404,0.106-0.545c0-0.088-0.013-0.181-0.035-0.272c-0.037-0.158-0.104-0.31-0.199-0.437c-0.093-0.121-0.209-0.218-0.348-0.271c-0.078-0.03-0.164-0.046-0.255-0.045c-0.368,0.004-0.912,0.013-1.453,0.024C50.274,10.228,49.747,10.244,49.411,10.265zM0.863,13.096c0.625,0.046,1.141,0.339,1.496,0.854c0.203-0.141,0.592-0.533,0.396-1.394c-0.225-0.124-1.072-0.547-1.731-0.287l0,0c-0.482,0.191-0.676,0.601-0.75,0.853c0.063-0.011,0.125-0.018,0.188-0.023C0.597,13.087,0.733,13.086,0.863,13.096z M54.026,12.926c-0.167-0.106-0.339-0.192-0.517-0.257c-0.173-0.065-0.348-0.108-0.519-0.127l0,0c-0.063-0.007-0.123-0.011-0.177-0.012v-0.023c-0.099,0.063-0.205,0.113-0.331,0.124l0,0c-0.495,0.042-1.779,0.095-2.717,0.073c-0.188-0.004-0.361-0.011-0.503-0.022c-0.153-0.011-0.285-0.026-0.387-0.045l-0.007-0.001h-0.002c-0.175-0.035-0.322-0.104-0.448-0.203h-0.002c-0.086,0.011-0.175,0.026-0.262,0.046c-0.091,0.021-0.179,0.047-0.266,0.078c-0.454,0.159-0.899,0.451-1.236,0.848l-0.002,0.001c-0.359,0.423-0.582,0.892-0.711,1.492c-0.136,0.615-0.177,1.364-0.175,2.333c0.002,0.656,0.154,1.336,0.478,2.042c0.326,0.712,0.83,1.45,1.528,2.214c0.692,0.757,1.172,1.342,1.481,1.883c0.315,0.555,0.454,1.061,0.456,1.647c0,0.77-0.337,1.384-0.573,1.715c0.553-0.03,0.997-0.154,1.349-0.333c0.167-0.084,0.312-0.18,0.439-0.283c0.65-0.529,0.845-1.265,0.867-1.666c0.032-0.666-0.02-1.215-0.134-1.696c-0.114-0.48-0.292-0.893-0.51-1.286h-0.002c-0.078-0.142-0.162-0.28-0.249-0.414c-0.141-0.215-0.281-0.414-0.417-0.605l0,0c-0.43-0.608-0.819-1.158-0.819-1.662h0.312c0.002,0.403,0.363,0.916,0.765,1.482h-0.002c0.145,0.202,0.292,0.412,0.424,0.615c0.093,0.144,0.182,0.289,0.264,0.435h-0.002c0.231,0.416,0.419,0.855,0.54,1.364c0.117,0.488,0.169,1.045,0.143,1.701c0.089-0.02,0.18-0.036,0.26-0.069c0.136-0.056,0.261-0.131,0.374-0.218c0.112-0.089,0.214-0.191,0.305-0.304c0.419-0.52,0.59-1.23,0.59-1.691c0-0.08-0.004-0.165-0.011-0.251c-0.095-1.332-0.912-2.515-1.554-3.445c-0.389-0.563-0.718-1.038-0.806-1.427l0.307-0.068c0.076,0.33,0.387,0.782,0.756,1.316c0.573,0.832,1.28,1.858,1.528,3.035c0.973-0.724,0.826-2.046,0.737-2.783v-0.002c-0.112-0.242-0.529-1.121-0.895-1.548c-0.065-0.077-0.134-0.148-0.201-0.218c-0.346-0.364-0.672-0.707-0.906-1.94l0.307-0.057c0.216,1.141,0.512,1.451,0.826,1.781c0.069,0.073,0.14,0.146,0.212,0.23c0.326,0.38,0.683,1.082,0.86,1.45c0.225-0.321,0.398-0.639,0.521-0.998c0.149-0.438,0.223-0.94,0.221-1.58C55.528,14.426,54.852,13.446,54.026,12.926z M2.233,35.2c0-0.119-0.026-0.296-0.056-0.46c-0.017-0.103-0.037-0.2-0.054-0.276C1.669,34.449-0.002,34.497,0,36.064c0.236-0.113,0.48-0.19,0.766-0.224c0.352-0.036,0.763-0.004,1.286,0.115C2.116,35.883,2.233,35.68,2.233,35.2z M3.381,39.992V39.99H3.379c-0.024-0.041-0.052-0.08-0.083-0.117c-0.03-0.038-0.061-0.074-0.093-0.107l0,0C3.061,39.614,2.901,39.5,2.782,39.45c-0.186,0.077-0.815,0.364-1.055,0.757v0.001L1.725,40.21c-0.035,0.062-0.065,0.126-0.088,0.196c-0.024,0.07-0.042,0.146-0.054,0.227v0.001c-0.05,0.343,0.011,0.735,0.153,1.06c0.233-0.243,0.75-0.618,1.747-0.661C3.496,40.766,3.508,40.193,3.381,39.992z M21.758,12.706c-0.02,0.119-0.021,0.247,0.024,0.424c0.063,0.236,0.208,0.561,0.45,1.002c0.16-0.026,0.249-0.066,0.329-0.108c0.017-0.01,0.039-0.019,0.058-0.029l0.011-0.166c0.03-0.441,0.061-0.819,0.192-1.144c-0.026,0.003-0.056,0.005-0.082,0.009c-0.147,0.019-0.298,0.038-0.544,0.039C22.04,12.734,21.895,12.724,21.758,12.706zM38.258,15.756c-0.445-0.367-0.562-0.877-0.689-1.429c-0.057-0.25-0.117-0.511-0.21-0.762l-0.004-0.011c-0.168-0.448-0.359-0.78-0.629-1.084c-0.272-0.308-0.633-0.592-1.139-0.938c-0.612-0.418-1.312-0.642-1.958-0.729c-0.127-0.017-0.25-0.029-0.374-0.037c-0.075-0.004-0.145-0.003-0.218-0.004c0.013,0.176,0.022,0.356,0.03,0.546c0.026,0.691,0.054,1.395,0.312,1.707c0.156,0.187,0.354,0.329,0.612,0.426c0.266,0.102,0.596,0.157,1.005,0.167l0.199,0.007l-0.052,0.191c-0.002,0.003-0.171,0.622-0.689,1.155c0.642,0.245,1.185,0.546,1.643,0.994c0.5,0.485,0.915,1.128,1.306,2.016c0.067,0.152,0.143,0.28,0.214,0.415c2.397-0.171,2.724-1.705,2.761-2.219C39.483,16.256,38.899,16.285,38.258,15.756zM24.467,24.069c1.25-0.25,2.78-0.178,2.955-0.168c0.158-0.029,1.329-0.237,2.397-0.239c1.176-0.003,2.936,0.58,4.129,1.207c0.25,0.131,0.475,0.263,0.664,0.391c0.095,0.065,0.181,0.129,0.259,0.192c-0.301-1.299-1.775-2.615-3.303-3.37c-0.346-0.171-0.696-0.313-1.036-0.418c-0.335-0.104-0.662-0.173-0.962-0.199c-0.097-0.009-0.186-0.013-0.268-0.013c-1.221,0.003-2.998,0.284-4.693,0.689c-0.343,0.083-0.689,0.172-1.029,0.265c-0.339,0.094-0.666,0.19-0.973,0.288v0.001c-0.136,0.043-0.255,0.082-0.359,0.117c-0.512,0.172-0.97,0.271-1.459,0.325c-0.482,0.053-0.992,0.062-1.615,0.054c-0.566-0.009-1.13-0.008-1.407-0.005c0.063,0.414,0.195,0.724,0.376,0.974c0.205,0.284,0.478,0.496,0.78,0.696c0.084,0.056,0.151,0.103,0.214,0.146c0.353,0.246,0.583,0.406,1.25,0.404c1.137-0.002,1.651-0.293,2.22-0.613C23.077,24.529,23.581,24.245,24.467,24.069z M37.114,18.097c-0.376-0.85-0.77-1.461-1.239-1.918c-0.46-0.448-1.003-0.75-1.673-0.987c-0.409,0.318-0.975,0.557-1.768,0.517c0.076,0.366,0.434,1.19,2.127,1.097l0.179-0.01l-0.015,0.179c0,0.002-0.084,0.985-0.843,1.702c-0.095,0.089-0.19,0.17-0.288,0.25c0.069,0.01,0.132-0.002,0.205,0.017c0.206,0.051,0.424,0.134,0.646,0.244c1.118,0.555,2.393,1.813,2.888,2.997c0.119,0.285,0.231,0.53,0.344,0.742c0.342,0.018,1.5,0.022,2.477-0.716c0.696-0.525,0.817-1.277,0.834-1.595c-0.834,0.019-1.563-0.11-2.196-0.473C38.117,19.754,37.56,19.107,37.114,18.097z M25.511,19.263c-0.034,0.004-0.088,0.02-0.16,0.045c-0.078,0.027-0.175,0.067-0.288,0.117c-0.579,0.253-1.513,0.74-2.311,1.177c-0.545,0.297-1.191,0.542-2.16,0.714c-0.955,0.17-2.23,0.273-4.042,0.29c-0.216,0.002-0.577,0.001-0.776,0c-0.03,0.323-0.078,1.123,0.192,1.44c0.086,0.101,0.158,0.2,0.229,0.295c0.123,0.168,0.24,0.329,0.398,0.447l0.002,0.001c0.032,0.024,0.071,0.046,0.117,0.068c0.047,0.022,0.106,0.046,0.171,0.068c0.266,0.091,0.603,0.143,0.845,0.114c-0.141-0.274-0.255-0.584-0.294-0.996l-0.018-0.172h0.173c0.002,0,0.569-0.009,1.589,0.005c0.605,0.009,1.104,0,1.576-0.052c0.467-0.052,0.906-0.147,1.395-0.312c0.134-0.044,0.255-0.084,0.363-0.119h0.002c0.317-0.101,0.648-0.199,0.983-0.291c0.335-0.092,0.683-0.181,1.04-0.267c1.714-0.411,3.519-0.695,4.764-0.698c0.1,0,0.199,0.004,0.294,0.012c0.324,0.028,0.672,0.102,1.029,0.213c0.16,0.05,0.324,0.133,0.489,0.197c-0.21-0.335-0.653-0.57-0.655-0.571l-0.045-0.026l-0.024-0.05c-0.462-1.074-1.455-1.399-2.054-1.595c-0.188-0.062-0.331-0.115-0.437-0.178c-0.29,0.015-0.674,0.033-1.05,0.051c-0.61,0.029-1.191,0.058-1.336,0.069v-0.001L25.511,19.263z M4.6,31.302c0.227,0.012,0.947-0.017,1.126-0.851c-0.249-0.27-1.427-1.403-2.7-0.382c0.402,0.151,0.707,0.33,0.949,0.526C4.246,30.815,4.436,31.054,4.6,31.302z M39.671,24.457c-0.121-0.008-0.236-0.018-0.342-0.029c-0.105-0.012-0.209-0.028-0.302-0.046h-0.002l-0.052-0.011V24.37c-0.493-0.111-0.845-0.314-1.144-0.655c-0.29-0.33-0.523-0.783-0.785-1.409v-0.001c-0.469-1.119-1.677-2.31-2.736-2.836c-0.203-0.101-0.4-0.176-0.582-0.222c-0.177-0.043-0.339-0.06-0.48-0.041l-0.006,0.001l-0.006-0.05c-0.074,0.041-0.134,0.089-0.223,0.124c-0.292,0.114-0.666,0.186-1.191,0.196c0.586,0.517,1.628,1.685,1.299,3.205c1.169,0.887,2.08,2.045,2.118,3.169c0.11,0.17,0.24,0.305,0.361,0.454c0.91,0.265,1.755,0.438,2.503,0.437c0.739-0.001,1.386-0.172,1.904-0.593c0.759-0.617,0.988-1.371,1.055-1.726C40.7,24.472,40.153,24.486,39.671,24.457z M8.631,28.783c0.149,0.083,0.315,0.154,0.503,0.208c0.19,0.054,0.4,0.091,0.633,0.107c0.089,0.005,0.177,0.009,0.266,0.009c0.655-0.001,1.355-0.197,2.11-0.519c0.696-0.299,1.441-0.714,2.23-1.178c-1.081-0.624-1.232-1.479-1.217-1.92c-0.504,0.204-0.999,0.458-1.433,0.691c-0.426,0.229-0.8,0.429-1.089,0.525v-0.001l-0.002,0.001c-1.202,0.396-2.589,0.56-3.074,0.607C7.685,27.811,7.985,28.42,8.631,28.783z M3.906,18.863c-0.363,0.285-1.007,0.408-1.593,0.418c-0.121,0.002-0.238,0.001-0.346-0.005l-0.045-0.002c0.739,1.393,2.155,1.059,2.524,0.944C4.54,19.1,4.07,18.898,3.906,18.863zM11.64,23.886c-0.385,0.313-0.797,0.506-1.2,0.624c-0.397,0.119-0.785,0.165-1.124,0.185c-0.385,0.024-0.938,0.02-1.217,0.015c0.05,0.397,0.309,1.437,1.658,1.916c0.262-0.063,0.523-0.133,0.776-0.217h0.002v-0.001c0.268-0.087,0.629-0.281,1.04-0.502c0.491-0.263,1.053-0.56,1.632-0.779l0.015-0.067l0.08,0.014c0.13-0.098,0.29-0.201,0.478-0.307c0.208-0.119,0.447-0.241,0.696-0.358c0.247-0.116,0.504-0.225,0.746-0.319c0.353-0.134,0.679-0.237,0.936-0.288c-0.076-0.087-0.145-0.18-0.214-0.276c-0.067-0.092-0.136-0.186-0.212-0.276H15.73c-0.05-0.06-0.091-0.133-0.127-0.211c-0.793,0.112-1.323-0.094-1.669-0.445c-0.052,0.015-0.104,0.029-0.173,0.055c-0.1,0.039-0.21,0.087-0.329,0.144C12.816,23.089,12.008,23.588,11.64,23.886z M16.19,24.479c0.203-0.099,0.393-0.189,0.573-0.265c-0.065-0.022-0.127-0.047-0.184-0.075c-0.054-0.026-0.1-0.053-0.141-0.081v0.019c-0.218,0.001-0.638,0.125-1.104,0.304c-0.238,0.093-0.486,0.199-0.727,0.311c-0.238,0.111-0.469,0.229-0.674,0.346c-0.056,0.031-0.104,0.062-0.153,0.093c0.114,0.009,0.235,0.017,0.359,0.016C14.815,25.146,15.559,24.786,16.19,24.479z M14.714,27.254c0.078-0.007,0.337-0.037,1.148-0.162v-0.001l0.212-0.031h0.002c0.651-0.094,1.522-0.222,3.53-0.942c0.312-0.112,0.616-0.231,0.865-0.35c0.039-0.019,0.067-0.037,0.102-0.055c-0.061,0.002-0.119,0.006-0.184,0.006c-0.765,0.002-1.027-0.179-1.429-0.459c-0.067-0.046-0.139-0.096-0.208-0.142c-0.329-0.218-0.629-0.452-0.863-0.774c-0.002-0.004-0.004-0.011-0.006-0.015c-0.117,0.026-0.249,0.035-0.396,0.027v0.003c-0.018-0.004-0.039-0.003-0.061-0.004c-0.009,0-0.018,0-0.026-0.002c-0.004,0-0.007,0-0.011,0l0,0c-0.247,0.013-0.627,0.198-1.063,0.41c-0.66,0.319-1.438,0.697-2.188,0.699c-0.247,0-0.506-0.026-0.668-0.046C13.441,25.756,13.488,26.657,14.714,27.254z"/>
<rect x="64.964" y="8.738" fill="#1A1A1A" width="0.8" height="52.938"/>
<path fill="#1A1A1A" d="M75,18h4.5c0.679,0,1.262,0.073,1.75,0.218c0.489,0.145,0.889,0.375,1.2,0.689c0.312,0.315,0.54,0.722,0.689,1.221s0.223,1.102,0.223,1.81c0,1.386-0.32,2.411-0.96,3.072c-0.64,0.662-1.619,0.993-2.935,0.993h-1.889v5.912H75V18z M78.694,24.091c0.389,0,0.722-0.035,0.997-0.106c0.277-0.071,0.501-0.188,0.674-0.35c0.173-0.162,0.301-0.378,0.383-0.647c0.08-0.269,0.121-0.598,0.121-0.987c0-0.417-0.041-0.76-0.121-1.029c-0.082-0.269-0.21-0.479-0.383-0.631c-0.173-0.152-0.396-0.257-0.668-0.313c-0.272-0.056-0.601-0.085-0.981-0.085h-1.137v4.15h1.115V24.091z"/>
<path fill="#1A1A1A" d="M85.643,18h7.142v2.303h-4.563v3.216h4.267v2.218h-4.267v3.832h4.68v2.345h-7.259V18z"/>
<path fill="#1A1A1A" d="M95.617,18h8.512v13.914h-2.557v-11.76h-3.374v11.76h-2.581V18z"/>
<path fill="#1A1A1A" d="M107.311,29.865c0.107,0.042,0.227,0.08,0.36,0.111c0.137,0.032,0.267,0.059,0.394,0.08c0.128,0.021,0.24,0.036,0.34,0.042c0.099,0.007,0.171,0.01,0.212,0.01c0.241,0,0.453-0.084,0.638-0.254c0.184-0.169,0.276-0.396,0.276-0.679c0-0.297-0.078-0.66-0.229-1.088c-0.151-0.428-0.337-0.95-0.558-1.565L105.721,18h2.918l2.081,7.355l0.137,1.019l0.255-0.977L113.096,18h2.76l-3.852,11.897c-0.143,0.425-0.303,0.788-0.484,1.088c-0.18,0.301-0.385,0.543-0.613,0.727c-0.231,0.184-0.489,0.318-0.77,0.403c-0.283,0.084-0.595,0.127-0.937,0.127c-0.296,0-0.597-0.005-0.901-0.016c-0.304-0.011-0.627-0.052-0.966-0.122L107.311,29.865z"/>
<path fill="#1A1A1A" d="M122.473,23.481c0.574,0.131,1.061,0.356,1.459,0.674c0.396,0.318,0.698,0.743,0.907,1.272c0.208,0.531,0.312,1.192,0.312,1.985c0,1.479-0.309,2.598-0.927,3.359c-0.621,0.761-1.585,1.141-2.893,1.141h-4.234V18h7.28v2.303h-4.767v2.982h0.893C121.238,23.285,121.895,23.351,122.473,23.481z M120.704,29.94c0.659,0,1.124-0.202,1.396-0.605s0.408-1.022,0.408-1.857c0-0.404-0.036-0.745-0.112-1.025c-0.073-0.279-0.196-0.506-0.365-0.679c-0.171-0.173-0.389-0.299-0.659-0.376c-0.268-0.078-0.592-0.117-0.975-0.117h-0.787v4.659H120.704z"/>
<path fill="#1A1A1A" d="M125.998,31.914L129.13,18h3.481l3.15,13.914h-2.779l-2.174-11.409l-2.178,11.409H125.998z"/>
<path fill="#1A1A1A" d="M137.332,18h2.578v11.303l-0.084,0.934L142.787,18h3.863v13.914h-2.559V20.801l0.129-1.019l-3.006,12.131h-3.885V18H137.332z"/>
<path fill="#1A1A1A" d="M150.054,18h2.539v5.805L155.765,18h2.875l-3.502,5.763l3.734,8.151h-2.843l-2.506-5.763l-0.935,1.549v4.213h-2.536L150.054,18L150.054,18z"/>
<path fill="#1A1A1A" d="M163.458,18h3.479l3.152,13.914h-2.779l-0.701-3.502h-2.973l-0.68,3.502h-2.634L163.458,18z M166.238,26.331l-1.104-5.826l-1.082,5.826H166.238z"/>
<path fill="#1A1A1A" d="M183.115,23.481c0.574,0.131,1.063,0.356,1.459,0.674c0.396,0.318,0.699,0.743,0.908,1.272c0.207,0.531,0.311,1.192,0.311,1.985c0,1.479-0.309,2.598-0.926,3.359c-0.621,0.761-1.586,1.141-2.893,1.141h-4.234V18h7.279v2.303h-4.768v2.982h0.895C181.88,23.285,182.539,23.351,183.115,23.481z M181.347,29.94c0.658,0,1.125-0.202,1.396-0.605c0.271-0.403,0.407-1.022,0.407-1.857c0-0.404-0.037-0.745-0.112-1.025c-0.072-0.279-0.195-0.506-0.365-0.679c-0.17-0.173-0.389-0.299-0.658-0.376c-0.268-0.078-0.592-0.117-0.975-0.117h-0.787v4.659H181.347z"/>
<path fill="#1A1A1A" d="M191.353,22.85h1.393c0.65,0,1.242,0.074,1.775,0.223c0.535,0.148,0.994,0.389,1.379,0.722c0.387,0.333,0.686,0.766,0.896,1.3c0.213,0.535,0.32,1.19,0.32,1.969c0,0.743-0.078,1.413-0.229,2.011c-0.152,0.598-0.388,1.108-0.697,1.528c-0.313,0.421-0.705,0.745-1.183,0.972c-0.479,0.226-1.043,0.339-1.692,0.339h-4.479V20.282h-2.11V18h4.625v4.85H191.353z M192.658,29.94c0.342,0,0.627-0.06,0.861-0.181c0.232-0.12,0.424-0.295,0.566-0.525c0.145-0.23,0.252-0.508,0.317-0.833c0.065-0.325,0.103-0.689,0.103-1.093c0-0.438-0.037-0.813-0.115-1.125s-0.203-0.566-0.373-0.764c-0.17-0.198-0.389-0.343-0.658-0.435c-0.27-0.092-0.598-0.138-0.986-0.138h-1.02v5.094H192.658z"/>
<path fill="#1A1A1A" d="M198.261,31.914L201.392,18h3.48l3.151,13.914h-2.778l-2.179-11.409l-2.176,11.409H198.261z"/>
<path fill="#1A1A1A" d="M210.007,18h6.867v2.303h-4.269v11.611h-2.603V18H210.007z"/>
<path fill="#1A1A1A" d="M218.623,18h3.482l3.15,13.914h-2.779l-0.699-3.502h-2.973l-0.682,3.502h-2.632L218.623,18z M221.406,26.331l-1.104-5.826l-1.084,5.826H221.406z"/>
<path fill="#1A1A1A" d="M227.166,18h4.5c0.681,0,1.265,0.073,1.752,0.218c0.488,0.145,0.888,0.375,1.199,0.689c0.313,0.315,0.539,0.722,0.689,1.221c0.146,0.499,0.223,1.102,0.223,1.81c0,1.386-0.32,2.411-0.963,3.072c-0.639,0.662-1.615,0.993-2.932,0.993h-1.891v5.912h-2.58V18H227.166z M230.857,24.091c0.389,0,0.723-0.035,1-0.106c0.275-0.071,0.498-0.188,0.674-0.35c0.172-0.163,0.301-0.378,0.381-0.647c0.082-0.269,0.123-0.598,0.123-0.987c0-0.417-0.041-0.76-0.123-1.029c-0.08-0.269-0.209-0.479-0.381-0.631c-0.176-0.152-0.398-0.257-0.67-0.313c-0.273-0.056-0.6-0.085-0.982-0.085h-1.135v4.15h1.113V24.091L230.857,24.091z"/>
<path fill="#1A1A1A" d="M237.904,18h2.578v11.303l-0.084,0.934L243.357,18h3.865v13.914h-2.561V20.801l0.129-1.019l-3.004,12.131h-3.884L237.904,18L237.904,18z"/>
<path fill="#1A1A1A" d="M256.337,31.914v-6.198h-1.41c-0.367,0-0.672,0.066-0.908,0.197c-0.238,0.13-0.432,0.327-0.578,0.589c-0.148,0.261-0.268,0.59-0.355,0.987c-0.086,0.396-0.17,0.855-0.248,1.379c-0.063,0.467-0.127,0.865-0.186,1.194c-0.063,0.329-0.117,0.61-0.172,0.844c-0.051,0.233-0.102,0.428-0.148,0.583c-0.045,0.156-0.086,0.297-0.121,0.425h-2.717c0.148-0.283,0.275-0.6,0.387-0.95c0.113-0.35,0.203-0.7,0.281-1.05c0.078-0.351,0.146-0.688,0.195-1.014c0.055-0.325,0.098-0.601,0.133-0.828c0.1-0.58,0.215-1.066,0.346-1.459c0.134-0.393,0.31-0.713,0.531-0.961c0.223-0.248,0.508-0.437,0.859-0.567c0.35-0.131,0.795-0.225,1.33-0.282c-0.424-0.021-0.836-0.105-1.236-0.254c-0.398-0.148-0.754-0.361-1.064-0.637c-0.311-0.276-0.561-0.618-0.748-1.024c-0.188-0.406-0.28-0.882-0.28-1.427c0-0.544,0.078-1.031,0.231-1.459c0.156-0.428,0.41-0.791,0.761-1.088c0.352-0.297,0.809-0.523,1.375-0.679c0.563-0.156,1.256-0.233,2.067-0.233h4.185v13.914h-2.509V31.914L256.337,31.914z M256.337,19.846h-1.283c-0.389,0-0.725,0.025-1.002,0.074c-0.281,0.05-0.51,0.142-0.688,0.276c-0.176,0.134-0.307,0.322-0.387,0.563c-0.082,0.24-0.123,0.552-0.123,0.934c0,0.368,0.035,0.683,0.103,0.945c0.067,0.262,0.18,0.476,0.33,0.642c0.151,0.167,0.354,0.289,0.61,0.366c0.252,0.078,0.565,0.117,0.942,0.117h1.496v-3.917H256.337z"/>
<path fill="#1A1A1A" d="M78.141,39h1.948l3.798,13.719h-1.548l-1.026-3.967h-4.354l-1.005,3.967h-1.537L78.141,39z M80.947,47.402l-1.823-7.199l-1.82,7.199H80.947z"/>
<path fill="#1A1A1A" d="M91.127,51.145c-0.156,0.422-0.376,0.771-0.668,1.045c-0.29,0.276-0.638,0.48-1.044,0.612C89.009,52.934,88.555,53,88.051,53c-1.092,0-1.904-0.25-2.436-0.748c-0.532-0.5-0.798-1.264-0.798-2.297c0-0.418,0.056-0.782,0.173-1.094c0.114-0.311,0.303-0.592,0.564-0.842c0.261-0.252,0.604-0.486,1.03-0.707c0.426-0.221,0.954-0.447,1.58-0.687c0.383-0.146,0.684-0.293,0.899-0.438c0.217-0.146,0.379-0.291,0.482-0.435s0.168-0.28,0.194-0.413c0.023-0.134,0.037-0.259,0.037-0.377c0-0.523-0.137-0.927-0.409-1.209c-0.272-0.281-0.681-0.423-1.226-0.423c-0.536,0-0.942,0.138-1.219,0.412c-0.274,0.276-0.413,0.752-0.413,1.429h-1.37c0-1.02,0.259-1.773,0.78-2.265c0.519-0.492,1.316-0.738,2.391-0.738c0.905,0,1.602,0.229,2.081,0.69c0.217,0.195,0.4,0.438,0.55,0.728c0.151,0.289,0.225,0.642,0.225,1.052c0,0.397-0.048,0.752-0.145,1.063c-0.1,0.312-0.262,0.592-0.486,0.848c-0.228,0.255-0.527,0.492-0.901,0.711c-0.372,0.22-0.835,0.438-1.386,0.654c-0.322,0.125-0.604,0.248-0.848,0.371c-0.244,0.121-0.452,0.262-0.618,0.418c-0.166,0.157-0.294,0.342-0.376,0.555c-0.084,0.214-0.125,0.474-0.125,0.779c0,0.517,0.153,0.922,0.464,1.215c0.312,0.293,0.748,0.438,1.314,0.438c0.614,0,1.076-0.162,1.39-0.481c0.316-0.319,0.472-0.846,0.472-1.579h1.436C91.359,50.218,91.281,50.723,91.127,51.145z"/>
<path fill="#1A1A1A" d="M99.186,49.244c-0.016,1.222-0.292,2.152-0.833,2.795c-0.54,0.643-1.32,0.963-2.339,0.963c-1.115,0-1.93-0.438-2.442-1.309c-0.515-0.871-0.77-2.201-0.77-3.986c0-1.877,0.255-3.27,0.766-4.176c0.512-0.906,1.338-1.361,2.477-1.361c1.079,0,1.872,0.381,2.38,1.143c0.506,0.761,0.762,1.912,0.762,3.453c0,0.14,0,0.282,0,0.428c0,0.147-0.007,0.298-0.022,0.451h-4.887v0.472c0,1.228,0.143,2.147,0.424,2.762c0.283,0.615,0.756,0.922,1.418,0.922c0.495,0,0.895-0.217,1.199-0.649c0.303-0.432,0.454-1.039,0.454-1.818v-0.084h1.413V49.244z M97.752,46.48v-0.281c0-1.897-0.551-2.846-1.653-2.846c-0.629,0-1.09,0.256-1.382,0.77c-0.294,0.513-0.44,1.299-0.44,2.359L97.752,46.48L97.752,46.48z"/>
<path fill="#1A1A1A" d="M106.023,46.48v-4.008h1.502v10.245h-1.569v-5.075h-3.411v5.075h-1.433V42.475h1.5v4.008h3.411V46.48z"/>
<path fill="#1A1A1A" d="M112.495,51.714c0.676,0,1.21-0.212,1.602-0.634c0.391-0.422,0.586-1.025,0.586-1.814v-6.791h1.487v7.971c0,0.279,0.015,0.505,0.045,0.677c0.032,0.172,0.095,0.304,0.19,0.396c0.093,0.09,0.225,0.149,0.391,0.178c0.169,0.027,0.385,0.041,0.648,0.041v3.004h-1.108v-0.65c0-0.251-0.016-0.465-0.048-0.639c-0.03-0.174-0.1-0.315-0.203-0.424c-0.105-0.107-0.259-0.187-0.46-0.234c-0.203-0.049-0.472-0.074-0.807-0.074v-1.328c-0.194,0.517-0.512,0.914-0.951,1.191c-0.44,0.279-0.975,0.418-1.602,0.418c-0.802,0-1.416-0.23-1.837-0.695c-0.422-0.464-0.634-1.117-0.634-1.962v-7.868h1.507v7.928c0,0.183,0.034,0.354,0.1,0.515c0.066,0.162,0.157,0.303,0.272,0.426c0.116,0.122,0.253,0.218,0.415,0.289c0.159,0.068,0.332,0.104,0.522,0.104L112.495,51.714z"/>
<path fill="#1A1A1A" d="M123.38,51.391c-0.195,0.517-0.513,0.914-0.951,1.191C121.99,52.861,121.458,53,120.831,53c-0.862,0-1.48-0.215-1.849-0.648c-0.369-0.432-0.555-1.102-0.555-2.009v-7.868h1.435v7.928c0,0.421,0.104,0.748,0.313,0.98c0.21,0.234,0.504,0.352,0.882,0.352c0.679,0,1.222-0.211,1.628-0.635c0.406-0.423,0.609-1.029,0.609-1.817v-6.808h1.434v10.244h-1.349L123.38,51.391L123.38,51.391z"/>
<path fill="#1A1A1A" d="M131.458,52.719v-4.604h-0.535c-0.402,0-0.74,0.027-1.008,0.082c-0.271,0.057-0.486,0.152-0.655,0.287c-0.166,0.137-0.292,0.317-0.376,0.545s-0.141,0.516-0.169,0.863c-0.034,0.481-0.08,0.885-0.136,1.209c-0.054,0.323-0.112,0.592-0.171,0.807c-0.061,0.213-0.119,0.379-0.18,0.502c-0.058,0.123-0.11,0.226-0.151,0.309h-1.716c0.05-0.098,0.11-0.221,0.184-0.371c0.073-0.149,0.149-0.352,0.229-0.602c0.08-0.252,0.159-0.563,0.235-0.932c0.078-0.371,0.146-0.826,0.21-1.371c0.034-0.293,0.095-0.551,0.184-0.77c0.086-0.22,0.218-0.406,0.391-0.56c0.176-0.154,0.402-0.275,0.682-0.367c0.278-0.09,0.624-0.149,1.035-0.179c-0.397-0.014-0.763-0.084-1.099-0.209c-0.335-0.125-0.626-0.299-0.873-0.519c-0.248-0.22-0.44-0.481-0.581-0.784c-0.141-0.305-0.21-0.641-0.21-1.01c0-0.445,0.071-0.833,0.214-1.156c0.146-0.324,0.346-0.592,0.607-0.801c0.261-0.209,0.577-0.365,0.947-0.467c0.369-0.102,0.782-0.15,1.236-0.15h3.19v10.244h-1.483V52.719z M131.458,43.52h-0.847c-0.444,0-0.813,0.035-1.107,0.101c-0.291,0.065-0.524,0.168-0.702,0.305c-0.177,0.136-0.303,0.308-0.376,0.513c-0.073,0.207-0.11,0.453-0.11,0.737c0,0.56,0.169,0.994,0.502,1.31c0.332,0.313,0.893,0.471,1.681,0.471h0.959V43.52L131.458,43.52z"/>
<path fill="#1A1A1A" d="M139.578,42.475h1.352v1.267c0.502-0.998,1.359-1.496,2.572-1.496c0.48,0,0.887,0.063,1.209,0.188c0.324,0.125,0.582,0.313,0.773,0.563s0.329,0.569,0.409,0.953c0.079,0.383,0.12,0.832,0.12,1.35v7.419h-1.436v-7.554c0-1.104-0.488-1.654-1.469-1.654c-0.314,0-0.604,0.052-0.861,0.152c-0.259,0.101-0.479,0.25-0.662,0.444s-0.32,0.431-0.422,0.707c-0.104,0.275-0.154,0.593-0.154,0.947v6.956h-1.434V42.475H139.578z"/>
<path fill="#1A1A1A" d="M148.712,43.51c0.586-0.893,1.5-1.34,2.742-1.34c1.248,0,2.162,0.447,2.746,1.34c0.58,0.893,0.873,2.258,0.873,4.092c0,0.922-0.068,1.722-0.21,2.396c-0.139,0.677-0.354,1.238-0.647,1.686c-0.291,0.445-0.668,0.777-1.125,0.993S152.089,53,151.455,53c-1.257,0-2.174-0.438-2.752-1.313c-0.58-0.875-0.869-2.238-0.869-4.086C147.833,45.768,148.126,44.402,148.712,43.51z M149.501,49.453c0.066,0.523,0.178,0.959,0.336,1.304c0.154,0.345,0.365,0.603,0.631,0.769c0.264,0.168,0.595,0.252,0.99,0.252c0.392,0,0.715-0.084,0.978-0.252c0.261-0.166,0.472-0.424,0.631-0.769c0.16-0.345,0.272-0.78,0.339-1.304c0.067-0.521,0.1-1.141,0.1-1.852c0-0.713-0.03-1.33-0.1-1.854c-0.066-0.522-0.179-0.955-0.339-1.297c-0.159-0.341-0.37-0.597-0.631-0.765c-0.263-0.166-0.586-0.25-0.978-0.25c-0.402,0-0.737,0.084-1.002,0.256c-0.265,0.17-0.477,0.429-0.631,0.773c-0.158,0.346-0.267,0.777-0.328,1.297c-0.063,0.521-0.097,1.133-0.097,1.838C149.403,48.313,149.435,48.932,149.501,49.453z"/>
<path fill="#1A1A1A" d="M161.501,42.798c0-0.614,0.09-1.161,0.271-1.644c0.181-0.48,0.433-0.889,0.752-1.219c0.322-0.332,0.7-0.584,1.136-0.76c0.438-0.175,0.909-0.261,1.418-0.261c0.623,0,1.145,0.104,1.564,0.313c0.421,0.209,0.763,0.472,1.021,0.785c0.26,0.313,0.441,0.654,0.556,1.023c0.11,0.371,0.167,0.713,0.167,1.025c0,0.887-0.199,1.61-0.598,2.172c-0.397,0.562-0.961,0.914-1.694,1.063c0.893,0.133,1.569,0.501,2.03,1.104c0.459,0.604,0.689,1.401,0.689,2.392c0,0.664-0.078,1.257-0.23,1.778c-0.152,0.523-0.386,0.966-0.695,1.324c-0.309,0.359-0.695,0.633-1.156,0.821c-0.46,0.188-0.994,0.282-1.6,0.282c-0.566,0-1.067-0.072-1.51-0.219c-0.438-0.146-0.809-0.389-1.107-0.723c-0.335-0.355-0.588-0.813-0.76-1.371c-0.17-0.559-0.254-1.205-0.254-1.937V42.798L161.501,42.798z M165.126,51.65c0.74,0,1.277-0.234,1.615-0.709c0.336-0.473,0.504-1.17,0.504-2.096c0-0.916-0.199-1.619-0.593-2.105s-1.053-0.729-1.974-0.729h-1.141v-1.267h0.982c0.383,0,0.723-0.037,1.014-0.114c0.295-0.075,0.541-0.2,0.739-0.375c0.199-0.173,0.349-0.401,0.45-0.688c0.102-0.284,0.15-0.639,0.15-1.063c0-0.326-0.027-0.631-0.084-0.912c-0.058-0.281-0.158-0.525-0.307-0.734c-0.146-0.207-0.344-0.373-0.592-0.493c-0.249-0.121-0.563-0.183-0.949-0.183c-0.615,0-1.104,0.232-1.47,0.699c-0.363,0.467-0.545,1.125-0.545,1.975v5.984C162.934,50.715,163.666,51.65,165.126,51.65z"/>
<path fill="#1A1A1A" d="M170.625,42.475h1.353v1.267c0.502-0.998,1.358-1.496,2.573-1.496c0.479,0,0.886,0.063,1.21,0.188c0.323,0.125,0.579,0.313,0.772,0.563c0.191,0.252,0.327,0.569,0.407,0.953c0.08,0.383,0.121,0.832,0.121,1.35v7.419h-1.435v-7.554c0-1.104-0.489-1.654-1.469-1.654c-0.314,0-0.604,0.052-0.861,0.152c-0.258,0.101-0.479,0.25-0.662,0.444c-0.182,0.194-0.322,0.431-0.424,0.707c-0.104,0.275-0.153,0.593-0.153,0.947v6.956h-1.433V42.475L170.625,42.475z"/>
<path fill="#1A1A1A" d="M184.169,51.391c-0.194,0.517-0.512,0.914-0.951,1.191C182.78,52.861,182.246,53,181.621,53c-0.865,0-1.479-0.215-1.851-0.648c-0.37-0.432-0.554-1.102-0.554-2.009v-7.868h1.434v7.928c0,0.421,0.105,0.748,0.314,0.98c0.211,0.234,0.505,0.352,0.883,0.352c0.679,0,1.221-0.211,1.625-0.635c0.406-0.423,0.609-1.029,0.609-1.817v-6.808h1.434v10.244h-1.348v-1.328H184.169z"/>
<path fill="#1A1A1A" d="M194.138,49.119c0,1.263-0.285,2.226-0.854,2.889c-0.568,0.662-1.373,0.994-2.41,0.994c-1.152,0-2-0.452-2.545-1.355s-0.813-2.282-0.813-4.139c0-1.779,0.282-3.109,0.853-3.992c0.567-0.882,1.438-1.324,2.609-1.324c0.475,0,0.904,0.076,1.286,0.228c0.385,0.149,0.712,0.365,0.979,0.647c0.269,0.283,0.475,0.625,0.623,1.031c0.146,0.402,0.219,0.855,0.219,1.359v0.209h-1.424c-0.021-0.732-0.17-1.284-0.453-1.652c-0.283-0.371-0.674-0.557-1.168-0.557c-0.369,0-0.683,0.082-0.933,0.248c-0.251,0.164-0.451,0.416-0.603,0.754c-0.15,0.34-0.26,0.77-0.323,1.285c-0.066,0.52-0.101,1.131-0.101,1.836c0,0.713,0.033,1.334,0.101,1.855c0.063,0.524,0.173,0.957,0.321,1.297s0.352,0.592,0.602,0.756c0.251,0.164,0.563,0.246,0.93,0.246c0.534,0,0.947-0.221,1.234-0.658c0.29-0.44,0.445-1.094,0.477-1.957H194.138L194.138,49.119z"/>
<path fill="#1A1A1A" d="M196.167,42.798c0-0.614,0.092-1.161,0.271-1.644c0.182-0.481,0.434-0.889,0.754-1.219c0.32-0.332,0.698-0.584,1.137-0.76c0.437-0.175,0.906-0.261,1.418-0.261c0.621,0,1.142,0.104,1.563,0.313s0.761,0.472,1.021,0.785c0.256,0.313,0.441,0.654,0.553,1.023c0.111,0.371,0.17,0.713,0.17,1.025c0,0.887-0.199,1.61-0.598,2.172c-0.396,0.562-0.965,0.914-1.697,1.063c0.896,0.133,1.572,0.501,2.031,1.104c0.461,0.604,0.689,1.401,0.689,2.392c0,0.664-0.075,1.257-0.229,1.778c-0.154,0.523-0.39,0.966-0.696,1.324c-0.312,0.359-0.696,0.633-1.156,0.821c-0.459,0.19-0.993,0.284-1.601,0.284c-0.563,0-1.067-0.072-1.506-0.219c-0.439-0.146-0.811-0.389-1.109-0.723c-0.335-0.355-0.588-0.813-0.76-1.371c-0.17-0.559-0.256-1.205-0.256-1.937V42.798L196.167,42.798z M199.794,51.65c0.742,0,1.279-0.234,1.615-0.709c0.336-0.473,0.504-1.17,0.504-2.096c0-0.916-0.197-1.619-0.594-2.105c-0.395-0.486-1.051-0.729-1.972-0.729h-1.144v-1.267h0.983c0.386,0,0.724-0.037,1.017-0.114c0.293-0.075,0.539-0.2,0.737-0.375c0.198-0.173,0.351-0.401,0.449-0.688c0.103-0.284,0.153-0.639,0.153-1.063c0-0.326-0.028-0.631-0.084-0.912c-0.059-0.281-0.158-0.525-0.306-0.734c-0.147-0.207-0.345-0.373-0.594-0.493c-0.248-0.121-0.565-0.183-0.951-0.183c-0.612,0-1.104,0.232-1.468,0.699c-0.362,0.467-0.547,1.125-0.547,1.975v5.984C197.601,50.715,198.333,51.65,199.794,51.65z"/>
<path fill="#1A1A1A" d="M211.509,52.797c-0.133,0.018-0.262,0.025-0.389,0.025c-0.41,0-0.731-0.127-0.967-0.383c-0.232-0.254-0.361-0.619-0.392-1.094c-0.209,0.537-0.521,0.942-0.937,1.219c-0.414,0.277-0.906,0.414-1.478,0.414c-0.739,0-1.315-0.25-1.729-0.748s-0.621-1.201-0.621-2.107c0-0.529,0.063-0.973,0.188-1.323c0.125-0.353,0.313-0.649,0.563-0.89c0.252-0.242,0.569-0.446,0.951-0.619c0.385-0.17,0.84-0.34,1.362-0.506c0.298-0.104,0.552-0.194,0.759-0.268c0.205-0.074,0.372-0.152,0.502-0.242c0.129-0.086,0.221-0.188,0.276-0.303c0.055-0.115,0.084-0.26,0.084-0.435v-0.963c0-0.433-0.128-0.74-0.384-0.927c-0.254-0.185-0.639-0.276-1.155-0.276s-0.899,0.131-1.149,0.394c-0.25,0.26-0.377,0.674-0.377,1.238v0.167h-1.351c0.021-1.039,0.272-1.801,0.752-2.28c0.479-0.48,1.243-0.724,2.287-0.724c0.969,0,1.68,0.22,2.131,0.66c0.452,0.438,0.679,1.146,0.679,2.112v5.996c0,0.258,0.047,0.445,0.137,0.562c0.093,0.114,0.244,0.172,0.461,0.172c0.035,0,0.068,0,0.105,0c0.041,0,0.082-0.006,0.125-0.021v1.088C211.789,52.761,211.643,52.779,211.509,52.797z M209.003,47.664c-0.272,0.111-0.59,0.229-0.946,0.355c-0.274,0.098-0.513,0.196-0.718,0.297c-0.203,0.102-0.373,0.229-0.504,0.377c-0.135,0.15-0.233,0.338-0.301,0.562c-0.066,0.224-0.103,0.506-0.103,0.849c0,0.517,0.11,0.914,0.337,1.191c0.227,0.279,0.545,0.419,0.96,0.419c0.294,0,0.563-0.056,0.8-0.167c0.237-0.111,0.445-0.273,0.615-0.486c0.173-0.213,0.307-0.475,0.398-0.785c0.097-0.31,0.145-0.659,0.145-1.051v-2.031C209.507,47.396,209.278,47.553,209.003,47.664z"/>
<path fill="#1A1A1A" d="M218.348,46.48v-4.008h1.502v10.245h-1.569v-5.075h-3.412v5.075h-1.434V42.475h1.502v4.008h3.411V46.48z"/>
<path fill="#1A1A1A" d="M227.134,51.391c-0.194,0.517-0.512,0.914-0.95,1.191c-0.438,0.279-0.972,0.418-1.599,0.418c-0.861,0-1.479-0.215-1.849-0.648c-0.368-0.432-0.556-1.102-0.556-2.009v-7.868h1.436v7.928c0,0.421,0.104,0.748,0.313,0.98c0.21,0.234,0.504,0.352,0.882,0.352c0.681,0,1.224-0.211,1.628-0.635c0.406-0.423,0.607-1.029,0.607-1.817v-6.808h1.436v10.244h-1.35v-1.328H227.134z"/>
<path fill="#1A1A1A" d="M235.212,52.719v-4.604h-0.533c-0.404,0-0.742,0.027-1.01,0.082c-0.271,0.057-0.486,0.152-0.655,0.287c-0.166,0.137-0.292,0.317-0.376,0.545s-0.141,0.516-0.169,0.863c-0.034,0.481-0.08,0.885-0.136,1.209c-0.056,0.323-0.112,0.592-0.172,0.807c-0.062,0.213-0.119,0.379-0.181,0.502c-0.06,0.123-0.108,0.226-0.149,0.309h-1.718c0.052-0.098,0.11-0.221,0.185-0.371c0.074-0.149,0.148-0.352,0.229-0.602c0.08-0.252,0.16-0.563,0.235-0.932c0.077-0.371,0.146-0.826,0.21-1.371c0.033-0.293,0.095-0.551,0.186-0.77c0.086-0.22,0.217-0.406,0.391-0.56c0.176-0.154,0.402-0.275,0.682-0.367c0.277-0.09,0.624-0.149,1.035-0.179c-0.396-0.014-0.764-0.084-1.098-0.209c-0.336-0.125-0.627-0.299-0.875-0.519s-0.439-0.481-0.58-0.784c-0.143-0.305-0.211-0.641-0.211-1.01c0-0.445,0.072-0.833,0.215-1.156c0.146-0.324,0.346-0.592,0.607-0.801c0.26-0.209,0.575-0.365,0.945-0.467c0.369-0.102,0.782-0.15,1.234-0.15h3.19v10.244h-1.481V52.719z M235.212,43.52h-0.846c-0.445,0-0.813,0.035-1.105,0.101s-0.525,0.168-0.703,0.305c-0.178,0.136-0.303,0.308-0.376,0.513c-0.073,0.207-0.11,0.453-0.11,0.737c0,0.56,0.17,0.994,0.502,1.31c0.334,0.313,0.893,0.471,1.68,0.471h0.959V43.52L235.212,43.52z"/>
<path fill="#1A1A1A" d="M238.812,42.475h1.359v1.244c0.558-0.982,1.459-1.475,2.699-1.475c0.58,0,1.049,0.125,1.405,0.375c0.361,0.252,0.61,0.619,0.75,1.1c0.31-0.494,0.687-0.865,1.138-1.109c0.447-0.243,0.969-0.364,1.563-0.364c0.843,0,1.479,0.211,1.908,0.633c0.431,0.422,0.645,1.043,0.645,1.867v7.975h-1.433v-7.065c0-0.361-0.021-0.678-0.06-0.945c-0.039-0.27-0.113-0.491-0.222-0.67c-0.108-0.178-0.255-0.311-0.442-0.396c-0.188-0.086-0.436-0.131-0.731-0.131c-0.313,0-0.603,0.053-0.856,0.156c-0.261,0.105-0.481,0.25-0.672,0.436c-0.188,0.185-0.335,0.402-0.438,0.658c-0.105,0.254-0.157,0.531-0.157,0.831v7.128h-1.433V45.59c0-0.704-0.11-1.227-0.328-1.568c-0.215-0.34-0.604-0.512-1.164-0.512c-0.307,0-0.59,0.049-0.85,0.146c-0.261,0.097-0.481,0.234-0.666,0.412c-0.188,0.178-0.33,0.391-0.434,0.639c-0.102,0.248-0.15,0.521-0.15,0.818v7.191h-1.434L238.812,42.475L238.812,42.475z"/>
<path fill="#1A1A1A" d="M258.61,52.797c-0.133,0.018-0.262,0.025-0.388,0.025c-0.41,0-0.732-0.127-0.967-0.383c-0.232-0.254-0.362-0.619-0.393-1.094c-0.209,0.537-0.521,0.942-0.936,1.219c-0.413,0.276-0.906,0.414-1.479,0.414c-0.738,0-1.316-0.25-1.729-0.748c-0.415-0.498-0.622-1.201-0.622-2.107c0-0.529,0.063-0.973,0.188-1.323c0.125-0.353,0.314-0.649,0.564-0.89c0.251-0.242,0.566-0.446,0.951-0.619c0.385-0.17,0.839-0.34,1.361-0.506c0.297-0.104,0.551-0.194,0.758-0.268c0.205-0.074,0.371-0.152,0.502-0.242c0.131-0.086,0.222-0.188,0.275-0.303c0.057-0.115,0.086-0.26,0.086-0.435v-0.963c0-0.433-0.129-0.74-0.384-0.927c-0.255-0.185-0.64-0.276-1.155-0.276c-0.517,0-0.898,0.131-1.149,0.394c-0.25,0.26-0.376,0.674-0.376,1.238v0.167h-1.352c0.021-1.039,0.271-1.801,0.752-2.28c0.479-0.48,1.242-0.724,2.287-0.724c0.967,0,1.68,0.22,2.131,0.66c0.451,0.438,0.68,1.146,0.68,2.112v5.996c0,0.258,0.046,0.445,0.137,0.562s0.244,0.172,0.46,0.172c0.035,0,0.067,0,0.104,0c0.041,0,0.082-0.006,0.125-0.021v1.088C258.888,52.761,258.744,52.779,258.61,52.797z M256.104,47.664c-0.272,0.111-0.59,0.229-0.946,0.355c-0.272,0.098-0.513,0.196-0.718,0.297c-0.203,0.102-0.372,0.229-0.504,0.377c-0.134,0.15-0.233,0.338-0.301,0.562c-0.066,0.224-0.103,0.506-0.103,0.849c0,0.517,0.111,0.914,0.338,1.191c0.226,0.279,0.545,0.419,0.959,0.419c0.295,0,0.563-0.056,0.801-0.167s0.445-0.273,0.615-0.486c0.174-0.213,0.305-0.475,0.399-0.785c0.097-0.31,0.144-0.659,0.144-1.051v-2.031C256.608,47.396,256.378,47.553,256.104,47.664z"/>
</svg>
