<?xml version="1.0" encoding="utf-8"?>
<svg version="1.1" xmlns="http://www.w3.org/2000/svg" xmlns:xlink="http://www.w3.org/1999/xlink" x="0px" y="0px" width="259.05px" height="70px" viewBox="0 0 259.05 70">
<path fill="#1A1A1A" d="M25.029,8.65c0.339,0,0.73,0.028,1.038,0.063c-0.227-0.219-0.64-0.482-1.258-0.555c0,0.005,0,0.01,0.002,0.015C24.834,8.347,24.921,8.545,25.029,8.65z M22.195,12.42c0.227,0,0.367-0.019,0.505-0.036c0.167-0.021,0.329-0.042,0.612-0.035c0.32,0.007,0.592-0.142,0.836-0.277c0.229-0.126,0.439-0.242,0.677-0.242c0.249-0.001,0.435,0.03,0.603,0.096v0.001c0.168,0.066,0.313,0.165,0.478,0.301c0.343,0.284,0.544,0.55,0.661,0.882c0.112,0.322,0.138,0.7,0.136,1.213c-0.009,1.321-0.16,2.03-0.35,2.412c-0.221,0.439-0.495,0.493-0.705,0.507c-0.004,0-1.584,0.118-2.337,0.01c-0.132-0.018-0.261-0.045-0.4-0.074c-0.095-0.02-0.199-0.04-0.331-0.063c-0.225-0.039-0.365-0.071-0.501-0.125c-0.136-0.053-0.262-0.125-0.456-0.246l0,0c-0.054-0.033-0.13-0.089-0.212-0.146c-0.138-0.097-0.296-0.204-0.378-0.204c-0.02,0-0.02,0.005-0.02,0.01c0,0.002-0.002,0.006-0.002,0.008c0.02,0.027,0.11,0.084,0.108,0.165c-0.004,0.134-0.011,0.299-0.03,0.478c-0.086,0.741-0.361,1.23-0.547,1.495c0.154-0.016,0.305-0.031,0.457-0.047c0.75-0.08,1.452-0.154,1.863-0.156c0.095-0.001,0.238,0.011,0.404,0.033c0.115,0.014,0.233,0.032,0.354,0.053s0.255,0.045,0.398,0.075c0.549,0.11,1.141,0.27,1.506,0.44c0.169-0.011,0.72-0.039,1.308-0.066c0.365-0.019,0.739-0.035,1.044-0.051c0.141-0.081,0.283-0.182,0.423-0.306c0.147-0.132,0.292-0.285,0.426-0.455c0.7-0.879,1.182-2.194,0.934-3.275l0.305-0.069c0.271,1.178-0.242,2.597-0.992,3.54c-0.149,0.185-0.305,0.352-0.465,0.495c-0.088,0.078-0.181,0.131-0.272,0.195c0.061,0.021,0.121,0.042,0.197,0.067c0.64,0.209,1.694,0.555,2.222,1.719c0.169,0.096,0.733,0.467,0.848,0.979c0.069,0.032,0.136,0.049,0.205,0.083c0.38,0.188,0.757,0.417,1.118,0.667c0.272-1.786-1.543-3.021-1.548-3.026l-0.454-0.308l0.547,0.022c0.73,0.029,1.193-0.04,1.526-0.169c0.326-0.127,0.541-0.321,0.77-0.54h0.002c0.484-0.459,0.657-1.039,0.716-1.324c-2.304,0.041-2.285-1.583-2.285-1.588v-0.174l0.173,0.019c1.684,0.173,2.319-1.002,2.503-1.47c-0.35-0.023-0.646-0.083-0.897-0.178c-0.312-0.118-0.553-0.29-0.742-0.519c-0.326-0.393-0.354-1.151-0.385-1.896c-0.008-0.233-0.017-0.466-0.037-0.695l-0.002-0.007l0.158-0.014l-0.004-0.156l0.028-0.001l0,0c0.099-0.001,0.201,0.001,0.302,0.006c0.037-0.096,0.086-0.179,0.147-0.267c0.169-0.234,0.404-0.566,0.4-1.742c0-0.822-0.16-1.343-0.244-1.564c-0.605,0.229-1.024,0.454-1.295,0.734c-0.285,0.296-0.426,0.667-0.493,1.188c-0.069,0.54-0.006,1.314-0.006,1.316l0.017,0.171l-0.17,0.001c-0.342,0-0.601-0.014-0.839-0.102c-0.242-0.09-0.454-0.251-0.689-0.541l0.244-0.198c0.197,0.242,0.365,0.374,0.553,0.444c0.158,0.057,0.337,0.077,0.562,0.081c-0.015-0.269-0.035-0.803,0.02-1.214c0.076-0.59,0.238-1.015,0.575-1.365c0.246-0.255,0.583-0.465,1.044-0.665c-0.283-0.04-0.659-0.077-1.135-0.077c-0.515,0.001-0.906,0.097-1.213,0.258c-0.3,0.159-0.523,0.383-0.7,0.641c-0.16,0.232-0.285,0.599-0.279,0.96c0.002,0.067,0.009,0.135,0.02,0.206c0.013,0.066,0.03,0.132,0.052,0.193l-0.03,0.012l-0.262,0.1v0.001l-0.002-0.002c-0.03-0.08-0.052-0.164-0.067-0.248c-0.013-0.081-0.022-0.167-0.024-0.253l0,0c-0.006-0.429,0.143-0.866,0.335-1.144c0.156-0.228,0.359-0.421,0.597-0.588c-0.244-0.02-0.486-0.037-0.744-0.049c-0.406-0.021-0.86-0.028-1.485-0.027c-0.811,0.001-1.993,0.063-2.888,0.118c-0.184,0.011-0.361,0.022-0.523,0.034c-0.151,0.009-0.29,0.019-0.408,0.028l-0.042,0.003C24.184,7.08,24.1,7.333,24.1,7.334l-0.108-0.039L23.98,7.324l-0.03-0.001l-0.004,0.115c-0.136-0.006-0.274-0.005-0.413,0.001c-0.441,0.021-0.871,0.109-1.215,0.264c-0.324,0.146-0.568,0.352-0.662,0.617c-0.028,0.08-0.041,0.166-0.041,0.257c0,0.234,0.13,0.399,0.203,0.475c0.218-0.05,0.378-0.1,0.5-0.142c0.227-0.078,0.372-0.128,0.713-0.104L23.01,9.12c-0.277-0.021-0.4,0.021-0.59,0.087c-0.143,0.049-0.322,0.11-0.614,0.171c-0.402,0.084-0.64,0.208-0.774,0.428c-0.143,0.233-0.188,0.589-0.197,1.122c-0.011,0.604,0.093,0.981,0.313,1.201C21.367,12.346,21.717,12.421,22.195,12.42z M24.432,7.924c0-0.001,0.132-0.388,0.348-0.568l0.201,0.24c-0.069,0.057-0.127,0.151-0.171,0.236c1.26,0.128,1.766,1.014,1.768,1.016l0.177,0.304L26.412,9.08c-0.253-0.053-0.899-0.119-1.409-0.118c-0.095,0-0.186,0.003-0.274,0.01c-0.08,0.005-0.151,0.014-0.208,0.026l-0.004,0.001l-0.065-0.307l0.004-0.001l0,0c0.061-0.012,0.134-0.02,0.209-0.026c-0.08-0.142-0.145-0.299-0.166-0.446c-0.004-0.03-0.004-0.061-0.007-0.091l-0.127-0.003L24.432,7.924z M6.182,9.91c0.309-0.053,0.971-0.23,1.319-0.812C7.38,8.824,6.792,7.772,5.037,8.305C5.46,8.556,6.137,9.081,6.182,9.91z M11.208,10.876c0.218,0.071,0.491,0.122,0.858,0.149c0.059-0.194,0.158-0.651,0.015-1.229c-0.054-0.221-0.147-0.477-0.363-0.701c-0.177-0.186-0.441-0.352-0.838-0.466c0.141,0.404,0.294,1.172-0.127,2.02C10.881,10.741,11.026,10.816,11.208,10.876z M16.059,13.499c0.182,0.313,0.445,0.55,0.8,0.722c0.607,0.293,1.267,0.458,1.969,0.547c0.711,0.092,1.468,0.109,2.257,0.107c0.206,0,0.424-0.013,0.642-0.025c0.809-0.045,1.649-0.094,2.579,0.411c1.113,0.604,1.392,1.313,1.463,1.641c0.102-0.034,0.208-0.11,0.305-0.304c0.13-0.26,0.24-0.7,0.29-1.44c-0.288-0.002-0.852-0.048-1.232-0.335v-0.001l-0.167-0.126v0.001c-0.428-0.325-0.743-0.537-1.509-0.535c-0.488,0.001-0.618,0.07-0.75,0.139c-0.162,0.086-0.324,0.173-0.879,0.174c-0.329,0-0.675-0.002-0.995-0.022c-0.329-0.02-0.638-0.056-0.888-0.122c-0.601-0.159-1.098-0.419-1.498-0.737c-0.08-0.064-0.156-0.128-0.225-0.191c-0.072-0.068-0.141-0.135-0.201-0.202L18.017,13.2c-0.322-0.35-0.454-0.906-0.402-1.462c0.011-0.107,0.028-0.214,0.052-0.32c0.024-0.107,0.054-0.211,0.089-0.313v-0.001l0.004-0.008v0.001c0.114-0.315,0.311-0.686,0.443-0.92c-0.021,0.001-0.043,0.001-0.065,0.003c-0.51,0.037-1.096,0.228-1.563,0.557c-0.456,0.32-0.8,0.771-0.841,1.333c-0.004,0.077-0.007,0.154,0,0.234C15.769,12.786,15.873,13.181,16.059,13.499z M2.447,14.26c-0.106,0.39-0.045,0.926,0.196,1.4c0.108,0.212,0.253,0.41,0.433,0.574c0.177,0.165,0.389,0.295,0.638,0.375c0.512,0.165,1.182,0.114,2.019-0.313l0.141,0.278c-0.666,0.341-1.241,0.457-1.731,0.425c-0.106,0.237-0.182,0.483-0.212,0.744C3.902,18,3.923,18.276,3.993,18.565c0.268,0.067,0.865,0.372,0.759,1.686c0.02,0.013,0.032,0.024,0.056,0.037c0.052,0.029,0.112,0.06,0.179,0.089c0.071,0.03,0.147,0.061,0.229,0.09l0,0c0.368,0.129,0.837,0.234,1.237,0.233c0.19,0,0.374-0.023,0.542-0.064c0.51-0.122,0.918-0.407,1.219-0.744c0.302-0.336,0.495-0.723,0.57-1.046c0.024-0.105,0.037-0.201,0.037-0.284c0-0.089-0.006-0.182-0.019-0.273c-0.004-0.045-0.013-0.092-0.022-0.14c-0.008-0.044-0.017-0.088-0.028-0.132c-0.037-0.156-0.084-0.281-0.127-0.339l0.249-0.188c0.069,0.092,0.136,0.259,0.184,0.454c0.011,0.046,0.021,0.097,0.032,0.149c0.009,0.05,0.018,0.103,0.024,0.157c0.013,0.104,0.021,0.209,0.021,0.313c0,0.109-0.015,0.229-0.045,0.355c-0.061,0.257-0.208,0.543-0.391,0.824c0.216,0.144,0.625,0.33,1.12,0.552c1.243,0.558,2.925,1.32,3.346,2.287c0.043-0.021,0.091-0.049,0.134-0.069c0.125-0.061,0.244-0.113,0.35-0.154c0.028-0.011,0.05-0.015,0.078-0.024c-0.354-0.53-0.437-1.218-0.447-1.644c-0.752-0.187-1.719-0.736-2.475-1.334c-0.158-0.124-0.303-0.249-0.435-0.369c-0.134-0.124-0.255-0.247-0.361-0.365l-0.002-0.001l0.234-0.21l0.002,0.002v0.001c0.1,0.112,0.214,0.227,0.341,0.344c0.13,0.119,0.268,0.239,0.413,0.354c0.705,0.557,1.586,1.061,2.285,1.253c0.002-0.039,0.004-0.067,0.004-0.067l0.011-0.156l0.156,0.011c0.787,0.054,1.545,0.053,2.27,0.014c-0.209-0.214-0.37-0.446-0.441-0.718c-0.093-0.361-0.076-0.771,0.011-1.246l0.035-0.193l0.182,0.078c0.002,0.001,0.67,0.288,1.66,0.467c-0.305-0.116-0.618-0.243-0.94-0.392l0,0c-0.203-0.094-0.411-0.194-0.618-0.299c-0.203-0.104-0.406-0.212-0.61-0.325l-0.052-0.028l0,0c-0.917-0.514-1.859-1.129-2.609-1.72c-0.143-0.114-0.283-0.228-0.417-0.344c-0.13-0.114-0.253-0.224-0.363-0.332l-0.153-0.133l0.175-0.113c0.467-0.305,0.811-0.602,1.033-0.94c0.221-0.332,0.327-0.709,0.324-1.178c0-0.454-0.149-0.802-0.367-1.055c-0.048-0.055-0.1-0.106-0.151-0.152c-0.054-0.046-0.11-0.089-0.168-0.126c-0.042-0.028-0.084-0.05-0.125-0.072c-0.433-0.027-0.757-0.083-1.014-0.167c-0.175-0.058-0.316-0.132-0.448-0.215c-0.009,0.114-0.011,0.238-0.009,0.387c0.013,0.477,0.028,1.137-0.324,2.165l-0.296-0.101c0.333-0.978,0.32-1.605,0.309-2.057c-0.006-0.249-0.011-0.45,0.039-0.637c-0.245-0.397-0.539-0.775-0.947-1.044C9.022,9.401,8.482,9.24,7.754,9.268c-0.486,0.79-1.436,0.946-1.665,0.97c-0.253,0.181-0.417,0.359-0.501,0.587c-0.082,0.22-0.097,0.513-0.074,0.892c0.11,0.029,0.221,0.06,0.337,0.081c0.257,0.047,0.486,0.212,0.729,0.48c0.227,0.25,0.469,0.592,0.765,1.016l-0.255,0.18c-0.292-0.415-0.528-0.749-0.742-0.985c-0.197-0.218-0.372-0.35-0.553-0.382l0,0c-0.192-0.036-0.357-0.08-0.521-0.125c-0.292-0.078-0.592-0.159-1.031-0.186c-0.272-0.016-0.484,0.02-0.666,0.129c-0.182,0.107-0.346,0.295-0.523,0.568C3.314,13.648,2.672,14.132,2.447,14.26z M31.077,6.438l-0.033-0.776c-0.164-0.051-0.484-0.148-0.657-0.195c-0.525-0.144-1.091-0.125-1.811-0.102c-0.29,0.008-0.605,0.019-0.958,0.021c-0.212,0-0.433-0.002-0.655-0.004c-0.953-0.01-1.973-0.02-2.65,0.179l0,0c-0.03,0.009-0.061,0.019-0.089,0.028c0.004,0.219,0.015,0.693,0.02,0.991l0,0c0.11-0.008,0.249-0.018,0.411-0.029l0,0c0.154-0.01,0.329-0.022,0.523-0.034c0.897-0.055,2.082-0.116,2.907-0.118c0.633-0.001,1.094,0.007,1.5,0.027c0.406,0.02,0.765,0.049,1.193,0.087l-0.002,0.033C30.874,6.509,30.964,6.466,31.077,6.438z M25.463,3.265c0.002,0.307,0.134,0.594,0.266,0.886c0.132,0.285,0.246,0.583,0.281,0.918c0.318-0.004,0.64-0.004,0.958-0.001c0.223,0.002,0.441,0.004,0.651,0.003c0.013,0,0.021,0,0.034,0l-0.004-2.258c-0.288-0.072-1.081-0.209-1.31-0.248c-0.052,0.044-0.102,0.089-0.165,0.125c-0.088,0.05-0.177,0.092-0.268,0.135C25.684,2.934,25.463,3.052,25.463,3.265z M27.443,1.607l-0.002,0.052l-0.002,0.013c-0.009,0.148-0.052,0.323-0.091,0.485c-0.021,0.089-0.041,0.175-0.056,0.25c0,0,1.046,0.025,1.089,0.011c-0.045-0.271-0.138-0.742-0.14-0.743L28.23,1.622h0.054c0.11,0,0.718,0.094,0.893,0.121l0.007-0.93c-0.216,0.024-0.88,0.124-0.882,0.124l-0.047,0.008v-0.05c0-0.144,0.089-0.722,0.117-0.893L27.301,0c0.039,0.227,0.141,0.883,0.141,0.885L27.45,0.94l-0.056-0.008C27.1,0.892,26.648,0.823,26.501,0.8c-0.002,0.254-0.004,0.781-0.004,0.945l0.897-0.131L27.443,1.607z M24.225,5.26c0.411-0.121,0.928-0.166,1.472-0.183c-0.035-0.279-0.134-0.542-0.25-0.796c-0.149-0.322-0.294-0.641-0.294-1.016c-0.002-0.4,0.307-0.57,0.618-0.721c0.078-0.038,0.155-0.075,0.225-0.112c-0.1-0.046-0.192-0.102-0.296-0.133c-0.057-0.017-0.11-0.032-0.16-0.044c-0.047-0.011-0.102-0.021-0.158-0.032c-0.139-0.025-0.266-0.037-0.37-0.037c-0.435,0.001-0.834,0.172-1.074,0.481c-0.052,0.068-0.095,0.142-0.13,0.22c-0.037,0.079-0.063,0.167-0.08,0.261c-0.013,0.077-0.021,0.159-0.021,0.244c0.002,0.889,0.309,1.625,0.439,1.896C24.171,5.278,24.197,5.269,24.225,5.26z M29.607,5.043c0.03-0.354,0.136-0.657,0.26-0.949c0.125-0.302,0.25-0.601,0.25-0.947c0-0.148-0.272-0.281-0.53-0.404c-0.188-0.091-0.352-0.188-0.467-0.305c-0.03,0.011-0.058,0.018-0.088,0.03c-0.316,0.117-0.664,0.24-1.07,0.341l0.004,2.255c0.203-0.003,0.417-0.007,0.601-0.012C28.95,5.04,29.29,5.03,29.607,5.043z M30.429,3.147c0.002,0.411-0.136,0.739-0.275,1.069c-0.112,0.269-0.212,0.545-0.235,0.852c0.186,0.02,0.372,0.047,0.551,0.097c0.188,0.051,0.499,0.146,0.661,0.197c0.173-0.257,0.672-1.078,0.67-1.924c0-0.173-0.022-0.324-0.063-0.456c-0.078-0.258-0.225-0.445-0.4-0.578c-0.177-0.134-0.385-0.213-0.583-0.25c-0.1-0.019-0.197-0.027-0.285-0.027c-0.365,0-0.688,0.089-1.012,0.197c0.076,0.044,0.171,0.09,0.266,0.137C30.065,2.626,30.429,2.802,30.429,3.147z M4.142,62.516c-0.29,0.082-0.51,0.219-0.696,0.354l0,0c-0.614,0.444-0.458,1.188-0.35,1.516c0.259-0.135,0.547-0.228,0.869-0.269c0.354-0.044,0.75-0.026,1.189,0.066c0.413-0.908,0.156-1.521,0.059-1.701C4.764,62.408,4.418,62.438,4.142,62.516z M33.396,60.42c0.657-0.145,1.176,0.157,1.383,0.305c0.147-0.119,0.441-0.429,0.441-1.006c-0.002-0.316-0.076-0.492-0.119-0.57c-0.249-0.026-0.484-0.039-0.705-0.023c-0.549,0.023-1.005,0.178-1.336,0.42c-0.32,0.23-0.521,0.555-0.573,0.93c-0.006,0.035-0.008,0.072-0.011,0.108C32.683,60.553,33.04,60.499,33.396,60.42L33.396,60.42z M32.793,64.75c-0.255,0.445-0.234,1.016-0.195,1.332c0.348-0.239,1.066-0.68,1.625-0.682c0.167,0,0.486,0.059,0.672,0.095c0.086-0.313,0.233-1.155-0.478-1.742C34.174,63.787,33.243,63.965,32.793,64.75z M37.802,67.436c-0.201-0.166-0.424-0.24-0.597-0.252c-0.056-0.004-0.104,0-0.143,0.006c-0.102,0.023-0.337,0.233-0.58,0.571c-0.052,0.072-0.102,0.147-0.147,0.22c-0.047,0.08-0.093,0.162-0.136,0.25l-0.004,0.013c-0.147,0.298-0.199,0.602-0.17,0.918c0.021,0.261,0.097,0.528,0.216,0.813c0.24-0.246,0.707-0.695,1.098-0.891c0.296-0.148,0.759-0.218,0.99-0.244c0.004-0.222-0.013-0.417-0.052-0.586C38.19,67.867,38.009,67.604,37.802,67.436zM27.809,58.298c-0.877-0.563-2.384-1.25-2.389-1.252l-0.168-0.077l0.106-0.154c0.067-0.098,0.143-0.197,0.221-0.306c0.346-0.464,0.73-0.983,0.73-1.757c-0.002-0.314-0.043-0.564-0.184-0.789c-0.141-0.23-0.389-0.445-0.795-0.688c-0.387-0.229-0.807-0.354-1.271-0.426c-0.476-0.07-0.995-0.084-1.565-0.084c-1.07,0.002-2.036-0.514-2.57-1.302c-0.112-0.164-0.206-0.341-0.279-0.526c-0.071-0.188-0.123-0.389-0.147-0.588c-0.013-0.1-0.02-0.199-0.02-0.308c-0.002-0.774,0.125-1.444,0.705-2.011c0.56-0.549,1.543-0.979,3.255-1.278c0.48-0.085,1.178-0.037,1.824,0.013c0.151,0.01,0.292,0.02,0.424,0.024c-0.48-0.438-0.888-0.951-1.148-1.465c-0.069-0.142-0.129-0.278-0.179-0.417c-0.05-0.145-0.086-0.28-0.11-0.413c-0.021-0.118-0.032-0.236-0.032-0.354c0-0.519,0.063-1.047,0.17-1.478c0.024-0.095,0.052-0.187,0.08-0.272c0.03-0.084,0.061-0.166,0.095-0.24c0.032-0.066,0.065-0.129,0.097-0.182c0.154-0.248,0.389-0.474,0.586-0.673c0.168-0.169,0.307-0.312,0.307-0.373c0-0.024-0.011-0.047-0.011-0.071c-0.438-0.149-0.923-0.25-1.509-0.272c-0.64-0.024-1.388,0.026-2.291,0.172l-0.002,0.001h-0.006c-0.423,0.064-0.94,0.081-1.457,0.098c-0.547,0.015-1.094,0.026-1.518,0.104c-0.774,0.145-1.451,0.294-2.084,0.479c-0.633,0.187-1.226,0.402-1.835,0.683c-1.366,0.622-2.231,1.26-2.851,1.94c-0.621,0.682-1.003,1.412-1.403,2.221l0,0v0.002c-0.041,0.078-0.108,0.175-0.206,0.279c-0.091,0.102-0.208,0.213-0.348,0.332c-0.711,0.598-2.056,1.375-3.759,1.616c-0.785,0.112-1.323,0.188-1.779,0.126c-0.372-0.047-0.679-0.183-0.994-0.447c0.021,0.683,0.294,2.254,2.259,3.234l0.008,0.004l0,0c0.231,0.115,0.467,0.211,0.705,0.29c0.236,0.077,0.476,0.138,0.718,0.179c1.243,0.211,2.536-0.061,3.807-0.758l0.182-0.1l0.047,0.201c0,0.002,0.212,0.979,0.679,1.449c0.912,0.918,1.704,1.652,2.698,2.211c0.994,0.562,2.201,0.94,3.947,1.151l0.147,0.021l-0.011,0.146c0,0.004-0.052,1.234-1.658,3.056c-0.069,0.082-0.147,0.162-0.227,0.241c-0.13,0.127-0.268,0.25-0.415,0.365c-0.145,0.116-0.298,0.228-0.456,0.326c-0.75,0.479-1.619,0.786-2.399,0.788c-0.486,0.002-0.826-0.065-1.091-0.313c-0.255-0.237-0.426-0.633-0.577-1.289c-0.124-0.521-0.253-0.872-0.495-1.104c-0.247-0.237-0.621-0.379-1.23-0.496l-0.004-0.001c-0.073-0.017-0.147-0.021-0.218-0.027c-0.069-0.003-0.138-0.002-0.206,0.005c-0.32,0.021-0.568,0.141-0.683,0.283c-0.067,0.18-0.51,1.194-1.721,1.393c-0.238,0.179-0.38,0.345-0.456,0.535c-0.065,0.166-0.082,0.366-0.082,0.604c0.415-0.06,0.787-0.045,1.147,0.067c0.5,0.158,0.975,0.496,1.53,1.08l-0.227,0.215C8.7,61.4,8.266,61.086,7.821,60.945c-0.441-0.137-0.906-0.108-1.485,0.035l0,0c-1.042,0.254-0.901,1.174-0.878,1.299c0.084,0.136,0.512,0.934-0.065,2.115c-0.049,0.35,0.076,0.793,0.275,1.154c0.192,0.355,0.449,0.635,0.672,0.669l0,0l0.004,0.001c0.045,0.008,0.149-0.064,0.149-0.064v0.003l0.002-0.003c0.033-0.023,0.05-0.217,0.074-0.479c0.056-0.63,0.14-1.585,0.934-2.193h0.002l0.004-0.004c0.1-0.076,0.216-0.146,0.342-0.205c0.125-0.062,0.261-0.107,0.402-0.147c0.722-0.202,1.665-0.169,2.456,0.157l-0.119,0.29c-0.727-0.3-1.589-0.33-2.252-0.146c-0.127,0.036-0.247,0.08-0.354,0.132c-0.104,0.049-0.201,0.105-0.285,0.17l-0.004,0.004c-0.683,0.527-0.761,1.398-0.813,1.977c-0.021,0.229-0.037,0.412-0.088,0.544c0.037,0.033,0.073,0.091,0.112,0.14c0.058-0.054,0.112-0.117,0.171-0.158c0.188-0.131,0.382-0.205,0.547-0.207c0.104,0,0.214,0.025,0.322,0.082c0.151,0.072,0.303,0.199,0.43,0.365c0.125,0.16,0.231,0.365,0.296,0.604c0.043,0.156,0.067,0.326,0.069,0.507c0,0.108-0.011,0.215-0.026,0.315c-0.004,0.026-0.011,0.063-0.02,0.096c-0.013,0.066-0.03,0.126-0.05,0.18c-0.021,0.059-0.047,0.109-0.075,0.153c0.011,0.013,0.015,0.026,0.026,0.038v0.002c0.049,0.061,0.11,0.123,0.184,0.188c0.071,0.063,0.151,0.125,0.24,0.186l0,0c0.417,0.275,0.988,0.486,1.524,0.486c0.091,0,0.186-0.012,0.286-0.03c0.093-0.021,0.19-0.048,0.287-0.081c0.098-0.036,0.197-0.085,0.298-0.141c0.424-0.229,0.843-0.627,1.165-1.164c-0.264-0.346-0.335-0.674-0.335-1.024c0-0.095,0.009-0.196,0.026-0.306c0.013-0.067,0.028-0.145,0.045-0.215c0.02-0.076,0.041-0.15,0.065-0.225c0.102-0.311,0.257-0.621,0.445-0.828l0.231,0.211c-0.156,0.174-0.29,0.441-0.378,0.715c-0.024,0.069-0.043,0.137-0.058,0.2c-0.018,0.065-0.03,0.13-0.042,0.19c-0.015,0.094-0.021,0.179-0.021,0.252c0,0.291,0.056,0.559,0.27,0.84c0.227,0.297,0.627,0.613,1.314,0.988c0.527,0.289,1.059,0.168,1.563,0.045c0.008-0.07,0.011-0.141,0.032-0.211l0,0c0.078-0.256,0.242-0.524,0.497-0.732c0.253-0.205,0.595-0.348,1.027-0.35c0.167,0,0.354,0.037,0.547,0.084c0.153-0.196,0.298-0.477,0.394-0.781c0.021-0.075,0.043-0.154,0.061-0.236c0.017-0.078,0.032-0.158,0.041-0.236c0.011-0.092,0.017-0.182,0.017-0.262c0-0.332-0.143-0.615-0.318-0.844c-0.184-0.236-0.402-0.415-0.54-0.525c-0.271-0.213-1.185-0.563-1.187-0.564l-0.296-0.109l0.268-0.169c0.633-0.397,1.299-0.546,1.98-0.493c0.642,0.049,1.295,0.27,1.943,0.606c0.225-0.199,0.89-0.813,1.602-1.752l0.061-0.08l0.097,0.021c0.009,0.002,2.736,0.59,3.024,2.494c0.286,0.038,1.126,0.041,1.937-1.017c0.279-0.367,0.296-1.22,0.24-1.747c-0.011-0.104-0.024-0.191-0.039-0.266c-0.013-0.062-0.026-0.104-0.034-0.118h-0.002c-0.305-0.533-1.135-1.104-1.95-1.466c-0.156-0.068-0.315-0.133-0.473-0.188c-0.156-0.054-0.303-0.097-0.439-0.126l-0.002-0.001l0.067-0.306h0.002c0.154,0.034,0.313,0.079,0.474,0.136c0.16,0.055,0.329,0.121,0.499,0.196c0.867,0.387,1.757,1.006,2.097,1.597v0.002l0,0c0.026,0.044,0.05,0.117,0.067,0.208c0.006,0.022,0.011,0.063,0.015,0.093c0.302-0.097,0.577-0.22,0.773-0.406c0.221-0.215,0.354-0.51,0.354-0.92c-0.002-0.475-0.045-0.86-0.162-1.177C28.265,58.709,28.085,58.477,27.809,58.298zM51.378,62.572c-0.48-0.271-1.502-0.313-1.829-0.32c-0.084,0.207-0.268,0.723-0.268,1.278c0,0.084,0.011,0.17,0.032,0.254v0.001c0.011,0.043,0.024,0.084,0.039,0.123h0.002c0.033,0.081,0.078,0.162,0.136,0.242c0.037,0.051,0.082,0.102,0.132,0.146c0.175-0.105,0.551-0.279,1.148-0.281c0.605-0.002,0.994,0.154,1.219,0.295C52.022,63.848,51.999,62.92,51.378,62.572zM51.904,47.71c-0.307,0.029-0.679,0.063-1.146,0.132c-1.958,0.288-2.438,1.203-2.438,1.205l-0.294,0.543l-0.002-0.617c-0.002-0.783-0.356-1.658-1.029-2.168c-0.138-0.104-0.292-0.195-0.456-0.266C46.372,46.47,46.193,46.42,46,46.395c-0.102-0.013-0.206-0.021-0.313-0.021c-0.354,0.001-0.899,0.235-1.412,0.556c-0.132,0.082-0.259,0.172-0.38,0.262c-0.121,0.092-0.236,0.187-0.344,0.279c-0.106,0.096-0.203,0.19-0.285,0.283c-0.467,0.523-0.791,0.86-1.172,1.073c-0.385,0.215-0.811,0.295-1.474,0.297c-0.873,0.002-1.515-0.258-1.986-0.87c-0.458-0.592-0.746-1.511-0.923-2.841c-0.225-1.681-0.422-2.654-0.724-3.453c-0.301-0.794-0.711-1.428-1.355-2.422l0.257-0.179c0.004,0.006,1.407,1.992,5.248,1.979c1.165-0.003,2.406-0.36,3.502-0.934c0.227-0.118,0.445-0.244,0.655-0.378c0.21-0.135,0.413-0.272,0.605-0.422c0.067-0.053,0.138-0.105,0.209-0.168c0.629-0.514,1.187-1.135,1.589-1.916c0.402-0.777,0.646-1.725,0.644-2.877c-0.004-1.499-0.097-1.867-0.409-3.076l0,0l-0.091-0.359c-0.27-1.066-0.575-2.258-0.895-3.457c-0.327-1.22-0.677-2.486-1.048-3.717c-0.607-2.018-1.165-4.011-1.569-5.877c-0.409-1.871-0.664-3.618-0.668-5.139c-0.004-2.001,0.331-2.684,0.664-3.317l0.043-0.085l0,0c0.342-0.649,0.677-1.075,1.079-1.343c0.404-0.27,0.867-0.373,1.459-0.374c1.333-0.003,2.025,0.286,2.373,0.709c0.316,0.386,0.337,0.863,0.294,1.334c0.329-0.017,0.77-0.03,1.228-0.04c0.469-0.01,0.94-0.019,1.299-0.023c-0.004-0.293-0.028-0.57-0.069-0.831c-0.041-0.262-0.102-0.507-0.175-0.735C51.48,7.18,50.689,6.467,49.632,6.15c-0.141-0.042-0.285-0.081-0.435-0.114c-0.249-0.055-0.519-0.101-0.806-0.133c-0.288-0.034-0.586-0.053-0.886-0.059c-1.433-0.021-3.022,0.283-4.146,1.138h0.002c-0.893,0.68-1.451,1.573-1.786,2.578c-0.337,1.016-0.447,2.15-0.443,3.296c0.004,1.876,0.32,3.871,0.785,5.894c0.465,2.022,1.081,4.081,1.686,6.079v0.002v0.001c0.48,1.59,0.88,3.138,1.258,4.606c0.11,0.419,0.214,0.828,0.335,1.287l0.067,0.251c0.298,1.125,0.489,1.848,0.493,3.523c0,0.276-0.02,0.534-0.057,0.776c-0.22,1.409-1.042,2.282-1.984,2.812c-0.932,0.522-1.982,0.713-2.685,0.761c-0.121,0.006-0.233,0.01-0.335,0.01c-0.099,0.002-0.197-0.002-0.29-0.008c-0.313-0.02-0.623-0.068-0.923-0.149c-0.303-0.081-0.597-0.193-0.88-0.332c-1.392-0.683-2.568-2.028-3.281-3.782c-0.015-0.038-0.03-0.08-0.047-0.126v-0.001c-0.409-1.083-0.493-2.392-0.573-3.631c-0.019-0.274-0.037-0.545-0.058-0.822c-0.108-0.137-0.214-0.266-0.318-0.386c-0.24-0.274-0.484-0.524-0.73-0.75c-0.242-0.224-0.489-0.424-0.73-0.6c-1.163-0.845-2.285-1.172-3.111-1.169c-2.172,0.004-4.485,2.068-4.492,2.074l-0.143,0.124l-0.095-0.161c-0.03-0.048-0.061-0.103-0.088-0.167c-0.026-0.06-0.052-0.126-0.076-0.199c-0.104-0.324-0.151-0.794-0.112-1.36c-0.564,0.02-1.369,0.38-2.278,0.8c-0.271,0.125-0.551,0.255-0.848,0.385l-0.015,0.006c-1.033,0.453-2.036,0.696-2.959,0.79c-0.179,0.018-0.359,0.03-0.534,0.038c-0.173,0.006-0.344,0.009-0.513,0.005l-0.032-0.001l0,0c-0.009,0-0.017-0.004-0.026-0.005c-0.86,0.583-2.462,1.272-3.833,1.863L13.463,31.4l-0.002-0.001c-0.039,0.017-0.203,0.126-0.452,0.29c-0.722,0.476-2.131,1.404-3.528,2.061l-0.015,0.006l-0.235,0.11l0.013-0.259c0-0.004,0.102-1.479-1.014-2.572c-0.662-0.65-1.262-0.585-1.978-0.507c-0.082,0.008-0.162,0.016-0.24,0.023c-0.251,1.051-1.178,1.079-1.446,1.062c-0.259,0.209-0.393,0.412-0.443,0.601c-0.041,0.162-0.026,0.319-0.002,0.466c0.067-0.004,0.13-0.018,0.201-0.018c0.104,0,0.203,0.004,0.296,0.012C4.812,32.689,5,32.722,5.184,32.77c0.182,0.047,0.357,0.109,0.525,0.184v-0.001c0.802,0.355,1.414,0.998,1.68,1.701l-0.294,0.11c-0.238-0.628-0.787-1.203-1.513-1.523V33.24c-0.149-0.067-0.309-0.123-0.476-0.167C4.944,33.031,4.773,33,4.594,32.985C4.5,32.978,4.41,32.974,4.323,32.974c-0.718,0.002-1.286,0.227-1.612,0.608c-0.067,0.079-0.125,0.164-0.171,0.255c-0.045,0.092-0.082,0.19-0.104,0.293c-0.013,0.056-0.021,0.117-0.026,0.18c0.015,0.078,0.045,0.215,0.074,0.375c0.032,0.178,0.061,0.375,0.063,0.515c0,0.575-0.173,0.851-0.281,0.972c0.011,0.053,0.02,0.104,0.037,0.156c0.021,0.079,0.047,0.156,0.076,0.229c0.132,0.344,0.346,0.668,0.614,0.873c0.288-0.335,0.674-0.615,1.135-0.795c0.301-0.115,0.625-0.191,0.962-0.222l0.026,0.313c-0.309,0.023-0.603,0.097-0.873,0.197c-0.447,0.176-0.823,0.44-1.078,0.768c-0.246,0.314-0.38,0.689-0.346,1.095c0.011,0.127,0.047,0.259,0.093,0.391c0.16,0.069,0.351,0.193,0.521,0.374c0.039,0.041,0.076,0.084,0.11,0.129c0.037,0.045,0.071,0.092,0.102,0.146l0,0l0.002,0.004c0.19,0.302,0.158,1.083,0.145,1.306c0.041,0.057,0.084,0.107,0.13,0.156v0.001c0.073,0.077,0.155,0.146,0.244,0.217c0.088,0.066,0.182,0.125,0.279,0.183c0.454,0.248,0.997,0.357,1.515,0.355c0.089,0,0.177-0.004,0.266-0.012c0.153-0.018,0.305-0.04,0.452-0.076c0.147-0.036,0.285-0.081,0.417-0.139c0.588-0.237,1.018-0.645,1.161-1.063C8.053,40.509,7.88,40.23,7.774,39.93c-0.143-0.396-0.194-0.813-0.14-1.17c0.039-0.255,0.134-0.479,0.29-0.646l0.229,0.215c-0.11,0.116-0.179,0.285-0.208,0.479c-0.047,0.303,0,0.666,0.125,1.019c0.125,0.354,0.329,0.692,0.594,0.94c0.214,0.2,0.471,0.348,0.761,0.392c0.702,0.106,1.288-0.005,1.712-0.238c0.082-0.045,0.155-0.095,0.225-0.146c0.056-0.043,0.106-0.09,0.153-0.142c0.045-0.261,0.303-1.325,1.351-1.405c0.078-0.141,0.162-0.345,0.227-0.572c0.021-0.07,0.039-0.137,0.052-0.197c0.015-0.066,0.028-0.132,0.039-0.195c0.017-0.104,0.026-0.209,0.026-0.3c0-0.848-0.346-1.532-0.754-1.981c-0.086-0.096-0.173-0.178-0.262-0.25c-0.086-0.068-0.173-0.133-0.257-0.183l0,0c-0.048-0.026-0.091-0.051-0.132-0.069l0.127-0.285c0.054,0.024,0.108,0.052,0.162,0.083l0,0c0.097,0.058,0.199,0.127,0.298,0.211c0.102,0.082,0.201,0.176,0.294,0.281c0.22,0.242,0.421,0.547,0.573,0.899c0.787-0.124,1.541-0.396,2.177-0.633c0.091-0.034,0.173-0.063,0.333-0.122l0.119-0.042l0.067,0.104c0.004,0.006,1.079,1.78,3.454,1.774c0.095,0,0.192-0.003,0.292-0.009c0.171-0.012,0.341-0.026,0.508-0.053c0.169-0.024,0.333-0.058,0.486-0.094c0.605-0.146,1.126-0.382,1.507-0.658c-0.084-0.015-0.168-0.021-0.253-0.041c-0.188-0.047-0.372-0.108-0.547-0.186c-0.85-0.354-1.565-1.009-1.939-1.75l0.279-0.142c0.342,0.678,0.999,1.272,1.781,1.604c0.164,0.067,0.333,0.125,0.501,0.169c0.173,0.04,0.348,0.07,0.523,0.086c0.091,0.008,0.177,0.012,0.259,0.012c0.335,0,0.69-0.104,1.044-0.262c0.361-0.162,0.722-0.384,1.059-0.611c0.7-0.479,0.942-0.95,1.024-1.2c-2.242,0.061-2.7-1.104-2.702-1.107l-0.06-0.147l0.149-0.059c1.53-0.594,3.216-0.98,4.887-0.907c0.327,0.015,0.653,0.048,0.977,0.099c0.322,0.051,0.644,0.122,0.964,0.214l0,0l0.004,0.001l0.083,0.024l0.023,0.081c0.002,0.004,0.497,1.634,2.436,1.557l0.013,0.313c-0.372,0.015-0.683-0.039-0.966-0.118c-0.004,0.059-0.015,0.119-0.009,0.177c0.026,0.308,0.188,0.607,0.45,0.854c0.268,0.252,0.64,0.443,1.077,0.539c0.255,0.053,0.534,0.068,0.828,0.045l0.026,0.312c-0.324,0.028-0.633,0.01-0.918-0.052c-0.495-0.104-0.917-0.327-1.226-0.616c-0.315-0.298-0.515-0.667-0.549-1.054c-0.008-0.099,0.004-0.199,0.018-0.299c-0.951-0.394-1.345-1.219-1.446-1.482c-0.281-0.078-0.568-0.139-0.856-0.185c-0.311-0.05-0.625-0.08-0.94-0.094c-1.561-0.069-3.141,0.277-4.591,0.82c0.203,0.278,0.83,0.863,2.518,0.765l0.182-0.011l-0.017,0.183c0,0.002-0.061,0.831-1.2,1.609c-0.35,0.237-0.727,0.467-1.109,0.638c-0.112,0.051-0.223,0.081-0.335,0.12c0.22,0.302,0.527,0.433,1.208,0.69c0.165,0.063,0.348,0.134,0.538,0.209l0,0c0.206,0.08,0.4,0.189,0.58,0.322c0.179,0.131,0.344,0.278,0.493,0.44c0.147,0.16,0.283,0.335,0.404,0.517c0.482,0.715,0.739,1.521,0.739,1.918c0,0.108-0.004,0.225-0.011,0.338c-0.037,0.51-0.147,1.096-0.255,1.685c-0.136,0.722-0.271,1.448-0.271,2.03c0.002,0.529,0.158,0.951,0.313,1.375c0.143,0.388,0.285,0.777,0.327,1.261c0.067,0.778,0.162,1.45,0.335,2.086c0.175,0.633,0.43,1.235,0.819,1.883c0.158,0.261,0.31,0.505,0.457,0.74c0.722,1.155,1.325,2.125,1.327,3.022c0.002,0.928-0.206,1.513-0.359,1.813c0.35-0.021,0.997-0.129,1.675-0.552c0.396-0.246,0.819-0.558,1.215-0.979c0.365-0.394,0.7-0.898,0.97-1.531c-0.491-0.354-0.947-0.75-1.323-1.188c-0.272-0.313-0.508-0.646-0.689-0.99c-0.186-0.347-0.32-0.707-0.387-1.07c-0.021-0.108-0.037-0.221-0.043-0.326l0.311-0.023c0.009,0.1,0.022,0.198,0.039,0.294c0.063,0.333,0.184,0.663,0.354,0.982c0.171,0.321,0.394,0.635,0.65,0.932c1.278,1.478,3.437,2.556,4.974,2.55c2.092-0.005,4.074-1.062,4.079-1.063l0.154-0.08l0.064,0.16l0.002,0.003v0.001c0.065,0.164,0.129,0.355,0.188,0.572c0.061,0.218,0.115,0.453,0.162,0.696c0.25,1.275,0.361,2.954,0.175,4.202c-0.069,0.473-0.173,0.768-0.376,0.954l0,0c-0.208,0.188-0.495,0.25-0.936,0.251c-0.499,0.002-0.802-0.055-1.018-0.16c-0.229-0.111-0.35-0.268-0.497-0.462c-0.601-0.805-1.109-1.348-1.617-1.687c-0.497-0.33-1.003-0.469-1.61-0.469c-1.077,0.002-1.28,0.448-1.431,0.787l0,0l-0.006,0.016c0.065,0.113,0.164,0.344,0.164,0.725c0.002,0.771-0.441,1.167-0.609,1.289c-0.024,0.146-0.041,0.32-0.028,0.521c0.013,0.17,0.063,0.356,0.139,0.552c0.084-0.071,0.171-0.147,0.279-0.222c0.151-0.101,0.318-0.183,0.48-0.197l0,0l0.006-0.002H35.8c0.035-0.004,0.086-0.006,0.147-0.01c0.059-0.005,0.132-0.007,0.218-0.009c0.419-0.008,1.066,0.011,1.483,0.123l-0.082,0.304c-0.385-0.104-0.997-0.119-1.396-0.109c-0.073,0.001-0.145,0.003-0.208,0.006c-0.056,0.002-0.102,0.006-0.134,0.01h-0.004c-0.104,0.014-0.225,0.072-0.339,0.148c-0.123,0.083-0.24,0.183-0.326,0.257c-0.387,0.333-0.454,0.735-0.513,1.101c-0.004,0.016-0.008,0.041-0.011,0.062c0.899,0.768,0.621,1.868,0.534,2.135c0.028,0.078,0.061,0.154,0.097,0.229c0.045,0.086,0.095,0.168,0.149,0.242c0.242,0.336,0.582,0.565,0.956,0.661c-0.047-0.512-0.02-1.235,0.35-1.873v-0.001c0.301-0.515,0.644-0.824,1.051-0.986c0.402-0.16,0.858-0.168,1.392-0.084l-0.048,0.312c-0.482-0.077-0.886-0.071-1.23,0.063c-0.339,0.138-0.629,0.402-0.893,0.854c-0.35,0.602-0.359,1.313-0.305,1.777v0.003c0.008,0.067,0.02,0.125,0.028,0.182c0.11-0.089,0.21-0.149,0.279-0.167c0.067-0.014,0.147-0.021,0.231-0.014c0.227,0.015,0.517,0.109,0.774,0.322c0.255,0.207,0.48,0.523,0.582,0.988c0.045,0.197,0.061,0.428,0.052,0.678c0.086,0.022,0.199,0.061,0.294,0.104c0.476,0.213,0.774,0.342,1.074,0.395c0.298,0.053,0.614,0.028,1.13-0.057c0.826-0.137,1.403-0.477,1.781-1.055c0.387-0.596,0.575-1.45,0.614-2.604l0.004-0.149h0.151c0,0,0.16,0,0.353-0.021c-0.286-0.266-0.4-0.581-0.571-1.48l0.307-0.059c0.225,1.176,0.329,1.244,0.94,1.651l0.16,0.106l0,0c1.063,0.717,2.041,0.849,2.855,0.709c0.16-0.025,0.313-0.063,0.458-0.106s0.286-0.097,0.417-0.153h-0.002l0.004-0.002h0.004c0.715-0.313,0.828-0.888,0.843-1.335c0.004-0.087,0.002-0.161,0.002-0.231c-0.08-0.073-0.156-0.146-0.216-0.228c-0.073-0.103-0.132-0.206-0.175-0.313l0,0c-0.022-0.058-0.039-0.108-0.054-0.162c-0.026-0.106-0.039-0.219-0.039-0.332c-0.002-0.648,0.223-1.235,0.305-1.43c-0.164-0.334-0.352-0.61-0.577-0.808c-0.234-0.202-0.506-0.325-0.826-0.358c-0.923-0.103-1.684,0.525-1.686,0.527l-0.389,0.314l0.14-0.479c0.824-2.817,2.823-3.079,3.426-3.092c-0.078-1.619-0.158-3.396-0.158-3.396L49.2,54.639l0.173,0.01c1.055,0.071,1.854-0.078,2.447-0.359c0.512-0.246,0.871-0.594,1.106-0.979c0.238-0.393,0.353-0.824,0.381-1.244c0.032-0.479-0.059-0.93-0.206-1.276c-0.348,0.207-0.733,0.349-1.156,0.362c-0.61,0.021-1.297,0.064-1.859,0.177c-0.525,0.103-0.934,0.251-1.038,0.476l-0.283-0.134c0.153-0.331,0.644-0.53,1.262-0.649c0.579-0.107,1.282-0.157,1.909-0.182c0.865-0.029,1.593-0.584,1.986-1.389c0.082-0.166,0.149-0.346,0.199-0.531c0.049-0.188,0.084-0.383,0.099-0.584c0.006-0.089,0.011-0.178,0.011-0.264c-0.002-0.823-0.372-1.301-0.599-1.52C53.345,47.575,53.025,47.605,51.904,47.71zM16.406,34.412c-1.204,0.429-1.952,0.696-2.704,0.788l-0.037-0.311c0.718-0.087,1.453-0.35,2.637-0.773c0.467-0.166,1.005-0.357,1.632-0.572l0.102,0.297C17.403,34.057,16.871,34.247,16.406,34.412z M27.281,41.257L27.281,41.257c0.009-0.112,0.013-0.219,0.013-0.315c-0.002-0.35-0.24-1.08-0.69-1.741c-0.112-0.167-0.238-0.328-0.374-0.479c-0.139-0.146-0.286-0.283-0.445-0.398c-0.158-0.115-0.329-0.213-0.51-0.283l0,0c-0.076-0.03-0.125-0.051-0.192-0.074c-0.21,0.255-0.428,0.521-0.599,0.73v0.002l-0.117,0.143c0.43,0.239,1.494,0.943,1.496,2.098c0,0.187-0.177,0.377-0.396,0.598c-0.188,0.188-0.413,0.4-0.542,0.611c-0.028,0.043-0.054,0.096-0.078,0.146c-0.028,0.063-0.056,0.134-0.082,0.211c-0.026,0.076-0.052,0.16-0.073,0.251c-0.104,0.407-0.165,0.91-0.162,1.396c0,0.098,0.011,0.195,0.028,0.301c0.021,0.119,0.054,0.24,0.097,0.361c0.043,0.125,0.098,0.25,0.162,0.379c0.296,0.584,0.789,1.168,1.373,1.635l-0.002,0.006c0.132,0.009,0.251,0.02,0.361,0.023c0.24,0.021,0.456,0.031,0.681,0.041c-0.045-0.141-0.091-0.279-0.141-0.416c-0.167-0.448-0.331-0.896-0.331-1.481c-0.002-0.612,0.136-1.354,0.272-2.086C27.139,42.327,27.247,41.751,27.281,41.257zM12.993,41.855c0.216-0.263,0.404-0.604,0.465-0.959l0,0c0.013-0.082,0.021-0.164,0.021-0.244c-0.002-0.08-0.008-0.162-0.026-0.243v-0.003c-0.071-0.338-0.423-0.741-0.549-0.877c-0.774,0.049-1.007,0.806-1.068,1.095C12.263,40.855,12.773,41.539,12.993,41.855zM8.973,54.034c0.763,0.329,1.697,0.442,2.698,0.233c0.348-0.072,0.707-0.194,1.068-0.354c-0.346-0.313-0.692-0.643-1.055-1.005c-0.394-0.396-0.621-1.07-0.713-1.404c-1.25,0.646-2.521,0.894-3.75,0.703c0.035,0.108,0.063,0.228,0.112,0.33C7.637,53.175,8.218,53.708,8.973,54.034z M6.762,57.152c-0.113,0-0.257,0.037-0.411,0.097c-0.083,0.031-0.162,0.069-0.24,0.11c-0.162,0.086-0.315,0.188-0.437,0.301c-0.061,0.054-0.112,0.109-0.151,0.165C5.949,57.975,7,58.404,7.332,59.124c0.886-0.176,1.269-0.876,1.377-1.122c-0.326-0.324-0.765-0.557-1.171-0.695c-0.1-0.033-0.197-0.063-0.288-0.084C7.159,57.2,7.071,57.182,6.991,57.17C6.904,57.158,6.826,57.152,6.762,57.152z M33.6,10.367c-0.028,0.04-0.037,0.076-0.061,0.113c0.045,0.005,0.086,0.007,0.129,0.013c0.69,0.093,1.438,0.333,2.093,0.78c0.527,0.359,0.903,0.658,1.197,0.99c0.298,0.335,0.506,0.698,0.688,1.181l0.004,0.012c0.088,0.24,0.143,0.475,0.197,0.706c2.222,0.097,2.464-1.56,2.483-2.03c-0.718-0.152-1.258-0.298-1.727-0.59c-0.5-0.31-0.903-0.778-1.327-1.581c-0.158-0.296-0.56-0.811-0.977-1.196v0.001c-0.082-0.076-0.162-0.145-0.24-0.206l0,0c-0.08-0.062-0.156-0.114-0.227-0.157H35.83V8.401c-0.281-0.164-0.579-0.295-0.903-0.377c-0.281-0.072-0.583-0.098-0.904-0.086c0.015,0.162,0.035,0.315,0.035,0.505C34.06,9.719,33.792,10.099,33.6,10.367z M8.127,66.664c-0.099-0.128-0.211-0.225-0.322-0.278c-0.067-0.032-0.13-0.05-0.184-0.05c-0.1,0-0.229,0.055-0.368,0.15c-0.112,0.078-0.227,0.185-0.333,0.31c-0.106,0.126-0.201,0.272-0.276,0.437l0,0c-0.1,0.219-0.16,0.459-0.16,0.718c0,0.352,0.1,0.591,0.177,0.724c0.24-0.216,0.787-0.59,1.649-0.521c0.013-0.021,0.023-0.053,0.039-0.088c0.015-0.043,0.028-0.09,0.039-0.141c0.004-0.021,0.011-0.05,0.015-0.079c0.013-0.085,0.021-0.176,0.021-0.265c0-0.15-0.021-0.294-0.056-0.426C8.316,66.963,8.229,66.796,8.127,66.664z M17.26,67.672c-0.353,0.001-0.627,0.115-0.83,0.279c-0.201,0.164-0.331,0.378-0.394,0.58l0,0c-0.015,0.048-0.026,0.096-0.032,0.142c0.804,0.313,0.99,0.962,1.027,1.328c1.094-0.631,0.817-1.933,0.724-2.263C17.576,67.691,17.412,67.671,17.26,67.672z M22.61,15.452c-0.015-0.01-0.002,0,0.006,0.006c0.002-0.001,0.002-0.003-0.004-0.006H22.61z M21.797,16.483c0.171,0.105,0.283,0.171,0.396,0.215c0.115,0.044,0.238,0.072,0.443,0.108c0.049,0.009,0.104,0.021,0.155,0.031c-0.026-0.051-0.069-0.097-0.091-0.151c-0.067-0.172-0.104-0.362-0.104-0.593l-0.002-0.132c-0.002-0.22-0.004-0.365-0.011-0.462c0-0.02,0.007-0.028,0.015-0.034c-0.374,0.006-0.43,0.038-0.467,0.111l0,0l-0.043,0.086v0.001c-0.188,0.377-0.024,0.053,0.002,0.004v-0.003l0.002-0.001l-0.002,0.004c-0.032,0.067-0.1,0.207-0.164,0.376C21.873,16.183,21.828,16.338,21.797,16.483z M13.59,20.473c-0.013,0.565,0.095,2.457,1.913,2.252c-0.125-0.58-0.024-1.293-0.024-1.296l0.018-0.137h0.138c0.002,0,0.268,0.008,0.912,0.002c1.79-0.016,3.048-0.118,3.993-0.286c0.932-0.167,1.547-0.399,2.064-0.681c0.804-0.44,1.747-0.932,2.334-1.189c0.039-0.017,0.069-0.027,0.106-0.042c-0.32-0.107-0.711-0.206-1.085-0.282c-0.127-0.026-0.259-0.049-0.389-0.071c-0.127-0.021-0.244-0.039-0.341-0.052c-0.156-0.02-0.283-0.03-0.366-0.03c-0.255,0-0.65,0.035-1.1,0.08l0.009,0.009l-0.004,0.002c-0.188,0.152-0.415,0.301-0.677,0.444c-0.259,0.143-0.551,0.276-0.871,0.402C18.613,20.226,16.247,20.633,13.59,20.473zM11.212,30.604c0.508,0.316,1.206,0.482,2.159,0.492l0.216-0.093c1.219-0.525,2.622-1.129,3.5-1.655c-0.534-0.163-1.046-0.555-1.342-1.075c-0.078-0.135-0.141-0.279-0.186-0.429c-0.037-0.122-0.054-0.251-0.065-0.38c-0.488,0.072-0.689,0.096-0.765,0.103c-0.877,0.522-1.697,0.98-2.464,1.309c-0.705,0.303-1.368,0.489-2.003,0.528C10.466,29.917,10.765,30.325,11.212,30.604z M25.208,28.808c0.562-0.463,2.589-2.018,4.545-2.021c0.882-0.002,2.073,0.339,3.294,1.228c0.25,0.183,0.506,0.391,0.761,0.624c0.251,0.231,0.501,0.488,0.752,0.774c0.119,0.137,0.233,0.277,0.346,0.419c0.664,0.554,1.239,0.89,1.792,1.085c0.553,0.196,1.091,0.255,1.677,0.254c2.179-0.005,3.072-2.128,3.32-2.89l-0.078,0.02c-0.075,0.017-0.16,0.035-0.252,0.053c-0.409,0.078-0.925,0.136-1.453,0.137c-0.104,0.001-0.21-0.001-0.312-0.005c-0.246-0.01-0.493-0.031-0.739-0.066c-0.249-0.036-0.499-0.086-0.746-0.151c-1.202-0.32-2.354-1.013-3.167-2.286c-0.024-0.037-0.057-0.077-0.098-0.12v-0.001c-0.099-0.106-0.242-0.222-0.419-0.341c-0.182-0.125-0.396-0.251-0.631-0.374c-1.159-0.607-2.857-1.174-3.984-1.172c-1.053,0.002-2.203,0.209-2.334,0.232c-1.016,0.473-1.591,0.919-1.924,1.401c-0.331,0.48-0.432,1.011-0.499,1.65c-0.063,0.615-0.007,1.091,0.097,1.418C25.174,28.723,25.191,28.767,25.208,28.808z M17.606,29.123c0.16,0.002,0.327,0.001,0.495-0.006c0.168-0.006,0.339-0.019,0.517-0.037c0.893-0.09,1.863-0.325,2.864-0.765l0.015-0.005c0.279-0.123,0.564-0.255,0.843-0.384c0.949-0.439,1.794-0.816,2.428-0.829c0.073-0.628,0.19-1.166,0.536-1.667c0.298-0.431,0.774-0.83,1.516-1.233c-0.586-0.003-1.496,0.021-2.292,0.18c-0.836,0.167-1.318,0.439-1.766,0.69c-0.456,0.258-0.882,0.496-1.588,0.599c-0.093,0.127-0.301,0.257-0.569,0.386c-0.253,0.12-0.568,0.243-0.893,0.36c-2.041,0.733-2.929,0.862-3.592,0.958c-0.061,0.009-0.108,0.016-0.21,0.031c-0.041,0.007-0.071,0.011-0.108,0.017c0.009,0.114,0.026,0.228,0.058,0.335c0.037,0.126,0.091,0.25,0.158,0.365c0.335,0.586,0.973,0.991,1.558,1.003L17.606,29.123z M20.941,18.92c0.067-0.037,0.112-0.077,0.175-0.114c-0.028,0.002-0.054,0.005-0.083,0.009c-0.664,0.07-1.362,0.145-1.921,0.176c-0.065,0.003-0.119,0.003-0.18,0.005v0.002c-0.004,0-0.011-0.001-0.015-0.001c-0.082,0.002-0.17,0.007-0.246,0.007c-1.455,0.003-2.659-0.391-3.104-0.558c-0.052,0.351-0.054,0.657,0.015,0.922c0.078,0.299,0.253,0.552,0.553,0.771c1.561-0.119,2.929-0.428,3.969-0.834C20.416,19.184,20.695,19.054,20.941,18.92z M49.411,10.265c-0.078,0.005-0.153,0.013-0.225,0.025c-0.084,0.013-0.167,0.033-0.247,0.056c-0.076,0.024-0.147,0.053-0.212,0.088c-0.287,0.152-0.471,0.428-0.471,0.88c0,0.099,0.011,0.198,0.028,0.293c0.013,0.062,0.028,0.12,0.047,0.175c0.022,0.056,0.043,0.109,0.071,0.157c0.108,0.194,0.281,0.338,0.523,0.387l0.006,0.001l0,0c0.089,0.018,0.209,0.03,0.35,0.042c0.149,0.011,0.316,0.017,0.489,0.021c0.923,0.021,2.192-0.03,2.685-0.072c0.082-0.007,0.153-0.037,0.218-0.083c0.069-0.05,0.13-0.118,0.182-0.198c0.054-0.084,0.099-0.179,0.134-0.275c0.074-0.199,0.106-0.404,0.106-0.545c0-0.088-0.013-0.181-0.035-0.272c-0.037-0.158-0.104-0.31-0.199-0.437c-0.093-0.121-0.209-0.218-0.348-0.271c-0.078-0.03-0.164-0.046-0.255-0.045c-0.368,0.004-0.912,0.013-1.453,0.024C50.274,10.228,49.747,10.244,49.411,10.265zM0.863,13.096c0.625,0.046,1.141,0.339,1.496,0.854c0.203-0.141,0.592-0.533,0.396-1.394c-0.225-0.124-1.072-0.547-1.731-0.287l0,0c-0.482,0.191-0.676,0.601-0.75,0.853c0.063-0.011,0.125-0.018,0.188-0.023C0.597,13.087,0.733,13.086,0.863,13.096z M54.026,12.926c-0.167-0.106-0.339-0.192-0.517-0.257c-0.173-0.065-0.348-0.108-0.519-0.127l0,0c-0.063-0.007-0.123-0.011-0.177-0.012v-0.023c-0.099,0.063-0.205,0.113-0.331,0.124l0,0c-0.495,0.042-1.779,0.095-2.717,0.073c-0.188-0.004-0.361-0.011-0.503-0.022c-0.153-0.011-0.285-0.026-0.387-0.045l-0.007-0.001h-0.002c-0.175-0.035-0.322-0.104-0.448-0.203h-0.002c-0.086,0.011-0.175,0.026-0.262,0.046c-0.091,0.021-0.179,0.047-0.266,0.078c-0.454,0.159-0.899,0.451-1.236,0.848l-0.002,0.001c-0.359,0.423-0.582,0.892-0.711,1.492c-0.136,0.615-0.177,1.364-0.175,2.333c0.002,0.656,0.154,1.336,0.478,2.042c0.326,0.712,0.83,1.45,1.528,2.214c0.692,0.757,1.172,1.342,1.481,1.883c0.315,0.555,0.454,1.061,0.456,1.647c0,0.77-0.337,1.384-0.573,1.715c0.553-0.03,0.997-0.154,1.349-0.333c0.167-0.084,0.312-0.18,0.439-0.283c0.65-0.529,0.845-1.265,0.867-1.666c0.032-0.666-0.02-1.215-0.134-1.696c-0.114-0.48-0.292-0.893-0.51-1.286h-0.002c-0.078-0.142-0.162-0.28-0.249-0.414c-0.141-0.215-0.281-0.414-0.417-0.605l0,0c-0.43-0.608-0.819-1.158-0.819-1.662h0.312c0.002,0.403,0.363,0.916,0.765,1.482h-0.002c0.145,0.202,0.292,0.412,0.424,0.615c0.093,0.144,0.182,0.289,0.264,0.435h-0.002c0.231,0.416,0.419,0.855,0.54,1.364c0.117,0.488,0.169,1.045,0.143,1.701c0.089-0.02,0.18-0.036,0.26-0.069c0.136-0.056,0.261-0.131,0.374-0.218c0.112-0.089,0.214-0.191,0.305-0.304c0.419-0.52,0.59-1.23,0.59-1.691c0-0.08-0.004-0.165-0.011-0.251c-0.095-1.332-0.912-2.515-1.554-3.445c-0.389-0.563-0.718-1.038-0.806-1.427l0.307-0.068c0.076,0.33,0.387,0.782,0.756,1.316c0.573,0.832,1.28,1.858,1.528,3.035c0.973-0.724,0.826-2.046,0.737-2.783v-0.002c-0.112-0.242-0.529-1.121-0.895-1.548c-0.065-0.077-0.134-0.148-0.201-0.218c-0.346-0.364-0.672-0.707-0.906-1.94l0.307-0.057c0.216,1.141,0.512,1.451,0.826,1.781c0.069,0.073,0.14,0.146,0.212,0.23c0.326,0.38,0.683,1.082,0.86,1.45c0.225-0.321,0.398-0.639,0.521-0.998c0.149-0.438,0.223-0.94,0.221-1.58C55.528,14.426,54.852,13.446,54.026,12.926z M2.233,35.2c0-0.119-0.026-0.296-0.056-0.46c-0.017-0.103-0.037-0.2-0.054-0.276C1.669,34.449-0.002,34.497,0,36.064c0.236-0.113,0.48-0.19,0.766-0.226c0.352-0.034,0.763-0.004,1.286,0.115C2.116,35.883,2.233,35.68,2.233,35.2z M3.381,39.992V39.99H3.379c-0.024-0.041-0.052-0.08-0.083-0.117c-0.03-0.038-0.061-0.074-0.093-0.107l0,0C3.061,39.614,2.901,39.5,2.782,39.45c-0.186,0.077-0.815,0.364-1.055,0.757v0.001L1.725,40.21c-0.035,0.062-0.065,0.126-0.088,0.196c-0.024,0.07-0.042,0.146-0.054,0.227v0.001c-0.05,0.343,0.011,0.735,0.153,1.06c0.233-0.241,0.75-0.616,1.747-0.659C3.496,40.766,3.508,40.193,3.381,39.992z M21.758,12.706c-0.02,0.119-0.021,0.247,0.024,0.424c0.063,0.236,0.208,0.561,0.45,1.002c0.16-0.026,0.249-0.066,0.329-0.108c0.017-0.01,0.039-0.019,0.058-0.029l0.011-0.166c0.03-0.441,0.061-0.819,0.192-1.144c-0.026,0.003-0.056,0.005-0.082,0.009c-0.147,0.019-0.298,0.038-0.544,0.039C22.04,12.734,21.895,12.724,21.758,12.706zM38.258,15.756c-0.445-0.367-0.562-0.877-0.689-1.429c-0.057-0.25-0.117-0.511-0.21-0.762l-0.004-0.011c-0.168-0.448-0.359-0.78-0.629-1.084c-0.272-0.308-0.633-0.592-1.139-0.938c-0.612-0.418-1.312-0.642-1.958-0.729c-0.127-0.017-0.25-0.029-0.374-0.037c-0.075-0.004-0.145-0.003-0.218-0.004c0.013,0.176,0.022,0.356,0.03,0.546c0.026,0.691,0.054,1.395,0.312,1.707c0.156,0.187,0.354,0.329,0.612,0.426c0.266,0.102,0.596,0.157,1.005,0.167l0.199,0.007l-0.052,0.191c-0.002,0.003-0.171,0.622-0.689,1.155c0.642,0.245,1.185,0.546,1.643,0.994c0.5,0.485,0.915,1.128,1.306,2.016c0.067,0.152,0.143,0.28,0.214,0.415c2.397-0.171,2.724-1.705,2.761-2.219C39.483,16.256,38.899,16.285,38.258,15.756zM24.467,24.069c1.25-0.25,2.78-0.178,2.955-0.168c0.158-0.029,1.329-0.237,2.397-0.239c1.176-0.003,2.936,0.58,4.129,1.207c0.25,0.131,0.475,0.263,0.664,0.391c0.095,0.065,0.181,0.129,0.259,0.192c-0.301-1.299-1.775-2.615-3.303-3.37c-0.346-0.171-0.696-0.313-1.036-0.418c-0.335-0.104-0.662-0.173-0.962-0.199c-0.097-0.009-0.186-0.013-0.268-0.013c-1.221,0.003-2.998,0.284-4.693,0.689c-0.343,0.083-0.689,0.172-1.029,0.265c-0.339,0.094-0.666,0.19-0.973,0.288v0.001c-0.136,0.043-0.255,0.082-0.359,0.117c-0.512,0.172-0.97,0.271-1.459,0.325c-0.482,0.053-0.992,0.062-1.615,0.054c-0.566-0.009-1.13-0.008-1.407-0.005c0.063,0.414,0.195,0.724,0.376,0.974c0.205,0.284,0.478,0.496,0.78,0.696c0.084,0.056,0.151,0.103,0.214,0.146c0.353,0.246,0.583,0.406,1.25,0.404c1.137-0.002,1.651-0.293,2.22-0.613C23.077,24.529,23.581,24.245,24.467,24.069z M37.114,18.097c-0.376-0.85-0.77-1.461-1.239-1.918c-0.46-0.448-1.003-0.75-1.673-0.987c-0.409,0.318-0.975,0.557-1.768,0.517c0.076,0.366,0.434,1.19,2.127,1.097l0.179-0.01l-0.015,0.179c0,0.002-0.084,0.985-0.843,1.702c-0.095,0.089-0.19,0.17-0.288,0.25c0.069,0.01,0.132-0.002,0.205,0.017c0.206,0.051,0.424,0.134,0.646,0.244c1.118,0.555,2.393,1.813,2.888,2.997c0.119,0.285,0.231,0.53,0.344,0.742c0.342,0.018,1.5,0.022,2.477-0.716c0.696-0.525,0.817-1.277,0.834-1.595c-0.834,0.019-1.563-0.11-2.196-0.473C38.117,19.754,37.56,19.107,37.114,18.097z M25.511,19.263c-0.034,0.004-0.088,0.02-0.16,0.045c-0.078,0.027-0.175,0.067-0.288,0.117c-0.579,0.253-1.513,0.74-2.311,1.177c-0.545,0.297-1.191,0.542-2.16,0.714c-0.955,0.17-2.23,0.273-4.042,0.29c-0.216,0.002-0.577,0.001-0.776,0c-0.03,0.323-0.078,1.123,0.192,1.44c0.086,0.101,0.158,0.2,0.229,0.295c0.123,0.168,0.24,0.329,0.398,0.447l0.002,0.001c0.032,0.024,0.071,0.046,0.117,0.068c0.047,0.022,0.106,0.046,0.171,0.068c0.266,0.091,0.603,0.143,0.845,0.114c-0.141-0.274-0.255-0.584-0.294-0.996l-0.018-0.172h0.173c0.002,0,0.569-0.009,1.589,0.005c0.605,0.009,1.104,0,1.576-0.052c0.467-0.052,0.906-0.147,1.395-0.312c0.134-0.044,0.255-0.084,0.363-0.119h0.002c0.317-0.101,0.648-0.199,0.983-0.291c0.335-0.092,0.683-0.181,1.04-0.267c1.714-0.411,3.519-0.695,4.764-0.698c0.1,0,0.199,0.004,0.294,0.012c0.324,0.028,0.672,0.102,1.029,0.213c0.16,0.05,0.324,0.133,0.489,0.197c-0.21-0.335-0.653-0.57-0.655-0.571l-0.045-0.026l-0.024-0.05c-0.462-1.074-1.455-1.399-2.054-1.595c-0.188-0.062-0.331-0.115-0.437-0.178c-0.29,0.015-0.674,0.033-1.05,0.051c-0.61,0.029-1.191,0.058-1.336,0.069v-0.001L25.511,19.263z M4.6,31.302c0.227,0.012,0.947-0.017,1.126-0.851c-0.249-0.27-1.427-1.403-2.7-0.382c0.402,0.151,0.707,0.33,0.949,0.526C4.246,30.815,4.436,31.054,4.6,31.302z M39.671,24.457c-0.121-0.008-0.236-0.018-0.342-0.029c-0.105-0.012-0.209-0.028-0.302-0.046h-0.002l-0.052-0.011V24.37c-0.493-0.111-0.845-0.314-1.144-0.655c-0.29-0.33-0.523-0.783-0.785-1.409v-0.001c-0.469-1.119-1.677-2.31-2.736-2.836c-0.203-0.101-0.4-0.176-0.582-0.222c-0.177-0.043-0.339-0.06-0.48-0.041l-0.006,0.001l-0.006-0.05c-0.074,0.041-0.134,0.089-0.223,0.124c-0.292,0.114-0.666,0.186-1.191,0.196c0.586,0.517,1.628,1.685,1.299,3.205c1.169,0.887,2.08,2.045,2.118,3.169c0.11,0.17,0.24,0.305,0.361,0.454c0.91,0.265,1.755,0.438,2.503,0.437c0.739-0.001,1.386-0.172,1.904-0.593c0.759-0.617,0.988-1.371,1.055-1.726C40.7,24.472,40.153,24.486,39.671,24.457z M8.631,28.783c0.149,0.083,0.315,0.154,0.503,0.208c0.19,0.054,0.4,0.091,0.633,0.107c0.089,0.005,0.177,0.009,0.266,0.009c0.655-0.001,1.355-0.197,2.11-0.519c0.696-0.299,1.441-0.714,2.23-1.178c-1.081-0.624-1.232-1.479-1.217-1.92c-0.504,0.204-0.999,0.458-1.433,0.691c-0.426,0.229-0.8,0.429-1.089,0.525v-0.001l-0.002,0.001c-1.202,0.396-2.589,0.56-3.074,0.607C7.685,27.811,7.985,28.42,8.631,28.783z M3.906,18.863c-0.363,0.285-1.007,0.408-1.593,0.418c-0.121,0.002-0.238,0.001-0.346-0.005l-0.045-0.002c0.739,1.393,2.155,1.059,2.524,0.944C4.54,19.1,4.07,18.898,3.906,18.863zM11.64,23.886c-0.385,0.313-0.797,0.506-1.2,0.624c-0.397,0.119-0.785,0.165-1.124,0.185c-0.385,0.024-0.938,0.02-1.217,0.015c0.05,0.397,0.309,1.437,1.658,1.916c0.262-0.063,0.523-0.133,0.776-0.217h0.002v-0.001c0.268-0.087,0.629-0.281,1.04-0.502c0.491-0.263,1.053-0.56,1.632-0.779l0.015-0.067l0.08,0.014c0.13-0.098,0.29-0.201,0.478-0.307c0.208-0.119,0.447-0.241,0.696-0.358c0.247-0.116,0.504-0.225,0.746-0.319c0.353-0.134,0.679-0.237,0.936-0.288c-0.076-0.087-0.145-0.18-0.214-0.276c-0.067-0.092-0.136-0.186-0.212-0.276H15.73c-0.05-0.06-0.091-0.133-0.127-0.211c-0.793,0.112-1.323-0.094-1.669-0.445c-0.052,0.015-0.104,0.029-0.173,0.055c-0.1,0.039-0.21,0.087-0.329,0.144C12.816,23.089,12.008,23.588,11.64,23.886z M16.19,24.479c0.203-0.099,0.393-0.189,0.573-0.265c-0.065-0.022-0.127-0.047-0.184-0.075c-0.054-0.026-0.1-0.053-0.141-0.081v0.019c-0.218,0.001-0.638,0.125-1.104,0.304c-0.238,0.093-0.486,0.199-0.727,0.311c-0.238,0.111-0.469,0.229-0.674,0.346c-0.056,0.031-0.104,0.062-0.153,0.093c0.114,0.009,0.235,0.017,0.359,0.016C14.815,25.146,15.559,24.786,16.19,24.479z M14.714,27.254c0.078-0.007,0.337-0.037,1.148-0.162v-0.001l0.212-0.031h0.002c0.651-0.094,1.522-0.222,3.53-0.942c0.312-0.112,0.616-0.231,0.865-0.35c0.039-0.019,0.067-0.037,0.102-0.055c-0.061,0.002-0.119,0.006-0.184,0.006c-0.765,0.002-1.027-0.179-1.429-0.459c-0.067-0.046-0.139-0.096-0.208-0.142c-0.329-0.218-0.629-0.452-0.863-0.774c-0.002-0.004-0.004-0.011-0.006-0.015c-0.117,0.026-0.249,0.035-0.396,0.027v0.003c-0.018-0.004-0.039-0.003-0.061-0.004c-0.009,0-0.018,0-0.026-0.002c-0.004,0-0.007,0-0.011,0l0,0c-0.247,0.013-0.627,0.198-1.063,0.41c-0.66,0.319-1.438,0.697-2.188,0.699c-0.247,0-0.506-0.026-0.668-0.046C13.441,25.756,13.488,26.657,14.714,27.254z"/>
<rect x="64.964" y="8.738" fill="#1A1A1A" width="0.8" height="52.938"/>
<path fill="#1A1A1A" d="M75,18h4.648c0.701,0,1.3,0.069,1.799,0.207c0.499,0.138,0.909,0.354,1.231,0.647c0.322,0.294,0.557,0.67,0.706,1.131c0.149,0.459,0.223,1.016,0.223,1.666c0,0.905-0.167,1.619-0.499,2.139c-0.332,0.521-0.821,0.822-1.464,0.907c0.446,0.128,0.791,0.271,1.035,0.435c0.244,0.164,0.428,0.357,0.552,0.584c0.124,0.228,0.204,0.49,0.239,0.791c0.036,0.301,0.067,0.652,0.096,1.058c0,0.049,0.009,0.254,0.026,0.614c0.017,0.361,0.037,0.916,0.059,1.666c0.014,0.445,0.067,0.837,0.159,1.174s0.269,0.636,0.531,0.896h-3.068c-0.085-0.298-0.142-0.625-0.17-0.982c-0.028-0.356-0.049-0.755-0.063-1.192c0-0.05-0.002-0.133-0.005-0.25c-0.004-0.117-0.009-0.256-0.016-0.419c-0.007-0.163-0.012-0.343-0.016-0.542c-0.004-0.197-0.005-0.402-0.005-0.615c0-0.445-0.05-0.807-0.149-1.082c-0.099-0.276-0.254-0.488-0.467-0.637c-0.213-0.149-0.483-0.25-0.812-0.304c-0.329-0.053-0.724-0.079-1.183-0.079h-0.892v6.104h-2.494L75,18L75,18z M78.991,23.89c0.375,0,0.691-0.034,0.95-0.105c0.258-0.07,0.465-0.188,0.621-0.351c0.155-0.162,0.267-0.377,0.334-0.643s0.101-0.592,0.101-0.98c0-0.375-0.042-0.684-0.127-0.924c-0.085-0.24-0.218-0.431-0.398-0.567c-0.181-0.14-0.411-0.235-0.69-0.292c-0.28-0.058-0.614-0.085-1.003-0.085h-1.284v3.947H78.991z"/>
<path fill="#1A1A1A" d="M85.891,18h7.142v2.304H88.47v3.216h4.267v2.219H88.47v3.832h4.68v2.346h-7.259V18z"/>
<path fill="#1A1A1A" d="M95.54,18h4.5c0.679,0,1.263,0.073,1.751,0.218c0.488,0.146,0.888,0.375,1.2,0.689c0.311,0.314,0.541,0.723,0.689,1.221c0.149,0.499,0.223,1.104,0.223,1.812c0,1.387-0.32,2.409-0.96,3.071c-0.641,0.662-1.619,0.992-2.935,0.992h-1.889v5.912H95.54V18z M99.233,24.092c0.389,0,0.722-0.035,0.998-0.105c0.276-0.071,0.5-0.188,0.674-0.352c0.173-0.162,0.301-0.379,0.382-0.646c0.081-0.271,0.122-0.6,0.122-0.988c0-0.417-0.041-0.76-0.122-1.029c-0.082-0.269-0.209-0.479-0.382-0.631c-0.173-0.151-0.396-0.257-0.668-0.313c-0.272-0.057-0.6-0.085-0.982-0.085H98.12v4.149H99.233L99.233,24.092z"/>
<path fill="#1A1A1A" d="M108.722,18v9.372c0,0.48,0.023,0.896,0.069,1.247c0.046,0.351,0.135,0.637,0.266,0.859c0.131,0.224,0.313,0.388,0.546,0.492c0.233,0.107,0.534,0.16,0.902,0.16c0.368,0,0.667-0.055,0.897-0.165c0.229-0.108,0.408-0.276,0.536-0.504c0.128-0.227,0.214-0.515,0.26-0.865c0.046-0.351,0.069-0.766,0.069-1.247v-9.351h2.568v9.605c0,0.333-0.005,0.646-0.016,0.938c-0.011,0.294-0.039,0.571-0.085,0.833c-0.046,0.262-0.117,0.51-0.212,0.743c-0.095,0.233-0.225,0.456-0.387,0.669c-0.743,0.969-1.96,1.453-3.651,1.453c-0.828,0-1.521-0.086-2.08-0.26c-0.559-0.175-1.008-0.447-1.348-0.822c-0.34-0.375-0.581-0.855-0.722-1.443s-0.212-1.291-0.212-2.111v-9.605L108.722,18L108.722,18z"/>
<path fill="#1A1A1A" d="M117.66,18h4.171c1.203,0,2.094,0.276,2.675,0.828c0.58,0.552,0.87,1.408,0.87,2.568c0,1.833-0.58,2.845-1.74,3.035c0.644,0.1,1.151,0.421,1.522,0.966c0.372,0.545,0.558,1.291,0.558,2.239c0,1.472-0.31,2.554-0.929,3.242c-0.619,0.689-1.583,1.035-2.892,1.035h-4.235V18z M121.046,23.657c0.332,0,0.608-0.033,0.828-0.103c0.219-0.065,0.396-0.178,0.53-0.334c0.134-0.154,0.228-0.361,0.281-0.621c0.054-0.258,0.079-0.573,0.079-0.948c0-0.348-0.029-0.633-0.09-0.859s-0.159-0.407-0.297-0.541c-0.139-0.135-0.32-0.229-0.547-0.281c-0.227-0.054-0.51-0.08-0.85-0.08h-0.807v3.769L121.046,23.657L121.046,23.657z M121.269,29.94c0.332,0,0.611-0.039,0.838-0.117c0.227-0.077,0.412-0.203,0.558-0.377c0.146-0.173,0.249-0.398,0.313-0.68c0.063-0.278,0.096-0.619,0.096-1.023c0-0.438-0.037-0.803-0.111-1.093c-0.074-0.29-0.197-0.521-0.367-0.69c-0.17-0.169-0.389-0.287-0.658-0.354c-0.268-0.066-0.594-0.102-0.976-0.102h-0.786v4.438L121.269,29.94L121.269,29.94z"/>
<path fill="#1A1A1A" d="M127.595,18h2.602v11.548h4.682v2.367h-7.282L127.595,18L127.595,18z"/>
<path fill="#1A1A1A" d="M137.119,18h2.601v13.915h-2.601V18z"/>
<path fill="#1A1A1A" d="M149.908,26.958c0,0.085,0.004,0.172,0.012,0.26c0.006,0.089,0.011,0.184,0.011,0.281c0,1.606-0.341,2.799-1.019,3.577c-0.68,0.778-1.717,1.167-3.111,1.167c-0.655,0-1.223-0.081-1.696-0.244c-0.476-0.162-0.894-0.432-1.252-0.807c-0.297-0.312-0.529-0.668-0.695-1.071c-0.165-0.403-0.29-0.868-0.377-1.396c-0.084-0.527-0.137-1.116-0.157-1.768c-0.021-0.65-0.031-1.376-0.031-2.176c0-1.338,0.049-2.443,0.146-3.316c0.101-0.874,0.283-1.534,0.552-1.979c0.375-0.65,0.842-1.113,1.401-1.391c0.563-0.275,1.263-0.414,2.103-0.414c0.707,0,1.313,0.09,1.821,0.267c0.509,0.177,0.925,0.454,1.248,0.833c0.324,0.379,0.563,0.858,0.722,1.442c0.156,0.584,0.235,1.279,0.242,2.086h-2.507V21.98c0-1.5-0.491-2.25-1.479-2.25c-0.401,0-0.711,0.095-0.926,0.281c-0.215,0.188-0.373,0.485-0.471,0.895c-0.1,0.408-0.156,0.928-0.174,1.562c-0.02,0.636-0.027,1.397-0.027,2.289c0,0.972,0.01,1.797,0.027,2.478c0.016,0.68,0.074,1.234,0.174,1.668c0.1,0.432,0.256,0.745,0.467,0.938c0.213,0.195,0.519,0.293,0.914,0.293c0.316,0,0.578-0.057,0.779-0.17c0.201-0.113,0.359-0.291,0.479-0.531c0.115-0.239,0.197-0.552,0.244-0.934c0.045-0.383,0.068-0.838,0.068-1.369v-0.17L149.908,26.958L149.908,26.958z"/>
<path fill="#1A1A1A" d="M157.357,23.051c0.023-0.614,0.084-1.192,0.18-1.733c0.096-0.542,0.238-1.035,0.43-1.48c0.191-0.446,0.453-0.828,0.785-1.146c0.334-0.318,0.752-0.566,1.258-0.743c0.507-0.177,1.117-0.267,1.832-0.267c0.687,0,1.273,0.078,1.763,0.233c0.487,0.156,0.899,0.379,1.235,0.669s0.604,0.647,0.802,1.071c0.196,0.426,0.354,0.908,0.463,1.449s0.181,1.135,0.213,1.776c0.029,0.646,0.047,1.338,0.047,2.081c0,0.645-0.01,1.272-0.03,1.884c-0.021,0.612-0.078,1.188-0.17,1.73c-0.093,0.541-0.234,1.036-0.427,1.485c-0.188,0.448-0.452,0.835-0.789,1.156c-0.338,0.322-0.756,0.572-1.258,0.754c-0.504,0.181-1.119,0.271-1.849,0.271c-0.715,0-1.321-0.09-1.825-0.271c-0.502-0.182-0.92-0.432-1.252-0.754c-0.334-0.321-0.597-0.708-0.791-1.156c-0.193-0.449-0.341-0.944-0.437-1.485c-0.096-0.542-0.156-1.119-0.18-1.73c-0.025-0.61-0.037-1.239-0.037-1.884C157.318,24.304,157.33,23.668,157.357,23.051zM160.013,27.327c0.029,0.658,0.107,1.2,0.234,1.625c0.127,0.425,0.315,0.738,0.567,0.939c0.25,0.202,0.601,0.304,1.045,0.304c0.445,0,0.793-0.102,1.041-0.304c0.246-0.201,0.431-0.516,0.552-0.939c0.12-0.425,0.192-0.967,0.219-1.625c0.022-0.659,0.037-1.441,0.037-2.349c0-0.906-0.015-1.69-0.037-2.354c-0.025-0.662-0.099-1.208-0.219-1.637c-0.121-0.43-0.308-0.746-0.558-0.951c-0.252-0.205-0.604-0.309-1.058-0.309c-0.444,0-0.795,0.104-1.047,0.309c-0.25,0.205-0.436,0.521-0.557,0.951c-0.121,0.429-0.195,0.975-0.225,1.637c-0.027,0.662-0.041,1.446-0.041,2.354C159.972,25.885,159.986,26.668,160.013,27.327z"/>
<path fill="#1A1A1A" d="M168.601,18h7.281v2.282h-4.682v3.29h4.416v2.208h-4.416v6.135H168.6L168.601,18L168.601,18z"/>
<path fill="#1A1A1A" d="M183.273,18h4.172c1.201,0,2.094,0.276,2.674,0.828c0.58,0.552,0.871,1.408,0.871,2.568c0,1.833-0.582,2.845-1.742,3.035c0.646,0.1,1.152,0.421,1.523,0.966s0.557,1.291,0.557,2.239c0,1.472-0.309,2.554-0.928,3.242c-0.619,0.689-1.584,1.035-2.893,1.035h-4.234V18z M186.658,23.657c0.332,0,0.607-0.033,0.828-0.103c0.219-0.065,0.395-0.178,0.529-0.334c0.135-0.154,0.229-0.361,0.281-0.621c0.055-0.258,0.08-0.573,0.08-0.948c0-0.348-0.031-0.633-0.09-0.859c-0.062-0.227-0.16-0.407-0.3-0.541c-0.137-0.135-0.319-0.229-0.545-0.281c-0.229-0.054-0.51-0.08-0.853-0.08h-0.807v3.769L186.658,23.657L186.658,23.657z M186.88,29.94c0.332,0,0.611-0.039,0.838-0.117c0.229-0.077,0.412-0.203,0.559-0.377c0.145-0.173,0.25-0.398,0.313-0.68c0.064-0.278,0.099-0.619,0.099-1.023c0-0.438-0.037-0.803-0.11-1.093c-0.074-0.29-0.197-0.521-0.367-0.69s-0.39-0.287-0.658-0.354c-0.268-0.066-0.594-0.102-0.977-0.102h-0.785v4.438L186.88,29.94L186.88,29.94z"/>
<path fill="#1A1A1A" d="M195.978,18v9.372c0,0.48,0.023,0.896,0.068,1.247c0.047,0.351,0.135,0.637,0.266,0.859c0.131,0.224,0.313,0.388,0.547,0.492c0.232,0.107,0.535,0.16,0.902,0.16s0.666-0.055,0.896-0.165c0.229-0.108,0.408-0.276,0.535-0.504c0.129-0.227,0.215-0.515,0.261-0.865c0.047-0.35,0.069-0.766,0.069-1.247v-9.351h2.565v9.605c0,0.333-0.004,0.646-0.016,0.938c-0.01,0.293-0.039,0.571-0.084,0.833c-0.047,0.262-0.117,0.51-0.213,0.743c-0.096,0.233-0.227,0.456-0.389,0.669c-0.742,0.969-1.959,1.453-3.65,1.453c-0.828,0-1.521-0.086-2.08-0.26c-0.559-0.175-1.008-0.447-1.348-0.822s-0.58-0.855-0.723-1.443c-0.142-0.588-0.213-1.291-0.213-2.111v-9.605L195.978,18L195.978,18z"/>
<path fill="#1A1A1A" d="M204.544,18h2.602v11.548h4.68v2.367h-7.281V18L204.544,18z"/>
<path fill="#1A1A1A" d="M219.212,30.376c-0.133,0.34-0.291,0.627-0.471,0.865c-0.183,0.236-0.394,0.43-0.634,0.578c-0.239,0.147-0.519,0.256-0.828,0.322c-0.311,0.067-0.663,0.102-1.063,0.102c-0.799,0-1.454-0.152-1.969-0.456c-0.512-0.304-0.916-0.772-1.209-1.406c-0.293-0.634-0.498-1.435-0.608-2.402c-0.113-0.971-0.17-2.119-0.17-3.45c0-1.268,0.063-2.331,0.188-3.194c0.129-0.863,0.354-1.539,0.68-2.027c0.375-0.552,0.857-0.961,1.449-1.227c0.59-0.265,1.324-0.397,2.203-0.397c1.492,0,2.594,0.354,3.305,1.057c0.711,0.705,1.066,1.799,1.066,3.285v0.371h-2.42v-0.149c0-1.677-0.615-2.517-1.848-2.517c-0.486,0-0.863,0.106-1.129,0.317c-0.267,0.213-0.463,0.541-0.59,0.986c-0.127,0.445-0.201,1.012-0.224,1.697s-0.03,1.502-0.03,2.447c0,0.862,0.021,1.604,0.067,2.229c0.045,0.621,0.135,1.133,0.267,1.531c0.131,0.398,0.317,0.694,0.563,0.886c0.244,0.19,0.561,0.286,0.949,0.286c0.354,0,0.65-0.062,0.893-0.182c0.24-0.12,0.436-0.306,0.584-0.558c0.148-0.25,0.254-0.57,0.316-0.96c0.063-0.39,0.098-0.854,0.098-1.391V26.54h-1.783v-2.219h4.287v7.59h-1.762L219.212,30.376z"/>
<path fill="#1A1A1A" d="M225.562,18h3.48l3.151,13.915h-2.78l-0.699-3.503h-2.974l-0.68,3.503h-2.633L225.562,18z M228.341,26.332l-1.104-5.827l-1.082,5.827H228.341z"/>
<path fill="#1A1A1A" d="M233.585,18h4.649c0.699,0,1.3,0.069,1.8,0.207c0.498,0.138,0.907,0.354,1.229,0.647c0.322,0.294,0.559,0.67,0.707,1.131c0.148,0.459,0.223,1.016,0.223,1.666c0,0.905-0.166,1.619-0.498,2.139c-0.332,0.521-0.82,0.822-1.465,0.907c0.445,0.128,0.791,0.271,1.033,0.435c0.244,0.164,0.43,0.357,0.555,0.584c0.123,0.228,0.203,0.49,0.236,0.791c0.035,0.301,0.068,0.652,0.098,1.058c0,0.049,0.008,0.254,0.025,0.614c0.018,0.361,0.037,0.916,0.059,1.666c0.014,0.445,0.066,0.837,0.16,1.174c0.092,0.337,0.268,0.636,0.529,0.896h-3.066c-0.084-0.298-0.143-0.625-0.17-0.982c-0.027-0.356-0.051-0.755-0.064-1.192c0-0.05-0.002-0.133-0.004-0.25c-0.004-0.117-0.01-0.256-0.016-0.419c-0.01-0.163-0.014-0.343-0.018-0.542c-0.004-0.197-0.006-0.402-0.006-0.615c0-0.445-0.049-0.807-0.146-1.082c-0.102-0.276-0.256-0.488-0.469-0.637s-0.482-0.25-0.813-0.304c-0.329-0.053-0.725-0.079-1.184-0.079h-0.894v6.104h-2.494V18H233.585z M237.578,23.89c0.375,0,0.691-0.034,0.949-0.105c0.258-0.07,0.465-0.188,0.621-0.351c0.154-0.162,0.268-0.377,0.334-0.643s0.102-0.592,0.102-0.98c0-0.375-0.043-0.684-0.129-0.924c-0.084-0.24-0.217-0.431-0.396-0.567c-0.183-0.14-0.41-0.235-0.688-0.292c-0.279-0.058-0.613-0.085-1.004-0.085h-1.283v3.947H237.578z"/>
<path fill="#1A1A1A" d="M244.572,18h2.6v13.915h-2.6V18z"/>
<path fill="#1A1A1A" d="M252.152,18h3.48l3.152,13.915h-2.781l-0.701-3.503h-2.971l-0.681,3.503h-2.633L252.152,18z M254.931,26.332l-1.104-5.827l-1.082,5.827H254.931z"/>
<path fill="#1A1A1A" d="M75.005,39h3.851c1.416,0,2.467,0.287,3.153,0.863c0.688,0.574,1.031,1.459,1.031,2.648c0,0.93-0.208,1.666-0.623,2.215s-1.059,0.934-1.931,1.154c0.384,0.029,0.719,0.104,1.004,0.227c0.286,0.123,0.526,0.293,0.722,0.514c0.195,0.219,0.349,0.494,0.46,0.82c0.111,0.328,0.188,0.717,0.23,1.162c0.049,0.521,0.083,1.002,0.104,1.434s0.052,0.82,0.094,1.166s0.108,0.645,0.199,0.895c0.091,0.252,0.23,0.457,0.418,0.617h-1.903c-0.099-0.166-0.17-0.367-0.216-0.602c-0.045-0.232-0.077-0.502-0.099-0.805c-0.021-0.307-0.04-0.643-0.058-1.012c-0.019-0.369-0.043-0.771-0.079-1.203c-0.035-0.486-0.11-0.891-0.226-1.209c-0.114-0.314-0.286-0.568-0.513-0.758s-0.518-0.318-0.874-0.395c-0.356-0.072-0.792-0.107-1.308-0.107h-1.946v6.088H75V39H75.005z M78.363,45.277c1.053,0,1.834-0.201,2.343-0.605c0.509-0.402,0.764-1.051,0.764-1.947c0-0.854-0.229-1.465-0.69-1.828c-0.46-0.364-1.171-0.547-2.134-0.547H76.5v4.928H78.363L78.363,45.277z"/>
<path fill="#1A1A1A" d="M91.284,49.242c-0.014,1.221-0.292,2.152-0.832,2.793c-0.541,0.643-1.32,0.963-2.338,0.963c-1.116,0-1.931-0.436-2.443-1.309c-0.513-0.871-0.769-2.199-0.769-3.986c0-1.875,0.255-3.268,0.767-4.174c0.51-0.906,1.336-1.359,2.477-1.359c1.077,0,1.869,0.379,2.377,1.141c0.508,0.76,0.762,1.91,0.762,3.451c0,0.141,0,0.283,0,0.43c0,0.147-0.007,0.298-0.021,0.449h-4.886v0.471c0,1.229,0.142,2.148,0.424,2.764c0.283,0.614,0.755,0.922,1.418,0.922c0.495,0,0.896-0.217,1.198-0.646c0.303-0.436,0.455-1.039,0.455-1.82v-0.084h1.412L91.284,49.242L91.284,49.242z M89.851,46.48v-0.283c0-1.896-0.551-2.846-1.652-2.846c-0.628,0-1.088,0.256-1.381,0.771c-0.293,0.512-0.439,1.299-0.439,2.358H89.851z"/>
<path fill="#1A1A1A" d="M94.674,53.656c0.063,0.844,0.617,1.268,1.664,1.268c0.363,0,0.669-0.059,0.92-0.174s0.457-0.291,0.618-0.527c0.16-0.238,0.277-0.537,0.35-0.899c0.073-0.362,0.11-0.796,0.11-1.298c0-0.063-0.003-0.139-0.01-0.225c-0.007-0.088-0.01-0.197-0.01-0.33c-0.203,0.475-0.496,0.828-0.879,1.063c-0.385,0.231-0.849,0.35-1.393,0.35c-1.06,0-1.843-0.463-2.349-1.391c-0.506-0.929-0.759-2.334-0.759-4.218c0-3.354,1.07-5.032,3.212-5.032c0.544,0,1.006,0.125,1.386,0.37c0.38,0.248,0.646,0.603,0.8,1.063v-1.201h1.434v9.771c0,0.644-0.079,1.207-0.24,1.694c-0.161,0.487-0.393,0.899-0.696,1.233c-0.303,0.334-0.675,0.588-1.114,0.759c-0.438,0.172-0.935,0.258-1.484,0.258c-0.439,0-0.842-0.063-1.203-0.188c-0.363-0.125-0.675-0.297-0.938-0.519c-0.262-0.219-0.466-0.479-0.611-0.778c-0.146-0.3-0.22-0.627-0.22-0.984v-0.063L94.674,53.656L94.674,53.656z M94.878,50.625c0.282,0.66,0.779,0.992,1.491,0.992c0.377,0,0.691-0.088,0.947-0.262c0.255-0.176,0.457-0.436,0.606-0.779c0.15-0.344,0.256-0.773,0.319-1.289s0.094-1.119,0.094-1.809c0-1.354-0.15-2.359-0.45-3.025c-0.3-0.664-0.815-0.996-1.548-0.996c-0.342,0-0.633,0.082-0.874,0.25c-0.241,0.168-0.436,0.422-0.586,0.762c-0.149,0.342-0.258,0.773-0.324,1.297c-0.065,0.521-0.1,1.14-0.1,1.851C94.454,48.959,94.595,49.963,94.878,50.625z"/>
<path fill="#1A1A1A" d="M101.883,39h1.435v1.861h-1.435V39z M101.883,42.473h1.435v10.242h-1.435V42.473z"/>
<path fill="#1A1A1A" d="M106.643,49.629c-0.014,0.063-0.023,0.123-0.031,0.178c-0.007,0.058-0.011,0.111-0.011,0.168c0,0.561,0.157,0.982,0.472,1.275c0.313,0.293,0.777,0.439,1.392,0.439c0.565,0,1.002-0.146,1.313-0.439c0.31-0.293,0.466-0.697,0.466-1.213c0-0.307-0.041-0.557-0.121-0.748s-0.201-0.352-0.361-0.48c-0.161-0.131-0.356-0.242-0.591-0.336c-0.232-0.094-0.504-0.192-0.811-0.299c-0.523-0.18-0.974-0.357-1.351-0.533c-0.377-0.174-0.686-0.377-0.926-0.604c-0.24-0.23-0.418-0.507-0.533-0.828c-0.115-0.32-0.173-0.715-0.173-1.184c0-0.893,0.262-1.592,0.785-2.098c0.522-0.506,1.262-0.758,2.218-0.758c0.99,0,1.738,0.238,2.244,0.717c0.505,0.478,0.758,1.189,0.758,2.139v0.146h-1.371c-0.027-0.627-0.169-1.08-0.424-1.359c-0.254-0.277-0.643-0.42-1.167-0.42c-1.116,0-1.674,0.523-1.674,1.57c0,0.461,0.143,0.816,0.429,1.066c0.154,0.127,0.323,0.229,0.508,0.313c0.186,0.084,0.386,0.164,0.603,0.24c0.216,0.078,0.443,0.15,0.68,0.227c0.237,0.072,0.485,0.16,0.743,0.268c0.349,0.139,0.647,0.295,0.895,0.465c0.248,0.172,0.451,0.363,0.612,0.576c0.161,0.213,0.277,0.455,0.352,0.727c0.072,0.273,0.109,0.582,0.109,0.932c0,1.039-0.295,1.836-0.884,2.393c-0.589,0.555-1.435,0.832-2.537,0.832c-1.004,0-1.763-0.268-2.274-0.795c-0.514-0.531-0.77-1.313-0.77-2.354V49.63L106.643,49.629L106.643,49.629z"/>
<path fill="#1A1A1A" d="M115.305,51.146c0.035,0.14,0.102,0.246,0.199,0.317c0.097,0.074,0.232,0.121,0.403,0.144c0.171,0.021,0.389,0.031,0.652,0.031c0.044,0,0.092,0,0.146,0c0.057,0,0.115-0.009,0.178-0.021v1.266c-0.235,0.016-0.444,0.021-0.627,0.021c-0.175,0-0.317,0-0.43,0c-0.676,0-1.18-0.131-1.511-0.394c-0.332-0.262-0.497-0.663-0.497-1.209v-7.647h-1.412v-1.182h1.412v-2.74h1.434v2.74h1.631v1.182h-1.631v6.929C115.253,50.82,115.271,51.008,115.305,51.146z"/>
<path fill="#1A1A1A" d="M118.037,42.473h1.35v1.674c0.215-0.611,0.531-1.084,0.946-1.412c0.415-0.327,0.896-0.49,1.438-0.49c0.098,0,0.198,0,0.303,0s0.21,0.008,0.313,0.021v1.536c-0.168-0.084-0.36-0.125-0.578-0.125c-0.721,0-1.291,0.236-1.711,0.712c-0.42,0.475-0.63,1.157-0.63,2.051v6.276h-1.433L118.037,42.473L118.037,42.473z"/>
<path fill="#1A1A1A" d="M123.445,54.703c0.16,0.07,0.313,0.117,0.455,0.141c0.143,0.025,0.291,0.037,0.444,0.037c0.229,0,0.429-0.039,0.597-0.115s0.314-0.199,0.444-0.365c0.129-0.168,0.247-0.385,0.355-0.646c0.106-0.268,0.218-0.584,0.329-0.953l-3.014-10.324h1.56l2.187,8.254l2.25-8.254h1.477l-3.151,10.676c-0.146,0.521-0.303,0.973-0.471,1.348c-0.167,0.377-0.363,0.686-0.586,0.93c-0.224,0.244-0.49,0.426-0.801,0.543c-0.311,0.119-0.683,0.178-1.113,0.178c-0.252,0-0.572-0.059-0.963-0.174L123.445,54.703L123.445,54.703z"/>
<path fill="#1A1A1A" d="M142.697,52.793c-0.133,0.018-0.262,0.027-0.387,0.027c-0.41,0-0.732-0.127-0.967-0.383c-0.232-0.254-0.363-0.619-0.393-1.094c-0.209,0.537-0.521,0.943-0.937,1.221c-0.414,0.274-0.906,0.412-1.478,0.412c-0.738,0-1.313-0.25-1.729-0.748c-0.414-0.498-0.621-1.201-0.621-2.107c0-0.531,0.063-0.971,0.188-1.324c0.125-0.352,0.313-0.648,0.564-0.889c0.25-0.241,0.568-0.447,0.951-0.617c0.385-0.172,0.838-0.34,1.361-0.508c0.299-0.105,0.553-0.193,0.758-0.27c0.207-0.07,0.373-0.15,0.502-0.238c0.129-0.086,0.223-0.188,0.275-0.305c0.059-0.113,0.084-0.26,0.084-0.434v-0.963c0-0.436-0.127-0.742-0.382-0.928c-0.256-0.186-0.641-0.275-1.153-0.275c-0.521,0-0.9,0.131-1.152,0.393c-0.25,0.262-0.375,0.676-0.375,1.238v0.168h-1.35c0.02-1.039,0.27-1.799,0.752-2.281c0.479-0.479,1.24-0.721,2.285-0.721c0.969,0,1.68,0.219,2.131,0.658c0.451,0.438,0.68,1.145,0.68,2.111v5.996c0,0.258,0.045,0.443,0.137,0.561c0.09,0.113,0.244,0.174,0.459,0.174c0.035,0,0.07,0,0.105,0c0.041,0,0.084-0.008,0.125-0.021v1.088C142.976,52.758,142.83,52.775,142.697,52.793z M140.193,47.662c-0.271,0.111-0.59,0.23-0.947,0.355c-0.272,0.098-0.514,0.195-0.717,0.299c-0.203,0.102-0.373,0.227-0.506,0.377c-0.133,0.146-0.23,0.336-0.301,0.559c-0.066,0.225-0.1,0.506-0.1,0.848c0,0.517,0.112,0.914,0.338,1.193c0.225,0.279,0.543,0.418,0.957,0.418c0.295,0,0.563-0.057,0.801-0.168s0.443-0.273,0.617-0.486c0.172-0.213,0.305-0.475,0.397-0.785c0.097-0.309,0.144-0.66,0.144-1.051v-2.029C140.695,47.395,140.466,47.551,140.193,47.662z"/>
<path fill="#1A1A1A" d="M146.087,53.656c0.063,0.844,0.617,1.268,1.662,1.268c0.362,0,0.67-0.059,0.922-0.174c0.25-0.115,0.457-0.291,0.617-0.527c0.16-0.238,0.276-0.537,0.35-0.899c0.074-0.362,0.111-0.796,0.111-1.298c0-0.063-0.004-0.139-0.013-0.225c-0.006-0.088-0.01-0.197-0.01-0.33c-0.203,0.475-0.496,0.828-0.879,1.063c-0.386,0.231-0.849,0.35-1.396,0.35c-1.059,0-1.842-0.463-2.348-1.391c-0.506-0.929-0.758-2.334-0.758-4.218c0-3.354,1.07-5.032,3.211-5.032c0.545,0,1.006,0.125,1.387,0.37c0.379,0.248,0.646,0.603,0.801,1.063v-1.201h1.435v9.771c0,0.644-0.08,1.207-0.24,1.694s-0.394,0.899-0.694,1.233c-0.303,0.334-0.675,0.588-1.113,0.759c-0.439,0.172-0.937,0.258-1.486,0.258c-0.438,0-0.84-0.063-1.203-0.188s-0.676-0.297-0.938-0.519c-0.26-0.219-0.465-0.479-0.611-0.778c-0.146-0.3-0.219-0.627-0.219-0.984v-0.063L146.087,53.656L146.087,53.656z M146.291,50.625c0.283,0.66,0.779,0.992,1.492,0.992c0.375,0,0.691-0.088,0.945-0.262c0.256-0.176,0.457-0.436,0.607-0.779c0.147-0.344,0.256-0.773,0.315-1.289c0.063-0.516,0.097-1.119,0.097-1.809c0-1.354-0.148-2.359-0.449-3.025c-0.301-0.664-0.816-0.996-1.551-0.996c-0.343,0-0.634,0.082-0.871,0.25c-0.24,0.168-0.438,0.422-0.588,0.762c-0.148,0.342-0.259,0.773-0.322,1.297c-0.066,0.521-0.103,1.14-0.103,1.851C145.867,48.959,146.009,49.963,146.291,50.625z"/>
<path fill="#1A1A1A" d="M159.384,49.242c-0.014,1.221-0.291,2.152-0.832,2.793c-0.541,0.643-1.32,0.963-2.338,0.963c-1.115,0-1.93-0.436-2.443-1.309c-0.512-0.871-0.768-2.199-0.768-3.986c0-1.875,0.254-3.268,0.766-4.174s1.336-1.359,2.477-1.359c1.078,0,1.871,0.379,2.377,1.141c0.508,0.76,0.763,1.91,0.763,3.451c0,0.141,0,0.283,0,0.43c0,0.147-0.007,0.298-0.021,0.449h-4.887v0.471c0,1.229,0.141,2.148,0.424,2.764c0.281,0.614,0.754,0.922,1.418,0.922c0.494,0,0.895-0.217,1.197-0.646c0.303-0.436,0.455-1.039,0.455-1.82v-0.084h1.412V49.242L159.384,49.242z M157.951,46.48v-0.283c0-1.896-0.551-2.846-1.652-2.846c-0.627,0-1.088,0.256-1.381,0.771c-0.293,0.512-0.438,1.299-0.438,2.358H157.951z"/>
<path fill="#1A1A1A" d="M161.31,42.473h1.35v1.267c0.502-0.995,1.359-1.495,2.574-1.495c0.48,0,0.883,0.063,1.207,0.188s0.582,0.313,0.775,0.564c0.191,0.25,0.326,0.568,0.408,0.951c0.08,0.385,0.119,0.834,0.119,1.35v7.418h-1.435v-7.551c0-1.104-0.488-1.656-1.47-1.656c-0.313,0-0.604,0.051-0.858,0.152c-0.26,0.102-0.479,0.25-0.662,0.445c-0.182,0.193-0.323,0.432-0.424,0.707c-0.103,0.273-0.151,0.592-0.151,0.945v6.955h-1.435L161.31,42.473L161.31,42.473z"/>
<path fill="#1A1A1A" d="M176.25,49.117c0,1.262-0.283,2.225-0.854,2.887c-0.568,0.662-1.371,0.994-2.41,0.994c-1.15,0-1.998-0.451-2.543-1.355c-0.543-0.901-0.816-2.281-0.816-4.137c0-1.779,0.285-3.109,0.854-3.992s1.438-1.324,2.608-1.324c0.476,0,0.904,0.076,1.287,0.229c0.386,0.146,0.711,0.364,0.979,0.646c0.271,0.281,0.479,0.625,0.623,1.029c0.146,0.404,0.219,0.859,0.219,1.361v0.209h-1.422c-0.021-0.732-0.174-1.283-0.455-1.654c-0.282-0.369-0.672-0.553-1.168-0.553c-0.368,0-0.68,0.082-0.93,0.246c-0.252,0.164-0.453,0.416-0.603,0.754c-0.149,0.34-0.258,0.768-0.324,1.285c-0.065,0.517-0.1,1.131-0.1,1.836c0,0.713,0.033,1.332,0.1,1.857c0.064,0.521,0.175,0.953,0.322,1.295c0.15,0.338,0.351,0.59,0.601,0.756c0.25,0.164,0.561,0.246,0.93,0.246c0.535,0,0.947-0.223,1.235-0.66c0.287-0.439,0.445-1.092,0.476-1.955H176.25L176.25,49.117z"/>
<path fill="#1A1A1A" d="M177.882,54.703c0.16,0.07,0.313,0.117,0.455,0.141c0.141,0.025,0.289,0.037,0.442,0.037c0.229,0,0.431-0.039,0.597-0.115c0.168-0.076,0.315-0.199,0.444-0.365c0.13-0.168,0.248-0.385,0.354-0.646c0.105-0.268,0.22-0.584,0.33-0.953l-3.014-10.324h1.559l2.188,8.254l2.248-8.254h1.478l-3.15,10.676c-0.145,0.521-0.303,0.973-0.471,1.348c-0.166,0.377-0.361,0.686-0.586,0.93c-0.223,0.244-0.49,0.426-0.799,0.543c-0.312,0.119-0.685,0.178-1.115,0.178c-0.25,0-0.57-0.059-0.961-0.174V54.703L177.882,54.703z"/>
</svg>
