<svg xmlns="http://www.w3.org/2000/svg" viewBox="0 0 512 512">
<path fill="#404040" d="M451.722,78.785h-35.439V52.203c0-24.367-19.938-44.303-44.306-44.303h-17.721
	c-24.367,0-44.305,19.936-44.305,44.303v26.582H203.624V52.203c0-24.367-19.937-44.303-44.304-44.303h-17.721
	c-24.367,0-44.304,19.936-44.304,44.303v26.583H61.853c-19.381,0-35.442,16.06-35.442,35.442v354.425
	c0,19.381,16.06,35.44,35.442,35.44h389.869c19.381,0,35.443-16.058,35.443-35.44V114.227
	C487.165,94.845,471.106,78.785,451.722,78.785z M345.397,52.203c0-4.708,4.15-8.861,8.858-8.861h17.721
	c4.707,0,8.86,4.153,8.86,8.861v79.746c0,4.708-4.153,8.861-8.86,8.861h-17.721c-4.708,0-8.858-4.153-8.858-8.861V52.203z
	 M132.739,52.203c0-4.708,4.152-8.861,8.86-8.861h17.721c4.708,0,8.861,4.153,8.861,8.861v79.746c0,4.708-4.153,8.861-8.861,8.861
	h-17.721c-4.707,0-8.86-4.153-8.86-8.861V52.203z M451.721,468.653H61.853V185.112h389.868V468.653z M214.35,429.485
	c5.092,5.172,13.439,5.25,18.609,0.081l156.788-155.539c5.174-5.092,5.251-13.477,0.078-18.646l-30.87-31.147
	c-5.17-5.133-13.478-5.17-18.65-0.078L223.988,339.61l-50.423-50.93c-5.133-5.169-13.475-5.169-18.607,0l-31.147,30.87
	c-5.173,5.096-5.21,13.481-0.078,18.651L214.35,429.485z"/>
</svg>
