<svg xmlns="http://www.w3.org/2000/svg" viewBox="0 0 512 512">
<path fill="#FFFFFF" d="M447,131.9V464c0,26.5-21.5,48-48,48H111c-26.5,0-48-21.5-48-48V48c0-26.5,21.5-48,48-48h204.1
	C327.8,0,340,5.1,349,14.1L432.9,98C441.9,106.9,447,119.2,447,131.9z"/>
<path fill="#527C00" d="M448,131.9V464c0,26.5-21.5,48-48,48H112c-26.5,0-48-21.5-48-48V48c0-26.5,21.5-48,48-48h204.1
	C328.8,0,341,5.1,350,14.1L433.9,98C442.9,106.9,448,119.2,448,131.9z M320,51.9V128h76.1L320,51.9z M400,464V176H296
	c-13.3,0-24-10.7-24-24V48H112v416H400z"/>
<path fill="#5E5E5E" d="M352,248v28c0,6.6-5.4,12-12,12H172c-6.6,0-12-5.4-12-12v-28c0-6.6,5.4-12,12-12h168
	C346.6,236,352,241.4,352,248z"/>
<path fill="#5E5E5E" d="M340,320H172c-6.6,0-12,5.4-12,12v28c0,6.6,5.4,12,12,12h168c6.6,0,12-5.4,12-12v-28
	C352,325.4,346.6,320,340,320z"/>
</svg>
