<svg xmlns="http://www.w3.org/2000/svg" viewBox="0 0 512 512">
<circle opacity="0.6" fill="#FFFFFF" enable-background="new    " cx="256" cy="256" r="246.833"/>
<path fill="#767676" d="M256,28C130.079,28,28,130.079,28,256s102.079,228,228,228c125.922,0,228-102.079,228-228S381.922,28,256,28
	z M256,465.536c-115.724,0-209.537-93.813-209.537-209.536S140.276,46.463,256,46.463c115.725,0,209.536,93.813,209.536,209.537
	S371.725,465.536,256,465.536z"/>
<g>
	<path fill="#767676" d="M244.687,236.5c-6.249-6.249-6.249-16.38,0-22.627c6.248-6.249,16.377-6.249,22.627-0.001l86.001,86.002
		c6.249,6.249,6.249,16.38,0,22.627c-6.247,6.249-16.378,6.249-22.628,0L244.687,236.5z"/>
	<path fill="#767676" d="M240.007,225.186c0-8.837,7.164-16,16-15.999c8.835-0.001,15.999,7.162,16,16l-0.001,185.625
		c0,8.836-7.16,15.995-15.999,15.995c-8.836,0.005-16-7.159-16-16V225.186L240.007,225.186z"/>
	<path fill="#767676" d="M244.688,213.873c6.249-6.249,16.378-6.249,22.626-0.001c6.25,6.249,6.25,16.38,0,22.628l-86.001,86.003
		c-6.249,6.248-16.379,6.247-22.627,0c-6.25-6.249-6.249-16.38,0-22.63L244.688,213.873z"/>
</g>
<path fill="#767676" d="M147.188,169.19c-8.837,0-16-7.164-16-16.001c0-8.836,7.163-15.999,16-16l217.625,0.001
	c8.84,0,16,7.163,16,15.999c0.004,8.837-7.16,16-16,16L147.188,169.19z"/>
</svg>
