<svg xmlns="http://www.w3.org/2000/svg" viewBox="0 0 512 512">
<path fill="none" d="M368,444c-11,0-20,9-20,20s9,20,20,20s20-9,20-20S379,444,368,444z"/>
<path fill="none" d="M432,444c-11,0-20,9-20,20s9,20,20,20s20-9,20-20S443,444,432,444z"/>
<path fill="#5E5E5E" d="M488,352H352v8c0,30.9-25.1,56-56,56h-80c-30.9,0-56-25.1-56-56v-8H24c-13.3,0-24,10.7-24,24v112
	c0,13.3,10.7,24,24,24h464c13.3,0,24-10.7,24-24V376C512,362.7,501.3,352,488,352z M368,484c-11,0-20-9-20-20s9-20,20-20s20,9,20,20
	S379,484,368,484z M432,484c-11,0-20-9-20-20s9-20,20-20s20,9,20,20S443,484,432,484z"/>
<path fill="#527C00" d="M104.3,192H192v168c0,13.3,10.7,24,24,24h80c13.3,0,24-10.7,24-24V192h87.7c17.8,0,26.701-21.5,14.1-34.1
	L269.6,5.7c-7.5-7.5-19.8-7.5-27.3,0L90.2,157.9C77.6,170.5,86.5,192,104.3,192z"/>
</svg>
